<?xml version="1.0" encoding="UTF-8" standalone="no"?><svg xmlns="http://www.w3.org/2000/svg" xmlns:xlink="http://www.w3.org/1999/xlink" clip-rule="evenodd" stroke-miterlimit="10" viewBox="0 0 161 165"><desc>SVG generated by Keynote</desc><defs></defs><g transform="matrix(1.00, 0.00, -0.00, -1.00, 0.0, 165.0)"><image xlink:href="../../60252C77-7F6D-4FAE-860E-2CB847E39FFD/assets/C19EFD055914B295DAE4DC3345A0C50B.png" width="158.00" height="158.00" transform="matrix(1.00, 0.00, -0.00, -1.00, 1.6, 159.3)" opacity="0.50"></image><g><clipPath id="clip0x6080016b4160"><path d="M 6.0 157.0 L 156.0 157.0 L 156.0 7.0 L 6.0 7.0 Z M 5.6 157.3 "></path></clipPath><g clip-path="url(#clip0x6080016b4160)"><image xlink:href="../../60252C77-7F6D-4FAE-860E-2CB847E39FFD/assets/BF7F347A5AA08698479112B0B19D9FB4.png" width="512.00" height="512.00" transform="matrix(0.50, 0.00, -0.00, -0.50, 6.0, 157.0)"></image></g></g><image xlink:href="../../60252C77-7F6D-4FAE-860E-2CB847E39FFD/assets/3677141D9747B1A30C66340D49BD047A.png" width="113.00" height="37.00" transform="matrix(1.00, 0.00, -0.00, -1.00, 25.0, 99.0)"></image><g><clipPath id="clip0x6080016b4340"><path d="M -5.9 7.3 L 167.1 7.3 L 167.1 157.3 L -5.9 157.3 Z M -5.9 7.3 "></path></clipPath><g clip-path="url(#clip0x6080016b4340)"><text xml:space="preserve" font-family="HelveticaNeue-Medium,Helvetica Neue" font-size="42.0" fill="#FEFFFE" transform="matrix(1.00, 0.00, -0.00, -1.00, 25.3, 66.6)">L</text><text xml:space="preserve" font-family="HelveticaNeue-Medium,Helvetica Neue" font-size="42.0" fill="#FEFFFE" transform="matrix(1.00, 0.00, -0.00, -1.00, 49.4, 66.6)">D</text><text xml:space="preserve" font-family="HelveticaNeue-Medium,Helvetica Neue" font-size="42.0" fill="#FEFFFE" transform="matrix(1.00, 0.00, -0.00, -1.00, 79.8, 66.6)">A</text><text xml:space="preserve" font-family="HelveticaNeue-Medium,Helvetica Neue" font-size="42.0" fill="#FEFFFE" transform="matrix(1.00, 0.00, -0.00, -1.00, 107.8, 66.6)">P</text></g></g></g></svg>