<?xml version="1.0" encoding="UTF-8" standalone="no"?><svg xmlns="http://www.w3.org/2000/svg" xmlns:xlink="http://www.w3.org/1999/xlink" clip-rule="evenodd" stroke-miterlimit="10" viewBox="0 0 39 103"><desc>SVG generated by Keynote</desc><defs></defs><g transform="matrix(1.00, 0.00, -0.00, -1.00, 0.0, 103.0)"><path d="M 21.7 42.9 C 21.4 42.5 21.8 41.5 21.5 41.3 M 21.7 42.9 C 23.1 41.9 23.2 40.2 23.5 37.8 C 23.6 35.3 22.2 37.9 21.5 37.6 C 21.0 34.3 22.0 34.3 23.6 34.8 C 22.5 33.5 24.4 29.7 22.5 30.5 C 22.5 35.8 22.0 26.7 20.8 31.2 C 20.5 31.7 20.0 30.4 20.0 29.9 C 19.2 31.4 18.2 28.8 17.6 31.2 C 16.4 31.5 16.9 31.1 16.0 32.6 C 15.8 33.3 16.3 33.0 16.5 33.0 C 18.0 33.2 15.7 34.8 16.6 36.0 C 14.7 37.2 17.0 38.4 17.8 37.4 C 17.6 38.5 15.6 39.8 16.9 41.0 C 16.0 41.6 16.6 44.7 17.8 42.8 C 18.6 41.5 19.2 43.0 19.6 43.2 C 20.0 42.7 19.4 40.9 19.8 40.6 C 20.1 41.2 20.8 43.5 20.7 41.0 C 21.4 41.8 21.8 40.6 21.7 42.9 C 21.7 42.9 21.7 42.9 21.7 42.9 Z M 22.8 33.8 C 23.3 33.8 22.7 34.7 22.8 33.8 C 22.8 33.8 22.8 33.8 22.8 33.8 Z M 16.0 40.0 C 16.5 40.0 16.0 40.9 16.0 40.0 C 16.0 40.0 16.0 40.0 16.0 40.0 Z M 16.5 33.4 C 17.0 33.4 16.5 34.3 16.5 33.4 C 16.5 33.4 16.5 33.4 16.5 33.4 Z M 22.4 36.2 C 22.0 37.6 21.7 35.0 22.2 34.8 C 22.1 35.1 22.9 35.8 22.4 36.2 C 22.4 36.2 22.4 36.2 22.4 36.2 Z M 19.5 36.4 C 19.7 36.5 19.8 37.1 19.2 37.0 C 19.1 36.6 19.3 36.3 19.5 36.4 C 19.5 36.4 19.5 36.4 19.5 36.4 Z M 21.6 29.3 C 21.8 29.4 21.8 30.0 21.3 30.0 C 21.2 29.6 21.4 29.2 21.6 29.3 C 21.6 29.3 21.6 29.3 21.6 29.3 Z M 21.1 37.8 C 21.0 38.2 20.5 38.3 20.5 37.9 C 20.7 37.7 20.8 36.7 21.1 37.8 C 21.1 37.8 21.1 37.8 21.1 37.8 Z M 22.8 40.0 C 22.5 41.2 21.8 38.8 22.0 38.8 C 22.4 38.5 23.2 39.4 22.8 40.0 C 22.8 40.0 22.8 40.0 22.8 40.0 Z M 20.4 38.5 C 20.1 39.5 20.0 38.1 20.4 38.5 C 20.4 38.5 20.4 38.5 20.4 38.5 Z M 17.8 30.3 C 17.6 31.3 17.5 29.9 17.8 30.3 C 17.8 30.3 17.8 30.3 17.8 30.3 Z M 16.2 35.5 C 16.0 36.5 15.9 35.1 16.2 35.5 C 16.2 35.5 16.2 35.5 16.2 35.5 Z M 21.4 33.6 C 21.5 31.8 22.7 33.3 21.4 33.6 C 21.4 33.6 21.4 33.6 21.4 33.6 Z M 22.9 42.8 C 22.9 41.1 24.2 42.6 22.9 42.8 C 22.9 42.8 22.9 42.8 22.9 42.8 Z M 22.4 72.1 C 22.7 73.7 24.4 67.5 22.4 69.9 C 20.7 70.5 20.9 66.4 22.4 67.5 C 22.6 66.2 22.7 66.2 21.9 65.5 C 23.1 65.3 23.7 62.4 23.1 61.4 C 22.1 60.8 23.0 63.3 21.9 61.7 C 21.6 58.1 20.7 61.9 19.4 60.5 C 19.4 60.4 20.0 60.3 19.7 60.0 C 18.4 59.9 17.5 62.0 16.6 61.0 C 16.8 61.6 15.4 64.2 16.5 63.1 C 17.7 62.7 15.0 65.9 17.0 65.7 C 16.1 66.6 17.4 67.5 16.2 68.3 C 16.0 69.0 17.1 68.9 17.3 68.9 C 18.2 68.8 15.3 69.6 16.9 70.7 C 16.4 70.8 16.6 73.7 17.3 71.5 C 17.2 72.1 16.7 75.5 18.5 73.7 C 19.3 71.4 20.3 76.1 20.4 73.4 C 20.6 71.3 20.2 70.8 21.2 72.4 C 21.1 72.9 21.2 75.3 22.0 73.3 C 21.8 72.8 22.0 71.8 22.4 72.1 C 22.4 72.1 22.4 72.1 22.4 72.1 Z M 19.9 72.5 C 19.8 71.3 20.5 72.4 19.9 72.5 C 19.9 72.5 19.9 72.5 19.9 72.5 Z M 15.9 68.1 C 15.8 66.9 16.5 68.0 15.9 68.1 C 15.9 68.1 15.9 68.1 15.9 68.1 Z M 22.9 68.3 C 22.3 67.7 24.2 67.5 22.9 68.3 C 22.9 68.3 22.9 68.3 22.9 68.3 Z M 17.3 70.2 C 17.3 70.1 17.5 70.4 17.7 70.6 C 17.6 70.6 17.3 70.3 17.3 70.2 C 17.3 70.2 17.3 70.2 17.3 70.2 Z M 22.9 66.2 C 22.0 64.4 24.3 65.9 22.9 66.2 C 22.9 66.2 22.9 66.2 22.9 66.2 Z M 21.1 62.6 C 19.3 62.4 21.5 60.7 21.1 62.6 C 21.1 62.6 21.1 62.6 21.1 62.6 Z M 17.1 65.1 C 17.5 65.4 16.9 65.4 17.1 65.1 C 17.1 65.1 17.1 65.1 17.1 65.1 Z M 16.9 73.0 C 17.3 73.4 16.6 73.4 16.9 73.0 C 16.9 73.0 16.9 73.0 16.9 73.0 Z M 17.3 62.8 C 18.0 63.0 16.9 63.5 17.3 62.8 C 17.3 62.8 17.3 62.8 17.3 62.8 Z M 22.1 68.0 C 23.6 69.6 20.0 70.0 22.1 68.0 C 22.1 68.0 22.1 68.0 22.1 68.0 Z M 22.3 70.9 C 22.6 72.1 21.4 70.7 21.6 70.2 C 21.8 70.3 22.2 70.8 22.3 70.9 C 22.3 70.9 22.3 70.9 22.3 70.9 Z M 22.0 66.2 C 22.7 67.3 21.6 67.3 22.0 66.2 C 22.0 66.2 22.0 66.2 22.0 66.2 Z M 22.8 69.1 C 22.6 69.7 22.6 68.6 22.8 69.1 C 22.8 69.1 22.8 69.1 22.8 69.1 Z M 23.5 64.0 C 23.3 64.5 23.3 63.5 23.5 64.0 C 23.5 64.0 23.5 64.0 23.5 64.0 Z M 23.1 72.3 C 22.9 72.9 22.9 71.9 23.1 72.3 C 23.1 72.3 23.1 72.3 23.1 72.3 Z M 22.5 64.4 C 21.9 64.3 20.5 65.9 21.7 63.0 C 22.1 62.5 23.1 63.7 22.5 64.4 C 22.5 64.4 22.5 64.4 22.5 64.4 Z M 21.6 44.3 C 23.7 41.7 20.1 42.3 19.4 42.2 C 18.5 41.9 17.8 42.2 17.2 42.7 C 14.9 43.2 19.5 43.5 17.2 43.9 C 14.2 44.6 19.9 44.7 16.7 45.0 C 15.9 44.9 16.5 45.9 16.7 45.8 C 15.2 46.3 17.9 47.0 18.2 47.0 C 17.8 47.3 14.9 47.4 17.1 48.4 C 17.8 49.2 15.0 49.5 16.9 49.3 C 14.7 49.9 17.6 49.7 16.9 50.3 C 15.7 50.7 18.7 50.3 16.4 51.1 C 18.2 51.4 15.2 50.7 16.5 52.7 C 16.7 51.7 18.0 53.6 16.7 53.2 C 15.4 52.6 17.2 54.2 16.4 55.1 C 17.1 55.3 18.8 56.4 16.9 56.2 C 14.8 57.1 18.2 57.1 16.5 57.5 C 15.8 57.8 17.3 58.0 17.2 58.2 C 15.9 58.5 16.8 58.8 16.4 59.9 C 15.7 62.5 19.7 60.3 20.2 61.3 C 20.8 61.4 25.1 60.0 21.9 60.6 C 22.8 60.4 19.4 58.4 22.9 59.4 C 21.5 58.6 24.4 59.6 22.7 58.0 C 20.2 60.1 21.7 55.5 22.9 57.6 C 23.7 57.3 23.5 56.4 22.9 57.0 C 20.7 57.3 23.9 55.5 21.2 56.4 C 22.0 55.1 19.5 55.4 21.2 55.0 C 24.2 54.7 20.4 55.1 21.3 54.4 C 21.3 52.9 24.7 54.1 22.5 53.1 C 24.0 51.6 21.2 52.8 20.8 52.3 C 18.8 52.1 22.4 50.7 22.7 51.9 C 21.6 51.2 23.6 51.7 22.3 51.0 C 20.4 51.6 24.4 50.1 22.8 50.4 C 22.3 49.7 21.2 50.0 21.2 49.9 C 21.2 48.9 23.0 49.2 21.6 49.0 C 20.9 48.8 23.3 48.4 22.7 48.2 C 22.6 49.2 20.7 47.4 21.7 47.3 C 21.9 47.9 24.2 47.0 22.7 46.7 C 18.6 47.1 23.8 45.8 22.3 45.4 C 20.0 45.8 22.0 43.3 23.1 44.2 C 22.9 44.2 21.6 44.3 21.6 44.3 M 22.4 48.0 C 22.2 48.7 21.9 47.1 22.4 48.0 M 23.0 47.9 C 22.2 48.3 23.6 47.2 23.2 48.0 C 23.2 48.0 23.0 47.9 23.0 47.9 M 23.1 51.2 C 22.4 51.1 23.4 50.8 23.1 51.2 M 21.6 51.8 C 21.0 52.3 21.5 51.1 21.6 51.8 M 22.1 59.1 C 18.7 58.3 24.0 58.3 22.1 59.1 M 22.8 54.3 C 22.3 53.4 24.2 54.6 22.8 54.3 M 21.9 54.0 C 21.4 53.6 22.7 53.9 21.9 54.0 M 22.1 57.7 C 22.0 57.7 22.0 57.7 22.1 57.7 C 22.1 57.7 22.1 57.7 22.1 57.7 Z M 22.0 59.8 C 22.1 59.8 22.1 59.8 22.0 59.8 C 22.0 59.8 22.0 59.8 22.0 59.8 Z M 21.7 55.6 C 22.5 54.9 22.0 56.7 21.7 55.6 C 21.7 55.6 21.7 55.6 21.7 55.6 Z M 16.8 58.8 C 16.7 58.8 16.7 58.8 16.8 58.8 C 16.8 58.8 16.8 58.8 16.8 58.8 Z M 20.8 47.3 C 20.8 47.3 20.8 47.3 20.8 47.3 C 20.8 47.3 20.8 47.3 20.8 47.3 Z M 22.1 44.9 C 21.6 44.9 22.5 44.5 22.1 44.9 C 22.1 44.9 22.1 44.9 22.1 44.9 Z M 18.2 42.9 C 18.1 42.9 18.1 42.9 18.2 42.9 C 18.2 42.9 18.2 42.9 18.2 42.9 Z M 19.0 46.5 C 19.0 46.5 19.0 46.5 19.0 46.5 C 19.0 46.5 19.0 46.5 19.0 46.5 Z M 21.5 46.9 C 23.4 46.5 21.0 47.8 21.5 46.9 C 21.5 46.9 21.5 46.9 21.5 46.9 Z M 17.0 54.8 C 17.8 54.8 16.7 55.3 17.0 54.8 C 17.0 54.8 17.0 54.8 17.0 54.8 Z M 20.9 51.9 C 21.3 52.0 20.7 52.3 20.9 51.9 C 20.9 51.9 20.9 51.9 20.9 51.9 Z M 23.4 50.6 C 23.9 50.7 23.2 50.9 23.4 50.6 C 23.4 50.6 23.4 50.6 23.4 50.6 Z M 22.6 44.9 C 22.7 45.0 22.7 45.0 22.6 44.9 C 22.6 44.9 22.6 44.9 22.6 44.9 Z M 21.2 45.8 C 23.0 45.2 20.2 46.7 21.2 45.8 C 21.2 45.8 21.2 45.8 21.2 45.8 Z M 20.7 44.8 C 20.0 45.1 21.0 44.0 20.7 44.8 M 18.0 45.4 C 18.7 46.1 14.8 44.7 18.0 45.4 C 18.0 45.4 18.0 45.4 18.0 45.4 Z M 17.3 49.1 C 17.2 49.2 17.2 49.2 17.3 49.1 C 17.3 49.1 17.3 49.1 17.3 49.1 Z M 22.4 48.7 C 22.4 49.4 22.0 48.3 22.4 48.7 C 22.4 48.7 22.4 48.7 22.4 48.7 Z M 22.8 43.1 C 22.8 43.7 22.4 42.6 22.8 43.1 C 22.8 43.1 22.8 43.1 22.8 43.1 Z M 19.0 51.3 C 19.3 52.4 18.1 50.7 19.0 51.3 C 19.0 51.3 19.0 51.3 19.0 51.3 Z M 21.0 55.2 C 21.0 55.3 21.0 55.3 21.0 55.2 C 21.0 55.2 21.0 55.2 21.0 55.2 Z M 21.8 56.0 C 21.7 56.0 21.7 56.0 21.8 56.0 C 21.8 56.0 21.8 56.0 21.8 56.0 Z M 20.0 59.0 C 19.9 59.0 19.9 59.0 20.0 59.0 C 20.0 59.0 20.0 59.0 20.0 59.0 Z M 22.6 56.6 C 22.6 56.6 22.6 56.6 22.6 56.6 C 22.6 56.6 22.6 56.6 22.6 56.6 Z M 22.2 58.7 C 22.1 58.8 22.1 58.8 22.2 58.7 C 22.2 58.7 22.2 58.7 22.2 58.7 Z M 23.7 58.4 C 23.6 58.5 23.6 58.5 23.7 58.4 C 23.7 58.4 23.7 58.4 23.7 58.4 Z M 16.0 53.8 C 15.9 53.8 15.9 53.8 16.0 53.8 C 16.0 53.8 16.0 53.8 16.0 53.8 Z M 23.2 46.1 C 23.1 46.1 23.1 46.1 23.2 46.1 C 23.2 46.1 23.2 46.1 23.2 46.1 Z M 21.5 58.6 C 21.4 58.6 21.4 58.6 21.5 58.6 C 21.5 58.6 21.5 58.6 21.5 58.6 Z M 20.1 53.4 C 18.6 53.4 22.1 53.0 20.2 53.5 C 20.1 53.5 20.3 53.4 20.1 53.4 M 17.6 54.1 C 17.5 54.1 17.5 54.1 17.6 54.1 C 17.6 54.1 17.6 54.1 17.6 54.1 Z M 16.7 51.8 C 16.6 51.8 16.6 51.8 16.7 51.8 C 16.7 51.8 16.7 51.8 16.7 51.8 Z M 22.9 56.3 C 23.8 56.2 22.3 56.8 22.9 56.2 M 17.3 59.0 C 18.2 58.9 16.7 59.6 17.3 58.9 M 22.3 42.3 C 21.6 42.2 22.6 41.9 22.3 42.3 M 15.9 51.3 C 15.2 51.2 16.2 50.8 15.9 51.3 M 17.8 52.3 C 18.6 52.3 17.1 52.9 17.7 52.3 M 17.4 57.4 C 17.4 57.5 17.4 57.5 17.4 57.4 C 17.4 57.4 17.4 57.4 17.4 57.4 Z M 22.3 49.7 C 22.2 49.8 22.2 49.8 22.3 49.7 C 22.3 49.7 22.3 49.7 22.3 49.7 Z M 20.5 52.6 C 21.6 52.2 19.7 53.1 20.5 52.6 M 20.3 48.9 C 21.7 48.3 19.8 49.8 20.3 48.9 M 17.0 60.2 C 18.7 59.6 16.0 60.7 17.0 60.2 M 21.3 57.1 C 23.0 56.5 20.4 57.6 21.3 57.1 M 21.5 50.3 C 22.4 50.3 21.0 50.9 21.5 50.3 M 22.4 43.8 C 22.6 43.2 23.1 44.6 22.4 43.8 M 17.3 55.9 C 17.3 55.9 17.3 55.9 17.3 55.9 C 17.3 55.9 17.3 55.9 17.3 55.9 Z M 15.8 45.8 C 15.7 45.8 15.7 45.8 15.8 45.8 C 15.8 45.8 15.8 45.8 15.8 45.8 Z M 22.6 61.0 C 22.6 61.1 22.6 61.1 22.6 61.0 C 22.6 61.0 22.6 61.0 22.6 61.0 Z M 20.5 56.7 C 20.4 56.7 20.4 56.7 20.5 56.7 C 20.5 56.7 20.5 56.7 20.5 56.7 Z M 22.9 59.8 C 22.8 59.9 22.8 59.9 22.9 59.8 C 22.9 59.8 22.9 59.8 22.9 59.8 Z M 19.2 54.8 C 19.1 54.8 19.1 54.8 19.2 54.8 C 19.2 54.8 19.2 54.8 19.2 54.8 Z M 23.6 54.4 C 23.5 54.4 23.5 54.4 23.6 54.4 C 23.6 54.4 23.6 54.4 23.6 54.4 Z M 21.7 52.2 C 21.6 52.2 21.6 52.2 21.7 52.2 C 21.7 52.2 21.7 52.2 21.7 52.2 Z M 23.2 55.3 C 23.5 56.6 21.7 54.7 23.2 55.3 C 23.2 55.3 23.2 55.3 23.2 55.3 Z M 18.8 53.1 C 18.8 53.1 18.8 53.1 18.8 53.1 C 18.8 53.1 18.8 53.1 18.8 53.1 Z M 21.9 52.9 C 23.2 53.7 19.8 53.4 21.9 52.9 M 23.0 49.3 C 23.6 49.6 21.9 49.5 23.0 49.3 M 17.2 47.9 C 17.1 47.9 17.1 47.9 17.2 47.9 C 17.2 47.9 17.2 47.9 17.2 47.9 Z M 17.6 48.3 C 17.6 48.3 17.6 48.3 17.6 48.3 C 17.6 48.3 17.6 48.3 17.6 48.3 Z M 23.2 48.5 C 23.2 48.5 23.2 48.5 23.2 48.5 C 23.2 48.5 23.2 48.5 23.2 48.5 Z M 16.0 48.4 C 15.9 48.4 15.9 48.4 16.0 48.4 C 16.0 48.4 16.0 48.4 16.0 48.4 Z M 23.4 53.9 C 23.4 53.9 23.4 53.9 23.4 53.9 C 23.4 53.9 23.4 53.9 23.4 53.9 Z M 23.5 60.5 C 23.5 60.5 23.5 60.5 23.5 60.5 C 23.5 60.5 23.5 60.5 23.5 60.5 Z M 17.8 44.0 C 17.7 44.0 17.7 44.0 17.8 44.0 C 17.8 44.0 17.8 44.0 17.8 44.0 Z M 21.7 54.5 C 21.6 54.6 21.6 54.6 21.7 54.5 C 21.7 54.5 21.7 54.5 21.7 54.5 Z M 17.4 47.0 C 17.4 47.0 17.4 47.0 17.4 47.0 C 17.4 47.0 17.4 47.0 17.4 47.0 Z M 22.1 54.1 C 22.1 54.1 22.1 54.1 22.1 54.1 C 22.1 54.1 22.1 54.1 22.1 54.1 Z M 17.0 55.7 C 16.9 55.7 16.9 55.7 17.0 55.7 C 17.0 55.7 17.0 55.7 17.0 55.7 Z M 16.0 57.1 C 15.9 57.1 15.9 57.1 16.0 57.1 C 16.0 57.1 16.0 57.1 16.0 57.1 Z M 20.0 55.6 C 20.0 55.6 20.0 55.6 20.0 55.6 C 20.0 55.6 20.0 55.6 20.0 55.6 Z M 19.3 46.5 C 20.8 43.9 20.0 48.6 19.3 46.5 M 19.7 56.0 C 20.0 54.2 21.4 57.5 19.7 56.0 C 20.1 56.2 19.7 56.0 19.7 56.0 " fill="#000000"></path><path d="M 2.5 72.7 C 1.7 72.5 1.1 70.5 2.4 71.9 C 2.5 71.9 2.7 72.7 2.5 72.7 Z M 4.3 75.8 C 4.1 75.6 4.1 75.3 4.1 75.1 C 4.5 74.4 4.8 76.6 4.3 75.8 Z M 2.2 70.9 C 2.1 70.8 1.5 69.8 1.8 69.9 C 2.1 70.0 2.3 70.9 2.2 70.9 Z M 7.2 77.9 C 6.9 78.0 6.3 76.9 6.3 76.7 C 6.4 76.0 7.8 77.6 7.2 77.9 Z M 12.4 69.3 C 12.5 69.3 12.6 69.3 12.7 69.3 C 12.6 69.3 12.5 69.3 12.4 69.3 Z M 15.1 92.7 C 15.0 92.6 15.0 92.1 15.3 92.0 C 15.6 92.0 15.6 93.3 15.1 92.7 Z M 33.0 68.7 C 33.0 68.7 32.5 68.5 32.7 68.3 C 32.9 68.2 33.1 68.5 33.0 68.7 Z M 32.9 68.4 C 32.8 68.1 33.3 68.0 33.2 68.2 C 33.1 68.5 33.0 68.6 32.9 68.4 Z M 28.6 85.0 C 28.5 85.1 28.5 85.2 28.5 85.1 C 28.4 84.9 28.7 84.7 28.6 85.0 Z M 28.5 84.4 C 28.4 84.1 28.9 84.0 28.8 84.2 C 28.7 84.5 28.7 84.7 28.5 84.4 Z M 31.8 82.1 C 31.7 82.2 31.7 82.3 31.6 82.2 C 31.6 82.0 31.8 81.8 31.8 82.1 Z M 24.5 67.9 C 24.6 67.8 25.3 67.9 25.2 68.2 C 25.2 68.5 24.3 68.1 24.5 67.9 Z M 25.3 67.7 C 25.3 67.5 25.7 67.4 25.6 67.7 C 25.5 67.8 25.4 67.9 25.3 67.7 Z M 22.7 68.2 C 22.7 68.5 22.0 68.6 21.9 68.5 C 21.7 68.4 21.4 68.3 21.1 68.2 C 21.0 68.1 22.7 67.8 22.7 68.2 Z M 17.2 68.5 C 17.2 68.4 17.3 68.3 17.6 68.5 C 17.8 68.6 17.2 68.7 17.2 68.5 Z M 20.4 68.3 C 20.4 68.2 20.4 68.1 20.7 68.3 C 20.9 68.4 20.4 68.5 20.4 68.3 Z M 10.0 84.1 C 9.9 84.3 9.5 83.4 9.6 83.3 C 9.6 83.2 9.8 83.6 9.7 83.3 C 9.7 83.1 10.5 83.2 10.0 84.1 Z M 5.4 77.5 C 5.3 77.3 5.4 77.2 5.6 77.2 C 5.6 77.2 5.8 77.9 5.4 77.5 Z M 10.3 82.5 C 10.2 82.6 10.1 82.4 10.2 82.3 C 10.3 82.3 10.4 82.5 10.3 82.5 Z M 10.8 83.0 C 10.6 82.8 10.7 82.3 10.9 82.3 C 11.3 82.2 11.2 83.5 10.8 83.0 Z M 10.3 85.2 C 10.1 85.0 10.1 85.0 10.3 85.1 C 10.5 85.2 10.3 85.2 10.3 85.2 Z M 7.5 81.4 C 7.4 81.2 7.4 81.2 7.6 81.3 C 7.7 81.4 7.5 81.4 7.5 81.4 Z M 11.9 86.8 C 11.9 86.8 11.3 86.5 11.6 86.1 C 12.1 85.5 11.9 86.8 11.9 86.8 Z M 14.1 89.2 C 14.1 89.0 14.3 89.0 14.3 89.2 C 14.4 89.5 14.2 89.4 14.1 89.2 Z M 15.7 89.7 C 15.8 90.1 15.7 90.5 15.4 90.0 C 15.2 89.5 15.6 89.3 15.7 89.7 Z M 15.2 89.3 C 15.2 89.3 15.3 89.4 15.3 89.5 C 15.2 89.6 15.1 89.4 15.2 89.3 Z M 13.1 87.4 C 12.8 87.2 12.9 86.8 13.2 87.1 C 13.5 87.4 13.4 87.5 13.1 87.4 Z M 9.6 67.9 C 9.4 68.0 9.4 67.7 9.6 67.6 C 9.7 67.4 9.8 67.8 9.6 67.9 Z M 21.4 69.2 C 21.3 69.0 21.4 69.0 21.7 69.0 C 22.0 69.1 21.6 69.3 21.4 69.2 Z M 29.0 69.8 C 28.8 69.6 28.9 69.6 29.2 69.7 C 29.5 69.7 29.1 69.9 29.0 69.8 Z M 18.4 69.2 C 18.3 69.0 19.1 68.5 19.5 69.0 C 20.0 69.5 18.7 69.6 18.4 69.2 Z M 11.0 75.1 C 10.9 75.2 10.9 75.0 10.9 75.0 C 11.2 75.0 11.2 75.0 11.0 75.1 Z M 20.1 70.1 C 19.9 70.1 20.0 69.8 20.1 69.7 C 20.2 69.6 20.3 70.0 20.1 70.1 Z M 27.6 69.3 C 27.3 69.2 27.5 68.7 27.7 68.5 C 28.3 68.0 28.7 68.7 29.2 69.0 C 29.5 69.2 27.8 69.4 27.6 69.3 Z M 7.8 69.1 C 8.0 69.1 8.1 69.2 8.3 69.2 C 8.3 69.1 8.4 69.1 8.6 69.2 C 9.3 69.1 9.8 68.5 10.3 68.3 C 11.4 67.8 11.8 69.3 12.4 69.3 C 12.3 69.3 12.1 69.3 12.0 69.5 C 11.7 69.9 14.3 69.7 14.5 69.7 C 16.7 69.3 14.1 69.0 14.0 68.2 C 14.0 67.9 15.6 68.7 15.6 68.8 C 16.4 69.1 16.5 68.3 17.1 68.7 C 17.3 68.8 18.2 70.5 18.5 70.3 C 18.7 70.1 19.4 70.3 19.6 70.3 C 20.1 70.3 20.8 70.2 20.4 69.6 C 20.1 69.1 20.0 68.7 20.6 69.1 C 20.9 69.4 23.6 70.5 23.5 69.2 C 23.5 69.1 22.9 68.7 22.9 68.7 C 23.6 68.5 25.8 68.9 26.3 68.4 C 27.5 67.2 26.0 69.0 26.6 69.4 C 27.6 69.9 28.1 70.3 29.4 70.1 C 29.7 70.1 30.9 70.0 30.3 69.3 C 29.9 68.9 30.3 68.6 29.5 68.4 C 30.3 67.8 30.9 69.0 31.0 68.8 C 31.3 68.4 30.8 68.2 31.4 68.3 C 32.2 68.4 31.9 68.2 32.0 68.8 C 32.0 69.0 32.7 69.1 32.7 69.1 C 32.7 69.2 32.7 69.3 32.7 69.3 C 33.3 69.3 34.2 68.1 34.4 68.3 C 34.6 68.6 34.2 69.4 34.2 69.6 C 34.3 69.6 34.3 69.6 34.4 69.7 C 34.6 69.6 35.2 69.1 35.3 69.2 C 35.4 69.3 35.0 70.4 35.3 70.1 C 35.5 69.8 36.9 70.2 37.0 70.5 C 37.0 70.9 37.4 72.4 37.6 72.5 C 37.9 72.6 37.4 73.3 37.3 73.5 C 37.2 73.7 36.6 73.9 36.5 73.9 C 36.3 74.0 36.1 74.6 36.1 74.6 C 36.1 74.6 36.1 74.9 35.9 75.3 C 35.7 75.8 35.2 75.9 34.7 76.4 C 34.2 76.9 34.4 77.3 34.2 77.8 C 33.9 78.4 32.9 78.3 32.5 78.7 C 32.1 79.1 32.8 79.5 32.5 80.1 C 32.2 80.7 31.9 80.9 31.9 80.6 C 31.8 80.4 31.6 80.5 31.5 80.6 C 31.4 80.8 30.8 81.3 30.8 81.6 C 30.7 81.9 32.3 80.6 31.0 82.6 C 30.3 83.7 29.2 84.0 29.3 83.7 C 29.7 82.9 27.8 83.9 28.1 84.1 C 28.4 84.3 27.3 86.1 28.1 86.0 C 28.4 85.9 27.5 87.8 27.2 88.0 C 27.0 88.2 26.6 89.1 25.9 89.0 C 25.6 89.0 25.7 90.4 25.6 90.7 C 25.5 90.9 24.5 92.2 24.2 92.4 C 23.9 92.7 24.3 92.0 24.5 91.7 C 24.7 91.3 25.2 91.1 25.3 90.8 C 25.4 90.5 24.8 90.9 24.5 91.2 C 24.3 91.5 24.0 91.5 23.7 91.7 C 23.7 91.9 23.5 92.1 23.3 92.3 C 23.2 92.5 23.2 92.6 23.3 92.7 C 23.5 92.8 23.8 92.7 23.8 92.8 C 23.9 92.9 23.9 93.2 23.6 93.6 C 23.3 94.0 23.1 94.4 22.6 94.8 C 22.0 95.3 22.1 95.6 21.9 96.0 C 21.7 96.4 21.5 96.7 21.4 96.7 C 21.2 96.6 21.4 96.1 21.3 96.0 C 21.3 95.9 20.6 96.2 20.5 96.4 C 19.7 97.4 19.3 96.0 18.6 97.0 C 18.1 97.6 18.2 96.7 18.1 96.1 C 17.9 96.2 17.8 96.2 17.5 95.8 C 17.3 95.9 17.1 95.1 16.8 94.8 C 16.7 94.6 15.6 93.4 16.5 94.0 C 16.5 94.1 16.6 94.1 16.7 94.2 C 16.7 94.2 16.7 94.1 16.7 94.1 C 16.7 94.1 17.4 94.2 17.4 94.2 C 17.4 94.2 16.7 94.1 16.7 94.1 C 16.8 93.8 16.9 93.6 17.0 93.4 C 16.9 93.4 16.8 93.3 16.7 93.3 C 16.7 93.3 16.6 93.3 16.6 93.3 C 16.6 93.3 16.6 93.3 16.6 93.3 C 16.4 93.4 16.4 93.4 16.3 93.1 C 15.8 92.8 15.5 91.5 15.4 90.9 C 17.3 91.5 16.0 89.4 15.4 88.8 C 14.8 88.2 13.5 89.1 13.7 89.4 C 13.3 88.9 13.5 88.7 13.8 88.3 C 13.8 88.3 14.3 87.2 14.3 87.3 C 14.1 85.8 13.1 86.8 12.8 86.6 C 12.4 86.4 12.2 86.0 11.9 85.7 C 11.6 85.4 11.5 85.8 11.3 85.8 C 10.5 85.7 11.0 84.2 10.9 83.9 C 11.2 84.1 11.5 84.4 11.8 84.6 C 11.3 84.3 11.8 83.7 11.8 83.5 C 11.7 83.0 11.3 82.6 11.1 82.2 C 10.6 81.6 10.1 81.0 9.6 80.4 C 9.6 80.7 9.5 82.1 9.5 82.2 C 9.4 82.0 9.2 81.2 8.8 81.8 C 8.2 82.7 7.6 80.7 7.5 80.5 C 7.1 79.5 5.7 79.1 6.1 77.7 C 6.1 77.7 7.1 78.9 7.2 78.7 C 7.8 78.0 8.0 77.4 7.3 76.6 C 7.1 76.4 5.8 75.5 5.8 75.6 C 5.9 75.5 4.9 77.9 4.8 76.4 C 4.7 76.1 5.3 76.4 5.3 76.0 C 5.2 75.5 4.8 75.0 4.6 74.6 C 4.5 74.5 4.4 73.7 4.3 73.7 C 4.0 73.7 3.6 73.9 3.3 73.7 C 3.0 73.5 3.0 73.1 3.3 72.9 C 3.3 72.9 3.4 72.9 3.4 72.9 C 3.4 72.8 3.4 72.7 3.6 72.6 C 3.5 72.5 3.4 72.3 3.4 72.1 C 3.5 72.0 3.7 72.3 3.7 72.5 C 3.8 72.5 3.9 72.4 4.0 72.4 C 3.8 72.1 3.5 71.8 3.4 71.7 C 2.7 71.4 2.4 71.5 2.6 70.2 C 2.8 69.2 5.2 68.6 6.7 68.9 C 7.0 68.8 7.3 68.8 7.8 69.1 Z M 22.5 92.8 C 22.5 92.8 22.5 92.7 22.6 92.7 C 22.4 92.7 22.3 92.6 22.2 92.5 C 21.9 92.8 22.5 92.6 22.2 92.9 C 21.9 93.2 22.1 93.2 22.5 92.8 Z M 19.1 92.6 C 19.1 92.8 19.2 92.8 19.3 92.7 C 19.3 92.6 19.2 92.6 19.1 92.6 Z M 17.7 93.2 C 18.1 93.6 18.2 92.6 17.7 92.1 C 17.6 92.7 17.6 93.1 17.7 93.2 Z M 16.5 92.6 C 16.6 92.6 16.7 92.6 16.8 92.5 C 17.0 92.5 16.5 92.2 16.7 92.1 C 16.9 92.1 17.3 92.4 17.3 92.1 C 17.2 92.0 17.2 91.9 17.2 91.8 C 17.2 91.7 17.1 91.7 17.0 91.7 C 16.7 91.6 16.4 92.3 16.5 92.6 Z M 22.7 90.3 C 22.6 90.6 22.8 90.5 22.8 90.3 C 22.9 90.1 22.7 90.1 22.7 90.3 Z M 25.3 88.6 C 25.1 88.7 25.0 89.0 25.3 88.9 C 25.6 88.8 25.6 88.5 25.3 88.6 Z M 21.4 84.9 C 21.5 85.1 21.5 85.0 21.6 84.8 C 21.7 84.6 21.4 84.8 21.4 84.9 Z M 18.7 84.7 C 18.5 84.6 18.2 84.9 18.4 85.0 C 18.6 85.0 18.8 84.9 18.7 84.7 Z M 25.0 85.1 C 25.0 84.9 24.8 84.9 24.8 85.1 C 24.8 85.3 24.9 85.3 25.0 85.1 Z M 21.2 85.7 C 21.5 85.5 21.4 85.4 21.4 85.3 C 21.3 85.2 21.1 85.2 21.0 85.5 C 20.8 85.8 20.9 85.9 21.2 85.7 Z M 18.9 85.9 C 18.5 85.2 18.2 85.4 18.8 86.1 C 19.4 86.8 19.1 86.3 18.9 85.9 Z M 27.2 87.2 C 27.1 87.2 27.0 87.7 27.0 87.7 C 27.0 87.7 27.7 86.8 27.2 87.2 Z M 12.6 85.7 C 12.7 85.9 13.1 86.0 12.9 85.5 C 12.7 85.1 12.5 85.4 12.6 85.7 Z M 13.7 84.3 C 13.3 84.8 13.5 85.3 13.4 85.4 C 13.5 85.3 14.0 85.2 14.1 85.3 C 14.6 85.6 14.4 86.5 15.0 86.7 C 15.6 87.0 15.1 85.9 14.9 85.8 C 15.1 85.9 15.2 85.9 15.3 85.9 C 15.5 85.7 15.4 85.5 15.2 85.4 C 14.9 85.3 14.2 83.6 13.7 84.3 Z M 20.4 84.3 C 20.2 84.6 20.4 84.9 20.7 84.7 C 21.0 84.5 21.2 84.2 21.1 84.1 C 21.0 84.0 20.5 84.1 20.4 84.3 Z M 22.5 84.1 C 22.6 84.4 22.6 84.3 22.7 84.0 C 22.9 83.6 22.3 83.8 22.5 84.1 Z M 31.2 80.3 C 31.2 80.0 30.9 80.4 31.0 80.5 C 31.2 80.6 31.3 80.4 31.2 80.3 Z M 27.8 80.4 C 27.9 79.8 27.4 80.2 27.4 80.4 C 27.4 80.5 27.7 80.7 27.8 80.4 Z M 25.7 82.4 C 25.8 82.2 25.5 82.4 25.5 82.6 C 25.6 82.7 25.7 82.5 25.7 82.4 Z M 24.4 82.6 C 24.5 82.4 24.1 82.5 24.1 82.8 C 24.1 82.9 24.3 82.9 24.4 82.6 Z M 13.1 81.6 C 13.1 81.6 13.7 81.4 13.2 81.2 C 12.8 81.0 12.8 81.0 13.1 81.6 Z M 17.2 82.6 C 17.4 82.9 17.7 83.2 18.8 82.8 C 20.0 82.4 19.5 82.2 18.8 82.0 C 18.1 81.9 20.0 81.4 18.7 81.1 C 18.1 81.0 16.9 82.2 17.2 82.6 Z M 24.3 80.6 C 23.6 81.0 23.8 82.0 24.2 81.4 C 24.7 80.8 24.9 80.3 24.3 80.6 Z M 24.8 80.5 C 24.7 80.7 24.8 80.7 24.9 80.4 C 25.1 80.2 24.8 80.3 24.8 80.5 Z M 8.3 81.1 C 9.3 82.2 9.2 80.4 9.2 80.4 C 8.8 79.0 7.3 80.0 8.3 81.1 Z M 32.1 69.9 C 32.0 69.9 32.0 69.9 31.9 69.9 C 31.9 69.9 31.9 69.9 31.9 69.9 C 31.7 70.1 32.1 70.3 32.1 70.3 C 32.2 70.2 32.2 70.0 32.1 69.9 Z M 24.9 69.6 C 25.2 69.6 25.4 69.6 25.6 69.4 C 25.5 68.8 23.3 68.7 24.2 69.8 C 24.3 70.0 25.7 70.9 25.8 70.4 C 25.9 70.1 24.2 69.6 24.9 69.6 Z M 27.2 70.5 C 26.3 70.4 27.9 71.3 27.7 70.9 C 27.6 70.6 27.4 70.5 27.2 70.5 Z M 33.5 72.5 C 34.6 72.0 34.4 70.3 32.6 71.2 C 30.9 72.1 30.8 72.8 31.7 72.5 C 32.6 72.3 31.8 73.1 33.5 72.5 Z M 24.2 72.4 C 24.4 71.2 23.9 71.5 23.5 72.5 C 23.5 72.7 24.1 73.2 24.2 72.4 Z M 21.6 72.6 C 21.3 72.5 21.3 72.5 21.5 72.7 C 21.7 73.0 21.9 72.8 21.6 72.6 Z M 35.3 74.2 C 35.8 74.0 36.1 73.5 36.1 73.8 C 36.1 74.1 36.2 73.9 36.4 73.7 C 36.8 73.4 36.2 73.4 35.9 73.5 C 35.6 73.5 34.9 74.3 35.3 74.2 Z M 25.4 78.3 C 25.5 78.1 25.2 78.2 25.2 78.4 C 25.2 78.5 25.3 78.5 25.4 78.3 Z M 15.5 79.6 C 15.5 79.6 15.8 79.5 15.6 79.4 C 15.3 79.2 15.3 79.2 15.5 79.6 Z M 7.7 79.2 C 7.8 79.4 7.9 78.8 8.3 78.9 C 8.5 78.9 8.2 79.1 8.2 79.2 C 8.3 79.1 9.2 79.0 8.6 78.6 C 8.3 78.5 7.2 78.6 7.7 79.2 Z M 22.7 78.0 C 22.2 78.4 23.9 78.7 23.6 79.0 C 23.4 79.3 23.5 79.3 23.9 78.9 C 24.2 78.6 23.1 77.6 22.7 78.0 Z M 26.9 77.7 C 26.6 77.7 25.9 78.6 26.3 78.4 C 26.8 78.2 27.0 77.7 27.1 78.0 C 27.1 78.3 27.1 78.1 27.4 77.9 C 27.7 77.7 27.1 77.7 26.9 77.7 Z M 33.8 77.4 C 33.7 77.5 33.4 78.0 33.8 77.8 C 34.0 77.7 34.0 77.3 33.8 77.4 Z M 14.4 77.0 C 14.7 77.1 14.8 77.0 14.5 76.7 C 14.2 76.4 14.1 76.8 14.4 77.0 Z M 33.2 76.2 C 32.8 76.6 33.5 76.3 33.2 76.7 C 32.9 77.0 33.1 77.0 33.5 76.6 C 33.8 76.3 33.7 75.9 33.2 76.2 Z M 8.0 75.9 C 8.2 75.9 8.5 75.8 8.3 75.7 C 8.1 75.5 7.9 75.8 8.0 75.9 Z M 10.7 74.9 C 10.7 75.0 10.7 75.1 10.8 75.2 C 12.0 76.9 11.1 73.8 10.7 74.9 Z M 14.7 75.1 C 14.1 75.2 14.8 75.5 14.8 75.5 C 14.9 75.3 14.9 75.2 14.7 75.1 Z M 19.1 75.1 C 19.2 74.9 18.8 74.9 18.8 75.2 C 18.9 75.4 19.0 75.3 19.1 75.1 Z M 4.8 74.3 C 4.9 74.6 5.1 74.5 5.0 74.3 C 5.0 74.1 4.7 74.1 4.8 74.3 Z M 15.8 74.1 C 15.8 74.2 15.8 74.3 16.0 74.2 C 16.2 74.2 15.9 74.0 15.8 74.1 Z M 29.3 74.1 C 29.2 74.2 29.1 74.3 29.0 74.4 C 29.1 74.6 29.9 74.7 29.9 75.0 C 29.9 75.0 29.9 75.1 29.9 75.1 C 29.9 75.1 29.9 75.1 29.9 75.1 C 29.9 75.3 29.8 75.4 29.7 75.3 C 29.6 75.3 29.5 75.4 29.3 75.4 C 29.6 75.7 29.9 75.8 30.1 75.6 C 30.3 75.4 30.4 74.8 30.4 74.3 C 30.2 74.2 30.0 74.1 29.8 74.1 C 29.8 74.1 29.8 74.1 29.8 74.2 C 29.7 74.5 29.4 74.6 29.4 74.4 C 29.4 74.2 29.5 74.1 29.6 74.1 C 29.5 74.0 29.4 74.0 29.3 74.1 Z M 17.5 73.5 C 17.2 73.7 17.4 73.8 17.9 73.9 C 18.2 74.0 17.9 73.3 17.5 73.5 Z M 5.4 73.9 C 5.5 73.9 5.6 73.8 5.7 73.7 C 5.6 73.7 5.5 73.7 5.5 73.7 C 5.2 73.6 5.0 73.5 4.8 73.5 C 4.8 73.8 4.9 74.0 5.4 73.9 Z M 9.2 72.6 C 9.1 72.7 7.5 72.6 7.8 72.9 C 8.2 73.5 7.5 74.1 8.7 73.9 C 9.2 73.7 9.7 72.9 10.3 72.8 C 13.1 72.1 9.5 72.0 8.8 71.8 C 8.6 71.8 9.4 72.5 9.2 72.6 Z M 12.9 71.7 C 13.1 71.5 12.6 71.2 12.4 71.2 C 11.7 71.3 12.7 72.1 12.9 71.7 Z M 5.0 71.3 C 5.0 71.3 5.0 71.4 5.0 71.5 C 5.0 71.5 5.1 71.4 5.1 71.3 C 5.1 71.3 5.0 71.3 5.0 71.3 Z M 3.0 71.0 C 3.7 71.9 3.6 70.3 3.5 70.0 C 3.2 69.4 2.6 70.6 3.0 71.0 Z M 10.8 70.4 C 11.3 70.5 12.0 68.8 11.0 68.9 C 10.1 68.9 9.5 70.3 10.8 70.4 Z M 16.7 68.3 C 16.5 68.5 15.9 68.2 16.2 68.0 C 16.4 67.8 16.8 68.2 16.7 68.3 Z M 7.9 67.4 C 8.1 67.5 7.9 67.6 7.9 67.6 C 7.7 67.3 7.7 67.3 7.9 67.4 Z M 8.7 68.6 C 8.5 68.5 8.1 68.4 7.9 68.3 C 7.7 68.3 8.3 68.1 8.3 68.1 C 8.5 68.2 8.7 68.6 8.7 68.6 Z M 13.4 68.8 C 13.2 68.6 13.6 68.5 13.8 68.6 C 13.9 68.6 13.6 68.9 13.4 68.8 Z M 12.3 68.4 C 12.5 68.4 12.4 68.6 12.2 68.6 C 11.9 68.5 12.1 68.3 12.3 68.4 Z M 14.3 69.3 C 13.8 69.5 13.1 69.6 13.2 69.1 C 13.2 68.9 15.3 69.0 14.3 69.3 Z M 14.3 69.3 " fill="#000000"></path><path d="M 36.9 30.7 C 37.6 30.9 38.3 32.9 37.0 31.5 C 36.9 31.4 36.6 30.6 36.9 30.7 Z M 35.1 27.6 C 35.3 27.8 35.3 28.0 35.3 28.3 C 34.9 28.9 34.6 26.8 35.1 27.6 Z M 37.2 32.5 C 37.3 32.6 37.9 33.6 37.6 33.5 C 37.3 33.4 37.1 32.5 37.2 32.5 Z M 32.2 25.5 C 32.5 25.4 33.1 26.4 33.1 26.7 C 33.0 27.4 31.6 25.7 32.2 25.5 Z M 26.9 34.0 C 26.8 34.0 26.8 34.0 26.7 34.1 C 26.8 34.0 26.9 34.0 26.9 34.0 Z M 24.2 10.6 C 24.4 10.8 24.4 11.3 24.1 11.3 C 23.7 11.4 23.8 10.1 24.2 10.6 Z M 6.4 34.6 C 6.4 34.6 6.9 34.9 6.7 35.0 C 6.5 35.2 6.3 34.8 6.4 34.6 Z M 6.4 35.0 C 6.5 35.3 6.1 35.4 6.1 35.2 C 6.3 34.9 6.3 34.7 6.4 35.0 Z M 10.8 18.4 C 10.8 18.2 10.8 18.1 10.9 18.3 C 11.0 18.5 10.7 18.6 10.8 18.4 Z M 10.9 19.0 C 11.0 19.3 10.5 19.4 10.5 19.1 C 10.6 18.8 10.7 18.7 10.9 19.0 Z M 7.6 21.3 C 7.7 21.2 7.7 21.0 7.7 21.2 C 7.8 21.4 7.5 21.5 7.6 21.3 Z M 14.9 35.5 C 14.7 35.6 14.1 35.4 14.1 35.2 C 14.2 34.9 15.1 35.3 14.9 35.5 Z M 14.0 35.7 C 14.1 35.9 13.6 36.0 13.8 35.7 C 13.8 35.5 14.0 35.4 14.0 35.7 Z M 16.6 35.2 C 16.6 34.8 17.4 34.8 17.5 34.9 C 17.7 35.0 18.0 35.1 18.2 35.2 C 18.3 35.2 16.6 35.6 16.6 35.2 Z M 22.1 34.8 C 22.1 34.9 22.1 35.0 21.8 34.9 C 21.6 34.8 22.1 34.7 22.1 34.8 Z M 19.0 35.0 C 19.0 35.2 18.9 35.2 18.7 35.1 C 18.5 35.0 19.0 34.9 19.0 35.0 Z M 29.4 19.3 C 29.5 19.1 29.8 19.9 29.8 20.0 C 29.8 20.1 29.6 19.8 29.6 20.0 C 29.7 20.3 28.8 20.2 29.4 19.3 Z M 34.0 25.9 C 34.0 26.1 34.0 26.2 33.8 26.2 C 33.7 26.2 33.6 25.5 34.0 25.9 Z M 29.1 20.9 C 29.2 20.8 29.2 21.0 29.2 21.0 C 29.1 21.1 29.0 20.9 29.1 20.9 Z M 28.6 20.4 C 28.7 20.5 28.7 21.1 28.5 21.1 C 28.1 21.2 28.1 19.8 28.6 20.4 Z M 29.1 18.1 C 29.2 18.4 29.2 18.4 29.1 18.3 C 28.9 18.2 29.1 18.1 29.1 18.1 Z M 31.9 21.9 C 32.0 22.2 32.0 22.2 31.8 22.1 C 31.6 22.0 31.9 21.9 31.9 21.9 Z M 27.5 16.6 C 27.5 16.5 28.1 16.9 27.7 17.3 C 27.2 17.8 27.5 16.6 27.5 16.6 Z M 25.2 14.1 C 25.3 14.3 25.1 14.3 25.0 14.1 C 25.0 13.9 25.2 13.9 25.2 14.1 Z M 23.7 13.7 C 23.6 13.3 23.7 12.9 23.9 13.4 C 24.2 13.9 23.7 14.1 23.7 13.7 Z M 24.2 14.0 C 24.1 14.1 24.0 13.9 24.1 13.9 C 24.2 13.8 24.3 14.0 24.2 14.0 Z M 26.3 16.0 C 26.6 16.2 26.5 16.6 26.2 16.3 C 25.9 16.0 26.0 15.9 26.3 16.0 Z M 29.8 35.4 C 30.0 35.4 29.9 35.7 29.8 35.8 C 29.7 35.9 29.6 35.5 29.8 35.4 Z M 17.9 34.2 C 18.1 34.4 18.0 34.4 17.7 34.3 C 17.3 34.2 17.8 34.0 17.9 34.2 Z M 10.4 33.6 C 10.6 33.8 10.5 33.8 10.2 33.7 C 9.8 33.6 10.3 33.4 10.4 33.6 Z M 21.0 34.2 C 21.0 34.3 20.3 34.9 19.8 34.4 C 19.4 33.8 20.7 33.8 21.0 34.2 Z M 28.3 28.2 C 28.5 28.1 28.4 28.4 28.4 28.4 C 28.2 28.3 28.2 28.3 28.3 28.2 Z M 19.3 33.3 C 19.4 33.2 19.4 33.6 19.3 33.7 C 19.1 33.8 19.0 33.4 19.3 33.3 Z M 11.8 34.0 C 12.1 34.2 11.9 34.7 11.7 34.8 C 11.1 35.3 10.6 34.7 10.2 34.4 C 9.9 34.1 11.6 33.9 11.8 34.0 Z M 31.6 34.3 C 31.4 34.2 31.2 34.2 31.1 34.2 C 31.0 34.3 30.9 34.3 30.8 34.1 C 30.0 34.2 29.6 34.9 29.1 35.1 C 28.0 35.5 27.6 34.1 26.9 34.0 C 27.1 34.0 27.3 34.0 27.4 33.9 C 27.7 33.5 25.0 33.7 24.9 33.7 C 22.6 34.0 25.3 34.4 25.3 35.1 C 25.3 35.5 23.8 34.6 23.7 34.6 C 23.0 34.3 22.9 35.0 22.3 34.7 C 22.0 34.6 21.1 32.9 20.9 33.1 C 20.7 33.3 20.0 33.1 19.7 33.1 C 19.3 33.1 18.6 33.2 19.0 33.8 C 19.3 34.2 19.4 34.7 18.8 34.2 C 18.4 34.0 15.8 32.9 15.9 34.2 C 15.9 34.3 16.5 34.6 16.5 34.6 C 15.8 34.9 13.6 34.5 13.0 35.0 C 11.8 36.1 13.4 34.3 12.8 34.0 C 11.8 33.4 11.2 33.0 9.9 33.3 C 9.6 33.3 8.4 33.4 9.0 34.0 C 9.4 34.5 9.1 34.8 9.9 34.9 C 9.0 35.6 8.5 34.4 8.3 34.6 C 8.1 35.0 8.5 35.2 7.9 35.1 C 7.2 35.0 7.5 35.2 7.4 34.6 C 7.3 34.4 6.7 34.2 6.7 34.2 C 6.7 34.2 6.7 34.1 6.7 34.1 C 6.1 34.1 5.1 35.3 5.0 35.0 C 4.8 34.8 5.2 34.0 5.2 33.8 C 5.1 33.7 5.1 33.7 5.0 33.7 C 4.7 33.8 4.1 34.3 4.0 34.2 C 3.9 34.1 4.4 32.9 4.1 33.3 C 3.8 33.6 2.5 33.2 2.4 32.8 C 2.3 32.5 2.0 31.0 1.8 30.9 C 1.5 30.8 2.0 30.1 2.1 29.9 C 2.2 29.7 2.8 29.5 2.9 29.4 C 3.0 29.4 3.3 28.8 3.3 28.8 C 3.3 28.8 3.3 28.5 3.5 28.0 C 3.7 27.6 4.2 27.4 4.7 27.0 C 5.2 26.5 5.0 26.1 5.2 25.5 C 5.4 25.0 6.5 25.0 6.9 24.6 C 7.3 24.3 6.6 23.9 6.9 23.3 C 7.2 22.7 7.5 22.5 7.5 22.7 C 7.5 23.0 7.8 22.9 7.9 22.7 C 8.0 22.6 8.6 22.1 8.6 21.7 C 8.6 21.4 7.1 22.8 8.4 20.7 C 9.1 19.7 10.2 19.4 10.0 19.7 C 9.6 20.5 11.6 19.5 11.3 19.3 C 10.9 19.0 12.1 17.3 11.3 17.4 C 11.0 17.4 11.9 15.5 12.1 15.3 C 12.4 15.2 12.7 14.2 13.4 14.3 C 13.8 14.4 13.6 12.9 13.8 12.7 C 13.9 12.5 14.8 11.1 15.2 10.9 C 15.5 10.7 15.1 11.4 14.9 11.7 C 14.7 12.0 14.2 12.3 14.1 12.6 C 14.0 12.9 14.6 12.5 14.8 12.1 C 15.1 11.8 15.4 11.9 15.7 11.7 C 15.7 11.5 15.9 11.3 16.1 11.0 C 16.1 10.9 16.1 10.7 16.0 10.7 C 15.9 10.6 15.6 10.7 15.6 10.6 C 15.5 10.5 15.5 10.2 15.8 9.8 C 16.0 9.3 16.3 9.0 16.8 8.5 C 17.3 8.1 17.2 7.8 17.4 7.4 C 17.6 7.0 17.9 6.7 18.0 6.7 C 18.2 6.8 17.9 7.3 18.0 7.4 C 18.1 7.5 18.7 7.1 18.9 7.0 C 19.6 6.0 20.1 7.4 20.8 6.4 C 21.2 5.8 21.2 6.7 21.3 7.2 C 21.4 7.1 21.5 7.1 21.9 7.6 C 22.1 7.5 22.3 8.2 22.6 8.6 C 22.7 8.8 23.7 9.9 22.9 9.3 C 22.8 9.3 22.8 9.2 22.7 9.2 C 22.7 9.2 22.7 9.2 22.7 9.2 C 22.7 9.2 22.0 9.2 22.0 9.2 C 22.0 9.2 22.7 9.3 22.7 9.3 C 22.6 9.5 22.5 9.8 22.4 10.0 C 22.5 10.0 22.6 10.1 22.7 10.1 C 22.7 10.1 22.7 10.1 22.8 10.1 C 22.8 10.1 22.8 10.1 22.8 10.1 C 23.0 9.9 23.0 10.0 23.0 10.2 C 23.6 10.6 23.9 11.9 24.0 12.4 C 22.1 11.9 23.4 14.0 24.0 14.6 C 24.5 15.2 25.9 14.3 25.7 14.0 C 26.0 14.5 25.9 14.7 25.5 15.1 C 25.6 15.0 25.1 16.1 25.1 16.1 C 25.3 17.5 26.3 16.6 26.6 16.8 C 27.0 17.0 27.2 17.4 27.5 17.7 C 27.8 18.0 27.9 17.5 28.1 17.5 C 28.9 17.7 28.3 19.1 28.5 19.5 C 28.2 19.3 27.9 19.0 27.6 18.8 C 28.1 19.0 27.5 19.7 27.6 19.9 C 27.7 20.3 28.0 20.8 28.3 21.1 C 28.7 21.8 29.3 22.4 29.7 23.0 C 29.7 22.7 29.9 21.3 29.8 21.2 C 30.0 21.4 30.2 22.1 30.6 21.6 C 31.2 20.7 31.7 22.6 31.9 22.9 C 32.3 23.8 33.7 24.3 33.3 25.7 C 33.3 25.7 32.2 24.5 32.1 24.6 C 31.6 25.4 31.4 26.0 32.1 26.8 C 32.2 26.9 33.6 27.8 33.6 27.8 C 33.5 27.8 34.5 25.5 34.6 27.0 C 34.6 27.2 34.0 27.0 34.1 27.3 C 34.1 27.8 34.6 28.3 34.8 28.8 C 34.8 28.8 35.0 29.7 35.1 29.7 C 35.4 29.7 35.8 29.5 36.1 29.7 C 36.3 29.9 36.3 30.3 36.1 30.5 C 36.0 30.5 36.0 30.5 36.0 30.5 C 36.0 30.6 35.9 30.7 35.8 30.8 C 35.9 30.9 36.0 31.0 35.9 31.3 C 35.9 31.4 35.6 31.1 35.6 30.9 C 35.6 30.9 35.5 30.9 35.3 31.0 C 35.6 31.3 35.9 31.6 35.9 31.6 C 36.7 32.0 36.9 31.8 36.8 33.1 C 36.6 34.1 34.2 34.8 32.7 34.5 C 32.4 34.6 32.0 34.5 31.6 34.3 Z M 16.9 10.6 C 16.9 10.6 16.8 10.6 16.8 10.7 C 16.9 10.7 17.1 10.8 17.2 10.9 C 17.5 10.6 16.9 10.8 17.2 10.5 C 17.4 10.2 17.3 10.2 16.9 10.6 Z M 20.2 10.8 C 20.3 10.5 20.2 10.6 20.0 10.7 C 20.1 10.7 20.2 10.8 20.2 10.8 Z M 21.7 10.1 C 21.3 9.8 21.2 10.7 21.7 11.3 C 21.8 10.7 21.8 10.3 21.7 10.1 Z M 22.9 10.8 C 22.8 10.8 22.7 10.8 22.6 10.8 C 22.4 10.9 22.9 11.2 22.7 11.2 C 22.5 11.3 22.0 10.9 22.1 11.3 C 22.1 11.4 22.1 11.5 22.1 11.6 C 22.2 11.6 22.3 11.6 22.3 11.7 C 22.6 11.7 23.0 11.1 22.9 10.8 Z M 16.7 13.0 C 16.7 12.8 16.6 12.9 16.5 13.1 C 16.5 13.3 16.7 13.3 16.7 13.0 Z M 14.0 14.8 C 14.3 14.7 14.4 14.4 14.1 14.5 C 13.8 14.5 13.8 14.9 14.0 14.8 Z M 17.9 18.4 C 17.9 18.3 17.9 18.4 17.8 18.5 C 17.7 18.8 18.0 18.6 17.9 18.4 Z M 20.7 18.6 C 20.9 18.8 21.1 18.5 21.0 18.4 C 20.8 18.4 20.5 18.5 20.7 18.6 Z M 14.4 18.3 C 14.3 18.5 14.6 18.5 14.5 18.3 C 14.5 18.1 14.4 18.1 14.4 18.3 Z M 18.1 17.7 C 17.9 17.9 17.9 18.0 18.0 18.1 C 18.1 18.2 18.3 18.1 18.4 17.9 C 18.5 17.6 18.4 17.5 18.1 17.7 Z M 20.5 17.5 C 20.8 18.2 21.2 18.0 20.6 17.3 C 20.0 16.6 20.2 17.1 20.5 17.5 Z M 12.2 16.2 C 12.3 16.1 12.4 15.7 12.4 15.7 C 12.4 15.7 11.7 16.6 12.2 16.2 Z M 26.8 17.7 C 26.6 17.5 26.3 17.4 26.5 17.8 C 26.6 18.2 26.9 18.0 26.8 17.7 Z M 25.6 19.1 C 26.0 18.5 25.9 18.0 25.9 18.0 C 25.9 18.1 25.4 18.2 25.2 18.1 C 24.8 17.7 25.0 16.9 24.4 16.7 C 23.8 16.4 24.3 17.4 24.4 17.6 C 24.3 17.5 24.2 17.5 24.0 17.5 C 23.9 17.7 23.9 17.8 24.1 17.9 C 24.4 18.1 25.2 19.7 25.6 19.1 Z M 19.0 19.1 C 19.1 18.8 18.9 18.5 18.6 18.7 C 18.3 18.9 18.2 19.1 18.3 19.3 C 18.3 19.4 18.9 19.3 19.0 19.1 Z M 16.9 19.3 C 16.8 19.0 16.8 19.1 16.7 19.3 C 16.5 19.8 17.0 19.6 16.9 19.3 Z M 8.1 23.1 C 8.2 23.4 8.5 22.9 8.3 22.9 C 8.2 22.8 8.1 22.9 8.1 23.1 Z M 11.6 23.0 C 11.5 23.6 12.0 23.1 12.0 23.0 C 12.0 22.9 11.7 22.7 11.6 23.0 Z M 13.7 21.0 C 13.6 21.2 13.9 21.0 13.9 20.8 C 13.8 20.7 13.7 20.8 13.7 21.0 Z M 15.0 20.7 C 14.9 20.9 15.3 20.9 15.3 20.6 C 15.3 20.4 15.1 20.5 15.0 20.7 Z M 26.2 21.8 C 26.2 21.8 25.7 21.9 26.1 22.1 C 26.6 22.4 26.6 22.4 26.2 21.8 Z M 22.2 20.8 C 22.0 20.5 21.6 20.2 20.5 20.6 C 19.4 20.9 19.9 21.2 20.5 21.3 C 21.2 21.5 19.4 22.0 20.7 22.3 C 21.2 22.4 22.5 21.1 22.2 20.8 Z M 15.1 22.8 C 15.8 22.4 15.6 21.4 15.2 21.9 C 14.7 22.6 14.5 23.1 15.1 22.8 Z M 14.6 22.8 C 14.6 22.7 14.5 22.7 14.4 22.9 C 14.3 23.1 14.6 23.0 14.6 22.8 Z M 31.1 22.3 C 30.1 21.2 30.2 22.9 30.2 22.9 C 30.6 24.4 32.1 23.3 31.1 22.3 Z M 7.3 33.5 C 7.3 33.5 7.4 33.5 7.4 33.5 C 7.5 33.5 7.5 33.5 7.5 33.5 C 7.7 33.3 7.2 33.1 7.2 33.1 C 7.2 33.2 7.2 33.4 7.3 33.5 Z M 14.5 33.8 C 14.2 33.8 13.9 33.8 13.8 34.0 C 13.9 34.6 16.0 34.6 15.2 33.5 C 15.1 33.4 13.7 32.4 13.6 33.0 C 13.5 33.3 15.2 33.8 14.5 33.8 Z M 12.2 32.9 C 13.1 33.0 11.5 32.1 11.7 32.5 C 11.8 32.7 12.0 32.9 12.2 32.9 Z M 5.9 30.9 C 4.7 31.4 5.0 33.1 6.7 32.2 C 8.5 31.3 8.6 30.6 7.7 30.8 C 6.8 31.1 7.5 30.2 5.9 30.9 Z M 15.2 30.9 C 15.0 32.2 15.5 31.8 15.8 30.9 C 15.9 30.7 15.3 30.2 15.2 30.9 Z M 17.8 30.7 C 18.1 30.9 18.1 30.8 17.9 30.6 C 17.7 30.4 17.4 30.6 17.8 30.7 Z M 4.0 29.2 C 3.6 29.4 3.3 29.9 3.3 29.6 C 3.3 29.3 3.2 29.4 2.9 29.7 C 2.6 29.9 3.2 29.9 3.5 29.9 C 3.7 29.9 4.5 29.0 4.0 29.2 Z M 14.0 25.1 C 13.9 25.3 14.2 25.2 14.2 25.0 C 14.2 24.8 14.1 24.9 14.0 25.1 Z M 23.8 23.8 C 23.8 23.8 23.5 23.9 23.8 24.0 C 24.0 24.2 24.0 24.2 23.8 23.8 Z M 31.7 24.2 C 31.5 24.0 31.5 24.5 31.0 24.5 C 30.9 24.4 31.1 24.2 31.2 24.2 C 31.1 24.2 30.1 24.4 30.8 24.7 C 31.0 24.9 32.2 24.7 31.7 24.2 Z M 16.7 25.4 C 17.1 25.0 15.5 24.7 15.7 24.4 C 16.0 24.1 15.8 24.0 15.5 24.4 C 15.1 24.8 16.3 25.8 16.7 25.4 Z M 12.5 25.7 C 12.8 25.6 13.5 24.8 13.1 25.0 C 12.6 25.2 12.3 25.7 12.3 25.4 C 12.3 25.1 12.2 25.2 12.0 25.4 C 11.6 25.7 12.2 25.7 12.5 25.7 Z M 5.5 26.0 C 5.7 25.9 5.9 25.4 5.6 25.6 C 5.4 25.7 5.4 26.0 5.5 26.0 Z M 25.0 26.4 C 24.7 26.3 24.6 26.3 24.9 26.7 C 25.2 27.0 25.3 26.5 25.0 26.4 Z M 6.2 27.1 C 6.6 26.8 5.9 27.0 6.2 26.7 C 6.4 26.4 6.3 26.4 5.9 26.8 C 5.6 27.1 5.7 27.5 6.2 27.1 Z M 31.3 27.5 C 31.2 27.4 30.9 27.6 31.0 27.7 C 31.3 27.8 31.5 27.5 31.3 27.5 Z M 28.7 28.5 C 28.7 28.4 28.6 28.2 28.6 28.1 C 27.4 26.5 28.3 29.6 28.7 28.5 Z M 24.7 28.2 C 25.2 28.1 24.6 27.8 24.6 27.9 C 24.5 28.1 24.5 28.2 24.7 28.2 Z M 20.3 28.3 C 20.2 28.5 20.6 28.4 20.5 28.2 C 20.5 28.0 20.4 28.1 20.3 28.3 Z M 34.5 29.0 C 34.5 28.8 34.3 28.9 34.4 29.1 C 34.4 29.2 34.6 29.3 34.5 29.0 Z M 23.5 29.2 C 23.6 29.1 23.6 29.1 23.4 29.2 C 23.2 29.2 23.5 29.3 23.5 29.2 Z M 10.1 29.3 C 10.2 29.2 10.3 29.1 10.4 29.0 C 10.3 28.7 9.5 28.6 9.5 28.4 C 9.5 28.3 9.5 28.3 9.5 28.3 C 9.5 28.3 9.5 28.3 9.5 28.2 C 9.5 28.1 9.6 28.0 9.6 28.1 C 9.8 28.0 9.9 28.0 10.1 28.0 C 9.8 27.7 9.5 27.5 9.3 27.7 C 9.0 28.0 8.9 28.6 9.0 29.0 C 9.2 29.1 9.4 29.2 9.5 29.3 C 9.5 29.2 9.5 29.2 9.6 29.2 C 9.7 28.9 9.9 28.8 9.9 29.0 C 9.9 29.1 9.9 29.3 9.8 29.3 C 9.9 29.3 10.0 29.3 10.1 29.3 Z M 21.8 29.8 C 22.2 29.7 21.9 29.6 21.5 29.4 C 21.2 29.4 21.5 30.0 21.8 29.8 Z M 34.0 29.5 C 33.9 29.5 33.8 29.6 33.7 29.7 C 33.8 29.7 33.8 29.7 33.9 29.7 C 34.1 29.8 34.4 29.8 34.6 29.9 C 34.6 29.6 34.5 29.4 34.0 29.5 Z M 30.2 30.8 C 30.3 30.7 31.9 30.8 31.6 30.4 C 31.2 29.9 31.9 29.3 30.7 29.5 C 30.1 29.6 29.7 30.5 29.1 30.6 C 26.3 31.3 29.9 31.4 30.6 31.5 C 30.8 31.6 30.0 30.9 30.2 30.8 Z M 26.4 31.6 C 26.3 31.9 26.7 32.2 26.9 32.2 C 27.6 32.1 26.6 31.3 26.4 31.6 Z M 34.4 32.0 C 34.4 32.0 34.4 32.0 34.4 31.9 C 34.3 31.9 34.3 32.0 34.3 32.1 C 34.3 32.1 34.3 32.1 34.4 32.0 Z M 36.4 32.3 C 35.7 31.5 35.7 33.0 35.9 33.4 C 36.1 33.9 36.7 32.8 36.4 32.3 Z M 28.6 33.0 C 28.0 32.9 27.4 34.6 28.4 34.5 C 29.3 34.4 29.8 33.1 28.6 33.0 Z M 22.6 35.1 C 22.9 34.9 23.5 35.2 23.1 35.4 C 23.0 35.5 22.6 35.1 22.6 35.1 Z M 31.5 36.0 C 31.3 35.9 31.5 35.8 31.5 35.8 C 31.6 36.1 31.6 36.1 31.5 36.0 Z M 30.7 34.8 C 30.9 34.9 31.3 35.0 31.5 35.0 C 31.7 35.1 31.1 35.2 31.0 35.2 C 30.8 35.2 30.7 34.8 30.7 34.8 Z M 25.9 34.6 C 26.2 34.8 25.8 34.8 25.6 34.8 C 25.4 34.7 25.8 34.5 25.9 34.6 Z M 27.0 35.0 C 26.9 35.0 27.0 34.8 27.2 34.8 C 27.5 34.8 27.2 35.1 27.0 35.0 Z M 25.1 34.1 C 25.6 33.9 26.3 33.8 26.2 34.3 C 26.2 34.5 24.1 34.4 25.1 34.1 Z M 25.1 34.1 " fill="#000000"></path></g></svg>