<?xml version="1.0" encoding="UTF-8" standalone="no"?><svg xmlns="http://www.w3.org/2000/svg" xmlns:xlink="http://www.w3.org/1999/xlink" clip-rule="evenodd" stroke-miterlimit="10" viewBox="0 0 161 165"><desc>SVG generated by Keynote</desc><defs></defs><g transform="matrix(1.00, 0.00, -0.00, -1.00, 0.0, 165.0)"><image xlink:href="../../60252C77-7F6D-4FAE-860E-2CB847E39FFD/assets/299D9EDC9BD20708ED64EE183F9BA7DB.png" width="158.00" height="158.00" transform="matrix(1.00, 0.00, -0.00, -1.00, 1.6, 159.7)" opacity="0.50"></image><g><clipPath id="clip0x6000014abdc0"><path d="M 133.7 135.7 C 162.9 106.4 162.9 59.0 133.7 29.7 C 104.4 0.4 56.9 0.4 27.6 29.7 C -1.7 59.0 -1.7 106.4 27.6 135.7 C 56.9 165.0 104.4 165.0 133.7 135.7 Z M 133.7 135.7 "></path></clipPath><g clip-path="url(#clip0x6000014abdc0)"><image xlink:href="../../60252C77-7F6D-4FAE-860E-2CB847E39FFD/assets/BF7F347A5AA08698479112B0B19D9FB4.png" width="512.00" height="512.00" transform="matrix(0.50, 0.00, -0.00, -0.50, 5.6, 157.7)"></image></g></g><image xlink:href="9DAF1324DB921B6CD7C474011786F7BA.png" width="120.00" height="28.00" transform="matrix(1.00, 0.00, -0.00, -1.00, 20.0, 93.0)"></image><g><clipPath id="clip0x6080016b1520"><path d="M 1.1 7.7 L 160.2 7.7 L 160.2 157.7 L 1.1 157.7 Z M 1.1 7.7 "></path></clipPath><g clip-path="url(#clip0x6080016b1520)"><text xml:space="preserve" font-family="HelveticaNeue-Medium,Helvetica Neue" font-size="23.0" fill="#FEFFFE" transform="matrix(1.00, 0.00, -0.00, -1.00, 23.5, 74.0)">j</text><text xml:space="preserve" font-family="HelveticaNeue-Medium,Helvetica Neue" font-size="23.0" fill="#FEFFFE" transform="matrix(1.00, 0.00, -0.00, -1.00, 29.1, 74.0)">P</text><text xml:space="preserve" font-family="HelveticaNeue-Medium,Helvetica Neue" font-size="23.0" fill="#FEFFFE" transform="matrix(1.00, 0.00, -0.00, -1.00, 44.4, 74.0)">e</text><text xml:space="preserve" font-family="HelveticaNeue-Medium,Helvetica Neue" font-size="23.0" fill="#FEFFFE" transform="matrix(1.00, 0.00, -0.00, -1.00, 57.2, 74.0)">o</text><text xml:space="preserve" font-family="HelveticaNeue-Medium,Helvetica Neue" font-size="23.0" fill="#FEFFFE" transform="matrix(1.00, 0.00, -0.00, -1.00, 70.8, 74.0)">p</text><text xml:space="preserve" font-family="HelveticaNeue-Medium,Helvetica Neue" font-size="23.0" fill="#FEFFFE" transform="matrix(1.00, 0.00, -0.00, -1.00, 84.9, 74.0)">l</text><text xml:space="preserve" font-family="HelveticaNeue-Medium,Helvetica Neue" font-size="23.0" fill="#FEFFFE" transform="matrix(1.00, 0.00, -0.00, -1.00, 90.4, 74.0)">e</text><text xml:space="preserve" font-family="HelveticaNeue-Medium,Helvetica Neue" font-size="23.0" fill="#FEFFFE" transform="matrix(1.00, 0.00, -0.00, -1.00, 103.2, 74.0)"> </text><text xml:space="preserve" font-family="HelveticaNeue-Medium,Helvetica Neue" font-size="23.0" fill="#FEFFFE" transform="matrix(1.00, 0.00, -0.00, -1.00, 109.6, 74.0)">F</text><text xml:space="preserve" font-family="HelveticaNeue-Medium,Helvetica Neue" font-size="23.0" fill="#FEFFFE" transform="matrix(1.00, 0.00, -0.00, -1.00, 123.2, 74.0)">E</text></g></g></g></svg>