<?xml version="1.0" encoding="UTF-8" standalone="no"?><svg xmlns="http://www.w3.org/2000/svg" xmlns:xlink="http://www.w3.org/1999/xlink" clip-rule="evenodd" stroke-miterlimit="10" viewBox="0 0 161 165"><desc>SVG generated by Keynote</desc><defs><linearGradient id="gradSh1.0" x1="0.0" y1="0.0" x2="100.0" y2="0.0" gradientUnits="userSpaceOnUse" gradientTransform="matrix(0.00, -1.52, -1.52, 0.00, 81.0, 159.0)"><stop offset="0.00000" stop-color="#EDAC0F"></stop><stop offset="0.01026" stop-color="#EDAC10"></stop><stop offset="0.01173" stop-color="#ECAB10"></stop><stop offset="0.81085" stop-color="#D47D20"></stop><stop offset="0.81158" stop-color="#D47C20"></stop><stop offset="1.00000" stop-color="#CE7123"></stop></linearGradient></defs><g transform="matrix(1.00, 0.00, -0.00, -1.00, 0.0, 165.0)"><image xlink:href="38F360998428FF48C700345CC67DFAF1.png" width="158.00" height="158.00" transform="matrix(1.00, 0.00, -0.00, -1.00, 1.7, 159.8)" opacity="0.50"></image><g><clipPath id="clip0x6000014af1e0"><path d="M 6.0 158.0 L 156.0 158.0 L 156.0 8.0 L 6.0 8.0 Z M 5.7 157.8 "></path></clipPath><g clip-path="url(#clip0x6000014af1e0)"><path d="M 6.0 158.0 L 156.0 158.0 L 156.0 8.0 L 6.0 8.0 Z M 5.7 157.8 " fill="url(#gradSh1.0)"></path></g></g><image xlink:href="68A4388AB0E0D5D859A3F88E6856D270.png" width="68.00" height="33.00" transform="matrix(1.00, 0.00, -0.00, -1.00, 45.0, 98.0)"></image><g><clipPath id="clip0x608001cb5540"><path d="M -3.8 7.8 L 165.2 7.8 L 165.2 157.8 L -3.8 157.8 Z M -3.8 7.8 "></path></clipPath><g clip-path="url(#clip0x608001cb5540)"><text xml:space="preserve" font-family="HelveticaNeue-Medium,Helvetica Neue" font-size="42.0" fill="#3B3B3B" transform="matrix(1.00, 0.00, -0.00, -1.00, 46.8, 67.1)">A</text><text xml:space="preserve" font-family="HelveticaNeue-Medium,Helvetica Neue" font-size="42.0" fill="#3B3B3B" transform="matrix(1.00, 0.00, -0.00, -1.00, 74.8, 67.1)">P</text><text xml:space="preserve" font-family="HelveticaNeue-Medium,Helvetica Neue" font-size="42.0" fill="#3B3B3B" transform="matrix(1.00, 0.00, -0.00, -1.00, 102.9, 67.1)">I</text></g></g></g></svg>