<?xml version="1.0" encoding="UTF-8" standalone="no"?><svg xmlns="http://www.w3.org/2000/svg" xmlns:xlink="http://www.w3.org/1999/xlink" clip-rule="evenodd" stroke-miterlimit="10" viewBox="0 0 379 96"><desc>SVG generated by Keynote</desc><defs></defs><g transform="matrix(1.00, 0.00, -0.00, -1.00, 0.0, 96.0)"><path d="M 17.8 16.1 C 17.5 16.2 16.8 15.8 16.6 16.0 M 17.8 16.1 C 17.3 14.9 16.0 14.6 14.3 14.1 C 12.4 13.7 14.2 15.1 13.9 15.5 C 11.3 15.5 11.5 14.7 12.0 13.6 C 11.0 14.2 8.4 12.3 8.7 13.9 C 12.7 14.6 5.9 13.8 9.0 15.2 C 9.4 15.5 8.3 15.7 8.0 15.6 C 9.0 16.4 7.0 16.8 8.6 17.5 C 8.7 18.5 8.5 18.0 9.5 19.0 C 9.9 19.2 9.8 18.8 9.8 18.6 C 10.1 17.5 11.0 19.4 12.1 18.9 C 12.6 20.5 13.8 19.0 13.2 18.2 C 14.0 18.6 14.7 20.2 15.7 19.3 C 16.1 20.1 18.4 20.0 17.2 18.9 C 16.4 18.2 17.5 18.0 17.7 17.7 C 17.4 17.3 16.0 17.5 15.8 17.2 C 16.3 17.0 18.1 16.8 16.3 16.6 C 16.9 16.2 16.1 15.7 17.8 16.1 C 17.8 16.1 17.8 16.1 17.8 16.1 Z M 11.2 14.1 C 11.3 13.7 11.9 14.2 11.2 14.1 C 11.2 14.1 11.2 14.1 11.2 14.1 Z M 14.9 19.9 C 15.0 19.5 15.5 20.0 14.9 19.9 C 14.9 19.9 14.9 19.9 14.9 19.9 Z M 10.1 18.7 C 10.1 18.3 10.7 18.8 10.1 18.7 C 10.1 18.7 10.1 18.7 10.1 18.7 Z M 12.9 14.7 C 13.9 15.2 12.0 15.0 11.9 14.6 C 12.1 14.7 12.7 14.3 12.9 14.7 C 12.9 14.7 12.9 14.7 12.9 14.7 Z M 12.7 16.8 C 12.8 16.7 13.2 16.7 13.1 17.1 C 12.8 17.2 12.6 17.0 12.7 16.8 C 12.7 16.8 12.7 16.8 12.7 16.8 Z M 7.8 14.4 C 7.9 14.3 8.3 14.3 8.2 14.7 C 7.9 14.7 7.6 14.5 7.8 14.4 C 7.8 14.4 7.8 14.4 7.8 14.4 Z M 14.0 15.9 C 14.2 16.0 14.2 16.3 13.9 16.3 C 13.8 16.1 13.1 15.9 14.0 15.9 C 14.0 15.9 14.0 15.9 14.0 15.9 Z M 15.8 14.9 C 16.7 15.2 14.8 15.5 14.8 15.3 C 14.6 15.0 15.4 14.5 15.8 14.9 C 15.8 14.9 15.8 14.9 15.8 14.9 Z M 14.4 16.5 C 15.1 16.8 14.0 16.7 14.4 16.5 C 14.4 16.5 14.4 16.5 14.4 16.5 Z M 8.0 17.3 C 8.7 17.6 7.6 17.5 8.0 17.3 C 8.0 17.3 8.0 17.3 8.0 17.3 Z M 11.6 19.1 C 12.3 19.4 11.3 19.3 11.6 19.1 C 11.6 19.1 11.6 19.1 11.6 19.1 Z M 10.9 15.1 C 9.6 14.8 10.9 14.1 10.9 15.1 C 10.9 15.1 10.9 15.1 10.9 15.1 Z M 17.9 15.2 C 16.6 14.9 17.9 14.2 17.9 15.2 C 17.9 15.2 17.9 15.2 17.9 15.2 Z M 353.0 74.8 C 354.2 74.8 349.9 72.8 351.3 74.6 C 351.6 75.9 348.5 75.2 349.5 74.2 C 348.6 73.9 348.6 73.9 348.0 74.4 C 348.1 73.4 346.0 72.6 345.2 72.9 C 344.6 73.6 346.6 73.3 345.2 73.9 C 342.5 73.6 345.2 74.8 344.0 75.6 C 343.9 75.6 344.0 75.1 343.7 75.3 C 343.4 76.2 344.8 77.1 344.0 77.7 C 344.4 77.6 346.2 79.0 345.5 78.0 C 345.4 77.1 347.5 79.5 347.5 78.0 C 348.1 78.8 348.9 78.0 349.4 78.9 C 349.8 79.2 349.9 78.4 349.9 78.2 C 350.0 77.5 350.2 79.8 351.2 78.8 C 351.2 79.1 353.4 79.4 351.9 78.5 C 352.3 78.7 354.7 79.5 353.6 78.0 C 352.0 77.0 355.7 76.9 353.6 76.5 C 352.1 76.1 351.8 76.3 353.0 75.8 C 353.4 76.0 355.2 76.1 353.8 75.3 C 353.4 75.4 352.7 75.1 353.0 74.8 C 353.0 74.8 353.0 74.8 353.0 74.8 Z M 353.0 76.8 C 352.1 76.7 353.0 76.3 353.0 76.8 C 353.0 76.8 353.0 76.8 353.0 76.8 Z M 349.2 79.2 C 348.3 79.1 349.2 78.7 349.2 79.2 C 349.2 79.2 349.2 79.2 349.2 79.2 Z M 350.2 74.0 C 349.7 74.3 349.8 72.9 350.2 74.0 C 350.2 74.0 350.2 74.0 350.2 74.0 Z M 350.9 78.4 C 350.8 78.3 351.1 78.2 351.2 78.2 C 351.2 78.2 350.9 78.4 350.9 78.4 C 350.9 78.4 350.9 78.4 350.9 78.4 Z M 348.7 73.7 C 347.3 74.1 348.6 72.6 348.7 73.7 C 348.7 73.7 348.7 73.7 348.7 73.7 Z M 345.8 74.5 C 345.4 75.9 344.4 74.0 345.8 74.5 C 345.8 74.5 345.8 74.5 345.8 74.5 Z M 347.1 77.8 C 347.4 77.6 347.3 78.0 347.1 77.8 C 347.1 77.8 347.1 77.8 347.1 77.8 Z M 352.9 79.1 C 353.2 78.8 353.1 79.3 352.9 79.1 C 352.9 79.1 352.9 79.1 352.9 79.1 Z M 345.5 77.4 C 345.7 76.9 345.9 77.8 345.5 77.4 C 345.5 77.4 345.5 77.4 345.5 77.4 Z M 349.9 74.5 C 351.3 73.6 351.1 76.3 349.9 74.5 C 349.9 74.5 349.9 74.5 349.9 74.5 Z M 352.1 74.8 C 353.0 74.7 351.8 75.4 351.5 75.2 C 351.5 75.1 351.9 74.8 352.1 74.8 C 352.1 74.8 352.1 74.8 352.1 74.8 Z M 348.6 74.4 C 349.5 74.0 349.3 74.8 348.6 74.4 C 348.6 74.4 348.6 74.4 348.6 74.4 Z M 350.8 74.2 C 351.2 74.4 350.4 74.3 350.8 74.2 C 350.8 74.2 350.8 74.2 350.8 74.2 Z M 347.1 73.0 C 347.5 73.2 346.7 73.1 347.1 73.0 C 347.1 73.0 347.1 73.0 347.1 73.0 Z M 353.2 74.4 C 353.6 74.6 352.8 74.5 353.2 74.4 C 353.2 74.4 353.2 74.4 353.2 74.4 Z M 347.3 73.7 C 347.1 74.2 348.1 75.5 346.1 74.2 C 345.8 73.8 346.8 73.3 347.3 73.7 C 347.3 73.7 347.3 73.7 347.3 73.7 Z M 21.7 16.8 C 16.4 14.3 17.2 17.2 16.9 17.7 C 16.0 18.2 16.7 18.8 17.7 19.5 C 18.6 21.4 19.8 18.1 20.3 19.9 C 21.4 22.4 22.3 18.3 22.6 20.7 C 22.2 21.3 24.4 21.2 24.3 21.0 C 25.2 22.3 27.1 20.6 27.1 20.4 C 27.8 20.8 27.5 22.9 30.0 21.8 C 31.8 21.5 32.2 23.7 32.0 22.2 C 33.0 24.1 33.0 21.9 34.2 22.7 C 34.9 23.7 34.4 21.3 35.7 23.3 C 36.6 22.1 34.8 24.1 39.3 23.8 C 37.2 23.4 41.5 23.1 40.5 23.9 C 38.9 24.6 42.6 23.9 44.4 24.8 C 45.0 24.4 47.6 23.6 47.0 24.9 C 48.7 26.8 49.2 24.3 49.8 25.7 C 50.4 26.4 50.8 25.3 51.3 25.4 C 51.8 26.5 52.6 26.0 55.0 26.7 C 60.4 28.2 56.3 24.4 58.4 24.4 C 58.8 24.0 56.4 20.3 57.2 22.9 C 56.9 22.2 52.0 23.9 54.7 21.6 C 52.8 22.4 55.2 20.6 51.6 21.3 C 55.9 23.9 46.1 21.1 50.8 21.0 C 50.1 20.3 48.2 20.1 49.5 20.8 C 49.7 22.5 46.4 19.4 47.9 21.8 C 45.1 20.7 45.6 22.7 45.0 21.3 C 44.7 19.0 45.0 21.9 43.7 21.0 C 40.3 20.3 43.4 18.3 41.0 19.6 C 37.9 17.9 40.1 20.4 38.9 20.5 C 38.3 21.9 35.7 18.7 38.3 19.0 C 36.8 19.5 38.2 18.2 36.5 18.9 C 37.3 20.5 34.8 17.1 35.0 18.3 C 33.6 18.4 34.2 19.3 33.7 19.3 C 31.7 18.9 32.6 17.7 32.0 18.6 C 31.4 19.1 30.8 17.1 30.4 17.5 C 32.5 18.0 28.4 18.7 28.4 17.9 C 29.7 18.0 28.0 16.0 27.0 16.9 C 27.5 20.2 25.3 15.8 24.2 16.7 C 24.8 18.6 19.6 16.1 21.8 15.7 C 21.7 15.8 21.7 16.8 21.7 16.8 M 29.8 17.7 C 31.5 18.1 27.9 17.7 29.8 17.7 M 29.8 17.2 C 30.4 17.9 28.2 16.5 29.9 17.0 C 29.9 17.1 29.7 17.2 29.8 17.2 M 36.9 18.4 C 36.6 18.9 36.0 18.0 36.9 18.4 M 38.1 19.7 C 39.1 20.4 36.5 19.5 38.1 19.7 M 53.8 22.1 C 51.8 24.4 52.4 20.4 53.8 22.1 M 43.5 19.8 C 41.6 19.8 44.4 18.9 43.5 19.8 M 42.9 20.3 C 41.9 20.6 42.8 19.7 42.9 20.3 M 50.8 21.6 C 51.0 21.7 51.0 21.7 50.8 21.6 C 50.8 21.6 50.8 21.6 50.8 21.6 Z M 55.5 22.5 C 55.5 22.5 55.5 22.5 55.5 22.5 C 55.5 22.5 55.5 22.5 55.5 22.5 Z M 46.3 21.1 C 44.9 20.2 48.7 21.3 46.3 21.1 C 46.3 21.1 46.3 21.1 46.3 21.1 Z M 52.6 26.0 C 52.5 26.0 52.5 26.0 52.6 26.0 C 52.6 26.0 52.6 26.0 52.6 26.0 Z M 28.2 18.6 C 28.1 18.6 28.1 18.6 28.2 18.6 C 28.2 18.6 28.2 18.6 28.2 18.6 Z M 23.1 16.7 C 23.1 17.1 22.2 16.3 23.1 16.7 C 23.1 16.7 23.1 16.7 23.1 16.7 Z M 18.3 18.8 C 18.2 18.9 18.2 18.9 18.3 18.8 C 18.3 18.8 18.3 18.8 18.3 18.8 Z M 26.2 19.6 C 26.1 19.6 26.1 19.6 26.2 19.6 C 26.2 19.6 26.2 19.6 26.2 19.6 Z M 27.3 17.9 C 26.7 16.3 29.2 18.6 27.3 17.9 C 27.3 17.9 27.3 17.9 27.3 17.9 Z M 43.9 24.3 C 44.0 23.7 45.1 24.7 43.9 24.3 C 43.9 24.3 43.9 24.3 43.9 24.3 Z M 38.2 20.3 C 38.5 20.0 38.9 20.6 38.2 20.3 C 38.2 20.3 38.2 20.3 38.2 20.3 Z M 35.6 17.9 C 35.9 17.6 36.3 18.2 35.6 17.9 C 35.6 17.9 35.6 17.9 35.6 17.9 Z M 23.2 16.3 C 23.4 16.3 23.4 16.3 23.2 16.3 C 23.2 16.3 23.2 16.3 23.2 16.3 Z M 25.0 17.7 C 23.9 16.2 26.9 18.8 25.0 17.7 C 25.0 17.7 25.0 17.7 25.0 17.7 Z M 22.6 17.7 C 23.3 18.3 21.0 17.2 22.6 17.7 M 23.6 19.9 C 25.3 19.7 21.7 22.0 23.6 19.9 C 23.6 19.9 23.6 19.9 23.6 19.9 Z M 31.6 21.9 C 31.7 22.0 31.7 22.0 31.6 21.9 C 31.6 21.9 31.6 21.9 31.6 21.9 Z M 31.5 17.9 C 32.9 18.2 30.5 18.1 31.5 17.9 C 31.5 17.9 31.5 17.9 31.5 17.9 Z M 19.2 15.5 C 20.6 15.8 18.3 15.6 19.2 15.5 C 19.2 15.5 19.2 15.5 19.2 15.5 Z M 36.6 21.5 C 39.0 21.7 35.1 21.9 36.6 21.5 C 36.6 21.5 36.6 21.5 36.6 21.5 Z M 45.4 21.5 C 45.5 21.5 45.5 21.5 45.4 21.5 C 45.4 21.5 45.4 21.5 45.4 21.5 Z M 47.1 21.2 C 47.1 21.2 47.1 21.2 47.1 21.2 C 47.1 21.2 47.1 21.2 47.1 21.2 Z M 53.4 23.7 C 53.5 23.8 53.5 23.8 53.4 23.7 C 53.4 23.7 53.4 23.7 53.4 23.7 Z M 48.6 20.8 C 48.7 20.9 48.7 20.9 48.6 20.8 C 48.6 20.8 48.6 20.8 48.6 20.8 Z M 53.1 22.0 C 53.2 22.0 53.2 22.0 53.1 22.0 C 53.1 22.0 53.1 22.0 53.1 22.0 Z M 52.7 20.7 C 52.8 20.8 52.8 20.8 52.7 20.7 C 52.7 20.7 52.7 20.7 52.7 20.7 Z M 41.5 24.6 C 41.6 24.7 41.6 24.7 41.5 24.6 C 41.5 24.6 41.5 24.6 41.5 24.6 Z M 25.8 16.3 C 25.9 16.5 25.9 16.5 25.8 16.3 C 25.8 16.3 25.8 16.3 25.8 16.3 Z M 52.7 22.4 C 52.7 22.5 52.7 22.5 52.7 22.4 C 52.7 22.4 52.7 22.4 52.7 22.4 Z M 41.3 21.5 C 41.2 22.6 40.6 19.8 41.6 21.5 C 41.6 21.5 41.3 21.3 41.3 21.5 M 42.5 23.6 C 42.4 23.6 42.4 23.6 42.5 23.6 C 42.5 23.6 42.5 23.6 42.5 23.6 Z M 37.3 23.4 C 37.3 23.4 37.3 23.4 37.3 23.4 C 37.3 23.4 37.3 23.4 37.3 23.4 Z M 47.9 20.5 C 47.8 19.8 49.0 21.2 47.7 20.5 M 53.1 25.7 C 53.0 25.0 54.3 26.4 52.9 25.7 M 17.5 15.6 C 17.3 16.0 16.6 15.2 17.5 15.6 M 36.1 23.8 C 35.8 24.2 35.2 23.3 36.1 23.8 M 38.7 22.8 C 38.6 22.1 39.9 23.5 38.5 22.8 M 49.7 25.0 C 49.7 25.0 49.7 25.0 49.7 25.0 C 49.7 25.0 49.7 25.0 49.7 25.0 Z M 33.6 18.4 C 33.7 18.5 33.7 18.5 33.6 18.4 C 33.6 18.4 33.6 18.4 33.6 18.4 Z M 39.5 20.8 C 38.9 19.8 40.5 21.6 39.5 20.8 M 31.5 19.6 C 30.5 18.3 33.4 20.3 31.5 19.6 M 55.7 26.4 C 54.6 24.9 56.6 27.3 55.7 26.4 M 49.5 22.0 C 48.3 20.5 50.4 22.9 49.5 22.0 M 34.7 19.2 C 34.8 18.5 36.1 19.8 34.7 19.2 M 20.8 16.1 C 19.5 15.7 22.6 15.8 20.8 16.1 M 46.3 24.5 C 46.4 24.5 46.4 24.5 46.3 24.5 C 46.3 24.5 46.3 24.5 46.3 24.5 Z M 24.2 21.7 C 24.2 21.7 24.2 21.7 24.2 21.7 C 24.2 21.7 24.2 21.7 24.2 21.7 Z M 58.2 22.5 C 58.3 22.6 58.3 22.6 58.2 22.5 C 58.2 22.5 58.2 22.5 58.2 22.5 Z M 48.5 22.4 C 48.6 22.5 48.6 22.5 48.5 22.4 C 48.5 22.4 48.5 22.4 48.5 22.4 Z M 55.6 21.9 C 55.7 22.0 55.7 22.0 55.6 21.9 C 55.6 21.9 55.6 21.9 55.6 21.9 Z M 44.1 22.7 C 44.1 22.7 44.1 22.7 44.1 22.7 C 44.1 22.7 44.1 22.7 44.1 22.7 Z M 43.8 19.3 C 43.8 19.3 43.8 19.3 43.8 19.3 C 43.8 19.3 43.8 19.3 43.8 19.3 Z M 38.9 19.8 C 38.9 19.9 38.9 19.9 38.9 19.8 C 38.9 19.8 38.9 19.8 38.9 19.8 Z M 45.9 19.9 C 48.7 20.2 44.3 20.7 45.9 19.9 C 45.9 19.9 45.9 19.9 45.9 19.9 Z M 40.5 22.3 C 40.5 22.3 40.5 22.3 40.5 22.3 C 40.5 22.3 40.5 22.3 40.5 22.3 Z M 40.5 19.9 C 42.4 19.3 41.2 21.7 40.5 19.9 M 32.9 17.8 C 33.5 17.4 33.0 18.6 32.9 17.8 M 29.0 21.5 C 29.0 21.6 29.0 21.6 29.0 21.5 C 29.0 21.5 29.0 21.5 29.0 21.5 Z M 29.9 21.3 C 30.0 21.4 30.0 21.4 29.9 21.3 C 29.9 21.3 29.9 21.3 29.9 21.3 Z M 31.0 17.2 C 31.1 17.3 31.1 17.3 31.0 17.2 C 31.0 17.2 31.0 17.2 31.0 17.2 Z M 29.8 22.5 C 29.9 22.6 29.9 22.6 29.8 22.5 C 29.8 22.5 29.8 22.5 29.8 22.5 Z M 42.7 19.2 C 42.8 19.2 42.8 19.2 42.7 19.2 C 42.7 19.2 42.7 19.2 42.7 19.2 Z M 57.0 21.6 C 57.1 21.7 57.1 21.7 57.0 21.6 C 57.0 21.6 57.0 21.6 57.0 21.6 Z M 20.6 19.5 C 20.6 19.6 20.6 19.6 20.6 19.5 C 20.6 19.5 20.6 19.5 20.6 19.5 Z M 44.0 20.7 C 44.0 20.8 44.0 20.8 44.0 20.7 C 44.0 20.7 44.0 20.7 44.0 20.7 Z M 27.0 20.9 C 27.1 21.0 27.1 21.0 27.0 20.9 C 27.0 20.9 27.0 20.9 27.0 20.9 Z M 43.1 20.3 C 43.2 20.3 43.2 20.3 43.1 20.3 C 43.1 20.3 43.1 20.3 43.1 20.3 Z M 45.8 24.6 C 45.9 24.7 45.9 24.7 45.8 24.6 C 45.8 24.6 45.8 24.6 45.8 24.6 Z M 48.8 25.9 C 48.8 25.9 48.8 25.9 48.8 25.9 C 48.8 25.9 48.8 25.9 48.8 25.9 Z M 46.0 22.3 C 46.1 22.4 46.1 22.4 46.0 22.3 C 46.0 22.3 46.0 22.3 46.0 22.3 Z M 26.3 19.4 C 20.8 17.3 30.8 19.7 26.3 19.4 M 46.9 22.8 C 43.0 21.8 50.3 22.1 46.9 22.8 C 47.4 22.5 47.0 22.7 46.9 22.8 M 59.7 22.2 C 57.9 23.1 57.7 24.3 58.1 25.6 C 58.8 26.4 59.2 24.0 58.9 26.0 C 57.0 26.1 59.2 29.2 59.6 26.6 C 62.1 26.7 59.7 28.3 61.3 27.5 C 64.0 27.7 62.5 28.3 64.5 28.5 C 65.9 27.3 65.6 29.4 66.3 28.1 C 65.1 29.4 68.5 28.1 68.5 28.8 C 66.5 29.4 75.4 30.0 70.7 28.7 C 72.8 28.4 72.2 29.6 72.8 29.9 C 73.8 29.1 75.9 31.1 77.2 30.5 C 77.0 30.2 76.4 30.1 76.3 29.7 C 76.1 29.1 77.6 30.1 77.5 30.0 C 78.3 29.9 81.6 29.5 78.0 30.5 C 77.7 31.1 80.8 30.6 80.6 31.2 C 83.5 31.8 81.5 30.0 82.6 31.3 C 84.7 31.6 86.2 31.9 86.2 31.7 C 87.5 32.1 87.6 33.0 88.8 32.4 C 91.1 34.4 91.2 29.7 91.6 32.9 C 92.4 32.3 92.8 34.4 93.0 32.5 C 92.0 33.2 97.1 34.8 95.1 33.0 C 95.7 32.7 98.6 35.6 98.5 33.6 C 99.9 32.4 99.9 31.0 97.6 29.2 C 97.7 30.4 95.1 27.6 96.7 29.8 C 98.8 30.9 92.6 29.8 94.0 29.4 C 94.7 27.2 90.7 30.2 89.7 28.4 C 90.6 29.5 85.5 29.0 87.3 27.6 C 86.4 27.3 86.0 28.1 85.1 26.9 C 88.1 27.6 83.7 28.4 84.0 27.5 C 84.7 26.9 80.2 25.6 80.5 26.6 C 81.7 29.2 79.5 26.0 78.5 26.7 C 76.0 26.8 79.3 24.8 77.1 26.2 C 76.7 25.8 73.4 25.2 75.5 25.1 C 76.3 25.5 73.1 27.3 73.1 25.3 C 76.9 24.8 69.2 24.0 70.3 24.8 C 75.5 26.8 64.3 25.0 68.7 24.7 C 66.5 23.1 69.5 24.4 66.4 24.3 C 66.7 25.0 64.3 25.2 65.0 24.0 C 64.9 22.1 63.8 26.4 62.4 23.5 C 62.3 22.3 58.6 23.6 60.1 22.7 C 60.2 22.5 59.8 22.2 59.7 22.2 M 60.7 22.6 C 60.3 23.0 60.2 22.0 60.7 22.6 M 60.2 23.0 C 60.2 22.9 60.2 22.9 60.2 23.0 C 60.2 23.0 60.2 23.0 60.2 23.0 Z M 66.0 24.3 C 65.9 24.2 65.9 24.2 66.0 24.3 C 66.0 24.3 66.0 24.3 66.0 24.3 Z M 69.7 29.8 C 69.7 29.7 69.7 29.7 69.7 29.8 C 69.7 29.8 69.7 29.8 69.7 29.8 Z M 69.8 25.1 C 69.8 25.1 69.8 25.1 69.8 25.1 C 69.8 25.1 69.8 25.1 69.8 25.1 Z M 63.9 24.2 C 63.8 24.2 63.8 24.2 63.9 24.2 C 63.9 24.2 63.9 24.2 63.9 24.2 Z M 69.6 24.3 C 69.8 25.1 68.3 23.6 69.7 24.2 C 69.7 24.3 69.5 24.2 69.6 24.3 M 74.7 24.9 C 74.7 25.0 74.7 25.0 74.7 24.9 M 84.8 32.4 C 84.9 32.5 84.9 32.5 84.8 32.4 M 86.7 27.0 C 86.9 27.1 86.9 27.1 86.7 27.0 M 79.6 26.5 C 81.2 26.7 79.9 27.0 79.6 26.5 M 90.7 28.1 C 88.9 27.3 92.9 28.1 90.7 28.1 M 92.7 28.1 C 92.9 28.1 92.9 28.1 92.7 28.1 M 83.9 26.8 C 83.8 26.8 83.8 26.8 83.9 26.8 C 83.9 26.8 83.9 26.8 83.9 26.8 Z M 79.0 26.1 C 77.0 25.4 81.2 25.8 79.0 26.1 M 66.8 23.7 C 67.9 23.6 66.6 24.6 66.8 23.7 M 64.4 23.7 C 64.4 23.7 64.4 23.7 64.4 23.7 C 64.4 23.7 64.4 23.7 64.4 23.7 Z M 87.6 27.5 C 87.6 27.5 87.6 27.5 87.6 27.5 C 87.6 27.5 87.6 27.5 87.6 27.5 Z M 89.9 27.8 C 89.8 27.8 89.8 27.8 89.9 27.8 C 89.9 27.8 89.9 27.8 89.9 27.8 Z M 92.7 33.6 C 92.6 33.6 92.6 33.6 92.7 33.6 C 92.7 33.6 92.7 33.6 92.7 33.6 Z M 65.7 26.1 C 64.3 25.5 67.6 24.7 67.0 25.9 C 67.1 26.5 65.9 26.1 65.7 26.1 M 77.2 27.4 C 77.3 29.3 76.2 24.8 77.2 27.4 M 92.8 29.3 C 93.9 31.6 91.1 27.4 92.8 29.3 M 95.9 29.4 C 96.7 30.0 90.2 28.7 94.9 28.9 C 95.4 28.7 95.6 29.2 95.9 29.4 M 74.6 25.8 C 74.9 26.8 72.3 24.9 74.6 25.8 M 83.4 30.3 C 84.2 29.8 86.2 29.6 85.2 30.6 C 85.0 31.9 82.4 30.7 83.4 30.3 M 61.0 23.7 C 62.5 22.4 60.7 25.0 61.0 23.7 M 66.9 24.9 C 66.9 24.8 66.9 24.8 66.9 24.9 C 66.9 24.9 66.9 24.9 66.9 24.9 Z M 69.2 25.0 C 69.3 25.2 69.3 25.2 69.2 25.0 M 62.2 22.5 C 62.3 22.6 62.3 22.6 62.2 22.5 M 83.6 28.7 C 83.7 28.9 83.7 28.9 83.6 28.7 M 79.1 26.9 C 81.0 28.8 77.8 27.0 79.1 26.9 M 73.0 28.8 C 73.6 29.7 71.6 28.6 73.0 28.8 M 82.9 26.9 C 84.2 28.7 80.5 27.9 82.9 26.9 M 78.0 26.5 C 78.1 26.5 78.1 26.5 78.0 26.5 C 78.0 26.5 78.0 26.5 78.0 26.5 Z M 83.9 30.6 C 83.9 30.6 83.9 30.6 83.9 30.6 C 83.9 30.6 83.9 30.6 83.9 30.6 Z M 84.7 30.7 C 84.6 30.7 84.6 30.7 84.7 30.7 C 84.7 30.7 84.7 30.7 84.7 30.7 Z M 84.9 27.1 C 84.8 27.1 84.8 27.1 84.9 27.1 C 84.9 27.1 84.9 27.1 84.9 27.1 Z M 63.6 27.7 C 65.1 28.1 62.3 27.7 63.6 27.7 C 63.6 27.7 63.6 27.7 63.6 27.7 Z M 71.4 24.7 C 73.9 26.3 69.4 25.4 71.4 24.7 C 71.4 24.7 71.4 24.7 71.4 24.7 Z M 74.1 27.1 C 74.1 27.2 74.1 27.2 74.1 27.1 C 74.1 27.1 74.1 27.1 74.1 27.1 Z M 82.0 25.9 C 82.0 25.9 82.0 25.9 82.0 25.9 C 82.0 25.9 82.0 25.9 82.0 25.9 Z M 64.3 28.0 C 64.3 28.1 64.3 28.1 64.3 28.0 C 64.3 28.0 64.3 28.0 64.3 28.0 Z M 89.3 28.7 C 89.3 28.8 89.3 28.8 89.3 28.7 C 89.3 28.7 89.3 28.7 89.3 28.7 Z M 79.6 30.1 C 80.2 29.6 79.6 30.5 79.6 30.1 C 79.6 30.1 79.6 30.1 79.6 30.1 Z M 82.0 30.5 C 82.0 30.5 82.0 30.5 82.0 30.5 C 82.0 30.5 82.0 30.5 82.0 30.5 Z M 93.3 28.0 C 93.4 28.0 93.4 28.0 93.3 28.0 C 93.3 28.0 93.3 28.0 93.3 28.0 Z M 87.8 33.0 C 87.9 33.0 87.9 33.0 87.8 33.0 C 87.8 33.0 87.8 33.0 87.8 33.0 Z M 90.1 31.6 C 90.1 31.6 90.1 31.6 90.1 31.6 C 90.1 31.6 90.1 31.6 90.1 31.6 Z M 84.4 27.4 C 86.8 27.5 83.7 27.9 84.4 27.4 C 84.4 27.4 84.4 27.4 84.4 27.4 Z M 96.1 32.2 C 96.2 32.3 96.2 32.3 96.1 32.2 C 96.1 32.2 96.1 32.2 96.1 32.2 Z M 97.7 30.4 C 97.8 30.5 97.8 30.5 97.7 30.4 C 97.7 30.4 97.7 30.4 97.7 30.4 Z M 98.5 29.5 C 98.6 29.6 98.6 29.6 98.5 29.5 C 98.5 29.5 98.5 29.5 98.5 29.5 Z M 68.8 27.2 C 68.8 27.1 68.8 27.1 68.8 27.2 C 68.8 27.2 68.8 27.2 68.8 27.2 Z M 68.4 23.8 C 68.4 23.7 68.4 23.7 68.4 23.8 C 68.4 23.8 68.4 23.8 68.4 23.8 Z M 71.7 24.2 C 71.7 24.2 71.7 24.2 71.7 24.2 C 71.7 24.2 71.7 24.2 71.7 24.2 Z M 67.9 29.0 C 67.8 29.0 67.8 29.0 67.9 29.0 C 67.9 29.0 67.9 29.0 67.9 29.0 Z M 80.5 28.4 C 80.5 28.4 80.5 28.4 80.5 28.4 C 80.5 28.4 80.5 28.4 80.5 28.4 Z M 81.4 29.9 C 81.4 29.9 81.4 29.9 81.4 29.9 C 81.4 29.9 81.4 29.9 81.4 29.9 Z M 78.3 31.2 C 78.3 31.1 78.3 31.1 78.3 31.2 C 78.3 31.2 78.3 31.2 78.3 31.2 Z M 82.1 31.2 C 82.1 31.2 82.1 31.2 82.1 31.2 C 82.1 31.2 82.1 31.2 82.1 31.2 Z M 59.8 27.0 C 59.8 27.0 59.8 27.0 59.8 27.0 C 59.8 27.0 59.8 27.0 59.8 27.0 Z M 60.0 24.5 C 60.0 24.5 60.0 24.5 60.0 24.5 C 60.0 24.5 60.0 24.5 60.0 24.5 Z M 81.2 26.7 C 81.9 26.3 82.2 27.6 81.2 26.7 M 76.5 26.2 C 76.5 26.2 76.5 26.2 76.5 26.2 C 76.5 26.2 76.5 26.2 76.5 26.2 Z M 89.0 28.2 C 89.4 29.2 86.9 27.3 89.0 28.2 C 89.0 28.2 89.0 28.2 89.0 28.2 Z M 85.8 31.9 C 85.9 31.9 85.9 31.9 85.8 31.9 C 85.8 31.9 85.8 31.9 85.8 31.9 Z M 87.1 31.7 C 87.2 31.8 87.2 31.8 87.1 31.7 C 87.1 31.7 87.1 31.7 87.1 31.7 Z M 94.3 30.2 C 94.4 30.3 94.4 30.3 94.3 30.2 M 76.1 25.2 C 76.7 25.8 76.6 25.7 76.1 25.2 M 90.6 28.5 C 90.5 28.5 90.5 28.5 90.6 28.5 C 90.6 28.5 90.6 28.5 90.6 28.5 Z M 95.9 29.9 C 95.8 29.9 95.8 29.9 95.9 29.9 C 95.9 29.9 95.9 29.9 95.9 29.9 Z M 72.7 25.3 C 72.6 26.5 72.0 26.1 72.7 25.3 M 63.4 24.0 C 63.4 24.1 63.4 24.1 63.4 24.0 C 63.4 24.0 63.4 24.0 63.4 24.0 Z M 103.4 30.3 C 101.1 28.6 100.7 30.4 100.7 30.5 C 101.5 28.0 98.3 31.1 98.7 31.7 C 98.6 32.0 99.8 36.7 102.0 34.4 C 102.5 34.1 102.7 34.9 103.0 35.1 C 106.1 35.5 101.1 33.3 104.9 34.0 C 105.5 34.5 104.3 36.4 106.8 35.4 C 106.9 35.6 109.2 36.8 108.5 35.7 C 109.5 36.9 110.5 35.8 111.6 35.8 C 112.5 36.5 110.5 37.2 114.3 36.6 C 115.6 38.6 116.7 35.7 117.7 37.9 C 118.6 38.1 120.6 35.2 118.1 36.6 C 118.5 36.5 117.4 34.8 120.2 35.8 C 119.7 36.1 117.6 39.0 122.3 38.3 C 123.0 38.5 124.9 38.0 125.2 38.4 C 122.9 38.3 128.1 40.4 127.8 39.3 C 131.2 40.6 129.4 38.8 131.8 40.3 C 133.9 40.7 131.4 38.8 133.9 40.1 C 135.9 40.3 134.4 40.8 134.2 40.7 C 135.9 41.2 136.6 40.7 137.2 40.9 C 137.6 41.1 138.2 41.9 138.8 41.2 C 140.9 40.0 139.5 38.3 140.5 37.0 C 139.3 36.1 139.7 38.0 139.0 36.8 C 138.2 37.6 138.9 36.7 135.3 36.2 C 135.3 36.5 136.1 37.2 135.2 37.2 C 133.8 36.8 135.2 34.5 132.6 35.9 C 135.3 36.9 128.6 36.0 131.1 36.9 C 127.8 36.7 130.2 36.6 128.0 35.6 C 127.8 37.2 128.1 33.8 127.0 34.9 C 126.9 34.2 123.2 33.9 125.6 35.3 C 121.8 35.1 124.3 34.6 123.1 33.5 C 121.4 33.1 122.5 36.1 121.8 33.9 C 119.7 32.6 121.5 34.9 120.2 33.0 C 120.7 34.6 118.5 32.7 118.9 34.4 C 115.0 33.8 119.6 32.8 116.7 33.4 C 117.5 33.6 117.6 31.5 115.7 32.5 C 116.0 35.1 113.9 30.0 114.5 33.4 C 108.9 33.4 113.8 31.9 110.9 31.4 C 110.1 31.3 111.5 32.6 110.8 32.5 C 107.1 31.4 110.4 31.1 108.1 32.3 C 104.3 32.1 107.3 30.8 105.4 30.3 C 105.2 31.1 103.4 32.1 103.4 30.3 M 106.6 31.7 C 107.5 31.3 107.0 32.3 106.6 31.7 M 99.1 29.6 C 100.0 29.2 99.5 30.2 99.1 29.6 M 109.8 31.8 C 110.9 31.5 110.0 32.7 109.8 31.8 M 130.0 36.2 C 128.6 35.9 130.8 35.9 130.0 36.2 M 102.2 30.0 C 103.4 29.6 102.3 31.0 102.2 30.0 M 100.6 31.0 C 100.6 31.1 100.6 31.1 100.6 31.0 M 132.3 35.2 C 132.4 35.3 132.4 35.3 132.3 35.2 M 126.8 34.2 C 128.0 34.5 126.1 34.5 126.8 34.2 M 125.7 39.5 C 126.9 39.7 125.0 39.7 125.7 39.5 M 135.3 35.7 C 136.5 35.5 135.5 36.3 135.3 35.7 M 138.1 37.4 C 139.2 37.1 138.7 38.0 138.1 37.4 M 105.6 33.4 C 105.6 33.5 105.6 33.5 105.6 33.4 C 105.6 33.4 105.6 33.4 105.6 33.4 Z M 115.4 36.5 C 114.3 35.8 116.7 37.4 115.4 36.5 M 114.1 32.7 C 114.7 33.9 112.6 32.4 114.1 32.7 C 114.1 32.7 114.1 32.7 114.1 32.7 Z M 112.3 32.9 C 112.3 32.9 112.3 32.9 112.3 32.9 C 112.3 32.9 112.3 32.9 112.3 32.9 Z M 117.9 34.0 C 117.9 34.0 117.9 34.0 117.9 34.0 C 117.9 34.0 117.9 34.0 117.9 34.0 Z M 116.8 33.8 C 116.3 34.0 116.1 33.5 116.8 33.8 C 116.8 33.8 116.8 33.8 116.8 33.8 Z M 124.4 38.7 C 123.8 38.9 123.8 38.4 124.4 38.7 C 124.4 38.7 124.4 38.7 124.4 38.7 Z M 114.9 33.9 C 114.6 35.0 114.2 33.1 114.9 33.9 C 114.9 33.9 114.9 33.9 114.9 33.9 Z M 120.5 37.5 C 121.1 37.3 121.4 38.7 120.5 37.5 M 133.4 35.6 C 133.9 35.4 134.3 36.8 133.4 35.6 M 121.5 33.2 C 122.0 33.0 122.4 34.4 121.5 33.2 M 107.3 31.3 C 107.4 31.5 107.4 31.5 107.3 31.3 M 113.1 37.2 C 114.0 36.9 113.5 37.7 113.1 37.2 M 101.9 34.8 C 102.8 34.6 102.2 35.4 101.9 34.8 M 130.8 40.3 C 130.8 40.0 132.0 40.6 130.8 40.3 M 122.6 35.2 C 123.6 35.5 124.6 36.3 122.4 35.8 C 122.3 35.5 123.0 35.5 122.6 35.2 C 122.6 35.2 122.6 35.2 122.6 35.2 Z M 125.9 38.3 C 126.1 38.4 126.1 38.4 125.9 38.3 M 124.6 34.5 C 124.8 34.6 124.8 34.6 124.6 34.5 M 130.7 35.7 C 130.8 35.9 130.8 35.9 130.7 35.7 M 131.6 35.5 C 131.5 35.6 131.5 35.6 131.6 35.5 C 131.6 35.5 131.6 35.5 131.6 35.5 Z M 138.3 36.3 C 138.3 36.3 138.3 36.3 138.3 36.3 C 138.3 36.3 138.3 36.3 138.3 36.3 Z M 128.8 35.5 C 128.7 35.5 128.7 35.5 128.8 35.5 C 128.8 35.5 128.8 35.5 128.8 35.5 Z M 133.6 40.6 C 133.6 40.6 133.6 40.6 133.6 40.6 C 133.6 40.6 133.6 40.6 133.6 40.6 Z M 133.0 39.8 C 133.0 39.8 133.0 39.8 133.0 39.8 C 133.0 39.8 133.0 39.8 133.0 39.8 Z M 103.9 30.4 C 105.0 29.8 104.1 32.4 103.9 30.4 M 136.0 40.3 C 136.7 41.2 134.4 40.2 136.0 40.3 C 136.0 40.3 136.0 40.3 136.0 40.3 Z M 127.9 36.3 C 127.9 36.4 127.9 36.4 127.9 36.3 M 131.9 35.7 C 132.0 35.8 132.0 35.8 131.9 35.7 M 114.3 31.7 C 114.3 31.9 114.3 31.9 114.3 31.7 M 136.6 36.7 C 139.4 37.5 135.0 38.0 136.6 36.7 M 112.8 32.5 C 112.7 32.4 112.7 32.4 112.8 32.5 M 118.8 35.7 C 120.8 35.9 118.0 36.1 118.8 35.7 M 123.9 35.2 C 123.9 35.2 123.9 35.2 123.9 35.2 C 123.9 35.2 123.9 35.2 123.9 35.2 Z M 121.1 34.7 C 119.7 34.6 120.8 34.3 121.1 34.7 C 121.1 34.7 121.1 34.7 121.1 34.7 Z M 105.1 31.7 C 106.8 32.1 103.2 31.7 105.1 31.7 C 105.1 31.7 105.1 31.7 105.1 31.7 Z M 134.8 39.0 C 134.8 39.1 134.8 39.1 134.8 39.0 C 134.8 39.0 134.8 39.0 134.8 39.0 Z M 128.5 34.7 C 127.7 34.8 128.2 34.3 128.5 34.7 C 128.5 34.7 128.5 34.7 128.5 34.7 Z M 139.3 36.5 C 138.5 36.6 139.0 36.1 139.3 36.5 C 139.3 36.5 139.3 36.5 139.3 36.5 Z M 102.9 31.1 C 109.2 34.0 94.2 29.1 102.9 31.1 C 102.9 31.1 102.9 31.1 102.9 31.1 Z M 122.4 34.1 C 122.3 34.2 122.3 34.2 122.4 34.1 C 122.4 34.1 122.4 34.1 122.4 34.1 Z M 110.3 31.2 C 110.2 31.3 110.2 31.3 110.3 31.2 C 110.3 31.2 110.3 31.2 110.3 31.2 Z M 108.0 31.9 C 108.0 31.9 108.0 31.9 108.0 31.9 C 108.0 31.9 108.0 31.9 108.0 31.9 Z M 107.9 36.1 C 107.8 36.2 107.8 36.2 107.9 36.1 C 107.9 36.1 107.9 36.1 107.9 36.1 Z M 108.9 34.4 C 108.8 34.5 108.8 34.5 108.9 34.4 C 108.9 34.4 108.9 34.4 108.9 34.4 Z M 104.5 34.3 C 104.5 34.4 104.5 34.4 104.5 34.3 C 104.5 34.3 104.5 34.3 104.5 34.3 Z M 104.5 34.9 C 104.5 34.9 104.5 34.9 104.5 34.9 C 104.5 34.9 104.5 34.9 104.5 34.9 Z M 131.7 36.9 C 131.6 37.0 131.6 37.0 131.7 36.9 C 131.7 36.9 131.7 36.9 131.7 36.9 Z M 129.1 38.2 C 130.8 37.9 128.5 39.0 129.1 38.2 C 129.1 38.2 129.1 38.2 129.1 38.2 Z M 115.6 35.0 C 117.1 35.0 114.6 35.3 115.6 35.0 C 115.6 35.0 115.6 35.0 115.6 35.0 Z M 116.7 37.5 C 116.8 37.5 116.8 37.5 116.7 37.5 C 116.7 37.5 116.7 37.5 116.7 37.5 Z M 108.2 30.8 C 108.1 30.9 108.1 30.9 108.2 30.8 C 108.2 30.8 108.2 30.8 108.2 30.8 Z M 105.5 31.1 C 105.2 32.0 104.8 30.5 105.5 31.1 M 118.7 32.9 C 118.7 33.0 118.7 33.0 118.7 32.9 C 118.7 32.9 118.7 32.9 118.7 32.9 Z M 126.7 35.8 C 126.7 35.8 126.7 35.8 126.7 35.8 C 126.7 35.8 126.7 35.8 126.7 35.8 Z M 135.1 36.6 C 135.0 36.8 135.0 36.8 135.1 36.6 C 135.1 36.6 135.1 36.6 135.1 36.6 Z M 123.8 33.9 C 123.8 34.0 123.8 34.0 123.8 33.9 C 123.8 33.9 123.8 33.9 123.8 33.9 Z M 119.8 34.0 C 119.7 34.2 119.7 34.2 119.8 34.0 C 119.8 34.0 119.8 34.0 119.8 34.0 Z M 136.7 38.2 C 136.6 38.3 136.6 38.3 136.7 38.2 C 136.7 38.2 136.7 38.2 136.7 38.2 Z M 124.8 34.0 C 124.7 34.0 124.7 34.0 124.8 34.0 C 124.8 34.0 124.8 34.0 124.8 34.0 Z M 126.7 37.2 C 126.6 37.3 126.6 37.3 126.7 37.2 C 126.7 37.2 126.7 37.2 126.7 37.2 Z M 106.1 29.9 C 106.0 29.9 106.0 29.9 106.1 29.9 C 106.1 29.9 106.1 29.9 106.1 29.9 Z M 137.0 37.0 C 136.9 37.1 136.9 37.1 137.0 37.0 C 137.0 37.0 137.0 37.0 137.0 37.0 Z M 137.6 36.3 C 137.6 36.4 137.6 36.4 137.6 36.3 C 137.6 36.3 137.6 36.3 137.6 36.3 Z M 131.0 39.5 C 128.2 38.5 133.7 39.8 131.7 38.5 C 135.9 39.0 131.6 39.7 131.0 39.5 C 131.0 39.5 131.0 39.5 131.0 39.5 Z M 141.6 36.7 C 139.7 37.6 139.5 38.8 140.0 40.1 C 140.7 40.9 141.1 38.5 140.8 40.5 C 138.9 40.6 141.0 43.7 141.5 41.1 C 143.9 41.1 141.6 42.8 143.2 42.0 C 145.8 42.2 144.4 42.8 146.4 43.0 C 147.8 41.8 147.4 43.9 148.2 42.6 C 146.9 43.9 150.4 42.6 150.3 43.3 C 148.4 43.8 157.3 44.5 152.6 43.2 C 154.6 42.9 154.1 44.0 154.7 44.3 C 155.7 43.6 157.8 45.6 159.1 44.9 C 158.9 44.7 158.3 44.5 158.2 44.2 C 157.9 43.6 159.5 44.6 159.3 44.5 C 160.2 44.3 163.5 44.0 159.9 45.0 C 159.6 45.6 162.6 45.1 162.4 45.7 C 165.3 46.3 163.4 44.5 164.5 45.7 C 166.6 46.1 168.1 46.4 168.1 46.2 C 169.3 46.6 169.4 47.5 170.7 46.9 C 173.0 48.9 173.0 44.2 173.4 47.4 C 174.3 46.8 174.6 48.9 174.9 47.0 C 173.8 47.7 178.9 49.3 176.9 47.5 C 177.6 47.2 180.5 50.1 180.3 48.1 C 181.7 46.9 181.8 45.5 179.5 43.7 C 179.6 44.9 177.0 42.1 178.6 44.3 C 180.6 45.3 174.4 44.3 175.9 43.8 C 176.6 41.7 172.6 44.7 171.6 42.9 C 172.5 43.9 167.4 43.5 169.1 42.1 C 168.2 41.8 167.9 42.5 167.0 41.4 C 170.0 42.1 165.5 42.9 165.9 41.9 C 166.5 41.4 162.1 40.1 162.4 41.1 C 163.6 43.7 161.3 40.4 160.4 41.2 C 157.8 41.3 161.1 39.3 159.0 40.7 C 158.5 40.3 155.2 39.7 157.4 39.6 C 158.1 40.0 155.0 41.8 155.0 39.8 C 158.7 39.3 151.0 38.4 152.1 39.3 C 157.4 41.3 146.1 39.5 150.6 39.1 C 148.4 37.6 151.4 38.8 148.3 38.8 C 148.6 39.5 146.1 39.6 146.9 38.5 C 146.8 36.6 145.7 40.8 144.3 38.0 C 144.2 36.8 140.5 38.1 142.0 37.1 C 142.1 37.0 141.6 36.7 141.6 36.7 M 142.6 37.1 C 142.1 37.5 142.0 36.5 142.6 37.1 M 142.1 37.4 C 142.1 37.4 142.1 37.4 142.1 37.4 C 142.1 37.4 142.1 37.4 142.1 37.4 Z M 147.8 38.8 C 147.8 38.7 147.8 38.7 147.8 38.8 C 147.8 38.8 147.8 38.8 147.8 38.8 Z M 151.6 44.3 C 151.6 44.2 151.6 44.2 151.6 44.3 C 151.6 44.3 151.6 44.3 151.6 44.3 Z M 151.7 39.6 C 151.6 39.5 151.6 39.5 151.7 39.6 C 151.7 39.6 151.7 39.6 151.7 39.6 Z M 145.7 38.7 C 145.7 38.7 145.7 38.7 145.7 38.7 C 145.7 38.7 145.7 38.7 145.7 38.7 Z M 151.4 38.8 C 151.6 39.6 150.2 38.1 151.5 38.7 C 151.6 38.8 151.3 38.7 151.4 38.8 M 156.5 39.4 C 156.6 39.5 156.6 39.5 156.5 39.4 M 166.7 46.9 C 166.7 47.0 166.7 47.0 166.7 46.9 M 168.6 41.5 C 168.7 41.6 168.7 41.6 168.6 41.5 M 161.4 41.0 C 163.0 41.2 161.8 41.4 161.4 41.0 M 172.6 42.6 C 170.8 41.8 174.8 42.6 172.6 42.6 M 174.6 42.5 C 174.7 42.6 174.7 42.6 174.6 42.5 M 165.8 41.3 C 165.7 41.3 165.7 41.3 165.8 41.3 C 165.8 41.3 165.8 41.3 165.8 41.3 Z M 160.9 40.6 C 158.9 39.9 163.0 40.3 160.9 40.6 M 148.6 38.2 C 149.8 38.1 148.5 39.1 148.6 38.2 M 146.3 38.2 C 146.3 38.2 146.3 38.2 146.3 38.2 C 146.3 38.2 146.3 38.2 146.3 38.2 Z M 169.5 42.0 C 169.4 42.0 169.4 42.0 169.5 42.0 C 169.5 42.0 169.5 42.0 169.5 42.0 Z M 171.8 42.3 C 171.7 42.3 171.7 42.3 171.8 42.3 C 171.8 42.3 171.8 42.3 171.8 42.3 Z M 174.6 48.1 C 174.5 48.1 174.5 48.1 174.6 48.1 C 174.6 48.1 174.6 48.1 174.6 48.1 Z M 147.6 40.6 C 146.2 40.0 149.4 39.2 148.9 40.4 C 149.0 41.0 147.8 40.5 147.6 40.6 M 159.1 41.9 C 159.2 43.7 158.0 39.3 159.1 41.9 M 174.6 43.7 C 175.8 46.1 173.0 41.9 174.6 43.7 M 177.8 43.9 C 178.6 44.5 172.0 43.1 176.7 43.4 C 177.2 43.2 177.5 43.6 177.8 43.9 M 156.5 40.3 C 156.7 41.3 154.2 39.4 156.5 40.3 M 165.3 44.8 C 166.1 44.3 168.1 44.1 167.1 45.0 C 166.8 46.4 164.3 45.2 165.3 44.8 M 142.9 38.2 C 144.4 36.9 142.6 39.5 142.9 38.2 M 148.7 39.4 C 148.8 39.3 148.8 39.3 148.7 39.4 C 148.7 39.4 148.7 39.4 148.7 39.4 Z M 151.1 39.5 C 151.2 39.7 151.2 39.7 151.1 39.5 M 144.1 37.0 C 144.2 37.1 144.2 37.1 144.1 37.0 M 165.5 43.2 C 165.6 43.4 165.6 43.4 165.5 43.2 M 160.9 41.3 C 162.9 43.3 159.7 41.4 160.9 41.3 M 154.9 43.3 C 155.4 44.2 153.4 43.1 154.9 43.3 M 164.8 41.4 C 166.1 43.2 162.3 42.4 164.8 41.4 M 159.8 41.0 C 160.0 41.0 160.0 41.0 159.8 41.0 C 159.8 41.0 159.8 41.0 159.8 41.0 Z M 165.8 45.1 C 165.8 45.1 165.8 45.1 165.8 45.1 C 165.8 45.1 165.8 45.1 165.8 45.1 Z M 166.5 45.1 C 166.4 45.2 166.4 45.2 166.5 45.1 C 166.5 45.1 166.5 45.1 166.5 45.1 Z M 166.8 41.6 C 166.7 41.6 166.7 41.6 166.8 41.6 C 166.8 41.6 166.8 41.6 166.8 41.6 Z M 145.4 42.2 C 147.0 42.6 144.1 42.2 145.4 42.2 C 145.4 42.2 145.4 42.2 145.4 42.2 Z M 153.3 39.2 C 155.7 40.8 151.2 39.9 153.3 39.2 C 153.3 39.2 153.3 39.2 153.3 39.2 Z M 156.0 41.6 C 155.9 41.7 155.9 41.7 156.0 41.6 C 156.0 41.6 156.0 41.6 156.0 41.6 Z M 163.9 40.3 C 163.9 40.4 163.9 40.4 163.9 40.3 C 163.9 40.3 163.9 40.3 163.9 40.3 Z M 146.2 42.5 C 146.2 42.6 146.2 42.6 146.2 42.5 C 146.2 42.5 146.2 42.5 146.2 42.5 Z M 171.2 43.2 C 171.2 43.3 171.2 43.3 171.2 43.2 C 171.2 43.2 171.2 43.2 171.2 43.2 Z M 161.4 44.5 C 162.1 44.1 161.5 45.0 161.4 44.5 C 161.4 44.5 161.4 44.5 161.4 44.5 Z M 163.8 45.0 C 163.9 45.0 163.9 45.0 163.8 45.0 C 163.8 45.0 163.8 45.0 163.8 45.0 Z M 175.2 42.5 C 175.2 42.5 175.2 42.5 175.2 42.5 C 175.2 42.5 175.2 42.5 175.2 42.5 Z M 169.7 47.4 C 169.8 47.4 169.8 47.4 169.7 47.4 C 169.7 47.4 169.7 47.4 169.7 47.4 Z M 172.0 46.1 C 172.0 46.1 172.0 46.1 172.0 46.1 C 172.0 46.1 172.0 46.1 172.0 46.1 Z M 166.3 41.9 C 168.7 42.0 165.6 42.4 166.3 41.9 C 166.3 41.9 166.3 41.9 166.3 41.9 Z M 178.0 46.7 C 178.1 46.8 178.1 46.8 178.0 46.7 C 178.0 46.7 178.0 46.7 178.0 46.7 Z M 179.6 44.9 C 179.6 45.0 179.6 45.0 179.6 44.9 C 179.6 44.9 179.6 44.9 179.6 44.9 Z M 180.4 43.9 C 180.4 44.1 180.4 44.1 180.4 43.9 C 180.4 43.9 180.4 43.9 180.4 43.9 Z M 150.7 41.7 C 150.6 41.6 150.6 41.6 150.7 41.7 C 150.7 41.7 150.7 41.7 150.7 41.7 Z M 150.3 38.3 C 150.3 38.2 150.3 38.2 150.3 38.3 C 150.3 38.3 150.3 38.3 150.3 38.3 Z M 153.6 38.7 C 153.6 38.6 153.6 38.6 153.6 38.7 C 153.6 38.7 153.6 38.7 153.6 38.7 Z M 149.7 43.5 C 149.7 43.5 149.7 43.5 149.7 43.5 C 149.7 43.5 149.7 43.5 149.7 43.5 Z M 162.4 42.9 C 162.4 42.8 162.4 42.8 162.4 42.9 C 162.4 42.9 162.4 42.9 162.4 42.9 Z M 163.3 44.4 C 163.3 44.4 163.3 44.4 163.3 44.4 C 163.3 44.4 163.3 44.4 163.3 44.4 Z M 160.2 45.7 C 160.2 45.6 160.2 45.6 160.2 45.7 C 160.2 45.7 160.2 45.7 160.2 45.7 Z M 164.0 45.7 C 164.0 45.7 164.0 45.7 164.0 45.7 C 164.0 45.7 164.0 45.7 164.0 45.7 Z M 141.7 41.5 C 141.7 41.5 141.7 41.5 141.7 41.5 C 141.7 41.5 141.7 41.5 141.7 41.5 Z M 141.9 38.9 C 141.8 39.0 141.8 39.0 141.9 38.9 C 141.9 38.9 141.9 38.9 141.9 38.9 Z M 163.1 41.2 C 163.7 40.8 164.1 42.1 163.1 41.2 M 158.4 40.7 C 158.4 40.7 158.4 40.7 158.4 40.7 C 158.4 40.7 158.4 40.7 158.4 40.7 Z M 170.9 42.7 C 171.3 43.7 168.8 41.8 170.9 42.7 C 170.9 42.7 170.9 42.7 170.9 42.7 Z M 167.7 46.4 C 167.7 46.4 167.7 46.4 167.7 46.4 C 167.7 46.4 167.7 46.4 167.7 46.4 Z M 169.0 46.2 C 169.0 46.3 169.0 46.3 169.0 46.2 C 169.0 46.2 169.0 46.2 169.0 46.2 Z M 176.1 44.7 C 176.2 44.8 176.2 44.8 176.1 44.7 M 158.0 39.7 C 158.6 40.3 158.5 40.1 158.0 39.7 M 172.4 43.0 C 172.3 43.0 172.3 43.0 172.4 43.0 C 172.4 43.0 172.4 43.0 172.4 43.0 Z M 177.7 44.4 C 177.6 44.4 177.6 44.4 177.7 44.4 C 177.7 44.4 177.7 44.4 177.7 44.4 Z M 154.5 39.8 C 154.5 41.0 153.9 40.6 154.5 39.8 M 145.3 38.5 C 145.3 38.6 145.3 38.6 145.3 38.5 C 145.3 38.5 145.3 38.5 145.3 38.5 Z M 185.2 44.8 C 183.0 43.1 182.6 44.9 182.6 45.0 C 183.3 42.5 180.2 45.6 180.6 46.1 C 180.4 46.5 181.6 51.2 183.8 48.9 C 184.4 48.6 184.5 49.4 184.9 49.6 C 188.0 50.0 183.0 47.8 186.7 48.5 C 187.3 49.0 186.2 50.9 188.7 49.8 C 188.7 50.1 191.1 51.3 190.3 50.2 C 191.3 51.3 192.3 50.3 193.5 50.3 C 194.4 51.0 192.4 51.6 196.2 51.1 C 197.4 53.1 198.5 50.2 199.6 52.4 C 200.5 52.6 202.4 49.7 200.0 51.1 C 200.3 51.0 199.3 49.2 202.0 50.3 C 201.6 50.6 199.4 53.5 204.2 52.8 C 204.9 53.0 206.8 52.5 207.1 52.9 C 204.7 52.8 210.0 54.8 209.6 53.8 C 213.1 55.1 211.3 53.3 213.7 54.8 C 215.8 55.2 213.2 53.3 215.7 54.6 C 217.7 54.7 216.3 55.3 216.1 55.2 C 217.8 55.7 218.5 55.2 219.1 55.3 C 219.4 55.6 220.1 56.4 220.7 55.6 C 222.7 54.5 221.3 52.8 222.4 51.5 C 221.2 50.6 221.6 52.5 220.9 51.2 C 220.1 52.0 220.8 51.2 217.1 50.7 C 217.2 51.0 218.0 51.7 217.1 51.7 C 215.7 51.3 217.1 49.0 214.4 50.3 C 217.1 51.4 210.4 50.4 212.9 51.4 C 209.7 51.1 212.0 51.1 209.8 50.1 C 209.7 51.7 210.0 48.3 208.9 49.4 C 208.8 48.7 205.1 48.4 207.5 49.8 C 203.7 49.6 206.2 49.1 205.0 48.0 C 203.3 47.6 204.4 50.6 203.7 48.4 C 201.6 47.1 203.4 49.4 202.0 47.5 C 202.5 49.1 200.4 47.2 200.7 48.9 C 196.8 48.3 201.5 47.3 198.6 47.9 C 199.4 48.1 199.4 46.0 197.5 47.0 C 197.8 49.6 195.7 44.5 196.4 47.9 C 190.8 47.9 195.7 46.4 192.7 45.9 C 192.0 45.8 193.4 47.1 192.7 47.0 C 188.9 45.9 192.3 45.6 190.0 46.8 C 186.1 46.5 189.1 45.3 187.3 44.8 C 187.0 45.6 185.3 46.6 185.2 44.8 M 188.5 46.2 C 189.3 45.8 188.9 46.8 188.5 46.2 M 181.0 44.1 C 181.9 43.7 181.4 44.7 181.0 44.1 M 191.7 46.3 C 192.8 45.9 191.8 47.2 191.7 46.3 M 211.9 50.7 C 210.5 50.4 212.6 50.4 211.9 50.7 M 184.0 44.5 C 185.3 44.1 184.2 45.4 184.0 44.5 M 182.4 45.5 C 182.5 45.6 182.5 45.6 182.4 45.5 M 214.1 49.7 C 214.2 49.8 214.2 49.8 214.1 49.7 M 208.7 48.7 C 209.8 49.0 208.0 48.9 208.7 48.7 M 207.6 54.0 C 208.7 54.2 206.8 54.2 207.6 54.0 M 217.1 50.2 C 218.4 50.0 217.4 50.8 217.1 50.2 M 220.0 51.9 C 221.1 51.6 220.6 52.5 220.0 51.9 M 187.4 47.9 C 187.4 48.0 187.4 48.0 187.4 47.9 C 187.4 47.9 187.4 47.9 187.4 47.9 Z M 197.2 51.0 C 196.1 50.3 198.6 51.9 197.2 51.0 M 196.0 47.2 C 196.6 48.4 194.5 46.9 196.0 47.2 C 196.0 47.2 196.0 47.2 196.0 47.2 Z M 194.2 47.4 C 194.1 47.4 194.1 47.4 194.2 47.4 C 194.2 47.4 194.2 47.4 194.2 47.4 Z M 199.8 48.5 C 199.7 48.5 199.7 48.5 199.8 48.5 C 199.8 48.5 199.8 48.5 199.8 48.5 Z M 198.6 48.3 C 198.1 48.5 198.0 48.0 198.6 48.3 C 198.6 48.3 198.6 48.3 198.6 48.3 Z M 206.2 53.2 C 205.7 53.3 205.6 52.9 206.2 53.2 C 206.2 53.2 206.2 53.2 206.2 53.2 Z M 196.8 48.4 C 196.4 49.4 196.1 47.5 196.8 48.4 C 196.8 48.4 196.8 48.4 196.8 48.4 Z M 202.4 52.0 C 202.9 51.8 203.2 53.2 202.4 52.0 M 215.3 50.1 C 215.8 49.9 216.1 51.3 215.3 50.1 M 203.4 47.7 C 203.9 47.5 204.2 48.9 203.4 47.7 M 189.2 45.8 C 189.3 46.0 189.3 46.0 189.2 45.8 M 195.0 51.7 C 195.8 51.4 195.3 52.2 195.0 51.7 M 183.8 49.3 C 184.7 49.1 184.1 49.9 183.8 49.3 M 212.7 54.8 C 212.7 54.5 213.9 55.1 212.7 54.8 M 204.5 49.7 C 205.5 50.0 206.4 50.7 204.3 50.3 C 204.2 50.0 204.9 50.0 204.5 49.7 C 204.5 49.7 204.5 49.7 204.5 49.7 Z M 207.8 52.8 C 207.9 52.9 207.9 52.9 207.8 52.8 M 206.5 49.0 C 206.6 49.1 206.6 49.1 206.5 49.0 M 212.6 50.2 C 212.7 50.4 212.7 50.4 212.6 50.2 M 213.4 50.0 C 213.4 50.1 213.4 50.1 213.4 50.0 C 213.4 50.0 213.4 50.0 213.4 50.0 Z M 220.2 50.8 C 220.2 50.8 220.2 50.8 220.2 50.8 C 220.2 50.8 220.2 50.8 220.2 50.8 Z M 210.6 50.0 C 210.6 50.0 210.6 50.0 210.6 50.0 C 210.6 50.0 210.6 50.0 210.6 50.0 Z M 215.4 55.1 C 215.4 55.1 215.4 55.1 215.4 55.1 C 215.4 55.1 215.4 55.1 215.4 55.1 Z M 214.9 54.3 C 214.9 54.3 214.9 54.3 214.9 54.3 C 214.9 54.3 214.9 54.3 214.9 54.3 Z M 185.8 44.9 C 186.8 44.3 185.9 46.9 185.8 44.9 M 217.8 54.8 C 218.6 55.7 216.2 54.7 217.8 54.8 C 217.8 54.8 217.8 54.8 217.8 54.8 Z M 209.7 50.7 C 209.8 50.9 209.8 50.9 209.7 50.7 M 213.8 50.2 C 213.8 50.3 213.8 50.3 213.8 50.2 M 196.1 46.2 C 196.2 46.4 196.2 46.4 196.1 46.2 M 218.5 51.2 C 221.3 52.0 216.9 52.5 218.5 51.2 M 194.6 47.0 C 194.6 46.9 194.6 46.9 194.6 47.0 M 200.7 50.1 C 202.6 50.4 199.9 50.6 200.7 50.1 M 205.8 49.7 C 205.8 49.7 205.8 49.7 205.8 49.7 C 205.8 49.7 205.8 49.7 205.8 49.7 Z M 203.0 49.2 C 201.5 49.1 202.7 48.8 203.0 49.2 C 203.0 49.2 203.0 49.2 203.0 49.2 Z M 186.9 46.1 C 188.7 46.6 185.0 46.2 186.9 46.1 C 186.9 46.1 186.9 46.1 186.9 46.1 Z M 216.7 53.5 C 216.6 53.6 216.6 53.6 216.7 53.5 C 216.7 53.5 216.7 53.5 216.7 53.5 Z M 210.4 49.2 C 209.5 49.3 210.1 48.8 210.4 49.2 C 210.4 49.2 210.4 49.2 210.4 49.2 Z M 221.2 50.9 C 220.3 51.1 220.9 50.6 221.2 50.9 C 221.2 50.9 221.2 50.9 221.2 50.9 Z M 184.8 45.6 C 191.1 48.5 176.0 43.6 184.8 45.6 C 184.8 45.6 184.8 45.6 184.8 45.6 Z M 204.2 48.6 C 204.2 48.7 204.2 48.7 204.2 48.6 C 204.2 48.6 204.2 48.6 204.2 48.6 Z M 192.1 45.7 C 192.1 45.8 192.1 45.8 192.1 45.7 C 192.1 45.7 192.1 45.7 192.1 45.7 Z M 189.9 46.3 C 189.8 46.4 189.8 46.4 189.9 46.3 C 189.9 46.3 189.9 46.3 189.9 46.3 Z M 189.7 50.6 C 189.7 50.7 189.7 50.7 189.7 50.6 C 189.7 50.6 189.7 50.6 189.7 50.6 Z M 190.8 48.8 C 190.7 49.0 190.7 49.0 190.8 48.8 C 190.8 48.8 190.8 48.8 190.8 48.8 Z M 186.4 48.8 C 186.3 48.9 186.3 48.9 186.4 48.8 C 186.4 48.8 186.4 48.8 186.4 48.8 Z M 186.4 49.4 C 186.3 49.4 186.3 49.4 186.4 49.4 C 186.4 49.4 186.4 49.4 186.4 49.4 Z M 213.6 51.4 C 213.5 51.4 213.5 51.4 213.6 51.4 C 213.6 51.4 213.6 51.4 213.6 51.4 Z M 211.0 52.7 C 212.6 52.4 210.4 53.5 211.0 52.7 C 211.0 52.7 211.0 52.7 211.0 52.7 Z M 197.5 49.4 C 198.9 49.5 196.5 49.8 197.5 49.4 C 197.5 49.4 197.5 49.4 197.5 49.4 Z M 198.6 52.0 C 198.6 52.0 198.6 52.0 198.6 52.0 C 198.6 52.0 198.6 52.0 198.6 52.0 Z M 190.1 45.3 C 190.0 45.4 190.0 45.4 190.1 45.3 C 190.1 45.3 190.1 45.3 190.1 45.3 Z M 187.4 45.6 C 187.1 46.4 186.6 45.0 187.4 45.6 M 200.6 47.4 C 200.5 47.5 200.5 47.5 200.6 47.4 C 200.6 47.4 200.6 47.4 200.6 47.4 Z M 208.6 50.2 C 208.6 50.3 208.6 50.3 208.6 50.2 C 208.6 50.2 208.6 50.2 208.6 50.2 Z M 216.9 51.1 C 216.9 51.2 216.9 51.2 216.9 51.1 C 216.9 51.1 216.9 51.1 216.9 51.1 Z M 205.7 48.4 C 205.6 48.5 205.6 48.5 205.7 48.4 C 205.7 48.4 205.7 48.4 205.7 48.4 Z M 201.6 48.5 C 201.6 48.6 201.6 48.6 201.6 48.5 C 201.6 48.5 201.6 48.5 201.6 48.5 Z M 218.5 52.7 C 218.5 52.7 218.5 52.7 218.5 52.7 C 218.5 52.7 218.5 52.7 218.5 52.7 Z M 206.6 48.5 C 206.6 48.5 206.6 48.5 206.6 48.5 C 206.6 48.5 206.6 48.5 206.6 48.5 Z M 208.5 51.7 C 208.4 51.7 208.4 51.7 208.5 51.7 C 208.5 51.7 208.5 51.7 208.5 51.7 Z M 187.9 44.4 C 187.9 44.4 187.9 44.4 187.9 44.4 C 187.9 44.4 187.9 44.4 187.9 44.4 Z M 218.8 51.5 C 218.8 51.6 218.8 51.6 218.8 51.5 C 218.8 51.5 218.8 51.5 218.8 51.5 Z M 219.5 50.8 C 219.4 50.9 219.4 50.9 219.5 50.8 C 219.5 50.8 219.5 50.8 219.5 50.8 Z M 212.9 54.0 C 210.1 53.0 215.5 54.3 213.6 52.9 C 217.8 53.4 213.5 54.2 212.9 54.0 C 212.9 54.0 212.9 54.0 212.9 54.0 Z M 223.4 51.2 C 221.6 52.1 221.4 53.3 221.9 54.6 C 222.5 55.4 222.9 53.0 222.6 55.0 C 220.7 55.1 222.9 58.2 223.3 55.6 C 225.8 55.6 223.4 57.3 225.1 56.5 C 227.7 56.7 226.2 57.3 228.2 57.5 C 229.7 56.2 229.3 58.4 230.0 57.1 C 228.8 58.4 232.3 57.1 232.2 57.8 C 230.2 58.3 239.1 59.0 234.4 57.7 C 236.5 57.4 235.9 58.5 236.5 58.8 C 237.5 58.1 239.6 60.1 241.0 59.4 C 240.8 59.2 240.2 59.0 240.0 58.7 C 239.8 58.1 241.4 59.1 241.2 59.0 C 242.0 58.8 245.3 58.5 241.7 59.4 C 241.4 60.1 244.5 59.6 244.3 60.2 C 247.2 60.8 245.3 58.9 246.4 60.2 C 248.4 60.6 249.9 60.9 249.9 60.7 C 251.2 61.1 251.3 62.0 252.6 61.4 C 254.8 63.4 254.9 58.7 255.3 61.9 C 256.2 61.3 256.5 63.4 256.7 61.5 C 255.7 62.2 260.8 63.8 258.8 62.0 C 259.5 61.6 262.3 64.6 262.2 62.6 C 263.6 61.4 263.6 60.0 261.3 58.2 C 261.4 59.4 258.8 56.6 260.4 58.8 C 262.5 59.8 256.3 58.8 257.7 58.3 C 258.4 56.2 254.5 59.2 253.4 57.4 C 254.4 58.4 249.2 58.0 251.0 56.6 C 250.1 56.3 249.7 57.0 248.9 55.9 C 251.9 56.6 247.4 57.4 247.8 56.4 C 248.4 55.9 244.0 54.6 244.3 55.6 C 245.4 58.2 243.2 54.9 242.2 55.7 C 239.7 55.8 243.0 53.8 240.8 55.2 C 240.4 54.8 237.1 54.2 239.3 54.1 C 240.0 54.5 236.9 56.3 236.8 54.3 C 240.6 53.8 232.9 52.9 234.0 53.7 C 239.2 55.8 228.0 53.9 232.4 53.6 C 230.2 52.1 233.2 53.3 230.2 53.3 C 230.4 53.9 228.0 54.1 228.8 53.0 C 228.6 51.0 227.5 55.3 226.1 52.5 C 226.0 51.3 222.3 52.6 223.9 51.6 C 224.0 51.5 223.5 51.2 223.4 51.2 M 224.5 51.6 C 224.0 52.0 223.9 51.0 224.5 51.6 M 223.9 51.9 C 223.9 51.9 223.9 51.9 223.9 51.9 C 223.9 51.9 223.9 51.9 223.9 51.9 Z M 229.7 53.3 C 229.7 53.2 229.7 53.2 229.7 53.3 C 229.7 53.3 229.7 53.3 229.7 53.3 Z M 233.5 58.7 C 233.4 58.7 233.4 58.7 233.5 58.7 C 233.5 58.7 233.5 58.7 233.5 58.7 Z M 233.6 54.0 C 233.5 54.0 233.5 54.0 233.6 54.0 C 233.6 54.0 233.6 54.0 233.6 54.0 Z M 227.6 53.2 C 227.5 53.2 227.5 53.2 227.6 53.2 C 227.6 53.2 227.6 53.2 227.6 53.2 Z M 233.3 53.3 C 233.5 54.1 232.1 52.5 233.4 53.2 C 233.4 53.3 233.2 53.2 233.3 53.3 M 238.4 53.9 C 238.4 54.0 238.4 54.0 238.4 53.9 M 248.6 61.4 C 248.6 61.5 248.6 61.5 248.6 61.4 M 250.5 56.0 C 250.6 56.1 250.6 56.1 250.5 56.0 M 243.3 55.5 C 244.9 55.7 243.6 55.9 243.3 55.5 M 254.5 57.1 C 252.6 56.3 256.6 57.1 254.5 57.1 M 256.4 57.0 C 256.6 57.1 256.6 57.1 256.4 57.0 M 247.6 55.7 C 247.6 55.8 247.6 55.8 247.6 55.7 C 247.6 55.7 247.6 55.7 247.6 55.7 Z M 242.7 55.1 C 240.8 54.4 244.9 54.8 242.7 55.1 M 230.5 52.7 C 231.7 52.6 230.3 53.6 230.5 52.7 M 228.1 52.7 C 228.1 52.7 228.1 52.7 228.1 52.7 C 228.1 52.7 228.1 52.7 228.1 52.7 Z M 251.4 56.5 C 251.3 56.5 251.3 56.5 251.4 56.5 C 251.4 56.5 251.4 56.5 251.4 56.5 Z M 253.6 56.8 C 253.5 56.8 253.5 56.8 253.6 56.8 C 253.6 56.8 253.6 56.8 253.6 56.8 Z M 256.4 62.6 C 256.4 62.6 256.4 62.6 256.4 62.6 C 256.4 62.6 256.4 62.6 256.4 62.6 Z M 229.5 55.1 C 228.0 54.5 231.3 53.7 230.8 54.9 C 230.8 55.5 229.7 55.0 229.5 55.1 M 241.0 56.4 C 241.0 58.2 239.9 53.8 241.0 56.4 M 256.5 58.2 C 257.6 60.6 254.9 56.4 256.5 58.2 M 259.6 58.4 C 260.4 59.0 253.9 57.6 258.6 57.9 C 259.1 57.6 259.3 58.1 259.6 58.4 M 238.3 54.8 C 238.6 55.8 236.0 53.9 238.3 54.8 M 247.1 59.3 C 248.0 58.8 250.0 58.6 248.9 59.5 C 248.7 60.9 246.1 59.7 247.1 59.3 M 224.7 52.7 C 226.2 51.3 224.5 54.0 224.7 52.7 M 230.6 53.9 C 230.6 53.8 230.6 53.8 230.6 53.9 C 230.6 53.9 230.6 53.9 230.6 53.9 Z M 233.0 54.0 C 233.0 54.2 233.0 54.2 233.0 54.0 M 225.9 51.5 C 226.0 51.6 226.0 51.6 225.9 51.5 M 247.4 57.7 C 247.4 57.8 247.4 57.8 247.4 57.7 M 242.8 55.8 C 244.8 57.8 241.5 55.9 242.8 55.8 M 236.7 57.8 C 237.3 58.7 235.3 57.6 236.7 57.8 M 246.6 55.9 C 248.0 57.6 244.2 56.9 246.6 55.9 M 241.7 55.5 C 241.8 55.5 241.8 55.5 241.7 55.5 C 241.7 55.5 241.7 55.5 241.7 55.5 Z M 247.7 59.6 C 247.6 59.6 247.6 59.6 247.7 59.6 C 247.7 59.6 247.7 59.6 247.7 59.6 Z M 248.4 59.6 C 248.3 59.7 248.3 59.7 248.4 59.6 C 248.4 59.6 248.4 59.6 248.4 59.6 Z M 248.6 56.1 C 248.5 56.1 248.5 56.1 248.6 56.1 C 248.6 56.1 248.6 56.1 248.6 56.1 Z M 227.3 56.7 C 228.9 57.1 226.0 56.7 227.3 56.7 C 227.3 56.7 227.3 56.7 227.3 56.7 Z M 235.1 53.6 C 237.6 55.3 233.1 54.4 235.1 53.6 C 235.1 53.6 235.1 53.6 235.1 53.6 Z M 237.8 56.1 C 237.8 56.1 237.8 56.1 237.8 56.1 C 237.8 56.1 237.8 56.1 237.8 56.1 Z M 245.8 54.8 C 245.7 54.9 245.7 54.9 245.8 54.8 C 245.8 54.8 245.8 54.8 245.8 54.8 Z M 228.1 57.0 C 228.0 57.1 228.0 57.1 228.1 57.0 C 228.1 57.0 228.1 57.0 228.1 57.0 Z M 253.0 57.7 C 253.0 57.8 253.0 57.8 253.0 57.7 C 253.0 57.7 253.0 57.7 253.0 57.7 Z M 243.3 59.0 C 244.0 58.6 243.3 59.5 243.3 59.0 C 243.3 59.0 243.3 59.0 243.3 59.0 Z M 245.7 59.5 C 245.8 59.5 245.8 59.5 245.7 59.5 C 245.7 59.5 245.7 59.5 245.7 59.5 Z M 257.0 57.0 C 257.1 57.0 257.1 57.0 257.0 57.0 C 257.0 57.0 257.0 57.0 257.0 57.0 Z M 251.6 61.9 C 251.6 61.9 251.6 61.9 251.6 61.9 C 251.6 61.9 251.6 61.9 251.6 61.9 Z M 253.9 60.6 C 253.8 60.6 253.8 60.6 253.9 60.6 C 253.9 60.6 253.9 60.6 253.9 60.6 Z M 248.1 56.4 C 250.6 56.5 247.5 56.9 248.1 56.4 C 248.1 56.4 248.1 56.4 248.1 56.4 Z M 259.9 61.2 C 259.9 61.3 259.9 61.3 259.9 61.2 C 259.9 61.2 259.9 61.2 259.9 61.2 Z M 261.4 59.4 C 261.5 59.5 261.5 59.5 261.4 59.4 C 261.4 59.4 261.4 59.4 261.4 59.4 Z M 262.2 58.4 C 262.3 58.5 262.3 58.5 262.2 58.4 C 262.2 58.4 262.2 58.4 262.2 58.4 Z M 232.5 56.1 C 232.5 56.1 232.5 56.1 232.5 56.1 C 232.5 56.1 232.5 56.1 232.5 56.1 Z M 232.2 52.7 C 232.1 52.7 232.1 52.7 232.2 52.7 C 232.2 52.7 232.2 52.7 232.2 52.7 Z M 235.4 53.2 C 235.4 53.1 235.4 53.1 235.4 53.2 C 235.4 53.2 235.4 53.2 235.4 53.2 Z M 231.6 58.0 C 231.6 58.0 231.6 58.0 231.6 58.0 C 231.6 58.0 231.6 58.0 231.6 58.0 Z M 244.3 57.4 C 244.2 57.3 244.2 57.3 244.3 57.4 C 244.3 57.4 244.3 57.4 244.3 57.4 Z M 245.2 58.9 C 245.1 58.8 245.1 58.8 245.2 58.9 C 245.2 58.9 245.2 58.9 245.2 58.9 Z M 242.1 60.2 C 242.0 60.1 242.0 60.1 242.1 60.2 C 242.1 60.2 242.1 60.2 242.1 60.2 Z M 245.9 60.2 C 245.8 60.2 245.8 60.2 245.9 60.2 C 245.9 60.2 245.9 60.2 245.9 60.2 Z M 223.6 56.0 C 223.5 56.0 223.5 56.0 223.6 56.0 C 223.6 56.0 223.6 56.0 223.6 56.0 Z M 223.7 53.4 C 223.7 53.5 223.7 53.5 223.7 53.4 C 223.7 53.4 223.7 53.4 223.7 53.4 Z M 244.9 55.7 C 245.6 55.2 245.9 56.6 244.9 55.7 M 240.2 55.2 C 240.2 55.2 240.2 55.2 240.2 55.2 C 240.2 55.2 240.2 55.2 240.2 55.2 Z M 252.7 57.1 C 253.1 58.2 250.6 56.3 252.7 57.1 C 252.7 57.1 252.7 57.1 252.7 57.1 Z M 249.5 60.8 C 249.6 60.9 249.6 60.9 249.5 60.8 C 249.5 60.8 249.5 60.8 249.5 60.8 Z M 250.8 60.6 C 250.9 60.8 250.9 60.8 250.8 60.6 C 250.8 60.6 250.8 60.6 250.8 60.6 Z M 258.0 59.2 C 258.1 59.3 258.1 59.3 258.0 59.2 M 239.8 54.2 C 240.4 54.7 240.3 54.6 239.8 54.2 M 254.3 57.5 C 254.2 57.5 254.2 57.5 254.3 57.5 C 254.3 57.5 254.3 57.5 254.3 57.5 Z M 259.6 58.9 C 259.5 58.9 259.5 58.9 259.6 58.9 C 259.6 58.9 259.6 58.9 259.6 58.9 Z M 236.4 54.3 C 236.3 55.5 235.7 55.1 236.4 54.3 M 227.1 53.0 C 227.1 53.1 227.1 53.1 227.1 53.0 C 227.1 53.0 227.1 53.0 227.1 53.0 Z M 267.3 60.3 C 262.0 57.8 262.8 60.7 262.5 61.1 C 261.6 61.7 262.3 62.3 263.3 63.0 C 264.2 64.9 265.3 61.6 265.9 63.4 C 267.0 65.9 267.9 61.7 268.1 64.2 C 267.8 64.8 270.0 64.7 269.9 64.5 C 270.8 65.8 272.7 64.1 272.7 63.9 C 273.4 64.3 273.1 66.4 275.6 65.2 C 277.4 65.0 277.8 67.2 277.6 65.7 C 278.6 67.5 278.6 65.4 279.7 66.1 C 280.5 67.2 280.0 64.8 281.3 66.7 C 282.2 65.5 280.4 67.5 284.9 67.3 C 282.8 66.8 287.1 66.6 286.1 67.3 C 284.5 68.1 288.2 67.3 290.0 68.3 C 290.6 67.9 293.2 67.1 292.5 68.3 C 294.3 70.2 294.8 67.7 295.4 69.2 C 296.0 69.8 296.4 68.7 296.9 68.9 C 297.4 70.0 298.2 69.4 300.6 70.2 C 306.0 71.6 301.9 67.8 304.0 67.9 C 304.4 67.5 302.0 63.8 302.7 66.4 C 302.5 65.7 297.6 67.3 300.3 65.1 C 298.4 65.9 300.8 64.1 297.2 64.7 C 301.5 67.4 291.7 64.5 296.4 64.4 C 295.7 63.8 293.8 63.5 295.1 64.2 C 295.3 66.0 292.0 62.9 293.5 65.3 C 290.7 64.2 291.2 66.1 290.6 64.7 C 290.3 62.4 290.6 65.3 289.3 64.4 C 285.9 63.8 288.9 61.8 286.6 63.0 C 283.5 61.4 285.7 63.9 284.5 64.0 C 283.9 65.4 281.3 62.2 283.9 62.4 C 282.4 63.0 283.8 61.7 282.1 62.4 C 282.9 64.0 280.4 60.5 280.6 61.7 C 279.2 61.8 279.7 62.8 279.3 62.8 C 277.3 62.4 278.2 61.1 277.6 62.1 C 277.0 62.6 276.4 60.6 276.0 61.0 C 278.1 61.5 274.0 62.2 273.9 61.4 C 275.2 61.5 273.6 59.4 272.6 60.4 C 273.1 63.6 270.9 59.3 269.8 60.2 C 270.4 62.0 265.2 59.6 267.4 59.2 C 267.2 59.3 267.3 60.3 267.3 60.3 M 275.4 61.1 C 277.1 61.6 273.5 61.2 275.4 61.1 M 275.4 60.7 C 276.0 61.4 273.8 60.0 275.5 60.5 C 275.5 60.5 275.3 60.6 275.4 60.7 M 282.5 61.9 C 282.2 62.3 281.6 61.4 282.5 61.9 M 283.7 63.2 C 284.7 63.8 282.1 63.0 283.7 63.2 M 299.4 65.6 C 297.4 67.9 298.0 63.9 299.4 65.6 M 289.1 63.3 C 287.2 63.3 290.0 62.3 289.1 63.3 M 288.4 63.8 C 287.5 64.1 288.4 63.2 288.4 63.8 M 296.4 65.1 C 296.6 65.2 296.6 65.2 296.4 65.1 C 296.4 65.1 296.4 65.1 296.4 65.1 Z M 301.1 66.0 C 301.1 65.9 301.1 65.9 301.1 66.0 C 301.1 66.0 301.1 66.0 301.1 66.0 Z M 291.9 64.5 C 290.5 63.7 294.3 64.7 291.9 64.5 C 291.9 64.5 291.9 64.5 291.9 64.5 Z M 298.2 69.4 C 298.1 69.5 298.1 69.5 298.2 69.4 C 298.2 69.4 298.2 69.4 298.2 69.4 Z M 273.8 62.1 C 273.7 62.1 273.7 62.1 273.8 62.1 C 273.8 62.1 273.8 62.1 273.8 62.1 Z M 268.7 60.2 C 268.7 60.5 267.8 59.7 268.7 60.2 C 268.7 60.2 268.7 60.2 268.7 60.2 Z M 263.9 62.3 C 263.8 62.3 263.8 62.3 263.9 62.3 C 263.9 62.3 263.9 62.3 263.9 62.3 Z M 271.8 63.1 C 271.7 63.1 271.7 63.1 271.8 63.1 C 271.8 63.1 271.8 63.1 271.8 63.1 Z M 272.9 61.3 C 272.3 59.8 274.8 62.1 272.9 61.3 C 272.9 61.3 272.9 61.3 272.9 61.3 Z M 289.5 67.7 C 289.6 67.1 290.7 68.2 289.5 67.7 C 289.5 67.7 289.5 67.7 289.5 67.7 Z M 283.8 63.8 C 284.0 63.5 284.5 64.1 283.8 63.8 C 283.8 63.8 283.8 63.8 283.8 63.8 Z M 281.2 61.4 C 281.5 61.1 281.9 61.7 281.2 61.4 C 281.2 61.4 281.2 61.4 281.2 61.4 Z M 268.8 59.8 C 269.0 59.7 269.0 59.7 268.8 59.8 C 268.8 59.8 268.8 59.8 268.8 59.8 Z M 270.5 61.2 C 269.5 59.7 272.4 62.3 270.5 61.2 C 270.5 61.2 270.5 61.2 270.5 61.2 Z M 268.2 61.2 C 268.8 61.8 266.6 60.6 268.2 61.2 M 269.2 63.4 C 270.9 63.1 267.3 65.5 269.2 63.4 C 269.2 63.4 269.2 63.4 269.2 63.4 Z M 277.2 65.4 C 277.3 65.4 277.3 65.4 277.2 65.4 C 277.2 65.4 277.2 65.4 277.2 65.4 Z M 277.1 61.4 C 278.5 61.7 276.1 61.5 277.1 61.4 C 277.1 61.4 277.1 61.4 277.1 61.4 Z M 264.8 58.9 C 266.2 59.2 263.8 59.1 264.8 58.9 C 264.8 58.9 264.8 58.9 264.8 58.9 Z M 282.2 64.9 C 284.6 65.1 280.7 65.4 282.2 64.9 C 282.2 64.9 282.2 64.9 282.2 64.9 Z M 291.0 64.9 C 291.0 65.0 291.0 65.0 291.0 64.9 C 291.0 64.9 291.0 64.9 291.0 64.9 Z M 292.7 64.7 C 292.7 64.7 292.7 64.7 292.7 64.7 C 292.7 64.7 292.7 64.7 292.7 64.7 Z M 299.0 67.2 C 299.1 67.2 299.1 67.2 299.0 67.2 C 299.0 67.2 299.0 67.2 299.0 67.2 Z M 294.2 64.3 C 294.2 64.3 294.2 64.3 294.2 64.3 C 294.2 64.3 294.2 64.3 294.2 64.3 Z M 298.7 65.4 C 298.8 65.5 298.8 65.5 298.7 65.4 C 298.7 65.4 298.7 65.4 298.7 65.4 Z M 298.3 64.2 C 298.4 64.3 298.4 64.3 298.3 64.2 C 298.3 64.2 298.3 64.2 298.3 64.2 Z M 287.1 68.1 C 287.2 68.2 287.2 68.2 287.1 68.1 C 287.1 68.1 287.1 68.1 287.1 68.1 Z M 271.4 59.8 C 271.5 59.9 271.5 59.9 271.4 59.8 C 271.4 59.8 271.4 59.8 271.4 59.8 Z M 298.3 65.9 C 298.3 65.9 298.3 65.9 298.3 65.9 C 298.3 65.9 298.3 65.9 298.3 65.9 Z M 286.9 64.9 C 286.8 66.1 286.2 63.3 287.2 64.9 C 287.1 65.0 286.9 64.8 286.9 64.9 M 288.1 67.0 C 288.0 67.1 288.0 67.1 288.1 67.0 C 288.1 67.0 288.1 67.0 288.1 67.0 Z M 282.9 66.8 C 282.8 66.9 282.8 66.9 282.9 66.8 C 282.9 66.8 282.9 66.8 282.9 66.8 Z M 293.4 63.9 C 293.4 63.3 294.6 64.6 293.2 63.9 M 298.7 69.1 C 298.6 68.5 299.9 69.8 298.5 69.1 M 263.1 59.1 C 262.8 59.5 262.2 58.6 263.1 59.1 M 281.7 67.2 C 281.4 67.7 280.8 66.8 281.7 67.2 M 284.3 66.2 C 284.2 65.6 285.5 66.9 284.1 66.2 M 295.3 68.5 C 295.3 68.5 295.3 68.5 295.3 68.5 C 295.3 68.5 295.3 68.5 295.3 68.5 Z M 279.2 61.9 C 279.2 61.9 279.2 61.9 279.2 61.9 C 279.2 61.9 279.2 61.9 279.2 61.9 Z M 285.1 64.3 C 284.4 63.3 286.1 65.1 285.1 64.3 M 277.1 63.1 C 276.1 61.8 279.0 63.8 277.1 63.1 M 301.3 69.8 C 300.2 68.3 302.2 70.7 301.3 69.8 M 295.1 65.5 C 293.9 63.9 296.0 66.3 295.1 65.5 M 280.3 62.7 C 280.4 62.0 281.6 63.3 280.3 62.7 M 266.4 59.5 C 265.1 59.2 268.2 59.3 266.4 59.5 M 291.9 67.9 C 292.0 68.0 292.0 68.0 291.9 67.9 C 291.9 67.9 291.9 67.9 291.9 67.9 Z M 269.7 65.1 C 269.8 65.2 269.8 65.2 269.7 65.1 C 269.7 65.1 269.7 65.1 269.7 65.1 Z M 303.8 66.0 C 303.9 66.0 303.9 66.0 303.8 66.0 C 303.8 66.0 303.8 66.0 303.8 66.0 Z M 294.1 65.9 C 294.2 66.0 294.2 66.0 294.1 65.9 C 294.1 65.9 294.1 65.9 294.1 65.9 Z M 301.2 65.3 C 301.3 65.4 301.3 65.4 301.2 65.3 C 301.2 65.3 301.2 65.3 301.2 65.3 Z M 289.7 66.1 C 289.7 66.2 289.7 66.2 289.7 66.1 C 289.7 66.1 289.7 66.1 289.7 66.1 Z M 289.4 62.7 C 289.4 62.8 289.4 62.8 289.4 62.7 C 289.4 62.7 289.4 62.7 289.4 62.7 Z M 284.5 63.3 C 284.5 63.3 284.5 63.3 284.5 63.3 C 284.5 63.3 284.5 63.3 284.5 63.3 Z M 291.5 63.4 C 294.3 63.7 289.9 64.2 291.5 63.4 C 291.5 63.4 291.5 63.4 291.5 63.4 Z M 286.1 65.7 C 286.1 65.8 286.1 65.8 286.1 65.7 C 286.1 65.7 286.1 65.7 286.1 65.7 Z M 286.1 63.4 C 288.0 62.8 286.8 65.1 286.1 63.4 M 278.5 61.2 C 279.1 60.8 278.6 62.1 278.5 61.2 M 274.6 65.0 C 274.6 65.0 274.6 65.0 274.6 65.0 C 274.6 65.0 274.6 65.0 274.6 65.0 Z M 275.5 64.8 C 275.6 64.8 275.6 64.8 275.5 64.8 C 275.5 64.8 275.5 64.8 275.5 64.8 Z M 276.6 60.7 C 276.6 60.7 276.6 60.7 276.6 60.7 C 276.6 60.7 276.6 60.7 276.6 60.7 Z M 275.4 66.0 C 275.5 66.1 275.5 66.1 275.4 66.0 C 275.4 66.0 275.4 66.0 275.4 66.0 Z M 288.3 62.6 C 288.4 62.6 288.4 62.6 288.3 62.6 C 288.3 62.6 288.3 62.6 288.3 62.6 Z M 302.6 65.1 C 302.7 65.1 302.7 65.1 302.6 65.1 C 302.6 65.1 302.6 65.1 302.6 65.1 Z M 266.1 63.0 C 266.2 63.1 266.2 63.1 266.1 63.0 C 266.1 63.0 266.1 63.0 266.1 63.0 Z M 289.6 64.2 C 289.6 64.2 289.6 64.2 289.6 64.2 C 289.6 64.2 289.6 64.2 289.6 64.2 Z M 272.6 64.4 C 272.7 64.5 272.7 64.5 272.6 64.4 C 272.6 64.4 272.6 64.4 272.6 64.4 Z M 288.7 63.7 C 288.7 63.8 288.7 63.8 288.7 63.7 C 288.7 63.7 288.7 63.7 288.7 63.7 Z M 291.4 68.1 C 291.4 68.1 291.4 68.1 291.4 68.1 C 291.4 68.1 291.4 68.1 291.4 68.1 Z M 294.3 69.4 C 294.4 69.4 294.4 69.4 294.3 69.4 C 294.3 69.4 294.3 69.4 294.3 69.4 Z M 291.6 65.8 C 291.6 65.8 291.6 65.8 291.6 65.8 C 291.6 65.8 291.6 65.8 291.6 65.8 Z M 271.9 62.8 C 266.4 60.7 276.4 63.1 271.9 62.8 M 292.5 66.2 C 288.6 65.3 295.9 65.5 292.5 66.2 C 293.0 66.0 292.6 66.2 292.5 66.2 M 308.0 66.5 C 305.7 64.8 305.4 66.6 305.4 66.7 C 306.1 64.2 303.0 67.3 303.4 67.9 C 303.2 68.2 304.4 72.9 306.6 70.6 C 307.2 70.3 307.3 71.2 307.7 71.3 C 310.8 71.7 305.8 69.5 309.5 70.2 C 310.1 70.7 309.0 72.6 311.5 71.6 C 311.5 71.8 313.9 73.0 313.1 71.9 C 314.1 73.1 315.1 72.0 316.3 72.0 C 317.2 72.8 315.2 73.4 319.0 72.9 C 320.2 74.9 321.3 72.0 322.4 74.1 C 323.3 74.3 325.2 71.4 322.8 72.8 C 323.1 72.7 322.1 71.0 324.8 72.0 C 324.4 72.3 322.2 75.2 327.0 74.5 C 327.7 74.7 329.6 74.2 329.9 74.6 C 327.5 74.6 332.8 76.6 332.4 75.5 C 335.9 76.8 334.1 75.0 336.5 76.5 C 338.6 76.9 336.0 75.0 338.5 76.3 C 340.5 76.5 339.1 77.0 338.9 76.9 C 340.5 77.4 341.3 76.9 341.9 77.1 C 342.2 77.3 342.9 78.1 343.5 77.4 C 345.5 76.3 344.1 74.5 345.2 73.2 C 344.0 72.3 344.4 74.2 343.7 73.0 C 342.9 73.8 343.6 72.9 339.9 72.4 C 340.0 72.7 340.7 73.5 339.8 73.4 C 338.5 73.0 339.9 70.8 337.2 72.1 C 339.9 73.1 333.2 72.2 335.7 73.1 C 332.5 72.9 334.8 72.8 332.6 71.8 C 332.5 73.5 332.8 70.0 331.6 71.2 C 331.6 70.4 327.9 70.1 330.3 71.6 C 326.4 71.3 329.0 70.8 327.8 69.7 C 326.1 69.3 327.2 72.4 326.5 70.1 C 324.4 68.8 326.2 71.1 324.8 69.3 C 325.3 70.8 323.2 69.0 323.5 70.6 C 319.6 70.0 324.3 69.1 321.4 69.6 C 322.2 69.8 322.2 67.7 320.3 68.8 C 320.6 71.3 318.5 66.2 319.2 69.7 C 313.6 69.6 318.5 68.2 315.5 67.6 C 314.8 67.5 316.2 68.8 315.5 68.7 C 311.7 67.6 315.1 67.3 312.8 68.5 C 308.9 68.3 311.9 67.0 310.1 66.6 C 309.8 67.3 308.1 68.3 308.0 66.5 M 311.3 67.9 C 312.1 67.6 311.6 68.5 311.3 67.9 M 303.8 65.8 C 304.7 65.5 304.2 66.4 303.8 65.8 M 314.5 68.0 C 315.6 67.7 314.6 68.9 314.5 68.0 M 334.7 72.4 C 333.3 72.1 335.4 72.1 334.7 72.4 M 306.8 66.3 C 308.0 65.8 307.0 67.2 306.8 66.3 M 305.2 67.3 C 305.3 67.3 305.3 67.3 305.2 67.3 M 336.9 71.4 C 337.0 71.5 337.0 71.5 336.9 71.4 M 331.5 70.5 C 332.6 70.7 330.8 70.7 331.5 70.5 M 330.3 75.7 C 331.5 76.0 329.6 75.9 330.3 75.7 M 339.9 71.9 C 341.2 71.7 340.2 72.6 339.9 71.9 M 342.8 73.6 C 343.9 73.3 343.4 74.3 342.8 73.6 M 310.2 69.6 C 310.2 69.7 310.2 69.7 310.2 69.6 C 310.2 69.6 310.2 69.6 310.2 69.6 Z M 320.0 72.7 C 318.9 72.0 321.4 73.6 320.0 72.7 M 318.8 68.9 C 319.4 70.2 317.2 68.6 318.8 68.9 C 318.8 68.9 318.8 68.9 318.8 68.9 Z M 316.9 69.1 C 316.9 69.2 316.9 69.2 316.9 69.1 C 316.9 69.1 316.9 69.1 316.9 69.1 Z M 322.6 70.2 C 322.5 70.2 322.5 70.2 322.6 70.2 C 322.6 70.2 322.6 70.2 322.6 70.2 Z M 321.4 70.1 C 320.9 70.2 320.8 69.7 321.4 70.1 C 321.4 70.1 321.4 70.1 321.4 70.1 Z M 329.0 74.9 C 328.5 75.1 328.4 74.6 329.0 74.9 C 329.0 74.9 329.0 74.9 329.0 74.9 Z M 319.6 70.1 C 319.2 71.2 318.9 69.3 319.6 70.1 C 319.6 70.1 319.6 70.1 319.6 70.1 Z M 325.2 73.8 C 325.7 73.6 326.0 75.0 325.2 73.8 M 338.1 71.8 C 338.6 71.6 338.9 73.1 338.1 71.8 M 326.1 69.4 C 326.7 69.2 327.0 70.6 326.1 69.4 M 312.0 67.6 C 312.1 67.7 312.1 67.7 312.0 67.6 M 317.8 73.4 C 318.6 73.1 318.1 74.0 317.8 73.4 M 306.6 71.0 C 307.5 70.8 306.9 71.6 306.6 71.0 M 335.5 76.5 C 335.5 76.2 336.7 76.9 335.5 76.5 M 327.3 71.4 C 328.3 71.7 329.2 72.5 327.1 72.0 C 327.0 71.8 327.7 71.7 327.3 71.4 C 327.3 71.4 327.3 71.4 327.3 71.4 Z M 330.6 74.5 C 330.7 74.6 330.7 74.6 330.6 74.5 M 329.3 70.7 C 329.4 70.9 329.4 70.9 329.3 70.7 M 335.4 71.9 C 335.5 72.1 335.5 72.1 335.4 71.9 M 336.2 71.7 C 336.2 71.8 336.2 71.8 336.2 71.7 C 336.2 71.7 336.2 71.7 336.2 71.7 Z M 343.0 72.5 C 343.0 72.5 343.0 72.5 343.0 72.5 C 343.0 72.5 343.0 72.5 343.0 72.5 Z M 333.4 71.7 C 333.4 71.7 333.4 71.7 333.4 71.7 C 333.4 71.7 333.4 71.7 333.4 71.7 Z M 338.2 76.8 C 338.2 76.8 338.2 76.8 338.2 76.8 C 338.2 76.8 338.2 76.8 338.2 76.8 Z M 337.6 76.0 C 337.6 76.1 337.6 76.1 337.6 76.0 C 337.6 76.0 337.6 76.0 337.6 76.0 Z M 308.6 66.6 C 309.6 66.1 308.7 68.6 308.6 66.6 M 340.6 76.6 C 341.4 77.4 339.0 76.4 340.6 76.6 C 340.6 76.6 340.6 76.6 340.6 76.6 Z M 332.5 72.5 C 332.6 72.6 332.6 72.6 332.5 72.5 M 336.6 71.9 C 336.6 72.1 336.6 72.1 336.6 71.9 M 318.9 67.9 C 319.0 68.1 319.0 68.1 318.9 67.9 M 341.3 73.0 C 344.1 73.7 339.7 74.3 341.3 73.0 M 317.4 68.7 C 317.4 68.6 317.4 68.6 317.4 68.7 M 323.5 71.9 C 325.4 72.2 322.7 72.4 323.5 71.9 M 328.6 71.4 C 328.5 71.4 328.5 71.4 328.6 71.4 C 328.6 71.4 328.6 71.4 328.6 71.4 Z M 325.8 70.9 C 324.3 70.8 325.5 70.5 325.8 70.9 C 325.8 70.9 325.8 70.9 325.8 70.9 Z M 309.7 67.9 C 311.5 68.4 307.8 67.9 309.7 67.9 C 309.7 67.9 309.7 67.9 309.7 67.9 Z M 339.5 75.2 C 339.4 75.3 339.4 75.3 339.5 75.2 C 339.5 75.2 339.5 75.2 339.5 75.2 Z M 333.2 70.9 C 332.3 71.0 332.9 70.5 333.2 70.9 C 333.2 70.9 333.2 70.9 333.2 70.9 Z M 344.0 72.7 C 343.1 72.8 343.7 72.3 344.0 72.7 C 344.0 72.7 344.0 72.7 344.0 72.7 Z M 307.6 67.3 C 313.9 70.3 298.8 65.3 307.6 67.3 C 307.6 67.3 307.6 67.3 307.6 67.3 Z M 327.0 70.4 C 327.0 70.4 327.0 70.4 327.0 70.4 C 327.0 70.4 327.0 70.4 327.0 70.4 Z M 314.9 67.5 C 314.9 67.5 314.9 67.5 314.9 67.5 C 314.9 67.5 314.9 67.5 314.9 67.5 Z M 312.7 68.1 C 312.6 68.1 312.6 68.1 312.7 68.1 C 312.7 68.1 312.7 68.1 312.7 68.1 Z M 312.5 72.4 C 312.5 72.4 312.5 72.4 312.5 72.4 C 312.5 72.4 312.5 72.4 312.5 72.4 Z M 313.6 70.6 C 313.5 70.7 313.5 70.7 313.6 70.6 C 313.6 70.6 313.6 70.6 313.6 70.6 Z M 309.2 70.5 C 309.1 70.6 309.1 70.6 309.2 70.5 C 309.2 70.5 309.2 70.5 309.2 70.5 Z M 309.2 71.1 C 309.1 71.1 309.1 71.1 309.2 71.1 C 309.2 71.1 309.2 71.1 309.2 71.1 Z M 336.4 73.1 C 336.3 73.2 336.3 73.2 336.4 73.1 C 336.4 73.1 336.4 73.1 336.4 73.1 Z M 333.8 74.4 C 335.4 74.1 333.1 75.3 333.8 74.4 C 333.8 74.4 333.8 74.4 333.8 74.4 Z M 320.3 71.2 C 321.7 71.2 319.2 71.5 320.3 71.2 C 320.3 71.2 320.3 71.2 320.3 71.2 Z M 321.4 73.7 C 321.4 73.7 321.4 73.7 321.4 73.7 C 321.4 73.7 321.4 73.7 321.4 73.7 Z M 312.9 67.1 C 312.8 67.2 312.8 67.2 312.9 67.1 C 312.9 67.1 312.9 67.1 312.9 67.1 Z M 310.1 67.3 C 309.9 68.2 309.4 66.7 310.1 67.3 M 323.3 69.1 C 323.3 69.2 323.3 69.2 323.3 69.1 C 323.3 69.1 323.3 69.1 323.3 69.1 Z M 331.4 72.0 C 331.4 72.0 331.4 72.0 331.4 72.0 C 331.4 72.0 331.4 72.0 331.4 72.0 Z M 339.7 72.9 C 339.7 73.0 339.7 73.0 339.7 72.9 C 339.7 72.9 339.7 72.9 339.7 72.9 Z M 328.5 70.1 C 328.4 70.3 328.4 70.3 328.5 70.1 C 328.5 70.1 328.5 70.1 328.5 70.1 Z M 324.4 70.3 C 324.4 70.4 324.4 70.4 324.4 70.3 C 324.4 70.3 324.4 70.3 324.4 70.3 Z M 341.3 74.4 C 341.2 74.5 341.2 74.5 341.3 74.4 C 341.3 74.4 341.3 74.4 341.3 74.4 Z M 329.4 70.2 C 329.4 70.2 329.4 70.2 329.4 70.2 C 329.4 70.2 329.4 70.2 329.4 70.2 Z M 331.3 73.4 C 331.2 73.5 331.2 73.5 331.3 73.4 C 331.3 73.4 331.3 73.4 331.3 73.4 Z M 310.7 66.1 C 310.7 66.2 310.7 66.2 310.7 66.1 C 310.7 66.1 310.7 66.1 310.7 66.1 Z M 341.6 73.3 C 341.6 73.3 341.6 73.3 341.6 73.3 C 341.6 73.3 341.6 73.3 341.6 73.3 Z M 342.2 72.6 C 342.2 72.6 342.2 72.6 342.2 72.6 C 342.2 72.6 342.2 72.6 342.2 72.6 Z M 335.7 75.7 C 332.9 74.7 338.3 76.0 336.4 74.7 C 340.6 75.2 336.3 75.9 335.7 75.7 C 335.7 75.7 335.7 75.7 335.7 75.7 Z M 335.7 75.7 " fill="#FFF8FB"></path><path d="M 350.7 90.0 C 350.5 90.5 348.9 90.7 350.1 89.9 C 350.1 89.9 350.8 89.8 350.7 90.0 Z M 353.3 89.0 C 353.1 89.1 352.9 89.1 352.7 89.0 C 352.3 88.7 354.0 88.8 353.3 89.0 Z M 349.3 89.9 C 349.2 90.0 348.4 90.3 348.5 90.1 C 348.6 89.9 349.3 89.9 349.3 89.9 Z M 355.3 87.1 C 355.3 87.3 354.4 87.7 354.3 87.6 C 353.7 87.5 355.2 86.6 355.3 87.1 Z M 349.5 82.0 C 349.5 81.9 349.5 81.8 349.5 81.8 C 349.5 81.8 349.5 81.9 349.5 82.0 Z M 367.6 83.1 C 367.5 83.2 367.1 83.1 367.1 82.9 C 367.1 82.6 368.1 82.8 367.6 83.1 Z M 351.8 66.3 C 351.8 66.3 351.6 66.7 351.5 66.5 C 351.4 66.3 351.7 66.2 351.8 66.3 Z M 351.5 66.3 C 351.3 66.4 351.3 66.0 351.4 66.1 C 351.6 66.2 351.7 66.3 351.5 66.3 Z M 363.5 71.8 C 363.6 71.9 363.7 71.9 363.6 71.9 C 363.4 72.0 363.4 71.7 363.5 71.8 Z M 363.0 71.8 C 362.8 71.9 362.8 71.5 363.0 71.6 C 363.2 71.7 363.3 71.7 363.0 71.8 Z M 361.7 69.0 C 361.8 69.1 361.9 69.1 361.8 69.2 C 361.7 69.2 361.6 68.9 361.7 69.0 Z M 350.0 72.6 C 349.9 72.5 350.2 72.1 350.3 72.1 C 350.6 72.2 350.1 72.8 350.0 72.6 Z M 350.0 72.0 C 349.8 72.0 349.8 71.6 350.0 71.8 C 350.1 71.9 350.2 72.0 350.0 72.0 Z M 350.0 74.0 C 350.3 74.1 350.2 74.6 350.1 74.7 C 350.0 74.9 349.9 75.1 349.8 75.2 C 349.8 75.3 349.7 74.0 350.0 74.0 Z M 349.5 78.2 C 349.5 78.2 349.4 78.1 349.5 78.0 C 349.7 77.8 349.6 78.2 349.5 78.2 Z M 349.8 75.8 C 349.7 75.8 349.7 75.8 349.8 75.6 C 349.9 75.4 349.9 75.9 349.8 75.8 Z M 360.4 85.8 C 360.5 85.9 359.8 86.1 359.7 86.0 C 359.7 86.0 359.9 85.9 359.7 85.9 C 359.5 85.9 359.7 85.3 360.4 85.8 Z M 354.7 88.4 C 354.6 88.4 354.5 88.4 354.5 88.2 C 354.5 88.2 355.1 88.2 354.7 88.4 Z M 359.2 85.3 C 359.2 85.4 359.1 85.5 359.0 85.4 C 359.0 85.3 359.2 85.3 359.2 85.3 Z M 359.6 85.1 C 359.5 85.1 359.1 85.1 359.1 84.9 C 359.1 84.6 360.1 84.8 359.6 85.1 Z M 361.2 85.7 C 361.0 85.8 361.0 85.8 361.1 85.7 C 361.2 85.6 361.2 85.7 361.2 85.7 Z M 358.0 87.3 C 357.8 87.4 357.8 87.4 357.9 87.3 C 358.0 87.2 358.0 87.3 358.0 87.3 Z M 362.7 84.7 C 362.7 84.7 362.3 85.2 362.1 84.8 C 361.7 84.4 362.6 84.7 362.7 84.7 Z M 364.8 83.4 C 364.6 83.4 364.7 83.2 364.8 83.2 C 365.0 83.2 365.0 83.3 364.8 83.4 Z M 365.4 82.2 C 365.7 82.2 365.9 82.4 365.5 82.5 C 365.1 82.6 365.1 82.2 365.4 82.2 Z M 365.0 82.6 C 365.0 82.5 365.1 82.5 365.2 82.5 C 365.2 82.6 365.0 82.7 365.0 82.6 Z M 363.2 83.9 C 363.1 84.1 362.8 84.0 363.0 83.8 C 363.3 83.6 363.4 83.7 363.2 83.9 Z M 348.0 83.9 C 348.1 84.1 347.8 84.0 347.8 83.9 C 347.7 83.8 348.0 83.8 348.0 83.9 Z M 350.6 75.1 C 350.4 75.2 350.4 75.1 350.5 74.9 C 350.6 74.7 350.7 75.0 350.6 75.1 Z M 352.1 69.5 C 351.9 69.6 351.9 69.5 352.0 69.3 C 352.1 69.1 352.2 69.4 352.1 69.5 Z M 350.2 77.4 C 350.1 77.5 349.7 76.8 350.2 76.5 C 350.7 76.3 350.5 77.3 350.2 77.4 Z M 353.7 83.8 C 353.8 83.9 353.6 83.9 353.6 83.9 C 353.7 83.7 353.7 83.7 353.7 83.8 Z M 351.1 76.3 C 351.1 76.4 350.9 76.3 350.8 76.2 C 350.7 76.1 351.0 76.1 351.1 76.3 Z M 351.5 70.5 C 351.4 70.7 351.0 70.5 350.9 70.3 C 350.6 69.8 351.2 69.5 351.5 69.3 C 351.7 69.0 351.6 70.4 351.5 70.5 Z M 348.7 85.5 C 348.8 85.3 348.8 85.2 348.8 85.1 C 348.7 85.1 348.8 85.0 348.9 84.9 C 348.9 84.3 348.5 83.8 348.4 83.5 C 348.2 82.6 349.4 82.5 349.5 82.0 C 349.5 82.1 349.5 82.2 349.6 82.3 C 349.8 82.6 350.0 80.6 350.0 80.5 C 350.1 78.7 349.5 80.7 348.9 80.6 C 348.6 80.6 349.5 79.5 349.5 79.5 C 349.9 79.0 349.3 78.8 349.6 78.4 C 349.8 78.2 351.2 77.7 351.0 77.5 C 350.9 77.3 351.1 76.8 351.2 76.6 C 351.2 76.3 351.3 75.8 350.8 76.0 C 350.4 76.1 350.0 76.2 350.4 75.8 C 350.7 75.5 351.9 73.7 350.9 73.6 C 350.8 73.6 350.4 74.0 350.5 74.0 C 350.3 73.4 351.0 71.8 350.6 71.3 C 349.9 70.3 351.1 71.7 351.4 71.3 C 352.0 70.6 352.4 70.2 352.4 69.2 C 352.4 69.0 352.5 68.1 351.9 68.4 C 351.5 68.7 351.3 68.4 351.1 68.9 C 350.7 68.2 351.7 68.0 351.6 67.8 C 351.3 67.6 351.1 67.9 351.2 67.4 C 351.4 66.9 351.2 67.1 351.7 67.1 C 351.9 67.1 352.1 66.6 352.1 66.6 C 352.1 66.6 352.2 66.6 352.2 66.6 C 352.2 66.2 351.5 65.3 351.7 65.2 C 351.9 65.1 352.4 65.5 352.6 65.5 C 352.7 65.5 352.7 65.4 352.7 65.4 C 352.7 65.2 352.4 64.7 352.5 64.6 C 352.6 64.6 353.3 65.0 353.1 64.8 C 352.9 64.5 353.4 63.6 353.7 63.6 C 354.0 63.5 355.1 63.5 355.2 63.3 C 355.4 63.1 355.8 63.6 356.0 63.7 C 356.1 63.8 356.2 64.3 356.2 64.4 C 356.2 64.5 356.7 64.7 356.7 64.7 C 356.7 64.7 356.9 64.8 357.2 65.0 C 357.5 65.3 357.6 65.6 357.8 66.1 C 358.1 66.5 358.5 66.4 358.9 66.7 C 359.2 66.9 359.1 67.7 359.3 68.1 C 359.5 68.4 359.9 67.9 360.3 68.2 C 360.7 68.5 360.9 68.8 360.7 68.8 C 360.5 68.8 360.5 69.0 360.6 69.1 C 360.7 69.2 361.0 69.7 361.3 69.7 C 361.5 69.8 360.7 68.4 362.1 69.7 C 362.7 70.4 362.8 71.2 362.7 71.1 C 362.1 70.7 362.6 72.3 362.8 72.1 C 363.0 71.9 364.2 73.0 364.2 72.3 C 364.2 72.1 365.5 73.1 365.6 73.3 C 365.8 73.5 366.4 73.9 366.2 74.4 C 366.2 74.6 367.3 74.7 367.4 74.9 C 367.6 75.0 368.5 75.9 368.6 76.2 C 368.7 76.4 368.2 76.1 368.0 75.9 C 367.8 75.6 367.7 75.2 367.5 75.1 C 367.3 75.0 367.5 75.5 367.7 75.7 C 367.9 76.0 367.8 76.2 367.9 76.4 C 368.1 76.5 368.2 76.6 368.4 76.8 C 368.5 76.9 368.6 76.9 368.6 76.9 C 368.8 76.7 368.7 76.5 368.8 76.5 C 368.9 76.5 369.1 76.5 369.4 76.8 C 369.7 77.0 369.9 77.3 370.2 77.7 C 370.5 78.2 370.7 78.1 371.0 78.3 C 371.3 78.5 371.5 78.8 371.4 78.9 C 371.3 79.0 371.0 78.7 370.9 78.8 C 370.8 78.8 371.0 79.4 371.1 79.5 C 371.7 80.2 370.6 80.3 371.3 81.0 C 371.6 81.4 371.0 81.3 370.6 81.3 C 370.6 81.4 370.6 81.5 370.2 81.7 C 370.3 81.8 369.7 81.9 369.4 82.1 C 369.2 82.2 368.2 82.8 368.8 82.2 C 368.8 82.2 368.8 82.1 368.9 82.1 C 368.9 82.1 368.9 82.1 368.8 82.1 C 368.8 82.1 369.0 81.5 369.0 81.5 C 369.0 81.5 368.8 82.1 368.8 82.1 C 368.6 82.0 368.5 81.8 368.3 81.8 C 368.3 81.8 368.3 81.9 368.2 82.0 C 368.2 82.0 368.2 82.0 368.2 82.0 C 368.2 82.0 368.2 82.0 368.2 82.0 C 368.3 82.2 368.2 82.2 368.1 82.2 C 367.7 82.6 366.7 82.6 366.3 82.6 C 366.9 81.3 365.2 82.0 364.6 82.3 C 364.1 82.7 364.6 83.8 364.9 83.7 C 364.4 83.9 364.3 83.8 364.0 83.5 C 364.1 83.5 363.3 83.0 363.4 83.0 C 362.2 82.9 362.8 83.8 362.6 84.0 C 362.4 84.3 362.1 84.4 361.8 84.6 C 361.5 84.8 361.9 84.9 361.8 85.1 C 361.6 85.7 360.6 85.0 360.3 85.1 C 360.5 84.9 360.8 84.7 361.0 84.5 C 360.7 84.9 360.3 84.4 360.1 84.4 C 359.8 84.4 359.4 84.6 359.1 84.7 C 358.5 85.0 358.0 85.3 357.5 85.6 C 357.7 85.6 358.8 85.9 358.8 85.9 C 358.7 86.0 358.1 86.0 358.4 86.4 C 359.1 87.0 357.5 87.1 357.3 87.2 C 356.5 87.4 356.0 88.4 355.0 87.9 C 355.0 87.9 356.0 87.3 355.9 87.2 C 355.4 86.6 355.0 86.4 354.3 86.9 C 354.2 86.9 353.3 87.8 353.3 87.9 C 353.3 87.8 354.9 88.9 353.8 88.7 C 353.6 88.7 353.9 88.3 353.6 88.3 C 353.2 88.3 352.8 88.6 352.4 88.6 C 352.4 88.7 351.7 88.7 351.7 88.7 C 351.6 89.0 351.7 89.3 351.6 89.5 C 351.4 89.7 351.1 89.6 351.0 89.4 C 351.0 89.3 351.0 89.3 351.0 89.3 C 350.9 89.3 350.8 89.2 350.8 89.1 C 350.7 89.2 350.5 89.2 350.4 89.2 C 350.3 89.1 350.6 89.0 350.7 89.0 C 350.7 88.9 350.7 88.8 350.7 88.7 C 350.4 88.9 350.1 89.1 350.1 89.1 C 349.7 89.6 349.8 89.8 348.9 89.5 C 348.1 89.3 348.0 87.3 348.4 86.3 C 348.4 86.0 348.4 85.8 348.7 85.5 Z M 368.6 77.5 C 368.6 77.5 368.6 77.5 368.6 77.4 C 368.5 77.5 368.4 77.6 368.4 77.7 C 368.5 77.9 368.4 77.5 368.6 77.7 C 368.8 78.0 368.9 77.8 368.6 77.5 Z M 368.0 80.0 C 368.2 80.1 368.2 80.0 368.1 79.9 C 368.1 79.9 368.0 80.0 368.0 80.0 Z M 368.3 81.2 C 368.6 81.0 367.9 80.7 367.4 81.1 C 367.9 81.2 368.2 81.2 368.3 81.2 Z M 367.7 82.0 C 367.7 81.9 367.7 81.9 367.7 81.8 C 367.7 81.6 367.4 81.9 367.3 81.8 C 367.3 81.7 367.6 81.4 367.4 81.4 C 367.3 81.4 367.2 81.4 367.1 81.4 C 367.1 81.4 367.1 81.4 367.1 81.5 C 367.0 81.7 367.4 82.0 367.7 82.0 Z M 366.8 77.0 C 366.9 77.1 366.9 77.0 366.8 76.9 C 366.6 76.8 366.6 77.0 366.8 77.0 Z M 365.8 74.8 C 365.9 75.0 366.1 75.1 366.0 74.8 C 366.0 74.6 365.8 74.6 365.8 74.8 Z M 362.5 77.2 C 362.6 77.2 362.6 77.2 362.5 77.1 C 362.3 77.0 362.4 77.3 362.5 77.2 Z M 362.0 79.3 C 361.9 79.4 362.1 79.7 362.1 79.5 C 362.2 79.4 362.1 79.2 362.0 79.3 Z M 363.1 74.6 C 362.9 74.5 363.0 74.7 363.1 74.7 C 363.3 74.7 363.3 74.6 363.1 74.6 Z M 363.1 77.5 C 362.9 77.3 362.9 77.3 362.8 77.3 C 362.7 77.4 362.7 77.6 362.9 77.7 C 363.1 77.8 363.2 77.8 363.1 77.5 Z M 362.9 79.3 C 362.3 79.5 362.4 79.7 363.1 79.4 C 363.7 79.0 363.2 79.2 362.9 79.3 Z M 365.0 73.2 C 365.0 73.3 365.3 73.4 365.3 73.4 C 365.3 73.4 364.8 72.8 365.0 73.2 Z M 361.9 84.0 C 362.1 84.0 362.2 83.7 361.8 83.8 C 361.5 83.9 361.7 84.1 361.9 84.0 Z M 361.0 83.0 C 361.4 83.4 361.8 83.3 361.8 83.4 C 361.7 83.3 361.7 82.9 361.8 82.8 C 362.1 82.5 362.7 82.8 363.0 82.4 C 363.3 81.9 362.4 82.2 362.3 82.3 C 362.4 82.2 362.4 82.1 362.4 82.0 C 362.3 81.9 362.2 81.9 362.1 82.0 C 361.9 82.2 360.6 82.5 361.0 83.0 Z M 361.9 78.0 C 362.1 78.1 362.4 78.0 362.2 77.7 C 362.1 77.5 362.0 77.3 361.9 77.4 C 361.8 77.4 361.7 77.9 361.9 78.0 Z M 362.0 76.4 C 362.3 76.3 362.2 76.3 362.0 76.2 C 361.7 76.0 361.8 76.4 362.0 76.4 Z M 360.3 69.2 C 360.1 69.2 360.4 69.5 360.4 69.4 C 360.5 69.3 360.4 69.2 360.3 69.2 Z M 359.9 71.8 C 359.5 71.7 359.8 72.1 359.9 72.1 C 360.0 72.2 360.2 71.9 359.9 71.8 Z M 361.2 73.7 C 361.0 73.6 361.1 73.9 361.3 73.8 C 361.4 73.8 361.3 73.7 361.2 73.7 Z M 361.2 74.7 C 361.0 74.6 361.0 74.9 361.3 74.9 C 361.4 75.0 361.3 74.8 361.2 74.7 Z M 358.9 83.1 C 358.9 83.1 358.8 82.7 358.6 83.0 C 358.4 83.3 358.4 83.3 358.9 83.1 Z M 360.2 80.2 C 360.4 80.0 360.7 79.8 360.6 78.9 C 360.4 78.0 360.2 78.3 360.0 78.8 C 359.8 79.3 359.6 77.9 359.2 78.8 C 359.1 79.2 359.9 80.3 360.2 80.2 Z M 359.6 74.5 C 359.8 75.1 360.6 75.1 360.2 74.7 C 359.8 74.2 359.4 74.0 359.6 74.5 Z M 359.6 74.1 C 359.8 74.2 359.7 74.1 359.6 74.0 C 359.4 73.9 359.5 74.1 359.6 74.1 Z M 357.9 86.7 C 358.8 86.1 357.5 85.9 357.5 85.9 C 356.3 86.0 356.9 87.3 357.9 86.7 Z M 352.6 67.2 C 352.5 67.2 352.5 67.2 352.5 67.3 C 352.5 67.3 352.5 67.3 352.5 67.3 C 352.6 67.5 352.9 67.2 352.9 67.2 C 352.8 67.1 352.6 67.1 352.6 67.2 Z M 351.3 72.5 C 351.4 72.3 351.4 72.2 351.3 72.0 C 350.8 72.0 350.5 73.6 351.5 73.2 C 351.6 73.1 352.5 72.2 352.1 72.0 C 351.9 71.9 351.3 73.1 351.3 72.5 Z M 352.3 71.0 C 352.2 71.6 353.1 70.5 352.7 70.6 C 352.5 70.7 352.4 70.8 352.3 71.0 Z M 354.7 66.4 C 354.5 65.5 353.2 65.4 353.6 66.9 C 354.0 68.4 354.6 68.6 354.5 67.8 C 354.4 67.1 355.0 67.8 354.7 66.4 Z M 353.4 73.5 C 352.5 73.2 352.7 73.6 353.4 74.0 C 353.5 74.1 354.0 73.7 353.4 73.5 Z M 353.2 75.5 C 353.1 75.7 353.1 75.7 353.3 75.6 C 353.5 75.4 353.4 75.2 353.2 75.5 Z M 356.2 65.3 C 356.1 64.9 355.8 64.6 356.0 64.6 C 356.3 64.7 356.2 64.6 356.0 64.4 C 355.9 64.1 355.8 64.6 355.8 64.8 C 355.8 65.0 356.3 65.6 356.2 65.3 Z M 358.0 73.4 C 357.9 73.3 357.9 73.5 358.1 73.5 C 358.2 73.6 358.2 73.5 358.0 73.4 Z M 357.7 81.0 C 357.7 81.0 357.7 80.8 357.5 80.9 C 357.4 81.1 357.4 81.1 357.7 81.0 Z M 356.3 86.9 C 356.5 86.8 356.1 86.7 356.2 86.4 C 356.2 86.3 356.4 86.5 356.4 86.5 C 356.4 86.4 356.4 85.7 356.0 86.1 C 355.9 86.3 355.8 87.2 356.3 86.9 Z M 357.4 75.4 C 357.6 75.8 358.1 74.5 358.3 74.8 C 358.5 75.0 358.6 74.9 358.3 74.6 C 358.1 74.3 357.2 75.0 357.4 75.4 Z M 357.8 72.2 C 357.8 72.4 358.3 73.0 358.2 72.7 C 358.1 72.3 357.8 72.0 358.0 72.1 C 358.2 72.1 358.1 72.0 358.0 71.8 C 357.9 71.5 357.8 72.0 357.8 72.2 Z M 358.5 66.8 C 358.5 67.0 358.9 67.2 358.8 66.9 C 358.7 66.8 358.4 66.7 358.5 66.8 Z M 355.6 81.5 C 355.7 81.3 355.6 81.2 355.4 81.4 C 355.1 81.6 355.4 81.7 355.6 81.5 Z M 357.5 67.2 C 357.7 67.5 357.6 67.0 357.8 67.2 C 358.0 67.5 358.1 67.4 357.8 67.0 C 357.6 66.7 357.3 66.8 357.5 67.2 Z M 353.9 86.2 C 353.9 86.1 353.9 85.8 353.8 85.9 C 353.6 86.1 353.8 86.3 353.9 86.2 Z M 353.5 84.1 C 353.6 84.1 353.7 84.0 353.7 84.0 C 355.2 83.3 352.7 83.6 353.5 84.1 Z M 354.2 81.1 C 354.2 81.5 354.5 81.0 354.5 81.0 C 354.4 80.9 354.3 80.9 354.2 81.1 Z M 354.8 77.7 C 354.6 77.6 354.6 77.9 354.8 77.9 C 354.9 77.9 354.9 77.8 354.8 77.7 Z M 352.3 88.4 C 352.5 88.4 352.4 88.3 352.3 88.3 C 352.1 88.3 352.1 88.4 352.3 88.4 Z M 353.6 80.0 C 353.7 80.1 353.7 80.1 353.7 79.9 C 353.7 79.8 353.5 80.0 353.6 80.0 Z M 355.3 69.8 C 355.4 69.9 355.5 70.0 355.6 70.1 C 355.8 70.1 355.9 69.5 356.1 69.5 C 356.2 69.5 356.2 69.5 356.2 69.5 C 356.2 69.5 356.2 69.5 356.2 69.5 C 356.3 69.6 356.4 69.7 356.3 69.7 C 356.3 69.8 356.4 69.9 356.4 70.0 C 356.6 69.9 356.8 69.6 356.6 69.5 C 356.5 69.2 356.1 69.1 355.7 69.1 C 355.6 69.2 355.5 69.3 355.4 69.4 C 355.5 69.4 355.5 69.4 355.5 69.5 C 355.7 69.6 355.8 69.8 355.6 69.8 C 355.5 69.8 355.4 69.7 355.4 69.6 C 355.3 69.7 355.3 69.8 355.3 69.8 Z M 353.4 78.7 C 353.4 79.0 353.6 78.8 353.7 78.5 C 353.8 78.2 353.3 78.4 353.4 78.7 Z M 352.0 87.9 C 352.0 87.8 352.0 87.8 351.9 87.7 C 351.9 87.7 351.9 87.8 351.8 87.8 C 351.8 88.0 351.7 88.2 351.6 88.3 C 351.8 88.4 352.0 88.3 352.0 87.9 Z M 351.5 84.9 C 351.6 85.0 351.3 86.2 351.6 86.0 C 352.1 85.7 352.5 86.3 352.4 85.4 C 352.4 85.0 351.8 84.5 351.8 84.1 C 351.7 81.8 351.1 84.5 350.9 85.1 C 350.9 85.2 351.5 84.7 351.5 84.9 Z M 351.4 81.9 C 351.2 81.8 350.9 82.1 350.9 82.2 C 350.9 82.8 351.6 82.1 351.4 81.9 Z M 350.0 87.9 C 350.0 87.9 350.1 87.9 350.2 87.9 C 350.1 87.9 350.1 87.8 350.0 87.8 C 350.0 87.8 350.0 87.8 350.0 87.9 Z M 349.5 89.3 C 350.2 88.9 349.1 88.8 348.8 88.8 C 348.3 88.9 349.1 89.6 349.5 89.3 Z M 350.1 83.4 C 350.2 82.9 349.0 82.2 349.0 83.0 C 348.9 83.7 349.9 84.3 350.1 83.4 Z M 349.3 78.6 C 349.4 78.8 349.1 79.2 349.0 78.9 C 348.9 78.8 349.2 78.5 349.3 78.6 Z M 347.4 85.1 C 347.5 85.0 347.5 85.2 347.5 85.2 C 347.3 85.3 347.3 85.3 347.4 85.1 Z M 348.5 84.7 C 348.3 84.9 348.2 85.1 348.1 85.3 C 348.1 85.4 348.0 85.0 348.0 84.9 C 348.1 84.8 348.4 84.7 348.5 84.7 Z M 349.2 81.1 C 349.0 81.3 349.1 81.0 349.1 80.9 C 349.2 80.8 349.3 81.0 349.2 81.1 Z M 348.7 81.9 C 348.8 81.8 348.9 81.9 348.9 82.1 C 348.8 82.3 348.7 82.1 348.7 81.9 Z M 349.7 80.6 C 349.8 81.0 349.8 81.5 349.4 81.4 C 349.3 81.4 349.6 79.8 349.7 80.6 Z M 349.7 80.6 " fill="#FFF8FB"></path></g></svg>