<?xml version="1.0" encoding="UTF-8" standalone="no"?><svg xmlns="http://www.w3.org/2000/svg" xmlns:xlink="http://www.w3.org/1999/xlink" clip-rule="evenodd" stroke-miterlimit="10" viewBox="0 0 161 165"><desc>SVG generated by Keynote</desc><defs></defs><g transform="matrix(1.00, 0.00, -0.00, -1.00, 0.0, 165.0)"><image xlink:href="../../60252C77-7F6D-4FAE-860E-2CB847E39FFD/assets/299D9EDC9BD20708ED64EE183F9BA7DB.png" width="158.00" height="158.00" transform="matrix(1.00, 0.00, -0.00, -1.00, 1.2, 159.5)" opacity="0.50"></image><g><clipPath id="clip0x6080016ae820"><path d="M 133.3 135.6 C 162.6 106.3 162.6 58.8 133.3 29.5 C 104.0 0.2 56.5 0.2 27.2 29.5 C -2.1 58.8 -2.1 106.3 27.2 135.6 C 56.5 164.8 104.0 164.8 133.3 135.6 Z M 133.3 135.6 "></path></clipPath><g clip-path="url(#clip0x6080016ae820)"><image xlink:href="../../60252C77-7F6D-4FAE-860E-2CB847E39FFD/assets/BF7F347A5AA08698479112B0B19D9FB4.png" width="512.00" height="512.00" transform="matrix(0.50, 0.00, -0.00, -0.50, 5.2, 157.5)"></image></g></g><image xlink:href="../../60252C77-7F6D-4FAE-860E-2CB847E39FFD/assets/797C696EDFFB5D49545BD68206C30968.png" width="88.00" height="36.00" transform="matrix(1.00, 0.00, -0.00, -1.00, 35.0, 96.0)"></image><g><clipPath id="clip0x6000014aac80"><path d="M -0.1 7.5 L 160.6 7.5 L 160.6 157.5 L -0.1 157.5 Z M -0.1 7.5 "></path></clipPath><g clip-path="url(#clip0x6000014aac80)"><text xml:space="preserve" font-family="HelveticaNeue-Medium,Helvetica Neue" font-size="31.0" fill="#FEFFFE" transform="matrix(1.00, 0.00, -0.00, -1.00, 39.5, 71.2)">j</text><text xml:space="preserve" font-family="HelveticaNeue-Medium,Helvetica Neue" font-size="31.0" fill="#FEFFFE" transform="matrix(1.00, 0.00, -0.00, -1.00, 46.9, 71.2)">F</text><text xml:space="preserve" font-family="HelveticaNeue-Medium,Helvetica Neue" font-size="31.0" fill="#FEFFFE" transform="matrix(1.00, 0.00, -0.00, -1.00, 65.3, 71.2)">o</text><text xml:space="preserve" font-family="HelveticaNeue-Medium,Helvetica Neue" font-size="31.0" fill="#FEFFFE" transform="matrix(1.00, 0.00, -0.00, -1.00, 83.7, 71.2)">o</text><text xml:space="preserve" font-family="HelveticaNeue-Medium,Helvetica Neue" font-size="31.0" fill="#FEFFFE" transform="matrix(1.00, 0.00, -0.00, -1.00, 102.1, 71.2)">d</text></g></g></g></svg>