<?xml version="1.0" encoding="UTF-8" standalone="no"?><svg xmlns="http://www.w3.org/2000/svg" xmlns:xlink="http://www.w3.org/1999/xlink" clip-rule="evenodd" stroke-miterlimit="10" viewBox="0 0 161 165"><desc>SVG generated by Keynote</desc><defs></defs><g transform="matrix(1.00, 0.00, -0.00, -1.00, 0.0, 165.0)"><image xlink:href="../../60252C77-7F6D-4FAE-860E-2CB847E39FFD/assets/299D9EDC9BD20708ED64EE183F9BA7DB.png" width="158.00" height="158.00" transform="matrix(1.00, 0.00, -0.00, -1.00, 1.2, 159.2)" opacity="0.50"></image><g><clipPath id="clip0x6000014aa380"><path d="M 133.3 135.3 C 162.6 106.0 162.6 58.5 133.3 29.2 C 104.0 -0.1 56.5 -0.1 27.2 29.2 C -2.1 58.5 -2.1 106.0 27.2 135.3 C 56.5 164.5 104.0 164.5 133.3 135.3 Z M 133.3 135.3 "></path></clipPath><g clip-path="url(#clip0x6000014aa380)"><image xlink:href="../../60252C77-7F6D-4FAE-860E-2CB847E39FFD/assets/BF7F347A5AA08698479112B0B19D9FB4.png" width="512.00" height="512.00" transform="matrix(0.50, 0.00, -0.00, -0.50, 5.2, 157.2)"></image></g></g><image xlink:href="../../60252C77-7F6D-4FAE-860E-2CB847E39FFD/assets/EC9791714A6B88FC687B4E71086BC2C4.png" width="117.00" height="36.00" transform="matrix(1.00, 0.00, -0.00, -1.00, 21.0, 96.0)"></image><g><clipPath id="clip0x6000014aa500"><path d="M -0.2 7.2 L 160.6 7.2 L 160.6 157.2 L -0.2 157.2 Z M -0.2 7.2 "></path></clipPath><g clip-path="url(#clip0x6000014aa500)"><text xml:space="preserve" font-family="HelveticaNeue-Medium,Helvetica Neue" font-size="31.0" fill="#FEFFFE" transform="matrix(1.00, 0.00, -0.00, -1.00, 25.1, 70.7)">j</text><text xml:space="preserve" font-family="HelveticaNeue-Medium,Helvetica Neue" font-size="31.0" fill="#FEFFFE" transform="matrix(1.00, 0.00, -0.00, -1.00, 32.6, 70.7)">C</text><text xml:space="preserve" font-family="HelveticaNeue-Medium,Helvetica Neue" font-size="31.0" fill="#FEFFFE" transform="matrix(1.00, 0.00, -0.00, -1.00, 55.0, 70.7)">o</text><text xml:space="preserve" font-family="HelveticaNeue-Medium,Helvetica Neue" font-size="31.0" fill="#FEFFFE" transform="matrix(1.00, 0.00, -0.00, -1.00, 73.3, 70.7)">u</text><text xml:space="preserve" font-family="HelveticaNeue-Medium,Helvetica Neue" font-size="31.0" fill="#FEFFFE" transform="matrix(1.00, 0.00, -0.00, -1.00, 91.1, 70.7)">r</text><text xml:space="preserve" font-family="HelveticaNeue-Medium,Helvetica Neue" font-size="31.0" fill="#FEFFFE" transform="matrix(1.00, 0.00, -0.00, -1.00, 102.0, 70.7)">s</text><text xml:space="preserve" font-family="HelveticaNeue-Medium,Helvetica Neue" font-size="31.0" fill="#FEFFFE" transform="matrix(1.00, 0.00, -0.00, -1.00, 118.1, 70.7)">e</text></g></g></g></svg>