<?xml version="1.0" encoding="UTF-8" standalone="no"?><svg xmlns="http://www.w3.org/2000/svg" xmlns:xlink="http://www.w3.org/1999/xlink" clip-rule="evenodd" stroke-miterlimit="10" viewBox="0 0 161 165"><desc>SVG generated by Keynote</desc><defs></defs><g transform="matrix(1.00, 0.00, -0.00, -1.00, 0.0, 165.0)"><image xlink:href="../../60252C77-7F6D-4FAE-860E-2CB847E39FFD/assets/299D9EDC9BD20708ED64EE183F9BA7DB.png" width="158.00" height="158.00" transform="matrix(1.00, 0.00, -0.00, -1.00, 1.6, 159.0)" opacity="0.50"></image><g><clipPath id="clip0x6080016afb40"><path d="M 133.6 135.0 C 162.9 105.8 162.9 58.3 133.6 29.0 C 104.3 -0.3 56.8 -0.3 27.5 29.0 C -1.8 58.3 -1.8 105.8 27.5 135.0 C 56.8 164.3 104.3 164.3 133.6 135.0 Z M 133.6 135.0 "></path></clipPath><g clip-path="url(#clip0x6080016afb40)"><image xlink:href="../../60252C77-7F6D-4FAE-860E-2CB847E39FFD/assets/BF7F347A5AA08698479112B0B19D9FB4.png" width="512.00" height="512.00" transform="matrix(0.50, 0.00, -0.00, -0.50, 5.6, 157.0)"></image></g></g><image xlink:href="../../60252C77-7F6D-4FAE-860E-2CB847E39FFD/assets/A9501D9AE458103A3A84DB4C0A22EE24.png" width="124.00" height="23.00" transform="matrix(1.00, 0.00, -0.00, -1.00, 19.0, 92.0)"></image><g><clipPath id="clip0x6080016afcc0"><path d="M 1.0 7.0 L 160.1 7.0 L 160.1 157.0 L 1.0 157.0 Z M 1.0 7.0 "></path></clipPath><g clip-path="url(#clip0x6080016afcc0)"><text xml:space="preserve" font-family="HelveticaNeue-Medium,Helvetica Neue" font-size="23.0" fill="#FEFFFE" transform="matrix(1.00, 0.00, -0.00, -1.00, 22.0, 73.4)">W</text><text xml:space="preserve" font-family="HelveticaNeue-Medium,Helvetica Neue" font-size="23.0" fill="#FEFFFE" transform="matrix(1.00, 0.00, -0.00, -1.00, 43.7, 73.4)">h</text><text xml:space="preserve" font-family="HelveticaNeue-Medium,Helvetica Neue" font-size="23.0" fill="#FEFFFE" transform="matrix(1.00, 0.00, -0.00, -1.00, 56.9, 73.4)">o</text><text xml:space="preserve" font-family="HelveticaNeue-Medium,Helvetica Neue" font-size="23.0" fill="#FEFFFE" transform="matrix(1.00, 0.00, -0.00, -1.00, 70.5, 73.4)">I</text><text xml:space="preserve" font-family="HelveticaNeue-Medium,Helvetica Neue" font-size="23.0" fill="#FEFFFE" transform="matrix(1.00, 0.00, -0.00, -1.00, 76.9, 73.4)">s</text><text xml:space="preserve" font-family="HelveticaNeue-Medium,Helvetica Neue" font-size="23.0" fill="#FEFFFE" transform="matrix(1.00, 0.00, -0.00, -1.00, 88.9, 73.4)">J</text><text xml:space="preserve" font-family="HelveticaNeue-Medium,Helvetica Neue" font-size="23.0" fill="#FEFFFE" transform="matrix(1.00, 0.00, -0.00, -1.00, 101.2, 73.4)">a</text><text xml:space="preserve" font-family="HelveticaNeue-Medium,Helvetica Neue" font-size="23.0" fill="#FEFFFE" transform="matrix(1.00, 0.00, -0.00, -1.00, 114.0, 73.4)">c</text><text xml:space="preserve" font-family="HelveticaNeue-Medium,Helvetica Neue" font-size="23.0" fill="#FEFFFE" transform="matrix(1.00, 0.00, -0.00, -1.00, 126.8, 73.4)">k</text></g></g></g></svg>