<?xml version="1.0" encoding="UTF-8" standalone="no"?><svg xmlns="http://www.w3.org/2000/svg" xmlns:xlink="http://www.w3.org/1999/xlink" clip-rule="evenodd" stroke-miterlimit="10" viewBox="0 0 389 265"><desc>SVG generated by Keynote</desc><defs></defs><g transform="matrix(1.00, 0.00, -0.00, -1.00, 0.0, 265.0)"><path d="M 20.8 18.9 C 20.5 18.9 20.0 18.3 19.7 18.3 M 20.8 18.9 C 20.8 17.6 19.7 16.8 18.4 15.7 C 16.8 14.6 17.9 16.6 17.4 16.9 C 15.1 15.9 15.5 15.2 16.5 14.4 C 15.3 14.6 13.6 11.8 13.3 13.4 C 16.7 15.6 10.8 12.2 13.1 14.7 C 13.3 15.1 12.3 14.9 12.0 14.7 C 12.6 15.8 10.6 15.4 11.8 16.7 C 11.5 17.6 11.5 17.1 12.0 18.4 C 12.4 18.7 12.4 18.3 12.5 18.1 C 13.2 17.3 13.3 19.4 14.5 19.3 C 14.4 21.0 16.1 20.0 15.8 19.1 C 16.4 19.7 16.4 21.5 17.7 21.1 C 17.7 22.0 19.9 22.8 19.2 21.3 C 18.7 20.3 19.9 20.5 20.2 20.3 C 20.0 19.9 18.6 19.5 18.6 19.2 C 19.1 19.2 20.9 19.8 19.2 18.8 C 20.0 18.7 19.4 17.9 20.8 18.9 C 20.8 18.9 20.8 18.9 20.8 18.9 Z M 15.6 14.6 C 15.8 14.2 16.1 14.9 15.6 14.6 C 15.6 14.6 15.6 14.6 15.6 14.6 Z M 16.7 21.3 C 16.9 21.0 17.2 21.7 16.7 21.3 C 16.7 21.3 16.7 21.3 16.7 21.3 Z M 12.7 18.3 C 12.9 18.0 13.3 18.7 12.7 18.3 C 12.7 18.3 12.7 18.3 12.7 18.3 Z M 16.9 15.7 C 17.6 16.6 15.9 15.7 15.9 15.3 C 16.1 15.5 16.9 15.3 16.9 15.7 C 16.9 15.7 16.9 15.7 16.9 15.7 Z M 15.8 17.6 C 16.0 17.6 16.4 17.8 16.1 18.1 C 15.8 18.0 15.7 17.7 15.8 17.6 C 15.8 17.6 15.8 17.6 15.8 17.6 Z M 12.2 13.5 C 12.4 13.4 12.8 13.6 12.5 13.9 C 12.2 13.8 12.1 13.5 12.2 13.5 C 12.2 13.5 12.2 13.5 12.2 13.5 Z M 17.4 17.2 C 17.6 17.4 17.5 17.8 17.2 17.6 C 17.1 17.4 16.5 16.9 17.4 17.2 C 17.4 17.2 17.4 17.2 17.4 17.2 Z M 19.5 17.1 C 20.1 17.7 18.3 17.2 18.4 17.1 C 18.3 16.7 19.2 16.5 19.5 17.1 C 19.5 17.1 19.5 17.1 19.5 17.1 Z M 17.5 17.9 C 18.1 18.5 17.1 18.0 17.5 17.9 C 17.5 17.9 17.5 17.9 17.5 17.9 Z M 11.3 16.2 C 11.8 16.8 10.9 16.3 11.3 16.2 C 11.3 16.2 11.3 16.2 11.3 16.2 Z M 14.0 19.3 C 14.5 19.9 13.6 19.4 14.0 19.3 C 14.0 19.3 14.0 19.3 14.0 19.3 Z M 14.8 15.3 C 13.8 14.6 15.2 14.4 14.8 15.3 C 14.8 15.3 14.8 15.3 14.8 15.3 Z M 21.3 18.1 C 20.2 17.4 21.6 17.2 21.3 18.1 C 21.3 18.1 21.3 18.1 21.3 18.1 Z M 362.0 238.1 C 363.1 238.6 359.9 235.1 360.6 237.2 C 360.3 238.6 357.7 236.8 359.0 236.3 C 358.3 235.6 358.4 235.6 357.6 235.8 C 358.0 234.9 356.4 233.4 355.5 233.4 C 354.7 233.8 356.7 234.2 355.2 234.3 C 352.8 233.0 354.9 235.1 353.4 235.4 C 353.4 235.3 353.6 234.9 353.2 235.0 C 352.6 235.7 353.6 237.1 352.6 237.3 C 353.0 237.4 354.1 239.4 353.9 238.2 C 354.1 237.3 355.1 240.3 355.7 239.0 C 355.9 239.9 357.0 239.5 357.1 240.5 C 357.4 240.9 357.8 240.2 357.9 240.0 C 358.2 239.4 357.5 241.7 358.8 241.1 C 358.7 241.4 360.6 242.5 359.5 241.1 C 359.9 241.5 361.8 243.1 361.4 241.3 C 360.3 239.8 363.7 241.1 362.0 239.9 C 360.7 239.0 360.3 239.0 361.7 239.1 C 361.9 239.3 363.5 240.2 362.6 238.9 C 362.2 238.8 361.6 238.3 362.0 238.1 C 362.0 238.1 362.0 238.1 362.0 238.1 Z M 361.2 239.9 C 360.4 239.5 361.4 239.5 361.2 239.9 C 361.2 239.9 361.2 239.9 361.2 239.9 Z M 356.8 240.7 C 356.0 240.2 357.0 240.2 356.8 240.7 C 356.8 240.7 356.8 240.7 356.8 240.7 Z M 359.8 236.3 C 359.2 236.4 359.8 235.2 359.8 236.3 C 359.8 236.3 359.8 236.3 359.8 236.3 Z M 358.7 240.6 C 358.6 240.5 358.9 240.5 359.1 240.5 C 359.0 240.6 358.8 240.6 358.7 240.6 C 358.7 240.6 358.7 240.6 358.7 240.6 Z M 358.5 235.5 C 357.0 235.3 358.8 234.4 358.5 235.5 C 358.5 235.5 358.5 235.5 358.5 235.5 Z M 355.5 235.1 C 354.6 236.1 354.4 234.1 355.5 235.1 C 355.5 235.1 355.5 235.1 355.5 235.1 Z M 355.4 238.6 C 355.8 238.5 355.5 238.9 355.4 238.6 C 355.4 238.6 355.4 238.6 355.4 238.6 Z M 360.3 242.0 C 360.7 241.9 360.4 242.3 360.3 242.0 C 360.3 242.0 360.3 242.0 360.3 242.0 Z M 354.1 237.6 C 354.4 237.3 354.3 238.1 354.1 237.6 C 354.1 237.6 354.1 237.6 354.1 237.6 Z M 359.3 236.6 C 360.9 236.4 359.7 238.8 359.3 236.6 C 359.3 236.6 359.3 236.6 359.3 236.6 Z M 361.2 237.7 C 362.0 238.0 360.7 238.2 360.5 237.9 C 360.6 237.8 361.0 237.7 361.2 237.7 C 361.2 237.7 361.2 237.7 361.2 237.7 Z M 358.1 236.0 C 359.1 236.0 358.6 236.7 358.1 236.0 C 358.1 236.0 358.1 236.0 358.1 236.0 Z M 360.2 236.7 C 360.5 237.0 359.9 236.6 360.2 236.7 C 360.2 236.7 360.2 236.7 360.2 236.7 Z M 357.3 234.2 C 357.6 234.5 356.9 234.1 357.3 234.2 C 357.3 234.2 357.3 234.2 357.3 234.2 Z M 362.4 237.8 C 362.7 238.2 362.0 237.8 362.4 237.8 C 362.4 237.8 362.4 237.8 362.4 237.8 Z M 357.2 234.9 C 356.8 235.3 357.2 236.8 355.9 234.9 C 355.8 234.4 356.9 234.3 357.2 234.9 C 357.2 234.9 357.2 234.9 357.2 234.9 Z M 24.0 21.0 C 20.3 16.8 19.9 19.7 19.4 20.0 C 18.4 20.2 18.8 21.0 19.4 22.0 C 19.4 24.1 21.8 21.5 21.5 23.3 C 21.5 26.0 24.0 22.6 23.2 24.9 C 22.7 25.3 24.7 26.0 24.6 25.8 C 24.9 27.3 27.3 26.4 27.4 26.3 C 27.8 26.9 26.7 28.7 29.4 28.6 C 31.1 29.0 30.6 31.2 31.0 29.7 C 31.2 31.8 32.0 29.8 32.7 30.9 C 33.0 32.1 33.5 29.7 33.9 32.0 C 35.2 31.3 32.8 32.4 36.8 33.8 C 35.2 32.7 39.0 34.0 37.9 34.3 C 36.1 34.4 39.7 35.1 41.0 36.6 C 41.7 36.5 44.3 36.6 43.2 37.6 C 44.0 40.0 45.4 37.8 45.4 39.4 C 45.7 40.2 46.5 39.4 46.8 39.7 C 46.9 40.9 47.8 40.7 49.6 42.2 C 53.9 45.5 51.7 40.5 53.6 41.4 C 54.1 41.1 53.3 36.8 53.0 39.5 C 53.1 38.7 48.1 38.5 51.3 37.4 C 49.3 37.4 52.2 36.7 48.7 36.0 C 51.5 40.0 44.0 33.8 48.1 35.4 C 47.8 34.6 46.2 33.7 47.1 34.7 C 46.6 36.4 44.9 32.4 45.3 35.1 C 43.2 33.1 42.8 35.1 42.9 33.6 C 43.5 31.3 42.7 34.1 41.9 32.8 C 39.1 31.0 42.6 30.2 40.0 30.6 C 37.9 27.9 38.9 31.0 37.8 30.6 C 36.7 31.7 35.7 27.8 37.8 29.0 C 36.3 29.0 38.0 28.3 36.3 28.3 C 36.4 30.1 35.5 26.0 35.2 27.2 C 33.9 26.8 34.0 27.8 33.7 27.7 C 32.0 26.6 33.3 25.8 32.4 26.4 C 31.7 26.7 31.9 24.6 31.4 24.8 C 33.1 26.0 29.2 25.2 29.5 24.4 C 30.6 25.0 29.9 22.5 28.7 23.0 C 27.8 26.2 27.6 21.4 26.3 21.8 C 26.1 23.8 22.4 19.6 24.5 20.0 C 24.3 20.1 24.0 21.0 24.0 21.0 M 30.8 24.7 C 32.1 25.8 29.1 24.0 30.8 24.7 M 31.0 24.3 C 31.3 25.2 29.9 23.1 31.2 24.2 C 31.2 24.2 30.9 24.2 31.0 24.3 M 36.8 28.0 C 36.4 28.3 36.2 27.3 36.8 28.0 M 37.4 29.6 C 38.1 30.6 36.1 28.9 37.4 29.6 M 50.4 37.6 C 47.7 38.9 49.8 35.5 50.4 37.6 M 42.2 31.7 C 40.4 31.0 43.3 31.1 42.2 31.7 M 41.4 31.9 C 40.4 31.8 41.5 31.3 41.4 31.9 M 47.9 36.0 C 48.0 36.1 48.0 36.1 47.9 36.0 C 47.9 36.0 47.9 36.0 47.9 36.0 Z M 51.7 38.5 C 51.8 38.5 51.8 38.5 51.7 38.5 C 51.7 38.5 51.7 38.5 51.7 38.5 Z M 44.1 33.9 C 43.3 32.6 46.2 34.9 44.1 33.9 C 44.1 33.9 44.1 33.9 44.1 33.9 Z M 47.8 40.6 C 47.7 40.6 47.7 40.6 47.8 40.6 C 47.8 40.6 47.8 40.6 47.8 40.6 Z M 29.1 25.0 C 29.0 25.0 29.0 25.0 29.1 25.0 C 29.1 25.0 29.1 25.0 29.1 25.0 Z M 25.3 21.4 C 25.1 21.7 24.6 20.7 25.3 21.4 C 25.3 21.4 25.3 21.4 25.3 21.4 Z M 20.2 21.6 C 20.1 21.6 20.1 21.6 20.2 21.6 C 20.2 21.6 20.2 21.6 20.2 21.6 Z M 26.9 25.2 C 26.8 25.2 26.8 25.2 26.9 25.2 C 26.9 25.2 26.9 25.2 26.9 25.2 Z M 28.5 24.0 C 28.6 22.4 30.0 25.4 28.5 24.0 C 28.5 24.0 28.5 24.0 28.5 24.0 Z M 40.7 35.9 C 41.1 35.4 41.6 36.7 40.7 35.9 C 40.7 35.9 40.7 35.9 40.7 35.9 Z M 37.2 30.2 C 37.6 30.0 37.8 30.7 37.2 30.2 C 37.2 30.2 37.2 30.2 37.2 30.2 Z M 35.9 27.1 C 36.3 26.9 36.4 27.6 35.9 27.1 C 35.9 27.1 35.9 27.1 35.9 27.1 Z M 25.6 21.1 C 25.7 21.1 25.7 21.1 25.6 21.1 C 25.6 21.1 25.6 21.1 25.6 21.1 Z M 26.5 23.0 C 26.2 21.2 27.8 24.7 26.5 23.0 C 26.5 23.0 26.5 23.0 26.5 23.0 Z M 24.5 22.2 C 24.8 23.0 23.2 21.1 24.5 22.2 M 24.4 24.5 C 26.0 24.9 22.0 25.8 24.4 24.5 C 24.4 24.5 24.4 24.5 24.4 24.5 Z M 30.8 29.3 C 30.9 29.4 30.9 29.4 30.8 29.3 C 30.8 29.3 30.8 29.3 30.8 29.3 Z M 32.2 25.6 C 33.3 26.4 31.3 25.4 32.2 25.6 C 32.2 25.6 32.2 25.6 32.2 25.6 Z M 22.3 18.9 C 23.5 19.7 21.4 18.6 22.3 18.9 C 22.3 18.9 22.3 18.9 22.3 18.9 Z M 35.4 30.7 C 37.4 31.7 33.8 30.5 35.4 30.7 C 35.4 30.7 35.4 30.7 35.4 30.7 Z M 43.2 33.9 C 43.2 33.9 43.2 33.9 43.2 33.9 C 43.2 33.9 43.2 33.9 43.2 33.9 Z M 44.8 34.3 C 44.8 34.3 44.8 34.3 44.8 34.3 C 44.8 34.3 44.8 34.3 44.8 34.3 Z M 49.4 38.9 C 49.5 39.0 49.5 39.0 49.4 38.9 C 49.4 38.9 49.4 38.9 49.4 38.9 Z M 46.3 34.5 C 46.3 34.5 46.3 34.5 46.3 34.5 C 46.3 34.5 46.3 34.5 46.3 34.5 Z M 49.8 37.2 C 49.9 37.3 49.9 37.3 49.8 37.2 C 49.8 37.2 49.8 37.2 49.8 37.2 Z M 49.9 35.9 C 50.0 36.0 50.0 36.0 49.9 35.9 C 49.9 35.9 49.9 35.9 49.9 35.9 Z M 38.5 35.4 C 38.5 35.5 38.5 35.5 38.5 35.4 C 38.5 35.4 38.5 35.4 38.5 35.4 Z M 27.8 22.1 C 27.9 22.2 27.9 22.2 27.8 22.1 C 27.8 22.1 27.8 22.1 27.8 22.1 Z M 49.2 37.4 C 49.3 37.5 49.3 37.5 49.2 37.4 C 49.2 37.4 49.2 37.4 49.2 37.4 Z M 39.6 32.4 C 39.0 33.4 39.6 30.7 39.8 32.5 C 39.8 32.5 39.6 32.2 39.6 32.4 M 39.8 34.8 C 39.7 34.8 39.7 34.8 39.8 34.8 C 39.8 34.8 39.8 34.8 39.8 34.8 Z M 35.3 32.7 C 35.2 32.7 35.2 32.7 35.3 32.7 C 35.3 32.7 35.3 32.7 35.3 32.7 Z M 45.7 33.9 C 45.9 33.2 46.5 34.9 45.6 33.8 M 48.4 40.6 C 48.5 39.9 49.1 41.6 48.2 40.5 M 20.8 18.4 C 20.4 18.7 20.2 17.6 20.8 18.4 M 34.0 32.6 C 33.6 32.9 33.4 31.9 34.0 32.6 M 36.7 32.7 C 36.9 32.0 37.5 33.7 36.6 32.6 M 45.6 38.7 C 45.6 38.7 45.6 38.7 45.6 38.7 C 45.6 38.7 45.6 38.7 45.6 38.7 Z M 33.9 26.8 C 33.9 26.9 33.9 26.9 33.9 26.8 C 33.9 26.8 33.9 26.8 33.9 26.8 Z M 38.2 31.2 C 38.0 30.0 38.8 32.2 38.2 31.2 M 31.6 27.1 C 31.2 25.6 33.0 28.5 31.6 27.1 M 50.4 42.2 C 50.0 40.4 50.8 43.3 50.4 42.2 M 46.6 35.9 C 46.2 34.1 47.0 37.0 46.6 35.9 M 34.6 27.9 C 34.9 27.3 35.5 29.0 34.6 27.9 M 23.5 20.0 C 22.5 19.2 25.2 20.4 23.5 20.0 M 42.8 37.0 C 42.8 37.0 42.8 37.0 42.8 37.0 C 42.8 37.0 42.8 37.0 42.8 37.0 Z M 24.3 26.4 C 24.3 26.4 24.3 26.4 24.3 26.4 C 24.3 26.4 24.3 26.4 24.3 26.4 Z M 54.1 39.5 C 54.1 39.6 54.1 39.6 54.1 39.5 C 54.1 39.5 54.1 39.5 54.1 39.5 Z M 45.6 35.9 C 45.6 36.0 45.6 36.0 45.6 35.9 C 45.6 35.9 45.6 35.9 45.6 35.9 Z M 52.1 38.0 C 52.1 38.1 52.1 38.1 52.1 38.0 C 52.1 38.0 52.1 38.0 52.1 38.0 Z M 41.6 34.5 C 41.6 34.6 41.6 34.6 41.6 34.5 C 41.6 34.5 41.6 34.5 41.6 34.5 Z M 42.6 31.3 C 42.6 31.3 42.6 31.3 42.6 31.3 C 42.6 31.3 42.6 31.3 42.6 31.3 Z M 38.1 30.0 C 38.1 30.1 38.1 30.1 38.1 30.0 C 38.1 30.0 38.1 30.0 38.1 30.0 Z M 44.2 32.6 C 46.6 33.9 42.5 32.8 44.2 32.6 C 44.2 32.6 44.2 32.6 44.2 32.6 Z M 38.5 32.9 C 38.5 32.9 38.5 32.9 38.5 32.9 C 38.5 32.9 38.5 32.9 38.5 32.9 Z M 39.5 30.7 C 41.4 30.8 39.4 32.5 39.5 30.7 M 33.5 25.9 C 34.2 25.8 33.3 26.7 33.5 25.9 M 28.6 28.0 C 28.6 28.0 28.6 28.0 28.6 28.0 C 28.6 28.0 28.6 28.0 28.6 28.0 Z M 29.5 28.1 C 29.5 28.2 29.5 28.2 29.5 28.1 C 29.5 28.1 29.5 28.1 29.5 28.1 Z M 32.1 24.8 C 32.1 24.8 32.1 24.8 32.1 24.8 C 32.1 24.8 32.1 24.8 32.1 24.8 Z M 28.9 29.2 C 29.0 29.3 29.0 29.3 28.9 29.2 C 28.9 29.2 28.9 29.2 28.9 29.2 Z M 41.7 30.8 C 41.7 30.8 41.7 30.8 41.7 30.8 C 41.7 30.8 41.7 30.8 41.7 30.8 Z M 53.4 38.3 C 53.5 38.3 53.5 38.3 53.4 38.3 C 53.4 38.3 53.4 38.3 53.4 38.3 Z M 21.9 23.1 C 22.0 23.2 22.0 23.2 21.9 23.1 C 21.9 23.1 21.9 23.1 21.9 23.1 Z M 42.2 32.7 C 42.2 32.8 42.2 32.8 42.2 32.7 C 42.2 32.7 42.2 32.7 42.2 32.7 Z M 27.1 26.7 C 27.1 26.8 27.1 26.8 27.1 26.7 C 27.1 26.7 27.1 26.7 27.1 26.7 Z M 41.6 32.0 C 41.6 32.0 41.6 32.0 41.6 32.0 C 41.6 32.0 41.6 32.0 41.6 32.0 Z M 42.3 37.0 C 42.3 37.0 42.3 37.0 42.3 37.0 C 42.3 37.0 42.3 37.0 42.3 37.0 Z M 44.4 39.2 C 44.4 39.2 44.4 39.2 44.4 39.2 C 44.4 39.2 44.4 39.2 44.4 39.2 Z M 43.4 34.9 C 43.4 35.0 43.4 35.0 43.4 34.9 C 43.4 34.9 43.4 34.9 43.4 34.9 Z M 27.0 25.0 C 23.1 21.1 31.0 26.9 27.0 25.0 M 44.0 35.7 C 40.9 33.4 47.3 36.2 44.0 35.7 C 44.5 35.6 44.1 35.6 44.0 35.7 M 55.5 39.8 C 53.6 40.0 52.9 40.9 52.8 42.4 C 53.1 43.3 54.4 41.3 53.3 43.0 C 51.6 42.4 52.3 46.0 53.7 43.8 C 55.9 44.7 53.1 45.4 54.9 45.3 C 57.2 46.4 55.6 46.4 57.4 47.3 C 59.1 46.7 57.9 48.5 59.1 47.6 C 57.5 48.4 61.1 48.4 60.8 49.0 C 58.8 48.8 66.4 52.7 62.7 49.8 C 64.7 50.2 63.7 51.1 64.2 51.6 C 65.3 51.3 66.4 53.8 67.9 53.7 C 67.8 53.5 67.3 53.1 67.3 52.8 C 67.4 52.1 68.4 53.6 68.2 53.4 C 69.1 53.6 72.1 54.5 68.5 54.0 C 68.0 54.5 70.9 55.2 70.5 55.7 C 72.9 57.2 71.9 54.9 72.3 56.4 C 74.0 57.5 75.2 58.3 75.3 58.2 C 76.3 59.0 76.0 59.8 77.4 59.7 C 78.6 62.4 80.5 58.1 79.6 61.2 C 80.6 61.0 80.1 63.1 81.0 61.4 C 79.8 61.7 83.7 64.9 82.7 62.6 C 83.4 62.5 84.8 66.3 85.4 64.4 C 87.2 63.8 87.7 62.5 86.4 60.0 C 86.0 61.1 84.8 57.7 85.4 60.3 C 86.8 61.9 81.7 58.7 83.1 58.8 C 84.6 57.1 79.9 58.4 79.7 56.4 C 80.1 57.7 75.8 55.4 77.9 54.8 C 77.2 54.2 76.6 54.7 76.3 53.4 C 78.6 55.1 74.4 54.2 75.1 53.5 C 75.8 53.2 72.4 50.4 72.3 51.4 C 72.3 54.2 71.6 50.4 70.5 50.8 C 68.2 49.9 71.9 49.3 69.4 49.8 C 69.2 49.3 66.5 47.5 68.4 48.2 C 69.0 48.8 65.5 49.3 66.2 47.5 C 69.7 48.4 63.3 44.8 63.9 46.0 C 67.8 49.8 58.5 44.0 62.6 45.3 C 61.2 43.1 63.4 45.3 60.7 44.1 C 60.7 44.9 58.5 44.2 59.6 43.4 C 60.2 41.5 57.6 45.1 57.4 41.9 C 57.8 40.9 54.0 40.7 55.8 40.4 C 55.9 40.3 55.6 39.8 55.5 39.8 M 56.3 40.6 C 55.8 40.7 56.1 39.8 56.3 40.6 M 55.7 40.7 C 55.7 40.6 55.7 40.6 55.7 40.7 C 55.7 40.7 55.7 40.7 55.7 40.7 Z M 60.3 44.0 C 60.3 43.9 60.3 43.9 60.3 44.0 C 60.3 44.0 60.3 44.0 60.3 44.0 Z M 61.5 50.4 C 61.5 50.3 61.5 50.3 61.5 50.4 C 61.5 50.4 61.5 50.4 61.5 50.4 Z M 63.4 46.1 C 63.4 46.1 63.4 46.1 63.4 46.1 C 63.4 46.1 63.4 46.1 63.4 46.1 Z M 58.5 43.1 C 58.4 43.1 58.4 43.1 58.5 43.1 C 58.5 43.1 58.5 43.1 58.5 43.1 Z M 63.5 45.3 C 63.4 46.1 62.7 44.2 63.6 45.3 C 63.6 45.3 63.4 45.2 63.5 45.3 M 67.8 47.7 C 67.8 47.8 67.8 47.8 67.8 47.7 M 73.8 58.3 C 73.8 58.4 73.8 58.4 73.8 58.3 M 77.6 54.0 C 77.7 54.2 77.7 54.2 77.6 54.0 M 71.5 51.0 C 72.8 51.7 71.6 51.5 71.5 51.0 M 80.7 56.5 C 79.4 55.1 82.7 57.3 80.7 56.5 M 82.5 57.2 C 82.6 57.3 82.6 57.3 82.5 57.2 M 75.2 52.8 C 75.2 52.8 75.2 52.8 75.2 52.8 C 75.2 52.8 75.2 52.8 75.2 52.8 Z M 71.1 50.4 C 69.7 49.0 73.1 50.9 71.1 50.4 M 61.2 43.8 C 62.3 44.0 60.7 44.5 61.2 43.8 M 59.2 42.9 C 59.1 42.9 59.1 42.9 59.2 42.9 C 59.2 42.9 59.2 42.9 59.2 42.9 Z M 78.2 54.8 C 78.2 54.8 78.2 54.8 78.2 54.8 C 78.2 54.8 78.2 54.8 78.2 54.8 Z M 80.1 55.9 C 80.1 55.9 80.1 55.9 80.1 55.9 C 80.1 55.9 80.1 55.9 80.1 55.9 Z M 80.3 62.3 C 80.3 62.2 80.3 62.2 80.3 62.3 C 80.3 62.3 80.3 62.3 80.3 62.3 Z M 59.4 45.6 C 58.3 44.5 61.5 45.0 60.6 45.9 C 60.5 46.4 59.6 45.6 59.4 45.6 M 69.1 51.0 C 68.4 52.7 69.1 48.2 69.1 51.0 M 82.1 58.3 C 82.2 60.9 81.4 56.0 82.1 58.3 M 84.8 59.6 C 85.3 60.4 80.0 56.8 84.1 58.8 C 84.6 58.7 84.7 59.2 84.8 59.6 M 67.4 48.5 C 67.2 49.6 65.6 46.9 67.4 48.5 M 73.4 55.9 C 74.3 55.7 76.2 56.3 74.9 56.7 C 74.1 57.9 72.3 55.8 73.4 55.9 M 56.1 41.6 C 58.0 41.0 55.4 42.7 56.1 41.6 M 60.9 44.8 C 60.9 44.8 60.9 44.8 60.9 44.8 C 60.9 44.8 60.9 44.8 60.9 44.8 Z M 62.9 45.8 C 62.9 46.0 62.9 46.0 62.9 45.8 M 57.7 41.0 C 57.7 41.1 57.7 41.1 57.7 41.0 M 74.2 54.5 C 74.2 54.6 74.2 54.6 74.2 54.5 M 70.9 51.1 C 71.9 53.6 69.7 50.7 70.9 51.1 M 64.8 50.7 C 64.9 51.7 63.6 50.0 64.8 50.7 M 74.3 52.6 C 74.8 54.6 71.7 52.6 74.3 52.6 M 70.1 50.4 C 70.2 50.4 70.2 50.4 70.1 50.4 C 70.1 50.4 70.1 50.4 70.1 50.4 Z M 73.7 56.3 C 73.7 56.3 73.7 56.3 73.7 56.3 C 73.7 56.3 73.7 56.3 73.7 56.3 Z M 74.4 56.6 C 74.3 56.6 74.3 56.6 74.4 56.6 C 74.4 56.6 74.4 56.6 74.4 56.6 Z M 76.0 53.5 C 75.9 53.5 75.9 53.5 76.0 53.5 C 76.0 53.5 76.0 53.5 76.0 53.5 Z M 56.8 46.2 C 58.1 47.2 55.7 45.8 56.8 46.2 C 56.8 46.2 56.8 46.2 56.8 46.2 Z M 65.0 46.3 C 66.5 48.7 62.9 46.3 65.0 46.3 C 65.0 46.3 65.0 46.3 65.0 46.3 Z M 66.4 49.5 C 66.4 49.6 66.4 49.6 66.4 49.5 C 66.4 49.5 66.4 49.5 66.4 49.5 Z M 73.9 51.3 C 73.9 51.3 73.9 51.3 73.9 51.3 C 73.9 51.3 73.9 51.3 73.9 51.3 Z M 57.4 46.8 C 57.3 46.9 57.3 46.9 57.4 46.8 C 57.4 46.8 57.4 46.8 57.4 46.8 Z M 79.3 56.5 C 79.2 56.6 79.2 56.6 79.3 56.5 C 79.3 56.5 79.3 56.5 79.3 56.5 Z M 70.1 54.2 C 70.9 54.1 69.9 54.7 70.1 54.2 C 70.1 54.2 70.1 54.2 70.1 54.2 Z M 72.0 55.5 C 72.1 55.5 72.1 55.5 72.0 55.5 C 72.0 55.5 72.0 55.5 72.0 55.5 Z M 83.1 57.4 C 83.1 57.4 83.1 57.4 83.1 57.4 C 83.1 57.4 83.1 57.4 83.1 57.4 Z M 76.3 59.9 C 76.3 59.9 76.3 59.9 76.3 59.9 C 76.3 59.9 76.3 59.9 76.3 59.9 Z M 78.8 59.5 C 78.8 59.5 78.8 59.5 78.8 59.5 C 78.8 59.5 78.8 59.5 78.8 59.5 Z M 75.4 53.5 C 77.5 54.6 74.6 53.8 75.4 53.5 C 75.4 53.5 75.4 53.5 75.4 53.5 Z M 83.9 62.2 C 83.9 62.3 83.9 62.3 83.9 62.2 C 83.9 62.2 83.9 62.2 83.9 62.2 Z M 86.0 61.1 C 86.0 61.3 86.0 61.3 86.0 61.1 C 86.0 61.1 86.0 61.1 86.0 61.1 Z M 87.1 60.6 C 87.1 60.7 87.1 60.7 87.1 60.6 C 87.1 60.6 87.1 60.6 87.1 60.6 Z M 61.7 47.7 C 61.7 47.6 61.7 47.6 61.7 47.7 C 61.7 47.7 61.7 47.7 61.7 47.7 Z M 62.7 44.4 C 62.7 44.4 62.7 44.4 62.7 44.4 C 62.7 44.4 62.7 44.4 62.7 44.4 Z M 65.4 46.0 C 65.4 45.9 65.4 45.9 65.4 46.0 C 65.4 46.0 65.4 46.0 65.4 46.0 Z M 60.1 49.0 C 60.1 49.0 60.1 49.0 60.1 49.0 C 60.1 49.0 60.1 49.0 60.1 49.0 Z M 71.6 53.1 C 71.6 53.0 71.6 53.0 71.6 53.1 C 71.6 53.1 71.6 53.1 71.6 53.1 Z M 71.8 54.8 C 71.8 54.7 71.8 54.7 71.8 54.8 C 71.8 54.8 71.8 54.8 71.8 54.8 Z M 68.5 54.8 C 68.5 54.8 68.5 54.8 68.5 54.8 C 68.5 54.8 68.5 54.8 68.5 54.8 Z M 71.9 56.2 C 71.9 56.2 71.9 56.2 71.9 56.2 C 71.9 56.2 71.9 56.2 71.9 56.2 Z M 53.8 44.2 C 53.8 44.2 53.8 44.2 53.8 44.2 C 53.8 44.2 53.8 44.2 53.8 44.2 Z M 55.0 42.0 C 54.9 42.0 54.9 42.0 55.0 42.0 C 55.0 42.0 55.0 42.0 55.0 42.0 Z M 72.9 51.7 C 73.6 51.6 73.4 52.9 72.9 51.7 M 68.9 49.6 C 68.9 49.6 68.9 49.6 68.9 49.6 C 68.9 49.6 68.9 49.6 68.9 49.6 Z M 79.2 55.9 C 79.1 57.1 77.7 54.3 79.2 55.9 C 79.2 55.9 79.2 55.9 79.2 55.9 Z M 74.9 58.2 C 74.9 58.2 74.9 58.2 74.9 58.2 C 74.9 58.2 74.9 58.2 74.9 58.2 Z M 76.1 58.4 C 76.1 58.6 76.1 58.6 76.1 58.4 C 76.1 58.4 76.1 58.4 76.1 58.4 Z M 83.1 59.7 C 83.1 59.8 83.1 59.8 83.1 59.7 M 68.9 48.5 C 69.2 49.2 69.2 49.1 68.9 48.5 M 80.4 56.8 C 80.4 56.8 80.4 56.8 80.4 56.8 C 80.4 56.8 80.4 56.8 80.4 56.8 Z M 84.6 60.0 C 84.5 60.0 84.5 60.0 84.6 60.0 C 84.6 60.0 84.6 60.0 84.6 60.0 Z M 65.9 47.3 C 65.3 48.4 64.9 47.8 65.9 47.3 M 58.1 42.8 C 58.1 42.9 58.1 42.9 58.1 42.8 C 58.1 42.8 58.1 42.8 58.1 42.8 Z M 91.1 63.1 C 89.7 60.7 88.7 62.3 88.7 62.3 C 90.3 60.3 86.3 62.0 86.4 62.7 C 86.2 62.9 85.4 67.7 88.3 66.3 C 88.8 66.3 88.6 67.1 88.9 67.4 C 91.5 68.9 87.9 65.1 91.0 67.0 C 91.3 67.7 89.5 69.1 92.1 69.0 C 92.1 69.2 93.7 71.2 93.5 69.9 C 93.9 71.3 95.2 70.8 96.2 71.2 C 96.8 72.2 94.7 72.0 98.3 72.9 C 98.6 75.2 100.7 72.9 100.8 75.3 C 101.5 75.8 104.4 73.9 101.7 74.3 C 102.0 74.3 101.8 72.3 103.8 74.3 C 103.3 74.4 100.2 76.3 104.7 77.3 C 105.3 77.8 107.1 78.0 107.3 78.5 C 105.2 77.6 109.1 81.4 109.2 80.3 C 111.7 82.7 110.8 80.4 112.4 82.7 C 114.1 83.8 112.6 81.1 114.3 83.2 C 116.0 84.1 114.5 84.0 114.3 83.9 C 115.6 84.9 116.5 84.8 116.9 85.1 C 117.2 85.5 117.4 86.4 118.2 86.0 C 120.5 85.7 119.9 83.6 121.4 82.8 C 120.7 81.5 120.3 83.4 120.1 82.0 C 119.1 82.4 120.1 81.9 117.0 80.2 C 117.0 80.4 117.4 81.4 116.6 81.0 C 115.5 80.2 117.7 78.6 114.8 78.8 C 116.8 80.7 111.2 77.5 113.0 79.3 C 110.3 77.8 112.4 78.6 110.8 76.9 C 110.0 78.4 111.6 75.3 110.2 76.0 C 110.4 75.3 107.3 73.6 108.8 75.8 C 105.5 74.2 108.0 74.7 107.4 73.2 C 106.0 72.2 105.8 75.4 106.0 73.1 C 104.7 71.2 105.4 74.0 104.9 71.7 C 104.7 73.3 103.5 70.9 103.2 72.5 C 100.0 70.5 104.5 71.4 101.7 70.8 C 102.3 71.3 103.2 69.4 101.1 69.6 C 100.4 72.1 100.5 66.7 99.7 70.0 C 94.8 68.0 99.7 68.4 97.3 66.9 C 96.7 66.5 97.4 68.2 96.8 67.9 C 93.9 65.4 97.0 66.4 94.5 66.7 C 91.2 65.0 94.3 65.0 92.9 63.9 C 92.4 64.5 90.4 64.8 91.1 63.1 M 93.4 65.6 C 94.3 65.6 93.5 66.3 93.4 65.6 M 87.6 60.9 C 88.5 60.9 87.7 61.6 87.6 60.9 M 96.2 66.8 C 97.3 66.9 96.0 67.7 96.2 66.8 M 112.4 78.2 C 111.3 77.5 113.2 78.2 112.4 78.2 M 90.1 62.4 C 91.4 62.5 89.9 63.3 90.1 62.4 M 88.3 62.8 C 88.4 62.8 88.4 62.8 88.3 62.8 M 114.8 78.2 C 114.8 78.2 114.8 78.2 114.8 78.2 M 110.3 75.3 C 111.3 75.9 109.6 75.2 110.3 75.3 M 107.3 79.7 C 108.2 80.3 106.5 79.6 107.3 79.7 M 117.2 79.7 C 118.4 79.9 117.2 80.4 117.2 79.7 M 119.1 82.3 C 120.2 82.4 119.4 83.1 119.1 82.3 M 91.8 66.8 C 91.8 66.8 91.8 66.8 91.8 66.8 C 91.8 66.8 91.8 66.8 91.8 66.8 Z M 99.3 73.2 C 98.6 72.1 100.1 74.5 99.3 73.2 M 99.7 69.2 C 99.7 70.6 98.4 68.4 99.7 69.2 C 99.7 69.2 99.7 69.2 99.7 69.2 Z M 98.0 68.7 C 97.9 68.8 97.9 68.8 98.0 68.7 C 98.0 68.7 98.0 68.7 98.0 68.7 Z M 102.6 71.8 C 102.5 71.8 102.5 71.8 102.6 71.8 C 102.6 71.8 102.6 71.8 102.6 71.8 Z M 101.6 71.2 C 101.1 71.2 101.1 70.7 101.6 71.2 C 101.6 71.2 101.6 71.2 101.6 71.2 Z M 106.4 78.5 C 105.9 78.4 106.0 78.0 106.4 78.5 C 106.4 78.5 106.4 78.5 106.4 78.5 Z M 99.9 70.6 C 99.2 71.5 99.6 69.6 99.9 70.6 C 99.9 70.6 99.9 70.6 99.9 70.6 Z M 103.4 76.0 C 104.0 76.0 103.7 77.4 103.4 76.0 M 115.6 78.9 C 116.2 78.9 115.9 80.4 115.6 78.9 M 106.0 72.4 C 106.6 72.4 106.3 73.8 106.0 72.4 M 94.2 65.5 C 94.2 65.7 94.2 65.7 94.2 65.5 M 97.0 73.0 C 97.9 73.0 97.1 73.6 97.0 73.0 M 88.0 66.7 C 88.9 66.8 88.1 67.4 88.0 66.7 M 111.5 82.3 C 111.6 82.0 112.4 83.0 111.5 82.3 M 106.2 74.6 C 107.0 75.2 107.5 76.3 105.8 75.1 C 105.8 74.8 106.5 75.0 106.2 74.6 C 106.2 74.6 106.2 74.6 106.2 74.6 Z M 107.9 78.7 C 108.0 78.8 108.0 78.8 107.9 78.7 M 108.3 74.7 C 108.3 74.9 108.3 74.9 108.3 74.7 M 113.2 78.0 C 113.2 78.2 113.2 78.2 113.2 78.0 M 114.0 78.2 C 114.0 78.2 114.0 78.2 114.0 78.2 C 114.0 78.2 114.0 78.2 114.0 78.2 Z M 119.7 81.3 C 119.7 81.4 119.7 81.4 119.7 81.3 C 119.7 81.3 119.7 81.3 119.7 81.3 Z M 111.6 77.1 C 111.5 77.1 111.5 77.1 111.6 77.1 C 111.6 77.1 111.6 77.1 111.6 77.1 Z M 113.8 83.5 C 113.8 83.6 113.8 83.6 113.8 83.5 C 113.8 83.5 113.8 83.5 113.8 83.5 Z M 113.6 82.6 C 113.6 82.6 113.6 82.6 113.6 82.6 C 113.6 82.6 113.6 82.6 113.6 82.6 Z M 91.5 63.4 C 92.7 63.3 90.9 65.3 91.5 63.4 M 116.0 84.2 C 116.4 85.3 114.7 83.5 116.0 84.2 C 116.0 84.2 116.0 84.2 116.0 84.2 Z M 110.5 77.5 C 110.5 77.7 110.5 77.7 110.5 77.5 M 114.3 78.5 C 114.3 78.6 114.3 78.6 114.3 78.5 M 100.2 68.4 C 100.2 68.5 100.2 68.5 100.2 68.4 M 118.0 81.1 C 120.2 82.8 116.1 81.7 118.0 81.1 M 98.5 68.6 C 98.5 68.5 98.5 68.5 98.5 68.6 M 102.7 73.7 C 104.3 74.6 101.8 73.8 102.7 73.7 M 107.4 75.1 C 107.3 75.1 107.3 75.1 107.4 75.1 C 107.4 75.1 107.4 75.1 107.4 75.1 Z M 105.1 73.6 C 103.9 73.0 105.0 73.1 105.1 73.6 C 105.1 73.6 105.1 73.6 105.1 73.6 Z M 92.1 65.0 C 93.4 66.1 90.3 64.3 92.1 65.0 C 92.1 65.0 92.1 65.0 92.1 65.0 Z M 115.6 82.6 C 115.5 82.6 115.5 82.6 115.6 82.6 C 115.6 82.6 115.6 82.6 115.6 82.6 Z M 111.7 76.3 C 110.8 76.1 111.5 75.8 111.7 76.3 C 111.7 76.3 111.7 76.3 111.7 76.3 Z M 120.6 81.9 C 119.7 81.6 120.4 81.4 120.6 81.9 C 120.6 81.9 120.6 81.9 120.6 81.9 Z M 90.4 63.7 C 94.8 68.7 83.4 58.6 90.4 63.7 C 90.4 63.7 90.4 63.7 90.4 63.7 Z M 106.4 73.5 C 106.4 73.6 106.4 73.6 106.4 73.5 C 106.4 73.5 106.4 73.5 106.4 73.5 Z M 96.8 66.5 C 96.8 66.5 96.8 66.5 96.8 66.5 C 96.8 66.5 96.8 66.5 96.8 66.5 Z M 94.6 66.2 C 94.5 66.3 94.5 66.3 94.6 66.2 C 94.6 66.2 94.6 66.2 94.6 66.2 Z M 92.8 70.1 C 92.7 70.1 92.7 70.1 92.8 70.1 C 92.8 70.1 92.8 70.1 92.8 70.1 Z M 94.4 68.8 C 94.3 68.9 94.3 68.9 94.4 68.8 C 94.4 68.8 94.4 68.8 94.4 68.8 Z M 90.5 67.2 C 90.4 67.3 90.4 67.3 90.5 67.2 C 90.5 67.2 90.5 67.2 90.5 67.2 Z M 90.3 67.7 C 90.3 67.8 90.3 67.8 90.3 67.7 C 90.3 67.7 90.3 67.7 90.3 67.7 Z M 113.6 79.5 C 113.5 79.5 113.5 79.5 113.6 79.5 C 113.6 79.5 113.6 79.5 113.6 79.5 Z M 110.8 79.8 C 112.4 80.0 109.9 80.3 110.8 79.8 C 110.8 79.8 110.8 79.8 110.8 79.8 Z M 100.1 71.8 C 101.4 72.4 99.1 71.8 100.1 71.8 C 100.1 71.8 100.1 71.8 100.1 71.8 Z M 100.1 74.6 C 100.1 74.6 100.1 74.6 100.1 74.6 C 100.1 74.6 100.1 74.6 100.1 74.6 Z M 95.2 65.4 C 95.1 65.4 95.1 65.4 95.2 65.4 C 95.2 65.4 95.2 65.4 95.2 65.4 Z M 92.7 64.6 C 92.1 65.3 92.2 63.8 92.7 64.6 M 103.6 71.1 C 103.6 71.2 103.6 71.2 103.6 71.1 C 103.6 71.1 103.6 71.1 103.6 71.1 Z M 109.7 76.6 C 109.6 76.7 109.6 76.7 109.7 76.6 C 109.7 76.6 109.7 76.6 109.7 76.6 Z M 116.7 80.5 C 116.6 80.6 116.6 80.6 116.7 80.5 C 116.7 80.5 116.7 80.5 116.7 80.5 Z M 107.8 73.9 C 107.7 74.0 107.7 74.0 107.8 73.9 C 107.8 73.9 107.8 73.9 107.8 73.9 Z M 104.1 72.5 C 104.0 72.6 104.0 72.6 104.1 72.5 C 104.1 72.5 104.1 72.5 104.1 72.5 Z M 117.5 82.5 C 117.4 82.5 117.4 82.5 117.5 82.5 C 117.5 82.5 117.5 82.5 117.5 82.5 Z M 108.6 74.3 C 108.6 74.3 108.6 74.3 108.6 74.3 C 108.6 74.3 108.6 74.3 108.6 74.3 Z M 109.0 77.9 C 108.9 77.9 108.9 77.9 109.0 77.9 C 109.0 77.9 109.0 77.9 109.0 77.9 Z M 93.6 63.7 C 93.6 63.7 93.6 63.7 93.6 63.7 C 93.6 63.7 93.6 63.7 93.6 63.7 Z M 118.2 81.5 C 118.1 81.5 118.1 81.5 118.2 81.5 C 118.2 81.5 118.2 81.5 118.2 81.5 Z M 119.0 81.1 C 119.0 81.1 119.0 81.1 119.0 81.1 C 119.0 81.1 119.0 81.1 119.0 81.1 Z M 112.0 81.6 C 109.9 79.7 114.2 82.8 113.0 80.9 C 116.5 82.9 112.5 82.0 112.0 81.6 C 112.0 81.6 112.0 81.6 112.0 81.6 Z M 122.4 82.9 C 120.4 83.1 119.8 84.0 119.7 85.5 C 120.0 86.4 121.3 84.4 120.2 86.1 C 118.5 85.5 119.2 89.1 120.6 86.9 C 122.8 87.8 120.0 88.5 121.8 88.4 C 124.0 89.5 122.5 89.5 124.2 90.4 C 126.0 89.8 124.8 91.6 126.0 90.7 C 124.3 91.5 127.9 91.5 127.6 92.1 C 125.6 91.9 133.3 95.8 129.6 92.9 C 131.6 93.3 130.6 94.2 131.1 94.7 C 132.2 94.4 133.3 96.9 134.7 96.8 C 134.6 96.5 134.2 96.2 134.2 95.9 C 134.2 95.2 135.2 96.7 135.1 96.5 C 135.9 96.7 139.0 97.6 135.4 97.1 C 134.9 97.6 137.8 98.3 137.4 98.8 C 139.7 100.3 138.7 98.0 139.2 99.5 C 140.9 100.6 142.1 101.4 142.2 101.3 C 143.1 102.1 142.9 102.9 144.2 102.8 C 145.5 105.5 147.3 101.2 146.5 104.3 C 147.5 104.1 146.9 106.2 147.9 104.5 C 146.7 104.8 150.6 108.0 149.5 105.7 C 150.3 105.6 151.6 109.4 152.3 107.5 C 154.0 106.9 154.6 105.6 153.3 103.1 C 152.9 104.2 151.7 100.8 152.2 103.4 C 153.7 105.0 148.6 101.8 150.0 101.9 C 151.5 100.2 146.8 101.5 146.6 99.5 C 147.0 100.8 142.6 98.5 144.7 97.9 C 144.0 97.3 143.4 97.8 143.1 96.5 C 145.5 98.2 141.2 97.3 141.9 96.6 C 142.7 96.3 139.3 93.5 139.2 94.5 C 139.2 97.3 138.5 93.5 137.3 93.9 C 135.0 93.0 138.7 92.4 136.3 92.9 C 136.0 92.4 133.3 90.6 135.3 91.3 C 135.8 91.9 132.3 92.4 133.1 90.6 C 136.6 91.5 130.1 87.9 130.8 89.1 C 134.6 92.9 125.4 87.1 129.5 88.4 C 128.1 86.2 130.3 88.4 127.6 87.2 C 127.6 88.0 125.3 87.3 126.5 86.5 C 127.1 84.6 124.4 88.2 124.3 85.0 C 124.7 84.0 120.9 83.8 122.6 83.5 C 122.8 83.4 122.5 82.9 122.4 82.9 M 123.2 83.6 C 122.6 83.8 122.9 82.9 123.2 83.6 M 122.6 83.8 C 122.6 83.7 122.6 83.7 122.6 83.8 C 122.6 83.8 122.6 83.8 122.6 83.8 Z M 127.2 87.1 C 127.2 87.0 127.2 87.0 127.2 87.1 C 127.2 87.1 127.2 87.1 127.2 87.1 Z M 128.3 93.5 C 128.3 93.4 128.3 93.4 128.3 93.5 C 128.3 93.5 128.3 93.5 128.3 93.5 Z M 130.3 89.2 C 130.2 89.2 130.2 89.2 130.3 89.2 C 130.3 89.2 130.3 89.2 130.3 89.2 Z M 125.3 86.2 C 125.3 86.2 125.3 86.2 125.3 86.2 C 125.3 86.2 125.3 86.2 125.3 86.2 Z M 130.4 88.4 C 130.2 89.2 129.5 87.3 130.5 88.4 C 130.5 88.4 130.3 88.3 130.4 88.4 M 134.6 90.8 C 134.6 90.9 134.6 90.9 134.6 90.8 M 140.7 101.4 C 140.7 101.5 140.7 101.5 140.7 101.4 M 144.5 97.1 C 144.6 97.3 144.6 97.3 144.5 97.1 M 138.3 94.1 C 139.7 94.8 138.5 94.6 138.3 94.1 M 147.6 99.6 C 146.3 98.2 149.5 100.4 147.6 99.6 M 149.4 100.3 C 149.5 100.4 149.5 100.4 149.4 100.3 M 142.1 95.9 C 142.0 95.9 142.0 95.9 142.1 95.9 C 142.1 95.9 142.1 95.9 142.1 95.9 Z M 138.0 93.5 C 136.5 92.1 140.0 94.0 138.0 93.5 M 128.1 86.8 C 129.2 87.1 127.6 87.6 128.1 86.8 M 126.0 86.0 C 126.0 86.0 126.0 86.0 126.0 86.0 C 126.0 86.0 126.0 86.0 126.0 86.0 Z M 145.1 97.9 C 145.0 97.9 145.0 97.9 145.1 97.9 C 145.1 97.9 145.1 97.9 145.1 97.9 Z M 147.0 99.0 C 146.9 99.0 146.9 99.0 147.0 99.0 C 147.0 99.0 147.0 99.0 147.0 99.0 Z M 147.2 105.4 C 147.1 105.3 147.1 105.3 147.2 105.4 C 147.2 105.4 147.2 105.4 147.2 105.4 Z M 126.2 88.7 C 125.2 87.6 128.4 88.1 127.5 89.0 C 127.3 89.5 126.4 88.7 126.2 88.7 M 135.9 94.1 C 135.3 95.8 136.0 91.3 135.9 94.1 M 149.0 101.4 C 149.1 104.0 148.2 99.1 149.0 101.4 M 151.7 102.7 C 152.2 103.5 146.9 99.9 151.0 101.9 C 151.5 101.8 151.5 102.3 151.7 102.7 M 134.2 91.6 C 134.1 92.7 132.5 90.0 134.2 91.6 M 140.2 99.0 C 141.2 98.8 143.0 99.4 141.8 99.8 C 141.0 101.0 139.2 98.9 140.2 99.0 M 123.0 84.7 C 124.9 84.1 122.2 85.8 123.0 84.7 M 127.7 87.9 C 127.8 87.9 127.8 87.9 127.7 87.9 C 127.7 87.9 127.7 87.9 127.7 87.9 Z M 129.8 88.9 C 129.8 89.1 129.8 89.1 129.8 88.9 M 124.5 84.1 C 124.5 84.2 124.5 84.2 124.5 84.1 M 141.1 97.6 C 141.1 97.7 141.1 97.7 141.1 97.6 M 137.8 94.2 C 138.8 96.7 136.6 93.8 137.8 94.2 M 131.6 93.8 C 131.8 94.8 130.4 93.1 131.6 93.8 M 141.1 95.7 C 141.6 97.7 138.6 95.7 141.1 95.7 M 136.9 93.5 C 137.0 93.5 137.0 93.5 136.9 93.5 C 136.9 93.5 136.9 93.5 136.9 93.5 Z M 140.6 99.4 C 140.6 99.4 140.6 99.4 140.6 99.4 C 140.6 99.4 140.6 99.4 140.6 99.4 Z M 141.2 99.7 C 141.1 99.7 141.1 99.7 141.2 99.7 C 141.2 99.7 141.2 99.7 141.2 99.7 Z M 142.8 96.6 C 142.7 96.6 142.7 96.6 142.8 96.6 C 142.8 96.6 142.8 96.6 142.8 96.6 Z M 123.7 89.3 C 124.9 90.3 122.5 88.9 123.7 89.3 C 123.7 89.3 123.7 89.3 123.7 89.3 Z M 131.8 89.4 C 133.4 91.8 129.7 89.4 131.8 89.4 C 131.8 89.4 131.8 89.4 131.8 89.4 Z M 133.3 92.6 C 133.2 92.7 133.2 92.7 133.3 92.6 C 133.3 92.6 133.3 92.6 133.3 92.6 Z M 140.8 94.4 C 140.7 94.4 140.7 94.4 140.8 94.4 C 140.8 94.4 140.8 94.4 140.8 94.4 Z M 124.2 89.9 C 124.2 90.0 124.2 90.0 124.2 89.9 C 124.2 89.9 124.2 89.9 124.2 89.9 Z M 146.1 99.6 C 146.1 99.7 146.1 99.7 146.1 99.6 C 146.1 99.6 146.1 99.6 146.1 99.6 Z M 136.9 97.3 C 137.7 97.2 136.8 97.8 136.9 97.3 C 136.9 97.3 136.9 97.3 136.9 97.3 Z M 138.9 98.6 C 139.0 98.6 139.0 98.6 138.9 98.6 C 138.9 98.6 138.9 98.6 138.9 98.6 Z M 149.9 100.5 C 150.0 100.5 150.0 100.5 149.9 100.5 C 149.9 100.5 149.9 100.5 149.9 100.5 Z M 143.1 103.0 C 143.2 103.0 143.2 103.0 143.1 103.0 C 143.1 103.0 143.1 103.0 143.1 103.0 Z M 145.7 102.6 C 145.7 102.6 145.7 102.6 145.7 102.6 C 145.7 102.6 145.7 102.6 145.7 102.6 Z M 142.3 96.6 C 144.4 97.7 141.5 96.9 142.3 96.6 C 142.3 96.6 142.3 96.6 142.3 96.6 Z M 150.8 105.3 C 150.8 105.4 150.8 105.4 150.8 105.3 C 150.8 105.3 150.8 105.3 150.8 105.3 Z M 152.9 104.2 C 152.9 104.4 152.9 104.4 152.9 104.2 C 152.9 104.2 152.9 104.2 152.9 104.2 Z M 154.0 103.7 C 154.0 103.8 154.0 103.8 154.0 103.7 C 154.0 103.7 154.0 103.7 154.0 103.7 Z M 128.6 90.7 C 128.5 90.7 128.5 90.7 128.6 90.7 C 128.6 90.7 128.6 90.7 128.6 90.7 Z M 129.6 87.5 C 129.5 87.5 129.5 87.5 129.6 87.5 C 129.6 87.5 129.6 87.5 129.6 87.5 Z M 132.3 89.1 C 132.3 89.0 132.3 89.0 132.3 89.1 C 132.3 89.1 132.3 89.1 132.3 89.1 Z M 127.0 92.1 C 127.0 92.1 127.0 92.1 127.0 92.1 C 127.0 92.1 127.0 92.1 127.0 92.1 Z M 138.4 96.2 C 138.4 96.1 138.4 96.1 138.4 96.2 C 138.4 96.2 138.4 96.2 138.4 96.2 Z M 138.7 97.9 C 138.6 97.8 138.6 97.8 138.7 97.9 C 138.7 97.9 138.7 97.9 138.7 97.9 Z M 135.4 97.9 C 135.4 97.9 135.4 97.9 135.4 97.9 C 135.4 97.9 135.4 97.9 135.4 97.9 Z M 138.8 99.3 C 138.8 99.3 138.8 99.3 138.8 99.3 C 138.8 99.3 138.8 99.3 138.8 99.3 Z M 120.7 87.3 C 120.6 87.3 120.6 87.3 120.7 87.3 C 120.7 87.3 120.7 87.3 120.7 87.3 Z M 121.8 85.1 C 121.7 85.1 121.7 85.1 121.8 85.1 C 121.8 85.1 121.8 85.1 121.8 85.1 Z M 139.7 94.8 C 140.5 94.7 140.3 96.0 139.7 94.8 M 135.8 92.7 C 135.7 92.7 135.7 92.7 135.8 92.7 C 135.8 92.7 135.8 92.7 135.8 92.7 Z M 146.1 99.0 C 146.0 100.2 144.5 97.4 146.1 99.0 C 146.1 99.0 146.1 99.0 146.1 99.0 Z M 141.8 101.3 C 141.8 101.3 141.8 101.3 141.8 101.3 C 141.8 101.3 141.8 101.3 141.8 101.3 Z M 143.0 101.5 C 143.0 101.7 143.0 101.7 143.0 101.5 C 143.0 101.5 143.0 101.5 143.0 101.5 Z M 149.9 102.8 C 150.0 102.9 150.0 102.9 149.9 102.8 M 135.8 91.6 C 136.1 92.3 136.0 92.2 135.8 91.6 M 147.3 99.9 C 147.2 99.9 147.2 99.9 147.3 99.9 C 147.3 99.9 147.3 99.9 147.3 99.9 Z M 151.5 103.1 C 151.4 103.1 151.4 103.1 151.5 103.1 C 151.5 103.1 151.5 103.1 151.5 103.1 Z M 132.7 90.4 C 132.2 91.5 131.8 90.9 132.7 90.4 M 125.0 85.9 C 124.9 86.0 124.9 86.0 125.0 85.9 C 125.0 85.9 125.0 85.9 125.0 85.9 Z M 157.9 106.2 C 156.6 103.8 155.6 105.4 155.5 105.4 C 157.1 103.4 153.2 105.1 153.3 105.8 C 153.0 106.0 152.2 110.8 155.1 109.4 C 155.7 109.4 155.5 110.2 155.7 110.4 C 158.3 112.0 154.8 108.2 157.8 110.1 C 158.2 110.8 156.4 112.2 159.0 112.1 C 159.0 112.3 160.6 114.3 160.4 113.0 C 160.8 114.4 162.1 113.9 163.1 114.3 C 163.6 115.3 161.6 115.1 165.2 116.0 C 165.5 118.3 167.6 116.0 167.7 118.4 C 168.4 118.9 171.3 117.0 168.6 117.4 C 168.9 117.4 168.7 115.4 170.7 117.4 C 170.1 117.5 167.1 119.4 171.6 120.4 C 172.2 120.9 174.0 121.1 174.1 121.6 C 172.1 120.7 175.9 124.5 176.0 123.4 C 178.6 125.8 177.7 123.5 179.2 125.8 C 180.9 126.9 179.4 124.2 181.1 126.3 C 182.9 127.2 181.3 127.1 181.2 127.0 C 182.5 128.0 183.3 127.9 183.8 128.2 C 184.0 128.6 184.3 129.5 185.1 129.1 C 187.4 128.8 186.8 126.7 188.3 125.9 C 187.5 124.6 187.2 126.5 187.0 125.1 C 186.0 125.5 187.0 125.0 183.9 123.3 C 183.8 123.5 184.2 124.5 183.5 124.1 C 182.4 123.3 184.5 121.7 181.7 121.9 C 183.6 123.8 178.1 120.6 179.9 122.4 C 177.1 120.9 179.3 121.7 177.7 120.0 C 176.9 121.5 178.5 118.4 177.1 119.1 C 177.3 118.4 174.1 116.7 175.7 118.9 C 172.4 117.3 174.8 117.8 174.2 116.3 C 172.8 115.3 172.6 118.5 172.9 116.2 C 171.5 114.3 172.2 117.1 171.8 114.8 C 171.6 116.4 170.4 113.9 170.1 115.6 C 166.8 113.6 171.4 114.5 168.6 113.9 C 169.2 114.4 170.1 112.5 168.0 112.7 C 167.2 115.2 167.4 109.8 166.6 113.1 C 161.7 111.1 166.6 111.5 164.2 110.0 C 163.5 109.6 164.3 111.3 163.7 111.0 C 160.8 108.5 163.9 109.5 161.4 109.8 C 158.1 108.1 161.2 108.1 159.8 107.0 C 159.2 107.6 157.3 107.9 157.9 106.2 M 160.3 108.7 C 161.2 108.6 160.4 109.4 160.3 108.7 M 154.5 104.0 C 155.4 104.0 154.6 104.7 154.5 104.0 M 163.1 109.9 C 164.2 110.0 162.9 110.8 163.1 109.9 M 179.3 121.3 C 178.1 120.6 180.0 121.3 179.3 121.3 M 157.0 105.5 C 158.2 105.6 156.8 106.4 157.0 105.5 M 155.2 105.9 C 155.2 105.9 155.2 105.9 155.2 105.9 M 181.6 121.3 C 181.7 121.3 181.7 121.3 181.6 121.3 M 177.2 118.4 C 178.1 119.0 176.5 118.3 177.2 118.4 M 174.1 122.8 C 175.1 123.4 173.4 122.7 174.1 122.8 M 184.1 122.8 C 185.3 123.0 184.1 123.5 184.1 122.8 M 186.0 125.4 C 187.1 125.5 186.2 126.2 186.0 125.4 M 158.7 109.9 C 158.6 109.9 158.6 109.9 158.7 109.9 C 158.7 109.9 158.7 109.9 158.7 109.9 Z M 166.1 116.3 C 165.5 115.2 167.0 117.6 166.1 116.3 M 166.5 112.3 C 166.6 113.7 165.3 111.5 166.5 112.3 C 166.5 112.3 166.5 112.3 166.5 112.3 Z M 164.8 111.8 C 164.8 111.9 164.8 111.9 164.8 111.8 C 164.8 111.8 164.8 111.8 164.8 111.8 Z M 169.4 114.9 C 169.4 114.9 169.4 114.9 169.4 114.9 C 169.4 114.9 169.4 114.9 169.4 114.9 Z M 168.4 114.3 C 167.9 114.3 168.0 113.8 168.4 114.3 C 168.4 114.3 168.4 114.3 168.4 114.3 Z M 173.3 121.6 C 172.7 121.5 172.9 121.1 173.3 121.6 C 173.3 121.6 173.3 121.6 173.3 121.6 Z M 166.8 113.7 C 166.0 114.6 166.5 112.7 166.8 113.7 C 166.8 113.7 166.8 113.7 166.8 113.7 Z M 170.3 119.1 C 170.9 119.1 170.6 120.5 170.3 119.1 M 182.5 122.0 C 183.0 122.0 182.8 123.5 182.5 122.0 M 172.9 115.5 C 173.4 115.5 173.2 116.9 172.9 115.5 M 161.0 108.6 C 161.1 108.8 161.1 108.8 161.0 108.6 M 163.9 116.1 C 164.8 116.1 164.0 116.7 163.9 116.1 M 154.9 109.8 C 155.8 109.9 154.9 110.5 154.9 109.8 M 178.4 125.4 C 178.5 125.1 179.3 126.1 178.4 125.4 M 173.1 117.7 C 173.9 118.3 174.4 119.4 172.7 118.2 C 172.7 117.9 173.3 118.1 173.1 117.7 C 173.1 117.7 173.1 117.7 173.1 117.7 Z M 174.8 121.8 C 174.9 121.9 174.9 121.9 174.8 121.8 M 175.1 117.8 C 175.2 118.0 175.2 118.0 175.1 117.8 M 180.1 121.1 C 180.1 121.3 180.1 121.3 180.1 121.1 M 180.9 121.3 C 180.8 121.3 180.8 121.3 180.9 121.3 C 180.9 121.3 180.9 121.3 180.9 121.3 Z M 186.6 124.4 C 186.6 124.5 186.6 124.5 186.6 124.4 C 186.6 124.4 186.6 124.4 186.6 124.4 Z M 178.4 120.2 C 178.4 120.2 178.4 120.2 178.4 120.2 C 178.4 120.2 178.4 120.2 178.4 120.2 Z M 180.7 126.6 C 180.7 126.7 180.7 126.7 180.7 126.6 C 180.7 126.6 180.7 126.6 180.7 126.6 Z M 180.5 125.7 C 180.5 125.7 180.5 125.7 180.5 125.7 C 180.5 125.7 180.5 125.7 180.5 125.7 Z M 158.4 106.5 C 159.5 106.4 157.7 108.4 158.4 106.5 M 182.9 127.3 C 183.2 128.4 181.5 126.6 182.9 127.3 C 182.9 127.3 182.9 127.3 182.9 127.3 Z M 177.3 120.6 C 177.3 120.8 177.3 120.8 177.3 120.6 M 181.1 121.5 C 181.1 121.7 181.1 121.7 181.1 121.5 M 167.0 111.5 C 167.0 111.6 167.0 111.6 167.0 111.5 M 184.9 124.2 C 187.1 125.9 183.0 124.8 184.9 124.2 M 165.4 111.7 C 165.4 111.6 165.4 111.6 165.4 111.7 M 169.6 116.8 C 171.1 117.7 168.7 116.9 169.6 116.8 M 174.3 118.2 C 174.2 118.2 174.2 118.2 174.3 118.2 C 174.3 118.2 174.3 118.2 174.3 118.2 Z M 172.0 116.7 C 170.7 116.1 171.8 116.2 172.0 116.7 C 172.0 116.7 172.0 116.7 172.0 116.7 Z M 158.9 108.1 C 160.3 109.2 157.2 107.4 158.9 108.1 C 158.9 108.1 158.9 108.1 158.9 108.1 Z M 182.4 125.6 C 182.3 125.7 182.3 125.7 182.4 125.6 C 182.4 125.6 182.4 125.6 182.4 125.6 Z M 178.5 119.4 C 177.7 119.2 178.4 118.9 178.5 119.4 C 178.5 119.4 178.5 119.4 178.5 119.4 Z M 187.4 125.0 C 186.6 124.7 187.3 124.5 187.4 125.0 C 187.4 125.0 187.4 125.0 187.4 125.0 Z M 157.3 106.8 C 161.7 111.8 150.3 101.7 157.3 106.8 C 157.3 106.8 157.3 106.8 157.3 106.8 Z M 173.3 116.6 C 173.2 116.7 173.2 116.7 173.3 116.6 C 173.3 116.6 173.3 116.6 173.3 116.6 Z M 163.7 109.6 C 163.6 109.6 163.6 109.6 163.7 109.6 C 163.7 109.6 163.7 109.6 163.7 109.6 Z M 161.5 109.3 C 161.4 109.4 161.4 109.4 161.5 109.3 C 161.5 109.3 161.5 109.3 161.5 109.3 Z M 159.6 113.2 C 159.6 113.2 159.6 113.2 159.6 113.2 C 159.6 113.2 159.6 113.2 159.6 113.2 Z M 161.3 111.9 C 161.1 112.0 161.1 112.0 161.3 111.9 C 161.3 111.9 161.3 111.9 161.3 111.9 Z M 157.4 110.3 C 157.3 110.4 157.3 110.4 157.4 110.3 C 157.4 110.3 157.4 110.3 157.4 110.3 Z M 157.2 110.8 C 157.1 110.9 157.1 110.9 157.2 110.8 C 157.2 110.8 157.2 110.8 157.2 110.8 Z M 180.5 122.6 C 180.4 122.6 180.4 122.6 180.5 122.6 C 180.5 122.6 180.5 122.6 180.5 122.6 Z M 177.7 122.9 C 179.3 123.1 176.8 123.4 177.7 122.9 C 177.7 122.9 177.7 122.9 177.7 122.9 Z M 167.0 114.9 C 168.3 115.5 165.9 114.9 167.0 114.9 C 167.0 114.9 167.0 114.9 167.0 114.9 Z M 167.0 117.7 C 167.0 117.7 167.0 117.7 167.0 117.7 C 167.0 117.7 167.0 117.7 167.0 117.7 Z M 162.0 108.5 C 161.9 108.5 161.9 108.5 162.0 108.5 C 162.0 108.5 162.0 108.5 162.0 108.5 Z M 159.5 107.7 C 158.9 108.4 159.1 106.9 159.5 107.7 M 170.5 114.2 C 170.4 114.3 170.4 114.3 170.5 114.2 C 170.5 114.2 170.5 114.2 170.5 114.2 Z M 176.5 119.7 C 176.5 119.8 176.5 119.8 176.5 119.7 C 176.5 119.7 176.5 119.7 176.5 119.7 Z M 183.6 123.6 C 183.5 123.7 183.5 123.7 183.6 123.6 C 183.6 123.6 183.6 123.6 183.6 123.6 Z M 174.7 117.0 C 174.6 117.1 174.6 117.1 174.7 117.0 C 174.7 117.0 174.7 117.0 174.7 117.0 Z M 171.0 115.6 C 170.9 115.7 170.9 115.7 171.0 115.6 C 171.0 115.6 171.0 115.6 171.0 115.6 Z M 184.4 125.6 C 184.3 125.6 184.3 125.6 184.4 125.6 C 184.4 125.6 184.4 125.6 184.4 125.6 Z M 175.5 117.4 C 175.4 117.4 175.4 117.4 175.5 117.4 C 175.5 117.4 175.5 117.4 175.5 117.4 Z M 175.9 121.0 C 175.8 121.0 175.8 121.0 175.9 121.0 C 175.9 121.0 175.9 121.0 175.9 121.0 Z M 160.5 106.8 C 160.5 106.8 160.5 106.8 160.5 106.8 C 160.5 106.8 160.5 106.8 160.5 106.8 Z M 185.1 124.6 C 185.0 124.6 185.0 124.6 185.1 124.6 C 185.1 124.6 185.1 124.6 185.1 124.6 Z M 185.9 124.2 C 185.9 124.2 185.9 124.2 185.9 124.2 C 185.9 124.2 185.9 124.2 185.9 124.2 Z M 178.8 124.7 C 176.7 122.8 181.1 125.9 179.9 124.0 C 183.4 126.0 179.3 125.1 178.8 124.7 C 178.8 124.7 178.8 124.7 178.8 124.7 Z M 189.3 126.0 C 187.3 126.2 186.7 127.1 186.6 128.6 C 186.9 129.5 188.2 127.4 187.1 129.2 C 185.4 128.6 186.1 132.2 187.5 130.0 C 189.7 130.9 186.9 131.6 188.6 131.5 C 190.9 132.6 189.4 132.6 191.1 133.5 C 192.8 132.9 191.7 134.7 192.8 133.8 C 191.2 134.6 194.8 134.6 194.5 135.2 C 192.5 135.0 200.1 138.9 196.5 136.0 C 198.4 136.4 197.5 137.3 197.9 137.8 C 199.1 137.5 200.1 140.0 201.6 139.9 C 201.5 139.6 201.0 139.3 201.1 139.0 C 201.1 138.3 202.1 139.8 202.0 139.6 C 202.8 139.8 205.8 140.7 202.3 140.2 C 201.7 140.7 204.7 141.4 204.2 141.9 C 206.6 143.4 205.6 141.1 206.1 142.6 C 207.7 143.7 209.0 144.5 209.1 144.4 C 210.0 145.2 209.8 146.0 211.1 145.9 C 212.3 148.6 214.2 144.3 213.3 147.4 C 214.3 147.2 213.8 149.3 214.8 147.6 C 213.6 147.9 217.5 151.1 216.4 148.8 C 217.1 148.7 218.5 152.5 219.2 150.6 C 220.9 150.0 221.5 148.7 220.1 146.2 C 219.8 147.3 218.5 143.9 219.1 146.4 C 220.5 148.1 215.4 144.9 216.9 145.0 C 218.4 143.3 213.7 144.6 213.5 142.6 C 213.9 143.9 209.5 141.6 211.6 141.0 C 210.9 140.4 210.3 140.9 210.0 139.6 C 212.4 141.3 208.1 140.4 208.8 139.7 C 209.6 139.4 206.2 136.6 206.0 137.6 C 206.0 140.4 205.3 136.6 204.2 137.0 C 201.9 136.1 205.6 135.5 203.2 136.0 C 202.9 135.5 200.2 133.7 202.2 134.4 C 202.7 135.0 199.2 135.5 200.0 133.7 C 203.5 134.6 197.0 131.0 197.6 132.2 C 201.5 135.9 192.3 130.2 196.3 131.5 C 194.9 129.3 197.1 131.5 194.4 130.3 C 194.4 131.1 192.2 130.3 193.3 129.6 C 194.0 127.7 191.3 131.3 191.2 128.1 C 191.6 127.1 187.8 126.9 189.5 126.6 C 189.6 126.5 189.4 126.0 189.3 126.0 M 190.0 126.7 C 189.5 126.9 189.8 126.0 190.0 126.7 M 189.5 126.9 C 189.4 126.8 189.4 126.8 189.5 126.9 C 189.5 126.9 189.5 126.9 189.5 126.9 Z M 194.0 130.2 C 194.0 130.1 194.0 130.1 194.0 130.2 C 194.0 130.2 194.0 130.2 194.0 130.2 Z M 195.2 136.6 C 195.2 136.5 195.2 136.5 195.2 136.6 C 195.2 136.6 195.2 136.6 195.2 136.6 Z M 197.1 132.3 C 197.1 132.3 197.1 132.3 197.1 132.3 C 197.1 132.3 197.1 132.3 197.1 132.3 Z M 192.2 129.3 C 192.1 129.3 192.1 129.3 192.2 129.3 C 192.2 129.3 192.2 129.3 192.2 129.3 Z M 197.2 131.5 C 197.1 132.3 196.4 130.4 197.3 131.5 C 197.4 131.5 197.1 131.4 197.2 131.5 M 201.5 133.9 C 201.5 134.0 201.5 134.0 201.5 133.9 M 207.6 144.5 C 207.6 144.6 207.6 144.6 207.6 144.5 M 211.4 140.2 C 211.4 140.4 211.4 140.4 211.4 140.2 M 205.2 137.2 C 206.5 137.9 205.3 137.7 205.2 137.2 M 214.5 142.7 C 213.1 141.3 216.4 143.5 214.5 142.7 M 216.2 143.4 C 216.3 143.5 216.3 143.5 216.2 143.4 M 208.9 139.0 C 208.9 139.0 208.9 139.0 208.9 139.0 C 208.9 139.0 208.9 139.0 208.9 139.0 Z M 204.8 136.6 C 203.4 135.2 206.9 137.1 204.8 136.6 M 195.0 129.9 C 196.1 130.2 194.5 130.7 195.0 129.9 M 192.9 129.1 C 192.8 129.1 192.8 129.1 192.9 129.1 C 192.9 129.1 192.9 129.1 192.9 129.1 Z M 212.0 141.0 C 211.9 141.0 211.9 141.0 212.0 141.0 C 212.0 141.0 212.0 141.0 212.0 141.0 Z M 213.9 142.1 C 213.8 142.1 213.8 142.1 213.9 142.1 C 213.9 142.1 213.9 142.1 213.9 142.1 Z M 214.1 148.5 C 214.0 148.4 214.0 148.4 214.1 148.5 C 214.1 148.5 214.1 148.5 214.1 148.5 Z M 193.1 131.8 C 192.1 130.7 195.3 131.2 194.3 132.1 C 194.2 132.6 193.3 131.8 193.1 131.8 M 202.8 137.2 C 202.1 138.9 202.9 134.4 202.8 137.2 M 215.8 144.5 C 215.9 147.0 215.1 142.2 215.8 144.5 M 218.5 145.8 C 219.0 146.6 213.8 143.0 217.8 145.0 C 218.4 144.9 218.4 145.4 218.5 145.8 M 201.1 134.7 C 200.9 135.8 199.4 133.1 201.1 134.7 M 207.1 142.1 C 208.0 141.9 209.9 142.5 208.6 142.9 C 207.9 144.1 206.1 142.0 207.1 142.1 M 189.9 127.8 C 191.7 127.2 189.1 128.9 189.9 127.8 M 194.6 131.0 C 194.6 131.0 194.6 131.0 194.6 131.0 C 194.6 131.0 194.6 131.0 194.6 131.0 Z M 196.6 132.0 C 196.6 132.2 196.6 132.2 196.6 132.0 M 191.4 127.2 C 191.4 127.3 191.4 127.3 191.4 127.2 M 207.9 140.7 C 208.0 140.8 208.0 140.8 207.9 140.7 M 204.6 137.3 C 205.6 139.8 203.5 136.9 204.6 137.3 M 198.5 136.9 C 198.7 137.9 197.3 136.2 198.5 136.9 M 208.0 138.8 C 208.5 140.8 205.4 138.8 208.0 138.8 M 203.8 136.6 C 203.9 136.6 203.9 136.6 203.8 136.6 C 203.8 136.6 203.8 136.6 203.8 136.6 Z M 207.5 142.5 C 207.4 142.5 207.4 142.5 207.5 142.5 C 207.5 142.5 207.5 142.5 207.5 142.5 Z M 208.1 142.8 C 208.0 142.8 208.0 142.8 208.1 142.8 C 208.1 142.8 208.1 142.8 208.1 142.8 Z M 209.7 139.7 C 209.6 139.7 209.6 139.7 209.7 139.7 C 209.7 139.7 209.7 139.7 209.7 139.7 Z M 190.6 132.4 C 191.8 133.4 189.4 131.9 190.6 132.4 C 190.6 132.4 190.6 132.4 190.6 132.4 Z M 198.7 132.5 C 200.2 134.9 196.6 132.5 198.7 132.5 C 198.7 132.5 198.7 132.5 198.7 132.5 Z M 200.1 135.7 C 200.1 135.8 200.1 135.8 200.1 135.7 C 200.1 135.7 200.1 135.7 200.1 135.7 Z M 207.6 137.5 C 207.6 137.5 207.6 137.5 207.6 137.5 C 207.6 137.5 207.6 137.5 207.6 137.5 Z M 191.1 133.0 C 191.1 133.1 191.1 133.1 191.1 133.0 C 191.1 133.0 191.1 133.0 191.1 133.0 Z M 213.0 142.7 C 212.9 142.8 212.9 142.8 213.0 142.7 C 213.0 142.7 213.0 142.7 213.0 142.7 Z M 203.8 140.4 C 204.6 140.3 203.7 140.9 203.8 140.4 C 203.8 140.4 203.8 140.4 203.8 140.4 Z M 205.8 141.7 C 205.8 141.7 205.8 141.7 205.8 141.7 C 205.8 141.7 205.8 141.7 205.8 141.7 Z M 216.8 143.6 C 216.9 143.6 216.9 143.6 216.8 143.6 C 216.8 143.6 216.8 143.6 216.8 143.6 Z M 210.0 146.1 C 210.1 146.1 210.1 146.1 210.0 146.1 C 210.0 146.1 210.0 146.1 210.0 146.1 Z M 212.6 145.7 C 212.5 145.7 212.5 145.7 212.6 145.7 C 212.6 145.7 212.6 145.7 212.6 145.7 Z M 209.1 139.7 C 211.3 140.8 208.3 140.0 209.1 139.7 C 209.1 139.7 209.1 139.7 209.1 139.7 Z M 217.7 148.4 C 217.7 148.5 217.7 148.5 217.7 148.4 C 217.7 148.4 217.7 148.4 217.7 148.4 Z M 219.8 147.3 C 219.8 147.5 219.8 147.5 219.8 147.3 C 219.8 147.3 219.8 147.3 219.8 147.3 Z M 220.8 146.8 C 220.8 146.9 220.8 146.9 220.8 146.8 C 220.8 146.8 220.8 146.8 220.8 146.8 Z M 195.4 133.8 C 195.4 133.8 195.4 133.8 195.4 133.8 C 195.4 133.8 195.4 133.8 195.4 133.8 Z M 196.4 130.6 C 196.4 130.6 196.4 130.6 196.4 130.6 C 196.4 130.6 196.4 130.6 196.4 130.6 Z M 199.2 132.2 C 199.1 132.1 199.1 132.1 199.2 132.2 C 199.2 132.2 199.2 132.2 199.2 132.2 Z M 193.9 135.2 C 193.8 135.2 193.8 135.2 193.9 135.2 C 193.9 135.2 193.9 135.2 193.9 135.2 Z M 205.3 139.3 C 205.3 139.2 205.3 139.2 205.3 139.3 C 205.3 139.3 205.3 139.3 205.3 139.3 Z M 205.5 141.0 C 205.5 140.9 205.5 140.9 205.5 141.0 C 205.5 141.0 205.5 141.0 205.5 141.0 Z M 202.3 141.0 C 202.3 141.0 202.3 141.0 202.3 141.0 C 202.3 141.0 202.3 141.0 202.3 141.0 Z M 205.6 142.4 C 205.6 142.4 205.6 142.4 205.6 142.4 C 205.6 142.4 205.6 142.4 205.6 142.4 Z M 187.5 130.4 C 187.5 130.4 187.5 130.4 187.5 130.4 C 187.5 130.4 187.5 130.4 187.5 130.4 Z M 188.7 128.2 C 188.6 128.2 188.6 128.2 188.7 128.2 C 188.7 128.2 188.7 128.2 188.7 128.2 Z M 206.6 137.9 C 207.3 137.8 207.1 139.1 206.6 137.9 M 202.6 135.8 C 202.6 135.8 202.6 135.8 202.6 135.8 C 202.6 135.8 202.6 135.8 202.6 135.8 Z M 212.9 142.1 C 212.9 143.3 211.4 140.5 212.9 142.1 C 212.9 142.1 212.9 142.1 212.9 142.1 Z M 208.6 144.4 C 208.7 144.4 208.7 144.4 208.6 144.4 C 208.6 144.4 208.6 144.4 208.6 144.4 Z M 209.9 144.6 C 209.9 144.8 209.9 144.8 209.9 144.6 C 209.9 144.6 209.9 144.6 209.9 144.6 Z M 216.8 145.9 C 216.9 146.0 216.9 146.0 216.8 145.9 M 202.6 134.7 C 203.0 135.4 202.9 135.3 202.6 134.7 M 214.2 143.0 C 214.1 143.0 214.1 143.0 214.2 143.0 C 214.2 143.0 214.2 143.0 214.2 143.0 Z M 218.3 146.2 C 218.2 146.2 218.2 146.2 218.3 146.2 C 218.3 146.2 218.3 146.2 218.3 146.2 Z M 199.6 133.5 C 199.0 134.6 198.7 134.0 199.6 133.5 M 191.8 129.0 C 191.8 129.1 191.8 129.1 191.8 129.0 C 191.8 129.0 191.8 129.0 191.8 129.0 Z M 224.6 150.3 C 220.9 146.1 220.5 149.0 220.0 149.3 C 219.0 149.5 219.4 150.3 220.0 151.3 C 220.0 153.4 222.4 150.8 222.1 152.6 C 222.1 155.3 224.6 151.9 223.8 154.2 C 223.3 154.6 225.3 155.3 225.2 155.1 C 225.5 156.6 227.9 155.7 228.0 155.6 C 228.4 156.2 227.3 158.0 230.0 157.9 C 231.7 158.3 231.2 160.5 231.6 159.0 C 231.8 161.1 232.6 159.1 233.3 160.2 C 233.6 161.4 234.1 159.0 234.5 161.3 C 235.8 160.6 233.4 161.7 237.4 163.1 C 235.8 162.0 239.6 163.3 238.5 163.6 C 236.7 163.7 240.3 164.4 241.6 165.9 C 242.3 165.8 244.9 165.9 243.8 166.9 C 244.6 169.3 246.0 167.1 246.0 168.7 C 246.3 169.5 247.1 168.6 247.4 169.0 C 247.5 170.2 248.4 169.9 250.2 171.5 C 254.5 174.8 252.3 169.8 254.2 170.7 C 254.7 170.4 253.9 166.1 253.6 168.8 C 253.7 168.0 248.7 167.8 251.9 166.7 C 249.9 166.7 252.8 166.0 249.3 165.3 C 252.1 169.3 244.5 163.1 248.7 164.7 C 248.4 163.8 246.8 163.0 247.7 164.0 C 247.2 165.7 245.5 161.7 245.9 164.4 C 243.8 162.4 243.4 164.4 243.5 162.9 C 244.1 160.6 243.3 163.4 242.4 162.1 C 239.7 160.3 243.2 159.5 240.6 159.9 C 238.5 157.2 239.5 160.3 238.4 159.9 C 237.3 161.0 236.3 157.1 238.4 158.3 C 236.9 158.3 238.6 157.6 236.9 157.6 C 237.0 159.4 236.1 155.3 235.8 156.5 C 234.5 156.1 234.6 157.1 234.3 157.0 C 232.6 155.9 233.9 155.0 233.0 155.7 C 232.3 155.9 232.5 153.9 232.0 154.1 C 233.7 155.3 229.8 154.5 230.1 153.7 C 231.2 154.3 230.5 151.8 229.3 152.3 C 228.4 155.5 228.2 150.7 226.9 151.1 C 226.7 153.0 223.0 148.9 225.1 149.3 C 224.9 149.4 224.6 150.3 224.6 150.3 M 231.4 154.0 C 232.7 155.1 229.7 153.3 231.4 154.0 M 231.6 153.6 C 231.9 154.5 230.5 152.4 231.8 153.5 C 231.8 153.5 231.5 153.5 231.6 153.6 M 237.4 157.3 C 237.0 157.6 236.8 156.6 237.4 157.3 M 238.0 158.9 C 238.7 159.9 236.7 158.2 238.0 158.9 M 251.0 166.9 C 248.3 168.2 250.4 164.8 251.0 166.9 M 242.8 161.0 C 241.0 160.3 243.9 160.4 242.8 161.0 M 242.0 161.2 C 241.0 161.1 242.1 160.6 242.0 161.2 M 248.5 165.3 C 248.6 165.4 248.6 165.4 248.5 165.3 C 248.5 165.3 248.5 165.3 248.5 165.3 Z M 252.3 167.8 C 252.3 167.8 252.3 167.8 252.3 167.8 C 252.3 167.8 252.3 167.8 252.3 167.8 Z M 244.7 163.2 C 243.9 161.9 246.8 164.2 244.7 163.2 C 244.7 163.2 244.7 163.2 244.7 163.2 Z M 248.4 169.9 C 248.3 169.9 248.3 169.9 248.4 169.9 C 248.4 169.9 248.4 169.9 248.4 169.9 Z M 229.7 154.3 C 229.6 154.3 229.6 154.3 229.7 154.3 C 229.7 154.3 229.7 154.3 229.7 154.3 Z M 225.9 150.7 C 225.7 151.0 225.2 150.0 225.9 150.7 C 225.9 150.7 225.9 150.7 225.9 150.7 Z M 220.8 150.9 C 220.7 150.9 220.7 150.9 220.8 150.9 C 220.8 150.9 220.8 150.9 220.8 150.9 Z M 227.5 154.5 C 227.4 154.5 227.4 154.5 227.5 154.5 C 227.5 154.5 227.5 154.5 227.5 154.5 Z M 229.1 153.3 C 229.2 151.7 230.6 154.7 229.1 153.3 C 229.1 153.3 229.1 153.3 229.1 153.3 Z M 241.3 165.2 C 241.7 164.7 242.2 166.0 241.3 165.2 C 241.3 165.2 241.3 165.2 241.3 165.2 Z M 237.8 159.5 C 238.2 159.3 238.4 160.0 237.8 159.5 C 237.8 159.5 237.8 159.5 237.8 159.5 Z M 236.5 156.4 C 236.8 156.2 237.0 156.9 236.5 156.4 C 236.5 156.4 236.5 156.4 236.5 156.4 Z M 226.2 150.4 C 226.3 150.4 226.3 150.4 226.2 150.4 C 226.2 150.4 226.2 150.4 226.2 150.4 Z M 227.1 152.3 C 226.8 150.5 228.4 154.0 227.1 152.3 C 227.1 152.3 227.1 152.3 227.1 152.3 Z M 225.1 151.5 C 225.4 152.3 223.8 150.4 225.1 151.5 M 225.0 153.8 C 226.6 154.2 222.6 155.1 225.0 153.8 C 225.0 153.8 225.0 153.8 225.0 153.8 Z M 231.4 158.6 C 231.5 158.7 231.5 158.7 231.4 158.6 C 231.4 158.6 231.4 158.6 231.4 158.6 Z M 232.8 154.9 C 233.9 155.7 231.9 154.7 232.8 154.9 C 232.8 154.9 232.8 154.9 232.8 154.9 Z M 222.9 148.2 C 224.1 148.9 222.0 147.9 222.9 148.2 C 222.9 148.2 222.9 148.2 222.9 148.2 Z M 236.0 160.0 C 238.0 161.0 234.4 159.8 236.0 160.0 C 236.0 160.0 236.0 160.0 236.0 160.0 Z M 243.8 163.2 C 243.8 163.2 243.8 163.2 243.8 163.2 C 243.8 163.2 243.8 163.2 243.8 163.2 Z M 245.4 163.6 C 245.4 163.6 245.4 163.6 245.4 163.6 C 245.4 163.6 245.4 163.6 245.4 163.6 Z M 250.0 168.2 C 250.1 168.3 250.1 168.3 250.0 168.2 C 250.0 168.2 250.0 168.2 250.0 168.2 Z M 246.9 163.8 C 246.9 163.8 246.9 163.8 246.9 163.8 C 246.9 163.8 246.9 163.8 246.9 163.8 Z M 250.4 166.5 C 250.5 166.6 250.5 166.6 250.4 166.5 C 250.4 166.5 250.4 166.5 250.4 166.5 Z M 250.5 165.2 C 250.6 165.3 250.6 165.3 250.5 165.2 C 250.5 165.2 250.5 165.2 250.5 165.2 Z M 239.1 164.7 C 239.1 164.8 239.1 164.8 239.1 164.7 C 239.1 164.7 239.1 164.7 239.1 164.7 Z M 228.4 151.4 C 228.5 151.5 228.5 151.5 228.4 151.4 C 228.4 151.4 228.4 151.4 228.4 151.4 Z M 249.8 166.7 C 249.9 166.8 249.9 166.8 249.8 166.7 C 249.8 166.7 249.8 166.7 249.8 166.7 Z M 240.2 161.7 C 239.6 162.7 240.2 160.0 240.4 161.8 C 240.3 161.8 240.2 161.5 240.2 161.7 M 240.4 164.1 C 240.3 164.1 240.3 164.1 240.4 164.1 C 240.4 164.1 240.4 164.1 240.4 164.1 Z M 235.9 162.0 C 235.8 162.0 235.8 162.0 235.9 162.0 C 235.9 162.0 235.9 162.0 235.9 162.0 Z M 246.3 163.2 C 246.5 162.5 247.1 164.2 246.2 163.1 M 249.0 169.9 C 249.1 169.2 249.7 170.9 248.8 169.8 M 221.4 147.7 C 221.0 148.0 220.8 146.9 221.4 147.7 M 234.6 161.9 C 234.2 162.2 234.0 161.2 234.6 161.9 M 237.3 161.9 C 237.5 161.3 238.1 163.0 237.2 161.9 M 246.2 168.0 C 246.2 168.0 246.2 168.0 246.2 168.0 C 246.2 168.0 246.2 168.0 246.2 168.0 Z M 234.5 156.1 C 234.5 156.2 234.5 156.2 234.5 156.1 C 234.5 156.1 234.5 156.1 234.5 156.1 Z M 238.8 160.5 C 238.6 159.3 239.4 161.5 238.8 160.5 M 232.2 156.4 C 231.8 154.9 233.6 157.8 232.2 156.4 M 251.0 171.5 C 250.6 169.6 251.4 172.6 251.0 171.5 M 247.2 165.2 C 246.8 163.3 247.6 166.3 247.2 165.2 M 235.2 157.2 C 235.5 156.6 236.1 158.3 235.2 157.2 M 224.1 149.3 C 223.1 148.5 225.8 149.7 224.1 149.3 M 243.4 166.3 C 243.4 166.3 243.4 166.3 243.4 166.3 C 243.4 166.3 243.4 166.3 243.4 166.3 Z M 224.9 155.7 C 224.9 155.7 224.9 155.7 224.9 155.7 C 224.9 155.7 224.9 155.7 224.9 155.7 Z M 254.7 168.8 C 254.7 168.9 254.7 168.9 254.7 168.8 C 254.7 168.8 254.7 168.8 254.7 168.8 Z M 246.2 165.2 C 246.2 165.3 246.2 165.3 246.2 165.2 C 246.2 165.2 246.2 165.2 246.2 165.2 Z M 252.7 167.3 C 252.7 167.4 252.7 167.4 252.7 167.3 C 252.7 167.3 252.7 167.3 252.7 167.3 Z M 242.1 163.8 C 242.2 163.9 242.2 163.9 242.1 163.8 C 242.1 163.8 242.1 163.8 242.1 163.8 Z M 243.2 160.6 C 243.2 160.6 243.2 160.6 243.2 160.6 C 243.2 160.6 243.2 160.6 243.2 160.6 Z M 238.7 159.3 C 238.7 159.4 238.7 159.4 238.7 159.3 C 238.7 159.3 238.7 159.3 238.7 159.3 Z M 244.8 161.9 C 247.2 163.2 243.1 162.1 244.8 161.9 C 244.8 161.9 244.8 161.9 244.8 161.9 Z M 239.1 162.2 C 239.1 162.2 239.1 162.2 239.1 162.2 C 239.1 162.2 239.1 162.2 239.1 162.2 Z M 240.0 160.0 C 242.0 160.1 240.0 161.8 240.0 160.0 M 234.1 155.2 C 234.8 155.1 233.9 156.0 234.1 155.2 M 229.2 157.3 C 229.2 157.3 229.2 157.3 229.2 157.3 C 229.2 157.3 229.2 157.3 229.2 157.3 Z M 230.1 157.4 C 230.1 157.5 230.1 157.5 230.1 157.4 C 230.1 157.4 230.1 157.4 230.1 157.4 Z M 232.7 154.1 C 232.7 154.1 232.7 154.1 232.7 154.1 C 232.7 154.1 232.7 154.1 232.7 154.1 Z M 229.5 158.5 C 229.6 158.6 229.6 158.6 229.5 158.5 C 229.5 158.5 229.5 158.5 229.5 158.5 Z M 242.3 160.1 C 242.3 160.1 242.3 160.1 242.3 160.1 C 242.3 160.1 242.3 160.1 242.3 160.1 Z M 254.0 167.6 C 254.0 167.6 254.0 167.6 254.0 167.6 C 254.0 167.6 254.0 167.6 254.0 167.6 Z M 222.5 152.4 C 222.6 152.5 222.6 152.5 222.5 152.4 C 222.5 152.4 222.5 152.4 222.5 152.4 Z M 242.8 162.0 C 242.8 162.0 242.8 162.0 242.8 162.0 C 242.8 162.0 242.8 162.0 242.8 162.0 Z M 227.7 156.0 C 227.7 156.1 227.7 156.1 227.7 156.0 C 227.7 156.0 227.7 156.0 227.7 156.0 Z M 242.2 161.3 C 242.2 161.3 242.2 161.3 242.2 161.3 C 242.2 161.3 242.2 161.3 242.2 161.3 Z M 242.9 166.3 C 242.9 166.3 242.9 166.3 242.9 166.3 C 242.9 166.3 242.9 166.3 242.9 166.3 Z M 245.0 168.5 C 245.0 168.5 245.0 168.5 245.0 168.5 C 245.0 168.5 245.0 168.5 245.0 168.5 Z M 244.0 164.2 C 244.0 164.3 244.0 164.3 244.0 164.2 C 244.0 164.2 244.0 164.2 244.0 164.2 Z M 227.6 154.3 C 223.7 150.4 231.6 156.2 227.6 154.3 M 244.6 164.9 C 241.5 162.7 247.9 165.5 244.6 164.9 C 245.1 164.9 244.7 164.9 244.6 164.9 M 258.2 170.9 C 256.9 168.4 255.9 170.0 255.8 170.1 C 257.4 168.1 253.5 169.7 253.6 170.4 C 253.3 170.7 252.5 175.4 255.4 174.1 C 256.0 174.0 255.8 174.9 256.0 175.1 C 258.6 176.6 255.1 172.8 258.1 174.8 C 258.5 175.4 256.7 176.8 259.3 176.7 C 259.3 177.0 260.9 179.0 260.7 177.6 C 261.1 179.1 262.4 178.5 263.4 178.9 C 263.9 179.9 261.9 179.7 265.5 180.7 C 265.8 183.0 267.9 180.7 268.0 183.0 C 268.7 183.6 271.6 181.6 268.9 182.0 C 269.2 182.0 269.0 180.1 271.0 182.0 C 270.4 182.1 267.4 184.0 271.9 185.1 C 272.5 185.5 274.3 185.7 274.4 186.3 C 272.4 185.3 276.2 189.1 276.3 188.0 C 278.9 190.4 278.0 188.1 279.5 190.4 C 281.2 191.6 279.7 188.8 281.4 190.9 C 283.2 191.8 281.6 191.8 281.5 191.6 C 282.8 192.7 283.6 192.5 284.1 192.9 C 284.3 193.2 284.6 194.2 285.4 193.7 C 287.7 193.4 287.1 191.3 288.5 190.5 C 287.8 189.2 287.5 191.2 287.3 189.8 C 286.3 190.2 287.3 189.6 284.2 187.9 C 284.1 188.1 284.5 189.1 283.7 188.7 C 282.7 187.9 284.8 186.3 282.0 186.6 C 283.9 188.5 278.4 185.2 280.2 187.0 C 277.4 185.6 279.5 186.4 278.0 184.6 C 277.2 186.1 278.8 183.1 277.4 183.7 C 277.6 183.0 274.4 181.4 276.0 183.6 C 272.7 182.0 275.1 182.4 274.5 181.0 C 273.1 180.0 272.9 183.2 273.2 180.9 C 271.8 178.9 272.5 181.7 272.1 179.5 C 271.9 181.1 270.7 178.6 270.4 180.2 C 267.1 178.3 271.7 179.1 268.9 178.6 C 269.5 179.1 270.4 177.1 268.3 177.4 C 267.5 179.8 267.7 174.4 266.9 177.8 C 262.0 175.7 266.9 176.2 264.5 174.6 C 263.8 174.2 264.6 175.9 264.0 175.6 C 261.1 173.2 264.2 174.2 261.7 174.4 C 258.4 172.8 261.5 172.7 260.1 171.6 C 259.5 172.2 257.6 172.5 258.2 170.9 M 260.6 173.3 C 261.5 173.3 260.7 174.0 260.6 173.3 M 254.8 168.7 C 255.7 168.7 254.9 169.4 254.8 168.7 M 263.4 174.6 C 264.5 174.7 263.2 175.4 263.4 174.6 M 279.6 186.0 C 278.4 185.2 280.3 185.9 279.6 186.0 M 257.3 170.2 C 258.5 170.2 257.1 171.1 257.3 170.2 M 255.5 170.5 C 255.5 170.6 255.5 170.6 255.5 170.5 M 281.9 185.9 C 282.0 186.0 282.0 186.0 281.9 185.9 M 277.5 183.0 C 278.4 183.7 276.8 183.0 277.5 183.0 M 274.4 187.4 C 275.4 188.1 273.7 187.4 274.4 187.4 M 284.4 187.4 C 285.6 187.7 284.4 188.1 284.4 187.4 M 286.3 190.0 C 287.4 190.2 286.5 190.8 286.3 190.0 M 259.0 174.5 C 258.9 174.6 258.9 174.6 259.0 174.5 C 259.0 174.5 259.0 174.5 259.0 174.5 Z M 266.4 180.9 C 265.8 179.8 267.3 182.2 266.4 180.9 M 266.8 177.0 C 266.9 178.3 265.6 176.1 266.8 177.0 C 266.8 177.0 266.8 177.0 266.8 177.0 Z M 265.1 176.5 C 265.1 176.5 265.1 176.5 265.1 176.5 C 265.1 176.5 265.1 176.5 265.1 176.5 Z M 269.7 179.5 C 269.7 179.5 269.7 179.5 269.7 179.5 C 269.7 179.5 269.7 179.5 269.7 179.5 Z M 268.7 179.0 C 268.2 178.9 268.3 178.4 268.7 179.0 C 268.7 179.0 268.7 179.0 268.7 179.0 Z M 273.6 186.2 C 273.0 186.2 273.2 185.7 273.6 186.2 C 273.6 186.2 273.6 186.2 273.6 186.2 Z M 267.1 178.4 C 266.3 179.2 266.8 177.3 267.1 178.4 C 267.1 178.4 267.1 178.4 267.1 178.4 Z M 270.6 183.7 C 271.2 183.8 270.9 185.2 270.6 183.7 M 282.8 186.7 C 283.3 186.7 283.1 188.1 282.8 186.7 M 273.2 180.1 C 273.7 180.1 273.5 181.5 273.2 180.1 M 261.3 173.3 C 261.4 173.4 261.4 173.4 261.3 173.3 M 264.2 180.7 C 265.1 180.8 264.3 181.3 264.2 180.7 M 255.2 174.5 C 256.1 174.6 255.2 175.1 255.2 174.5 M 278.7 190.0 C 278.8 189.8 279.6 190.8 278.7 190.0 M 273.4 182.3 C 274.2 183.0 274.7 184.0 273.0 182.8 C 273.0 182.6 273.6 182.8 273.4 182.3 C 273.4 182.3 273.4 182.3 273.4 182.3 Z M 275.1 186.4 C 275.2 186.6 275.2 186.6 275.1 186.4 M 275.4 182.5 C 275.5 182.6 275.5 182.6 275.4 182.5 M 280.4 185.8 C 280.4 186.0 280.4 186.0 280.4 185.8 M 281.2 185.9 C 281.1 185.9 281.1 185.9 281.2 185.9 C 281.2 185.9 281.2 185.9 281.2 185.9 Z M 286.9 189.1 C 286.9 189.1 286.9 189.1 286.9 189.1 C 286.9 189.1 286.9 189.1 286.9 189.1 Z M 278.7 184.9 C 278.7 184.9 278.7 184.9 278.7 184.9 C 278.7 184.9 278.7 184.9 278.7 184.9 Z M 281.0 191.3 C 281.0 191.3 281.0 191.3 281.0 191.3 C 281.0 191.3 281.0 191.3 281.0 191.3 Z M 280.8 190.3 C 280.8 190.4 280.8 190.4 280.8 190.3 C 280.8 190.3 280.8 190.3 280.8 190.3 Z M 258.7 171.2 C 259.8 171.0 258.0 173.0 258.7 171.2 M 283.2 191.9 C 283.5 193.0 281.8 191.2 283.2 191.9 C 283.2 191.9 283.2 191.9 283.2 191.9 Z M 277.6 185.2 C 277.6 185.4 277.6 185.4 277.6 185.2 M 281.4 186.2 C 281.4 186.4 281.4 186.4 281.4 186.2 M 267.3 176.1 C 267.3 176.3 267.3 176.3 267.3 176.1 M 285.2 188.9 C 287.4 190.6 283.3 189.5 285.2 188.9 M 265.7 176.3 C 265.7 176.2 265.7 176.2 265.7 176.3 M 269.9 181.4 C 271.4 182.4 269.0 181.6 269.9 181.4 M 274.6 182.8 C 274.5 182.8 274.5 182.8 274.6 182.8 C 274.6 182.8 274.6 182.8 274.6 182.8 Z M 272.3 181.3 C 271.0 180.7 272.1 180.9 272.3 181.3 C 272.3 181.3 272.3 181.3 272.3 181.3 Z M 259.2 172.7 C 260.6 173.8 257.5 172.0 259.2 172.7 C 259.2 172.7 259.2 172.7 259.2 172.7 Z M 282.7 190.3 C 282.6 190.3 282.6 190.3 282.7 190.3 C 282.7 190.3 282.7 190.3 282.7 190.3 Z M 278.8 184.0 C 278.0 183.8 278.7 183.6 278.8 184.0 C 278.8 184.0 278.8 184.0 278.8 184.0 Z M 287.7 189.6 C 286.9 189.4 287.6 189.1 287.7 189.6 C 287.7 189.6 287.7 189.6 287.7 189.6 Z M 257.5 171.4 C 262.0 176.4 250.6 166.4 257.5 171.4 C 257.5 171.4 257.5 171.4 257.5 171.4 Z M 273.6 181.3 C 273.5 181.3 273.5 181.3 273.6 181.3 C 273.6 181.3 273.6 181.3 273.6 181.3 Z M 264.0 174.2 C 263.9 174.3 263.9 174.3 264.0 174.2 C 264.0 174.2 264.0 174.2 264.0 174.2 Z M 261.8 174.0 C 261.7 174.0 261.7 174.0 261.8 174.0 C 261.8 174.0 261.8 174.0 261.8 174.0 Z M 259.9 177.9 C 259.9 177.9 259.9 177.9 259.9 177.9 C 259.9 177.9 259.9 177.9 259.9 177.9 Z M 261.6 176.6 C 261.4 176.7 261.4 176.7 261.6 176.6 C 261.6 176.6 261.6 176.6 261.6 176.6 Z M 257.7 175.0 C 257.6 175.0 257.6 175.0 257.7 175.0 C 257.7 175.0 257.7 175.0 257.7 175.0 Z M 257.5 175.5 C 257.4 175.5 257.4 175.5 257.5 175.5 C 257.5 175.5 257.5 175.5 257.5 175.5 Z M 280.8 187.2 C 280.7 187.3 280.7 187.3 280.8 187.2 C 280.8 187.2 280.8 187.2 280.8 187.2 Z M 278.0 187.5 C 279.6 187.8 277.1 188.0 278.0 187.5 C 278.0 187.5 278.0 187.5 278.0 187.5 Z M 267.3 179.6 C 268.6 180.1 266.2 179.6 267.3 179.6 C 267.3 179.6 267.3 179.6 267.3 179.6 Z M 267.3 182.3 C 267.3 182.4 267.3 182.4 267.3 182.3 C 267.3 182.3 267.3 182.3 267.3 182.3 Z M 262.3 173.1 C 262.2 173.2 262.2 173.2 262.3 173.1 C 262.3 173.1 262.3 173.1 262.3 173.1 Z M 259.8 172.4 C 259.2 173.1 259.4 171.6 259.8 172.4 M 270.8 178.8 C 270.7 178.9 270.7 178.9 270.8 178.8 C 270.8 178.8 270.8 178.8 270.8 178.8 Z M 276.8 184.4 C 276.8 184.4 276.8 184.4 276.8 184.4 C 276.8 184.4 276.8 184.4 276.8 184.4 Z M 283.9 188.2 C 283.8 188.3 283.8 188.3 283.9 188.2 C 283.9 188.2 283.9 188.2 283.9 188.2 Z M 275.0 181.6 C 274.9 181.7 274.9 181.7 275.0 181.6 C 275.0 181.6 275.0 181.6 275.0 181.6 Z M 271.3 180.3 C 271.2 180.3 271.2 180.3 271.3 180.3 C 271.3 180.3 271.3 180.3 271.3 180.3 Z M 284.7 190.2 C 284.6 190.3 284.6 190.3 284.7 190.2 C 284.7 190.2 284.7 190.2 284.7 190.2 Z M 275.8 182.0 C 275.7 182.0 275.7 182.0 275.8 182.0 C 275.8 182.0 275.8 182.0 275.8 182.0 Z M 276.2 185.7 C 276.1 185.7 276.1 185.7 276.2 185.7 C 276.2 185.7 276.2 185.7 276.2 185.7 Z M 260.8 171.5 C 260.8 171.5 260.8 171.5 260.8 171.5 C 260.8 171.5 260.8 171.5 260.8 171.5 Z M 285.4 189.3 C 285.3 189.3 285.3 189.3 285.4 189.3 C 285.4 189.3 285.4 189.3 285.4 189.3 Z M 286.2 188.9 C 286.2 188.9 286.2 188.9 286.2 188.9 C 286.2 188.9 286.2 188.9 286.2 188.9 Z M 279.1 189.4 C 277.0 187.4 281.4 190.6 280.2 188.7 C 283.7 190.7 279.6 189.7 279.1 189.4 C 279.1 189.4 279.1 189.4 279.1 189.4 Z M 289.6 190.6 C 287.6 190.8 287.0 191.8 286.9 193.2 C 287.2 194.2 288.5 192.1 287.4 193.8 C 285.7 193.2 286.4 196.9 287.8 194.6 C 290.0 195.6 287.2 196.2 288.9 196.1 C 291.2 197.3 289.7 197.2 291.4 198.1 C 293.1 197.5 292.0 199.3 293.1 198.5 C 291.5 199.2 295.1 199.3 294.8 199.9 C 292.8 199.7 300.4 203.5 296.8 200.6 C 298.7 201.1 297.8 201.9 298.2 202.4 C 299.4 202.1 300.4 204.7 301.9 204.6 C 301.8 204.3 301.3 203.9 301.4 203.6 C 301.4 202.9 302.4 204.4 302.3 204.3 C 303.1 204.4 306.1 205.3 302.6 204.9 C 302.0 205.4 305.0 206.0 304.5 206.5 C 306.9 208.1 305.9 205.7 306.4 207.3 C 308.0 208.4 309.3 209.2 309.4 209.0 C 310.3 209.8 310.1 210.7 311.4 210.6 C 312.6 213.2 314.5 209.0 313.6 212.1 C 314.6 211.8 314.1 213.9 315.0 212.2 C 313.9 212.5 317.8 215.8 316.7 213.4 C 317.4 213.3 318.8 217.1 319.5 215.2 C 321.2 214.7 321.8 213.4 320.4 210.9 C 320.1 212.0 318.8 208.5 319.4 211.1 C 320.8 212.8 315.7 209.6 317.2 209.7 C 318.7 207.9 314.0 209.3 313.8 207.2 C 314.2 208.5 309.8 206.3 311.9 205.6 C 311.2 205.0 310.6 205.6 310.3 204.2 C 312.7 205.9 308.4 205.1 309.1 204.3 C 309.9 204.0 306.5 201.2 306.3 202.3 C 306.3 205.1 305.6 201.3 304.5 201.6 C 302.2 200.7 305.9 200.2 303.5 200.6 C 303.2 200.1 300.5 198.4 302.5 199.1 C 303.0 199.7 299.5 200.2 300.3 198.3 C 303.8 199.3 297.3 195.7 297.9 196.8 C 301.8 200.6 292.6 194.8 296.6 196.2 C 295.2 194.0 297.4 196.2 294.7 195.0 C 294.7 195.7 292.5 195.0 293.6 194.2 C 294.3 192.4 291.6 195.9 291.5 192.8 C 291.9 191.7 288.1 191.6 289.8 191.2 C 289.9 191.1 289.7 190.7 289.6 190.6 M 290.3 191.4 C 289.8 191.5 290.1 190.6 290.3 191.4 M 289.8 191.5 C 289.7 191.5 289.7 191.5 289.8 191.5 C 289.8 191.5 289.8 191.5 289.8 191.5 Z M 294.3 194.8 C 294.3 194.7 294.3 194.7 294.3 194.8 C 294.3 194.8 294.3 194.8 294.3 194.8 Z M 295.5 201.2 C 295.5 201.1 295.5 201.1 295.5 201.2 C 295.5 201.2 295.5 201.2 295.5 201.2 Z M 297.4 196.9 C 297.4 196.9 297.4 196.9 297.4 196.9 C 297.4 196.9 297.4 196.9 297.4 196.9 Z M 292.5 194.0 C 292.4 193.9 292.4 193.9 292.5 194.0 C 292.5 194.0 292.5 194.0 292.5 194.0 Z M 297.5 196.2 C 297.4 196.9 296.7 195.0 297.6 196.1 C 297.7 196.2 297.4 196.0 297.5 196.2 M 301.8 198.6 C 301.8 198.7 301.8 198.7 301.8 198.6 M 307.9 209.1 C 307.9 209.2 307.9 209.2 307.9 209.1 M 311.7 204.9 C 311.7 205.0 311.7 205.0 311.7 204.9 M 305.5 201.8 C 306.8 202.6 305.6 202.3 305.5 201.8 M 314.8 207.4 C 313.4 206.0 316.7 208.1 314.8 207.4 M 316.5 208.0 C 316.6 208.2 316.6 208.2 316.5 208.0 M 309.2 203.6 C 309.2 203.6 309.2 203.6 309.2 203.6 C 309.2 203.6 309.2 203.6 309.2 203.6 Z M 305.1 201.3 C 303.7 199.9 307.2 201.8 305.1 201.3 M 295.3 194.6 C 296.4 194.9 294.8 195.4 295.3 194.6 M 293.2 193.7 C 293.1 193.7 293.1 193.7 293.2 193.7 C 293.2 193.7 293.2 193.7 293.2 193.7 Z M 312.3 205.7 C 312.2 205.7 312.2 205.7 312.3 205.7 C 312.3 205.7 312.3 205.7 312.3 205.7 Z M 314.1 206.8 C 314.1 206.7 314.1 206.7 314.1 206.8 C 314.1 206.8 314.1 206.8 314.1 206.8 Z M 314.4 213.1 C 314.3 213.1 314.3 213.1 314.4 213.1 C 314.4 213.1 314.4 213.1 314.4 213.1 Z M 293.4 196.4 C 292.4 195.4 295.6 195.8 294.6 196.7 C 294.5 197.3 293.6 196.4 293.4 196.4 M 303.1 201.8 C 302.4 203.5 303.2 199.0 303.1 201.8 M 316.1 209.1 C 316.2 211.7 315.4 206.9 316.1 209.1 M 318.8 210.4 C 319.3 211.3 314.1 207.6 318.1 209.6 C 318.7 209.5 318.7 210.1 318.8 210.4 M 301.4 199.3 C 301.2 200.4 299.7 197.7 301.4 199.3 M 307.4 206.7 C 308.3 206.6 310.2 207.1 308.9 207.6 C 308.2 208.7 306.4 206.7 307.4 206.7 M 290.2 192.5 C 292.0 191.8 289.4 193.6 290.2 192.5 M 294.9 195.7 C 294.9 195.6 294.9 195.6 294.9 195.7 C 294.9 195.7 294.9 195.7 294.9 195.7 Z M 296.9 196.7 C 296.9 196.9 296.9 196.9 296.9 196.7 M 291.7 191.8 C 291.7 192.0 291.7 192.0 291.7 191.8 M 308.2 205.3 C 308.3 205.5 308.3 205.5 308.2 205.3 M 304.9 202.0 C 305.9 204.4 303.8 201.6 304.9 202.0 M 298.8 201.6 C 298.9 202.5 297.6 200.9 298.8 201.6 M 308.3 203.4 C 308.8 205.5 305.7 203.4 308.3 203.4 M 304.1 201.2 C 304.2 201.3 304.2 201.3 304.1 201.2 C 304.1 201.2 304.1 201.2 304.1 201.2 Z M 307.8 207.2 C 307.7 207.2 307.7 207.2 307.8 207.2 C 307.8 207.2 307.8 207.2 307.8 207.2 Z M 308.4 207.5 C 308.3 207.5 308.3 207.5 308.4 207.5 C 308.4 207.5 308.4 207.5 308.4 207.5 Z M 310.0 204.3 C 309.9 204.3 309.9 204.3 310.0 204.3 C 310.0 204.3 310.0 204.3 310.0 204.3 Z M 290.9 197.1 C 292.1 198.0 289.7 196.6 290.9 197.1 C 290.9 197.1 290.9 197.1 290.9 197.1 Z M 299.0 197.1 C 300.5 199.5 296.9 197.1 299.0 197.1 C 299.0 197.1 299.0 197.1 299.0 197.1 Z M 300.4 200.4 C 300.4 200.4 300.4 200.4 300.4 200.4 C 300.4 200.4 300.4 200.4 300.4 200.4 Z M 307.9 202.1 C 307.9 202.2 307.9 202.2 307.9 202.1 C 307.9 202.1 307.9 202.1 307.9 202.1 Z M 291.4 197.6 C 291.4 197.7 291.4 197.7 291.4 197.6 C 291.4 197.6 291.4 197.6 291.4 197.6 Z M 313.3 207.4 C 313.2 207.4 313.2 207.4 313.3 207.4 C 313.3 207.4 313.3 207.4 313.3 207.4 Z M 304.1 205.1 C 304.9 204.9 304.0 205.5 304.1 205.1 C 304.1 205.1 304.1 205.1 304.1 205.1 Z M 306.1 206.3 C 306.1 206.4 306.1 206.4 306.1 206.3 C 306.1 206.3 306.1 206.3 306.1 206.3 Z M 317.1 208.2 C 317.2 208.3 317.2 208.3 317.1 208.2 C 317.1 208.2 317.1 208.2 317.1 208.2 Z M 310.3 210.7 C 310.4 210.8 310.4 210.8 310.3 210.7 C 310.3 210.7 310.3 210.7 310.3 210.7 Z M 312.9 210.3 C 312.8 210.3 312.8 210.3 312.9 210.3 C 312.9 210.3 312.9 210.3 312.9 210.3 Z M 309.4 204.4 C 311.6 205.4 308.6 204.6 309.4 204.4 C 309.4 204.4 309.4 204.4 309.4 204.4 Z M 318.0 213.0 C 318.0 213.2 318.0 213.2 318.0 213.0 C 318.0 213.0 318.0 213.0 318.0 213.0 Z M 320.1 212.0 C 320.1 212.1 320.1 212.1 320.1 212.0 C 320.1 212.0 320.1 212.0 320.1 212.0 Z M 321.1 211.4 C 321.1 211.5 321.1 211.5 321.1 211.4 C 321.1 211.4 321.1 211.4 321.1 211.4 Z M 295.7 198.5 C 295.7 198.4 295.7 198.4 295.7 198.5 C 295.7 198.5 295.7 198.5 295.7 198.5 Z M 296.7 195.2 C 296.7 195.2 296.7 195.2 296.7 195.2 C 296.7 195.2 296.7 195.2 296.7 195.2 Z M 299.5 196.8 C 299.4 196.8 299.4 196.8 299.5 196.8 C 299.5 196.8 299.5 196.8 299.5 196.8 Z M 294.2 199.9 C 294.1 199.8 294.1 199.8 294.2 199.9 C 294.2 199.9 294.2 199.9 294.2 199.9 Z M 305.6 203.9 C 305.6 203.8 305.6 203.8 305.6 203.9 C 305.6 203.9 305.6 203.9 305.6 203.9 Z M 305.8 205.6 C 305.8 205.6 305.8 205.6 305.8 205.6 C 305.8 205.6 305.8 205.6 305.8 205.6 Z M 302.6 205.6 C 302.6 205.6 302.6 205.6 302.6 205.6 C 302.6 205.6 302.6 205.6 302.6 205.6 Z M 305.9 207.1 C 305.9 207.0 305.9 207.0 305.9 207.1 C 305.9 207.1 305.9 207.1 305.9 207.1 Z M 287.8 195.1 C 287.8 195.1 287.8 195.1 287.8 195.1 C 287.8 195.1 287.8 195.1 287.8 195.1 Z M 289.0 192.8 C 288.9 192.8 288.9 192.8 289.0 192.8 C 289.0 192.8 289.0 192.8 289.0 192.8 Z M 306.9 202.6 C 307.6 202.4 307.4 203.8 306.9 202.6 M 302.9 200.4 C 302.9 200.4 302.9 200.4 302.9 200.4 C 302.9 200.4 302.9 200.4 302.9 200.4 Z M 313.2 206.8 C 313.2 207.9 311.7 205.2 313.2 206.8 C 313.2 206.8 313.2 206.8 313.2 206.8 Z M 308.9 209.0 C 309.0 209.0 309.0 209.0 308.9 209.0 C 308.9 209.0 308.9 209.0 308.9 209.0 Z M 310.2 209.3 C 310.2 209.4 310.2 209.4 310.2 209.3 C 310.2 209.3 310.2 209.3 310.2 209.3 Z M 317.1 210.5 C 317.1 210.7 317.1 210.7 317.1 210.5 M 302.9 199.3 C 303.3 200.1 303.2 199.9 302.9 199.3 M 314.5 207.6 C 314.4 207.6 314.4 207.6 314.5 207.6 C 314.5 207.6 314.5 207.6 314.5 207.6 Z M 318.6 210.8 C 318.5 210.8 318.5 210.8 318.6 210.8 C 318.6 210.8 318.6 210.8 318.6 210.8 Z M 299.9 198.2 C 299.3 199.3 299.0 198.7 299.9 198.2 M 292.1 193.6 C 292.1 193.7 292.1 193.7 292.1 193.6 C 292.1 193.6 292.1 193.6 292.1 193.6 Z M 325.1 214.0 C 323.8 211.5 322.7 213.1 322.7 213.2 C 324.3 211.2 320.3 212.8 320.5 213.5 C 320.2 213.8 319.4 218.5 322.3 217.2 C 322.9 217.1 322.7 218.0 322.9 218.2 C 325.5 219.7 321.9 215.9 325.0 217.9 C 325.3 218.5 323.6 219.9 326.2 219.8 C 326.1 220.1 327.8 222.1 327.5 220.7 C 328.0 222.2 329.2 221.6 330.3 222.0 C 330.8 223.0 328.7 222.8 332.3 223.8 C 332.6 226.1 334.8 223.8 334.9 226.1 C 335.6 226.7 338.4 224.7 335.7 225.1 C 336.1 225.1 335.8 223.2 337.9 225.1 C 337.3 225.2 334.3 227.1 338.8 228.2 C 339.3 228.6 341.2 228.8 341.3 229.3 C 339.2 228.4 343.1 232.2 343.2 231.1 C 345.8 233.5 344.9 231.2 346.4 233.5 C 348.1 234.6 346.6 231.9 348.3 234.0 C 350.0 234.9 348.5 234.9 348.3 234.7 C 349.7 235.8 350.5 235.6 351.0 236.0 C 351.2 236.3 351.5 237.3 352.3 236.8 C 354.5 236.5 354.0 234.4 355.4 233.6 C 354.7 232.3 354.3 234.3 354.2 232.9 C 353.1 233.3 354.1 232.7 351.1 231.0 C 351.0 231.2 351.4 232.2 350.6 231.8 C 349.5 231.0 351.7 229.4 348.8 229.7 C 350.8 231.6 345.2 228.3 347.0 230.1 C 344.3 228.7 346.4 229.5 344.8 227.7 C 344.0 229.2 345.7 226.1 344.2 226.8 C 344.4 226.1 341.3 224.5 342.9 226.7 C 339.6 225.1 342.0 225.5 341.4 224.1 C 340.0 223.1 339.8 226.3 340.0 224.0 C 338.7 222.0 339.4 224.8 338.9 222.6 C 338.8 224.2 337.6 221.7 337.2 223.3 C 334.0 221.4 338.5 222.2 335.7 221.7 C 336.4 222.2 337.2 220.2 335.1 220.5 C 334.4 222.9 334.5 217.5 333.8 220.9 C 328.8 218.8 333.8 219.3 331.3 217.7 C 330.7 217.3 331.4 219.0 330.9 218.7 C 328.0 216.3 331.0 217.3 328.5 217.5 C 325.2 215.9 328.4 215.8 326.9 214.7 C 326.4 215.3 324.5 215.6 325.1 214.0 M 327.4 216.4 C 328.3 216.4 327.5 217.1 327.4 216.4 M 321.6 211.8 C 322.5 211.8 321.7 212.5 321.6 211.8 M 330.2 217.7 C 331.4 217.8 330.0 218.5 330.2 217.7 M 346.4 229.1 C 345.3 228.3 347.2 229.0 346.4 229.1 M 324.2 213.3 C 325.4 213.3 323.9 214.2 324.2 213.3 M 322.3 213.6 C 322.4 213.7 322.4 213.7 322.3 213.6 M 348.8 229.0 C 348.9 229.1 348.9 229.1 348.8 229.0 M 344.4 226.1 C 345.3 226.7 343.7 226.1 344.4 226.1 M 341.3 230.5 C 342.2 231.2 340.6 230.4 341.3 230.5 M 351.3 230.5 C 352.5 230.8 351.2 231.2 351.3 230.5 M 353.1 233.1 C 354.2 233.3 353.4 233.9 353.1 233.1 M 325.8 217.6 C 325.8 217.7 325.8 217.7 325.8 217.6 C 325.8 217.6 325.8 217.6 325.8 217.6 Z M 333.3 224.0 C 332.6 222.9 334.1 225.3 333.3 224.0 M 333.7 220.1 C 333.8 221.4 332.5 219.2 333.7 220.1 C 333.7 220.1 333.7 220.1 333.7 220.1 Z M 332.0 219.6 C 331.9 219.6 331.9 219.6 332.0 219.6 C 332.0 219.6 332.0 219.6 332.0 219.6 Z M 336.6 222.6 C 336.5 222.6 336.5 222.6 336.6 222.6 C 336.6 222.6 336.6 222.6 336.6 222.6 Z M 335.6 222.1 C 335.1 222.0 335.2 221.5 335.6 222.1 C 335.6 222.1 335.6 222.1 335.6 222.1 Z M 340.4 229.3 C 339.9 229.3 340.0 228.8 340.4 229.3 C 340.4 229.3 340.4 229.3 340.4 229.3 Z M 333.9 221.5 C 333.2 222.3 333.7 220.4 333.9 221.5 C 333.9 221.5 333.9 221.5 333.9 221.5 Z M 337.5 226.8 C 338.0 226.9 337.8 228.3 337.5 226.8 M 349.6 229.8 C 350.2 229.8 349.9 231.2 349.6 229.8 M 340.0 223.2 C 340.6 223.2 340.3 224.6 340.0 223.2 M 328.2 216.4 C 328.2 216.5 328.2 216.5 328.2 216.4 M 331.1 223.8 C 331.9 223.9 331.1 224.4 331.1 223.8 M 322.1 217.6 C 322.9 217.7 322.1 218.2 322.1 217.6 M 345.5 233.1 C 345.6 232.9 346.4 233.9 345.5 233.1 M 340.2 225.4 C 341.0 226.1 341.6 227.1 339.8 225.9 C 339.9 225.7 340.5 225.9 340.2 225.4 C 340.2 225.4 340.2 225.4 340.2 225.4 Z M 342.0 229.5 C 342.0 229.7 342.0 229.7 342.0 229.5 M 342.3 225.6 C 342.4 225.7 342.4 225.7 342.3 225.6 M 347.2 228.9 C 347.3 229.1 347.3 229.1 347.2 228.9 M 348.0 229.0 C 348.0 229.0 348.0 229.0 348.0 229.0 C 348.0 229.0 348.0 229.0 348.0 229.0 Z M 353.8 232.2 C 353.7 232.2 353.7 232.2 353.8 232.2 C 353.8 232.2 353.8 232.2 353.8 232.2 Z M 345.6 228.0 C 345.5 228.0 345.5 228.0 345.6 228.0 C 345.6 228.0 345.6 228.0 345.6 228.0 Z M 347.8 234.4 C 347.8 234.4 347.8 234.4 347.8 234.4 C 347.8 234.4 347.8 234.4 347.8 234.4 Z M 347.6 233.4 C 347.6 233.5 347.6 233.5 347.6 233.4 C 347.6 233.4 347.6 233.4 347.6 233.4 Z M 325.5 214.3 C 326.7 214.1 324.9 216.1 325.5 214.3 M 350.1 235.0 C 350.4 236.1 348.7 234.3 350.1 235.0 C 350.1 235.0 350.1 235.0 350.1 235.0 Z M 344.5 228.3 C 344.5 228.5 344.5 228.5 344.5 228.3 M 348.3 229.3 C 348.3 229.5 348.3 229.5 348.3 229.3 M 334.2 219.2 C 334.2 219.4 334.2 219.4 334.2 219.2 M 352.0 232.0 C 354.2 233.7 350.1 232.6 352.0 232.0 M 332.6 219.4 C 332.6 219.3 332.6 219.3 332.6 219.4 M 336.7 224.5 C 338.3 225.5 335.8 224.7 336.7 224.5 M 341.4 225.9 C 341.4 225.9 341.4 225.9 341.4 225.9 C 341.4 225.9 341.4 225.9 341.4 225.9 Z M 339.1 224.4 C 337.9 223.8 339.0 224.0 339.1 224.4 C 339.1 224.4 339.1 224.4 339.1 224.4 Z M 326.1 215.8 C 327.5 216.9 324.4 215.1 326.1 215.8 C 326.1 215.8 326.1 215.8 326.1 215.8 Z M 349.6 233.4 C 349.5 233.4 349.5 233.4 349.6 233.4 C 349.6 233.4 349.6 233.4 349.6 233.4 Z M 345.7 227.1 C 344.9 226.9 345.6 226.7 345.7 227.1 C 345.7 227.1 345.7 227.1 345.7 227.1 Z M 354.6 232.7 C 353.7 232.5 354.4 232.2 354.6 232.7 C 354.6 232.7 354.6 232.7 354.6 232.7 Z M 324.4 214.5 C 328.8 219.5 317.4 209.5 324.4 214.5 C 324.4 214.5 324.4 214.5 324.4 214.5 Z M 340.4 224.4 C 340.4 224.4 340.4 224.4 340.4 224.4 C 340.4 224.4 340.4 224.4 340.4 224.4 Z M 330.9 217.3 C 330.8 217.4 330.8 217.4 330.9 217.3 C 330.9 217.3 330.9 217.3 330.9 217.3 Z M 328.6 217.1 C 328.6 217.1 328.6 217.1 328.6 217.1 C 328.6 217.1 328.6 217.1 328.6 217.1 Z M 326.8 221.0 C 326.7 221.0 326.7 221.0 326.8 221.0 C 326.8 221.0 326.8 221.0 326.8 221.0 Z M 328.4 219.7 C 328.3 219.8 328.3 219.8 328.4 219.7 C 328.4 219.7 328.4 219.7 328.4 219.7 Z M 324.6 218.1 C 324.5 218.1 324.5 218.1 324.6 218.1 C 324.6 218.1 324.6 218.1 324.6 218.1 Z M 324.3 218.6 C 324.3 218.6 324.3 218.6 324.3 218.6 C 324.3 218.6 324.3 218.6 324.3 218.6 Z M 347.7 230.3 C 347.6 230.4 347.6 230.4 347.7 230.3 C 347.7 230.3 347.7 230.3 347.7 230.3 Z M 344.8 230.6 C 346.4 230.9 343.9 231.1 344.8 230.6 C 344.8 230.6 344.8 230.6 344.8 230.6 Z M 334.1 222.7 C 335.4 223.2 333.1 222.6 334.1 222.7 C 334.1 222.7 334.1 222.7 334.1 222.7 Z M 334.1 225.4 C 334.1 225.5 334.1 225.5 334.1 225.4 C 334.1 225.4 334.1 225.4 334.1 225.4 Z M 329.2 216.2 C 329.1 216.3 329.1 216.3 329.2 216.2 C 329.2 216.2 329.2 216.2 329.2 216.2 Z M 326.7 215.5 C 326.1 216.2 326.3 214.7 326.7 215.5 M 337.7 221.9 C 337.6 222.0 337.6 222.0 337.7 221.9 C 337.7 221.9 337.7 221.9 337.7 221.9 Z M 343.7 227.5 C 343.6 227.5 343.6 227.5 343.7 227.5 C 343.7 227.5 343.7 227.5 343.7 227.5 Z M 350.7 231.3 C 350.6 231.4 350.6 231.4 350.7 231.3 C 350.7 231.3 350.7 231.3 350.7 231.3 Z M 341.8 224.7 C 341.7 224.8 341.7 224.8 341.8 224.7 C 341.8 224.7 341.8 224.7 341.8 224.7 Z M 338.2 223.4 C 338.1 223.4 338.1 223.4 338.2 223.4 C 338.2 223.4 338.2 223.4 338.2 223.4 Z M 351.5 233.3 C 351.4 233.3 351.4 233.3 351.5 233.3 C 351.5 233.3 351.5 233.3 351.5 233.3 Z M 342.6 225.1 C 342.6 225.1 342.6 225.1 342.6 225.1 C 342.6 225.1 342.6 225.1 342.6 225.1 Z M 343.0 228.8 C 342.9 228.8 342.9 228.8 343.0 228.8 C 343.0 228.8 343.0 228.8 343.0 228.8 Z M 327.7 214.6 C 327.6 214.6 327.6 214.6 327.7 214.6 C 327.7 214.6 327.7 214.6 327.7 214.6 Z M 352.2 232.4 C 352.2 232.4 352.2 232.4 352.2 232.4 C 352.2 232.4 352.2 232.4 352.2 232.4 Z M 353.1 232.0 C 353.0 232.0 353.0 232.0 353.1 232.0 C 353.1 232.0 353.1 232.0 353.1 232.0 Z M 346.0 232.5 C 343.9 230.5 348.2 233.7 347.0 231.8 C 350.6 233.7 346.5 232.8 346.0 232.5 C 346.0 232.5 346.0 232.5 346.0 232.5 Z M 346.0 232.5 " fill="#FFF8FB"></path><path d="M 354.0 251.2 C 353.6 251.6 352.0 251.2 353.5 250.9 C 353.6 250.9 354.2 251.1 354.0 251.2 Z M 356.8 251.3 C 356.6 251.4 356.4 251.3 356.3 251.2 C 356.0 250.7 357.5 251.4 356.8 251.3 Z M 352.7 250.6 C 352.7 250.7 351.8 250.7 351.9 250.5 C 352.1 250.4 352.8 250.6 352.7 250.6 Z M 359.3 250.3 C 359.3 250.6 358.4 250.5 358.2 250.4 C 357.8 250.1 359.4 249.9 359.3 250.3 Z M 356.0 243.4 C 356.1 243.3 356.1 243.3 356.1 243.2 C 356.1 243.3 356.1 243.3 356.0 243.4 Z M 372.3 251.4 C 372.1 251.4 371.8 251.2 371.9 251.0 C 372.0 250.7 372.8 251.3 372.3 251.4 Z M 364.2 229.9 C 364.2 229.9 363.8 230.1 363.8 229.9 C 363.8 229.7 364.1 229.7 364.2 229.9 Z M 363.9 229.7 C 363.7 229.7 363.8 229.3 364.0 229.5 C 364.1 229.7 364.1 229.8 363.9 229.7 Z M 372.9 239.5 C 372.9 239.5 373.0 239.6 372.9 239.6 C 372.8 239.5 372.8 239.3 372.9 239.5 Z M 372.4 239.2 C 372.2 239.2 372.4 238.8 372.5 239.0 C 372.6 239.2 372.7 239.3 372.4 239.2 Z M 372.3 236.2 C 372.4 236.3 372.4 236.3 372.3 236.3 C 372.2 236.3 372.2 236.0 372.3 236.2 Z M 360.1 235.0 C 360.1 234.8 360.5 234.5 360.6 234.6 C 360.8 234.8 360.1 235.2 360.1 235.0 Z M 360.3 234.4 C 360.2 234.3 360.3 234.0 360.4 234.2 C 360.5 234.3 360.5 234.4 360.3 234.4 Z M 359.6 236.2 C 359.8 236.4 359.5 236.9 359.4 236.9 C 359.3 237.0 359.1 237.2 358.9 237.3 C 358.8 237.3 359.3 236.1 359.6 236.2 Z M 357.5 239.9 C 357.4 239.9 357.4 239.8 357.6 239.7 C 357.8 239.6 357.6 240.0 357.5 239.9 Z M 358.7 237.8 C 358.6 237.8 358.6 237.7 358.8 237.6 C 358.9 237.5 358.8 237.9 358.7 237.8 Z M 364.6 251.1 C 364.6 251.3 363.9 251.1 363.9 251.1 C 363.8 251.0 364.1 251.0 363.9 251.0 C 363.7 250.9 364.2 250.4 364.6 251.1 Z M 358.4 251.3 C 358.2 251.3 358.2 251.2 358.2 251.1 C 358.2 251.0 358.8 251.2 358.4 251.3 Z M 363.7 250.2 C 363.7 250.3 363.5 250.3 363.5 250.2 C 363.5 250.2 363.7 250.2 363.7 250.2 Z M 364.1 250.1 C 364.0 250.2 363.7 249.9 363.7 249.7 C 363.9 249.5 364.7 250.1 364.1 250.1 Z M 365.4 251.4 C 365.2 251.4 365.2 251.4 365.3 251.3 C 365.4 251.2 365.4 251.4 365.4 251.4 Z M 361.8 251.6 C 361.6 251.6 361.6 251.6 361.7 251.5 C 361.8 251.4 361.8 251.6 361.8 251.6 Z M 367.1 251.0 C 367.1 251.0 366.6 251.3 366.5 250.9 C 366.4 250.3 367.1 251.0 367.1 251.0 Z M 369.6 250.6 C 369.4 250.5 369.5 250.4 369.7 250.4 C 369.8 250.5 369.8 250.6 369.6 250.6 Z M 370.6 249.8 C 370.8 249.9 371.0 250.1 370.6 250.0 C 370.2 250.0 370.3 249.6 370.6 249.8 Z M 370.1 249.9 C 370.1 249.9 370.2 249.9 370.2 250.0 C 370.3 250.1 370.1 250.0 370.1 249.9 Z M 367.9 250.5 C 367.7 250.6 367.5 250.3 367.8 250.3 C 368.1 250.2 368.1 250.3 367.9 250.5 Z M 353.9 244.6 C 353.9 244.8 353.7 244.6 353.7 244.5 C 353.6 244.4 353.9 244.5 353.9 244.6 Z M 359.7 237.5 C 359.5 237.5 359.5 237.4 359.7 237.3 C 359.9 237.1 359.8 237.5 359.7 237.5 Z M 363.2 232.9 C 363.0 232.9 363.0 232.8 363.2 232.7 C 363.4 232.5 363.4 232.9 363.2 232.9 Z M 358.4 239.4 C 358.3 239.4 358.2 238.7 358.8 238.6 C 359.3 238.6 358.8 239.5 358.4 239.4 Z M 359.2 246.7 C 359.2 246.8 359.1 246.7 359.1 246.7 C 359.2 246.5 359.2 246.5 359.2 246.7 Z M 359.7 238.7 C 359.7 238.9 359.5 238.7 359.4 238.6 C 359.4 238.4 359.7 238.5 359.7 238.7 Z M 362.3 233.6 C 362.1 233.7 361.9 233.4 361.9 233.2 C 361.8 232.6 362.4 232.6 362.8 232.4 C 363.1 232.3 362.5 233.5 362.3 233.6 Z M 353.9 246.3 C 354.0 246.2 354.1 246.1 354.2 246.0 C 354.1 245.9 354.2 245.9 354.4 245.8 C 354.6 245.3 354.4 244.7 354.4 244.3 C 354.6 243.5 355.7 243.8 356.0 243.4 C 356.0 243.5 355.9 243.6 355.9 243.7 C 356.1 244.1 357.1 242.3 357.1 242.2 C 357.8 240.6 356.5 242.2 356.0 241.9 C 355.7 241.7 356.9 241.1 357.0 241.1 C 357.5 240.7 357.1 240.4 357.5 240.1 C 357.7 240.0 359.2 240.1 359.1 239.9 C 359.1 239.6 359.5 239.3 359.6 239.1 C 359.8 238.8 360.1 238.3 359.5 238.3 C 359.1 238.3 358.8 238.2 359.3 238.0 C 359.6 237.9 361.4 236.6 360.5 236.2 C 360.5 236.2 360.0 236.4 360.0 236.4 C 360.1 235.8 361.3 234.5 361.2 234.0 C 360.9 232.7 361.5 234.5 361.9 234.3 C 362.7 233.8 363.2 233.6 363.6 232.7 C 363.7 232.5 364.2 231.7 363.5 231.8 C 363.0 231.9 363.0 231.5 362.6 232.0 C 362.5 231.2 363.5 231.3 363.4 231.1 C 363.3 230.8 363.0 231.0 363.2 230.7 C 363.6 230.2 363.4 230.3 363.8 230.5 C 364.0 230.6 364.3 230.2 364.3 230.2 C 364.4 230.2 364.4 230.3 364.4 230.3 C 364.7 229.9 364.3 228.8 364.5 228.8 C 364.7 228.8 365.1 229.3 365.3 229.4 C 365.3 229.4 365.3 229.4 365.4 229.4 C 365.4 229.1 365.4 228.5 365.5 228.5 C 365.6 228.5 366.1 229.3 366.0 228.9 C 365.9 228.6 366.8 227.9 367.0 228.0 C 367.3 228.1 368.4 228.5 368.5 228.4 C 368.7 228.3 369.0 228.9 369.1 229.0 C 369.2 229.2 369.0 229.7 369.0 229.8 C 369.0 229.9 369.3 230.3 369.3 230.3 C 369.3 230.3 369.5 230.4 369.7 230.7 C 369.9 231.1 369.8 231.4 369.9 231.9 C 370.0 232.4 370.3 232.5 370.6 232.9 C 370.8 233.2 370.4 233.9 370.4 234.3 C 370.5 234.7 371.1 234.5 371.3 234.9 C 371.6 235.3 371.6 235.6 371.4 235.5 C 371.3 235.4 371.2 235.6 371.3 235.8 C 371.3 235.9 371.4 236.5 371.6 236.6 C 371.8 236.8 371.6 235.2 372.3 236.9 C 372.7 237.8 372.5 238.6 372.4 238.4 C 372.0 237.9 371.8 239.5 372.1 239.4 C 372.4 239.3 373.0 240.8 373.3 240.2 C 373.4 240.0 374.3 241.4 374.3 241.6 C 374.3 241.8 374.8 242.4 374.4 242.9 C 374.2 243.1 375.2 243.6 375.3 243.8 C 375.4 243.9 375.9 245.1 375.9 245.4 C 375.9 245.7 375.6 245.2 375.5 244.9 C 375.4 244.6 375.4 244.2 375.3 244.0 C 375.1 243.8 375.1 244.4 375.2 244.7 C 375.3 245.0 375.1 245.1 375.2 245.4 C 375.3 245.5 375.3 245.7 375.4 246.0 C 375.5 246.0 375.6 246.1 375.7 246.1 C 375.8 246.0 375.8 245.8 375.9 245.8 C 376.0 245.8 376.2 245.9 376.4 246.3 C 376.5 246.6 376.6 246.9 376.7 247.5 C 376.8 248.0 377.0 248.0 377.2 248.3 C 377.4 248.6 377.5 248.9 377.4 249.0 C 377.3 249.1 377.1 248.7 376.9 248.7 C 376.8 248.7 376.8 249.3 376.9 249.5 C 377.2 250.4 376.1 250.1 376.5 251.0 C 376.6 251.5 376.1 251.1 375.7 250.9 C 375.7 251.0 375.7 251.1 375.2 251.2 C 375.2 251.3 374.6 251.1 374.3 251.2 C 374.1 251.2 372.9 251.4 373.7 251.1 C 373.7 251.0 373.8 251.0 373.8 251.0 C 373.8 251.0 373.8 251.0 373.8 251.0 C 373.8 251.0 374.2 250.5 374.2 250.5 C 374.2 250.5 373.8 251.0 373.8 251.0 C 373.7 250.8 373.6 250.6 373.5 250.5 C 373.4 250.5 373.3 250.6 373.3 250.6 C 373.3 250.6 373.3 250.6 373.2 250.6 C 373.2 250.7 373.2 250.7 373.2 250.7 C 373.3 250.9 373.2 250.8 373.0 250.8 C 372.6 251.0 371.6 250.6 371.2 250.5 C 372.3 249.5 370.5 249.5 369.8 249.6 C 369.2 249.7 369.2 250.9 369.5 250.9 C 369.0 250.9 369.0 250.8 368.9 250.4 C 368.9 250.4 368.4 249.6 368.4 249.7 C 367.4 249.2 367.6 250.3 367.3 250.4 C 367.0 250.5 366.7 250.5 366.4 250.6 C 366.0 250.6 366.3 250.8 366.2 251.0 C 365.8 251.5 365.1 250.5 364.8 250.4 C 365.0 250.4 365.4 250.3 365.6 250.1 C 365.2 250.4 365.0 249.8 364.9 249.7 C 364.6 249.6 364.1 249.6 363.8 249.6 C 363.2 249.6 362.6 249.7 362.0 249.8 C 362.2 249.9 363.0 250.6 363.1 250.6 C 362.9 250.6 362.4 250.4 362.6 250.9 C 362.9 251.7 361.4 251.2 361.2 251.2 C 360.4 251.1 359.5 251.8 358.8 250.9 C 358.8 250.9 360.0 250.8 359.9 250.7 C 359.7 250.0 359.4 249.6 358.6 249.7 C 358.4 249.8 357.3 250.2 357.3 250.3 C 357.3 250.2 358.4 251.8 357.4 251.3 C 357.2 251.2 357.6 250.9 357.4 250.8 C 357.0 250.6 356.5 250.7 356.2 250.7 C 356.1 250.7 355.5 250.4 355.4 250.5 C 355.3 250.7 355.3 251.0 355.0 251.1 C 354.8 251.2 354.5 251.0 354.5 250.8 C 354.5 250.7 354.5 250.7 354.5 250.7 C 354.5 250.7 354.4 250.6 354.4 250.5 C 354.3 250.5 354.2 250.5 354.0 250.3 C 354.0 250.3 354.3 250.2 354.5 250.3 C 354.5 250.3 354.5 250.2 354.5 250.1 C 354.2 250.1 353.9 250.2 353.8 250.2 C 353.3 250.5 353.3 250.8 352.5 250.1 C 351.9 249.6 352.5 247.7 353.3 246.9 C 353.4 246.7 353.6 246.5 353.9 246.3 Z M 375.4 246.7 C 375.4 246.6 375.4 246.6 375.4 246.6 C 375.3 246.6 375.1 246.7 375.0 246.7 C 375.1 247.0 375.2 246.6 375.3 246.9 C 375.4 247.2 375.5 247.1 375.4 246.7 Z M 373.8 248.7 C 374.0 248.9 374.0 248.8 374.0 248.7 C 373.9 248.7 373.9 248.7 373.8 248.7 Z M 373.7 249.9 C 374.1 249.9 373.5 249.4 372.9 249.5 C 373.3 249.8 373.5 249.9 373.7 249.9 Z M 372.8 250.4 C 372.8 250.4 372.8 250.3 372.8 250.2 C 372.9 250.1 372.5 250.3 372.5 250.1 C 372.6 250.0 373.0 249.8 372.7 249.7 C 372.7 249.7 372.6 249.7 372.5 249.6 C 372.5 249.7 372.4 249.7 372.4 249.7 C 372.2 249.9 372.5 250.4 372.8 250.4 Z M 373.9 245.5 C 374.0 245.6 374.0 245.5 373.9 245.4 C 373.8 245.3 373.7 245.4 373.9 245.5 Z M 373.8 243.1 C 373.8 243.3 373.9 243.5 374.0 243.2 C 374.1 243.0 373.9 242.8 373.8 243.1 Z M 369.8 244.1 C 370.0 244.1 369.9 244.0 369.8 243.9 C 369.7 243.8 369.7 244.0 369.8 244.1 Z M 368.6 245.8 C 368.4 245.8 368.5 246.1 368.6 246.0 C 368.7 245.9 368.7 245.7 368.6 245.8 Z M 371.4 241.8 C 371.3 241.7 371.2 241.9 371.4 241.9 C 371.5 242.0 371.6 241.9 371.4 241.8 Z M 370.3 244.5 C 370.2 244.2 370.2 244.2 370.1 244.3 C 370.0 244.3 369.9 244.4 370.0 244.6 C 370.2 244.8 370.3 244.8 370.3 244.5 Z M 369.4 246.1 C 368.8 246.1 368.8 246.3 369.5 246.2 C 370.2 246.2 369.8 246.1 369.4 246.1 Z M 373.7 241.3 C 373.7 241.3 373.9 241.6 373.9 241.6 C 373.9 241.6 373.7 240.8 373.7 241.3 Z M 366.7 250.1 C 366.9 250.1 367.0 249.9 366.7 249.8 C 366.4 249.8 366.4 250.0 366.7 250.1 Z M 366.2 248.8 C 366.4 249.3 366.8 249.4 366.8 249.4 C 366.8 249.3 366.9 249.0 367.1 248.9 C 367.4 248.8 367.9 249.3 368.3 249.0 C 368.7 248.7 367.9 248.6 367.7 248.6 C 367.8 248.6 367.9 248.5 367.9 248.4 C 367.8 248.2 367.7 248.2 367.6 248.3 C 367.4 248.4 366.0 248.2 366.2 248.8 Z M 369.0 244.5 C 369.2 244.7 369.4 244.7 369.4 244.4 C 369.4 244.1 369.3 243.9 369.2 243.9 C 369.1 243.9 368.9 244.3 369.0 244.5 Z M 369.7 243.1 C 370.0 243.1 369.9 243.0 369.8 242.9 C 369.6 242.6 369.5 243.0 369.7 243.1 Z M 370.9 235.8 C 370.7 235.7 370.9 236.1 371.0 236.0 C 371.1 235.9 371.0 235.8 370.9 235.8 Z M 369.6 238.1 C 369.2 237.8 369.3 238.3 369.4 238.3 C 369.5 238.4 369.7 238.2 369.6 238.1 Z M 370.0 240.2 C 369.9 240.1 369.9 240.4 370.0 240.4 C 370.1 240.5 370.1 240.3 370.0 240.2 Z M 369.6 241.2 C 369.5 241.0 369.4 241.3 369.6 241.4 C 369.7 241.5 369.7 241.4 369.6 241.2 Z M 364.3 248.0 C 364.3 248.0 364.4 247.6 364.0 247.8 C 363.7 248.0 363.7 248.0 364.3 248.0 Z M 366.5 245.8 C 366.9 245.8 367.2 245.7 367.4 244.9 C 367.6 244.0 367.3 244.2 366.9 244.5 C 366.5 244.9 367.0 243.5 366.2 244.2 C 365.9 244.5 366.2 245.9 366.5 245.8 Z M 368.2 240.4 C 368.2 241.0 368.9 241.3 368.7 240.8 C 368.5 240.2 368.3 239.9 368.2 240.4 Z M 368.4 240.1 C 368.5 240.2 368.5 240.1 368.4 239.9 C 368.3 239.8 368.3 240.0 368.4 240.1 Z M 361.9 251.0 C 363.0 250.8 361.8 250.1 361.8 250.1 C 360.7 249.7 360.8 251.2 361.9 251.0 Z M 364.6 230.9 C 364.5 230.9 364.5 231.0 364.5 231.0 C 364.5 231.0 364.5 231.0 364.5 231.1 C 364.5 231.3 364.9 231.0 364.9 231.0 C 364.8 230.9 364.7 230.9 364.6 230.9 Z M 361.4 235.4 C 361.5 235.2 361.6 235.1 361.5 234.9 C 361.1 234.7 360.2 236.1 361.2 236.0 C 361.4 236.0 362.6 235.5 362.3 235.2 C 362.1 235.0 361.1 235.9 361.4 235.4 Z M 362.9 234.3 C 362.5 234.9 363.7 234.2 363.4 234.2 C 363.2 234.1 363.0 234.2 362.9 234.3 Z M 366.8 231.1 C 367.0 230.1 365.8 229.6 365.6 231.1 C 365.5 232.6 365.9 233.0 366.1 232.3 C 366.3 231.6 366.6 232.4 366.8 231.1 Z M 362.9 237.1 C 362.2 236.4 362.2 236.9 362.7 237.5 C 362.8 237.6 363.4 237.5 362.9 237.1 Z M 362.0 238.8 C 361.7 239.0 361.8 239.0 362.0 239.0 C 362.3 238.9 362.2 238.7 362.0 238.8 Z M 368.7 230.6 C 368.7 230.2 368.6 229.8 368.8 229.9 C 368.9 230.0 368.9 229.9 368.8 229.7 C 368.8 229.4 368.6 229.7 368.5 229.9 C 368.4 230.1 368.6 230.9 368.7 230.6 Z M 367.2 238.7 C 367.1 238.6 367.1 238.8 367.2 238.9 C 367.3 239.0 367.3 238.9 367.2 238.7 Z M 363.9 245.6 C 363.9 245.6 364.0 245.4 363.8 245.5 C 363.6 245.6 363.6 245.6 363.9 245.6 Z M 360.4 250.6 C 360.6 250.5 360.3 250.3 360.5 250.0 C 360.6 249.9 360.6 250.2 360.6 250.2 C 360.6 250.2 360.9 249.5 360.4 249.7 C 360.2 249.8 359.8 250.7 360.4 250.6 Z M 365.9 240.4 C 365.9 240.8 366.8 239.9 366.9 240.2 C 367.0 240.5 367.1 240.4 367.0 240.0 C 366.9 239.6 365.8 239.9 365.9 240.4 Z M 367.4 237.5 C 367.4 237.7 367.6 238.5 367.6 238.2 C 367.7 237.8 367.5 237.4 367.7 237.5 C 367.9 237.6 367.8 237.5 367.8 237.3 C 367.8 237.0 367.5 237.4 367.4 237.5 Z M 370.2 232.9 C 370.2 233.0 370.4 233.4 370.4 233.1 C 370.4 232.9 370.2 232.8 370.2 232.9 Z M 361.8 245.3 C 362.0 245.2 362.0 245.0 361.6 245.1 C 361.3 245.2 361.6 245.4 361.8 245.3 Z M 369.1 232.8 C 369.2 233.3 369.3 232.7 369.4 233.0 C 369.5 233.3 369.6 233.2 369.5 232.8 C 369.4 232.5 369.1 232.4 369.1 232.8 Z M 358.4 249.0 C 358.5 248.9 358.5 248.6 358.4 248.7 C 358.2 248.8 358.3 249.0 358.4 249.0 Z M 358.9 246.8 C 359.0 246.9 359.1 246.9 359.1 246.9 C 360.7 246.8 358.3 246.1 358.9 246.8 Z M 360.7 244.3 C 360.6 244.7 361.0 244.4 361.0 244.4 C 360.9 244.3 360.8 244.3 360.7 244.3 Z M 362.5 241.5 C 362.4 241.3 362.3 241.6 362.4 241.7 C 362.6 241.7 362.6 241.6 362.5 241.5 Z M 356.1 250.4 C 356.3 250.4 356.3 250.3 356.1 250.2 C 356.0 250.2 355.9 250.3 356.1 250.4 Z M 360.5 243.2 C 360.6 243.3 360.6 243.3 360.7 243.1 C 360.7 243.0 360.5 243.1 360.5 243.2 Z M 366.1 234.5 C 366.1 234.6 366.2 234.7 366.2 234.8 C 366.4 234.8 366.8 234.3 367.0 234.4 C 367.0 234.5 367.0 234.5 367.0 234.5 C 367.0 234.5 367.0 234.5 367.0 234.5 C 367.1 234.6 367.2 234.7 367.1 234.7 C 367.1 234.8 367.0 234.9 367.0 235.0 C 367.2 235.0 367.5 234.8 367.5 234.6 C 367.4 234.3 367.1 234.0 366.7 233.9 C 366.6 233.9 366.5 234.0 366.4 234.1 C 366.4 234.1 366.4 234.1 366.4 234.2 C 366.5 234.4 366.5 234.6 366.4 234.5 C 366.3 234.4 366.2 234.3 366.2 234.3 C 366.2 234.3 366.1 234.4 366.1 234.5 Z M 360.9 241.8 C 360.8 242.1 361.0 242.0 361.3 241.8 C 361.4 241.6 360.9 241.5 360.9 241.8 Z M 356.0 249.8 C 356.0 249.8 356.0 249.7 356.0 249.6 C 356.0 249.6 355.9 249.6 355.9 249.7 C 355.8 249.8 355.6 249.9 355.5 250.1 C 355.7 250.2 355.9 250.2 356.0 249.8 Z M 356.8 246.8 C 356.8 246.9 356.1 247.9 356.4 247.9 C 357.0 247.8 357.1 248.5 357.4 247.7 C 357.5 247.3 357.2 246.6 357.3 246.2 C 358.1 244.1 356.5 246.4 356.1 246.8 C 356.0 246.9 356.8 246.7 356.8 246.8 Z M 357.8 244.1 C 357.7 243.9 357.3 244.0 357.2 244.2 C 357.0 244.6 357.9 244.3 357.8 244.1 Z M 354.2 249.0 C 354.2 249.1 354.3 249.1 354.3 249.1 C 354.3 249.0 354.3 249.0 354.2 248.9 C 354.2 249.0 354.2 249.0 354.2 249.0 Z M 353.2 250.2 C 354.0 250.1 353.0 249.5 352.7 249.4 C 352.2 249.4 352.8 250.2 353.2 250.2 Z M 356.0 244.9 C 356.3 244.6 355.5 243.4 355.1 244.1 C 354.8 244.7 355.5 245.7 356.0 244.9 Z M 357.1 240.2 C 357.2 240.4 356.7 240.7 356.7 240.4 C 356.7 240.2 357.1 240.1 357.1 240.2 Z M 352.9 245.5 C 353.0 245.4 353.0 245.6 353.0 245.6 C 352.8 245.6 352.8 245.6 352.9 245.5 Z M 354.0 245.5 C 353.8 245.6 353.6 245.8 353.5 245.9 C 353.4 246.0 353.5 245.6 353.5 245.5 C 353.6 245.4 354.0 245.5 354.0 245.5 Z M 356.1 242.5 C 355.8 242.6 356.0 242.3 356.1 242.2 C 356.2 242.1 356.2 242.4 356.1 242.5 Z M 355.3 243.0 C 355.4 243.0 355.5 243.1 355.4 243.2 C 355.3 243.4 355.2 243.1 355.3 243.0 Z M 356.8 242.2 C 356.7 242.6 356.4 243.1 356.2 242.8 C 356.1 242.7 357.0 241.4 356.8 242.2 Z M 356.8 242.2 " fill="#FFF8FB"></path></g></svg>