<?xml version="1.0" encoding="UTF-8" standalone="no"?><svg xmlns="http://www.w3.org/2000/svg" xmlns:xlink="http://www.w3.org/1999/xlink" clip-rule="evenodd" stroke-miterlimit="10" viewBox="0 0 145 213"><desc>SVG generated by Keynote</desc><defs></defs><g transform="matrix(1.00, 0.00, -0.00, -1.00, 0.0, 213.0)"><image xlink:href="../../60252C77-7F6D-4FAE-860E-2CB847E39FFD/assets/A211F48BADE771F8257D21993DBFCA6D.png" width="142.00" height="206.00" transform="matrix(1.00, 0.00, -0.00, -1.00, 1.3, 207.3)" opacity="0.50"></image><g><clipPath id="clip0x6080016aabc0"><path d="M 5.3 51.1 L 5.0 161.3 C 5.0 185.6 25.0 205.0 49.3 205.0 L 95.8 205.0 C 120.1 205.0 140.0 185.6 140.0 161.3 L 140.0 51.1 C 140.0 26.8 120.1 7.0 95.8 7.0 L 49.3 7.0 C 25.0 7.0 5.3 26.8 5.3 51.1 Z M 5.3 51.1 "></path></clipPath><g clip-path="url(#clip0x6080016aabc0)"><image xlink:href="../../60252C77-7F6D-4FAE-860E-2CB847E39FFD/assets/BF7F347A5AA08698479112B0B19D9FB4.png" width="512.00" height="512.00" transform="matrix(0.50, 0.00, -0.00, -0.50, 5.0, 205.0)"></image></g></g><image xlink:href="../../60252C77-7F6D-4FAE-860E-2CB847E39FFD/assets/8B5040803758E67ADF23F88C10455F2D.png" width="119.00" height="38.00" transform="matrix(1.00, 0.00, -0.00, -1.00, 14.0, 121.0)"></image><g><clipPath id="clip0x6080016aafe0"><path d="M -3.8 7.1 L 148.9 7.1 L 148.9 205.3 L -3.8 205.3 Z M -3.8 7.1 "></path></clipPath><g clip-path="url(#clip0x6080016aafe0)"><text xml:space="preserve" font-family="HelveticaNeue-Medium,Helvetica Neue" font-size="34.0" fill="#FEFFFE" transform="matrix(1.00, 0.00, -0.00, -1.00, 14.9, 94.0)">M</text><text xml:space="preserve" font-family="HelveticaNeue-Medium,Helvetica Neue" font-size="34.0" fill="#FEFFFE" transform="matrix(1.00, 0.00, -0.00, -1.00, 45.1, 94.0)">y</text><text xml:space="preserve" font-family="HelveticaNeue-Medium,Helvetica Neue" font-size="34.0" fill="#FEFFFE" transform="matrix(1.00, 0.00, -0.00, -1.00, 62.8, 94.0)">S</text><text xml:space="preserve" font-family="HelveticaNeue-Medium,Helvetica Neue" font-size="34.0" fill="#FEFFFE" transform="matrix(1.00, 0.00, -0.00, -1.00, 84.8, 94.0)">Q</text><text xml:space="preserve" font-family="HelveticaNeue-Medium,Helvetica Neue" font-size="34.0" fill="#FEFFFE" transform="matrix(1.00, 0.00, -0.00, -1.00, 110.7, 94.0)">L</text></g></g></g></svg>