<?xml version="1.0" encoding="UTF-8" standalone="no"?><svg xmlns="http://www.w3.org/2000/svg" xmlns:xlink="http://www.w3.org/1999/xlink" clip-rule="evenodd" stroke-miterlimit="10" viewBox="0 0 445 159"><desc>SVG generated by Keynote</desc><defs></defs><g transform="matrix(1.00, 0.00, -0.00, -1.00, 0.0, 159.0)"><path d="M 18.4 17.3 C 18.1 17.4 17.5 17.0 17.2 17.1 M 18.4 17.3 C 18.0 16.1 16.8 15.6 15.2 14.9 C 13.3 14.3 14.9 15.9 14.6 16.3 C 12.1 16.0 12.3 15.2 13.0 14.2 C 11.8 14.7 9.5 12.5 9.7 14.1 C 13.5 15.2 6.9 13.6 9.8 15.4 C 10.1 15.7 9.1 15.8 8.7 15.7 C 9.6 16.6 7.6 16.8 9.2 17.7 C 9.1 18.7 8.9 18.2 9.8 19.2 C 10.3 19.5 10.2 19.1 10.2 18.9 C 10.7 17.9 11.3 19.9 12.4 19.5 C 12.8 21.1 14.1 19.7 13.6 18.9 C 14.3 19.3 14.9 21.0 16.0 20.3 C 16.3 21.1 18.6 21.3 17.5 20.1 C 16.7 19.2 17.9 19.2 18.2 18.9 C 17.9 18.5 16.5 18.5 16.3 18.2 C 16.8 18.1 18.7 18.1 16.8 17.6 C 17.6 17.3 16.7 16.8 18.4 17.3 C 18.4 17.3 18.4 17.3 18.4 17.3 Z M 12.1 14.6 C 12.2 14.2 12.7 14.8 12.1 14.6 C 12.1 14.6 12.1 14.6 12.1 14.6 Z M 15.1 20.8 C 15.2 20.4 15.7 21.0 15.1 20.8 C 15.1 20.8 15.1 20.8 15.1 20.8 Z M 10.5 19.0 C 10.6 18.6 11.1 19.2 10.5 19.0 C 10.5 19.0 10.5 19.0 10.5 19.0 Z M 13.8 15.3 C 14.7 16.0 12.7 15.6 12.7 15.2 C 12.9 15.3 13.6 15.0 13.8 15.3 C 13.8 15.3 13.8 15.3 13.8 15.3 Z M 13.3 17.5 C 13.4 17.4 13.8 17.5 13.7 17.8 C 13.4 17.8 13.2 17.6 13.3 17.5 C 13.3 17.5 13.3 17.5 13.3 17.5 Z M 8.6 14.5 C 8.8 14.4 9.2 14.4 9.0 14.8 C 8.7 14.8 8.5 14.6 8.6 14.5 C 8.6 14.5 8.6 14.5 8.6 14.5 Z M 14.6 16.7 C 14.9 16.8 14.9 17.2 14.5 17.1 C 14.4 16.9 13.7 16.6 14.6 16.7 C 14.6 16.7 14.6 16.7 14.6 16.7 Z M 16.6 15.9 C 17.4 16.4 15.5 16.4 15.6 16.2 C 15.4 15.9 16.2 15.5 16.6 15.9 C 16.6 15.9 16.6 15.9 16.6 15.9 Z M 15.0 17.3 C 15.6 17.7 14.6 17.5 15.0 17.3 C 15.0 17.3 15.0 17.3 15.0 17.3 Z M 8.5 17.4 C 9.2 17.8 8.1 17.6 8.5 17.4 C 8.5 17.4 8.5 17.4 8.5 17.4 Z M 11.9 19.6 C 12.6 20.0 11.6 19.8 11.9 19.6 C 11.9 19.6 11.9 19.6 11.9 19.6 Z M 11.6 15.5 C 10.4 15.1 11.8 14.5 11.6 15.5 C 11.6 15.5 11.6 15.5 11.6 15.5 Z M 18.6 16.4 C 17.4 16.0 18.7 15.4 18.6 16.4 C 18.6 16.4 18.6 16.4 18.6 16.4 Z M 418.6 136.1 C 419.8 136.2 415.7 133.7 417.0 135.6 C 417.1 137.0 414.2 136.0 415.3 135.1 C 414.4 134.7 414.4 134.6 413.8 135.0 C 413.9 134.1 411.9 133.1 411.1 133.3 C 410.4 133.9 412.4 133.8 411.0 134.3 C 408.3 133.7 410.9 135.1 409.6 135.8 C 409.5 135.8 409.6 135.3 409.3 135.5 C 409.0 136.4 410.3 137.4 409.4 137.9 C 409.8 137.9 411.4 139.5 410.9 138.4 C 410.8 137.5 412.6 140.1 412.9 138.6 C 413.3 139.4 414.2 138.7 414.6 139.7 C 415.0 140.0 415.2 139.3 415.2 139.1 C 415.3 138.4 415.3 140.7 416.4 139.8 C 416.4 140.1 418.5 140.6 417.1 139.6 C 417.5 139.9 419.8 140.9 418.9 139.3 C 417.4 138.2 421.0 138.5 419.1 137.8 C 417.6 137.2 417.2 137.4 418.6 137.1 C 418.9 137.2 420.7 137.6 419.4 136.6 C 419.0 136.7 418.3 136.4 418.6 136.1 C 418.6 136.1 418.6 136.1 418.6 136.1 Z M 418.4 138.0 C 417.5 137.8 418.5 137.5 418.4 138.0 C 418.4 138.0 418.4 138.0 418.4 138.0 Z M 414.3 140.0 C 413.5 139.8 414.4 139.5 414.3 140.0 C 414.3 140.0 414.3 140.0 414.3 140.0 Z M 416.0 134.9 C 415.4 135.2 415.7 133.8 416.0 134.9 C 416.0 134.9 416.0 134.9 416.0 134.9 Z M 416.1 139.3 C 416.1 139.3 416.3 139.2 416.5 139.2 C 416.5 139.3 416.2 139.4 416.1 139.3 C 416.1 139.3 416.1 139.3 416.1 139.3 Z M 414.5 134.5 C 413.0 134.7 414.5 133.4 414.5 134.5 C 414.5 134.5 414.5 134.5 414.5 134.5 Z M 411.5 135.0 C 410.9 136.2 410.2 134.3 411.5 135.0 C 411.5 135.0 411.5 135.0 411.5 135.0 Z M 412.5 138.4 C 412.8 138.2 412.6 138.6 412.5 138.4 C 412.5 138.4 412.5 138.4 412.5 138.4 Z M 418.1 140.3 C 418.4 140.1 418.3 140.5 418.1 140.3 C 418.1 140.3 418.1 140.3 418.1 140.3 Z M 410.9 137.8 C 411.1 137.3 411.3 138.2 410.9 137.8 C 410.9 137.8 410.9 137.8 410.9 137.8 Z M 415.6 135.4 C 417.1 134.7 416.6 137.4 415.6 135.4 C 415.6 135.4 415.6 135.4 415.6 135.4 Z M 417.7 135.9 C 418.6 136.0 417.4 136.5 417.1 136.3 C 417.2 136.2 417.6 135.9 417.7 135.9 C 417.7 135.9 417.7 135.9 417.7 135.9 Z M 414.3 135.1 C 415.3 134.9 415.0 135.6 414.3 135.1 C 414.3 135.1 414.3 135.1 414.3 135.1 Z M 416.5 135.2 C 416.9 135.4 416.1 135.2 416.5 135.2 C 416.5 135.2 416.5 135.2 416.5 135.2 Z M 413.0 133.6 C 413.4 133.8 412.6 133.6 413.0 133.6 C 413.0 133.6 413.0 133.6 413.0 133.6 Z M 418.9 135.7 C 419.3 135.9 418.5 135.7 418.9 135.7 C 418.9 135.7 418.9 135.7 418.9 135.7 Z M 413.1 134.4 C 412.9 134.8 413.7 136.2 411.9 134.7 C 411.6 134.2 412.7 133.8 413.1 134.4 C 413.1 134.4 413.1 134.4 413.1 134.4 Z M 22.1 18.5 C 17.2 15.4 17.7 18.4 17.4 18.8 C 16.4 19.3 17.0 19.9 17.9 20.7 C 18.6 22.7 20.1 19.5 20.4 21.4 C 21.2 24.0 22.6 20.0 22.5 22.5 C 22.1 23.0 24.3 23.1 24.2 22.9 C 24.9 24.3 27.0 22.8 27.1 22.6 C 27.7 23.1 27.1 25.2 29.7 24.3 C 31.5 24.3 31.7 26.5 31.6 25.0 C 32.4 26.9 32.6 24.8 33.7 25.6 C 34.3 26.8 34.1 24.3 35.1 26.4 C 36.2 25.3 34.2 27.1 38.6 27.4 C 36.6 26.7 40.8 26.9 39.7 27.6 C 38.1 28.1 41.8 27.8 43.5 28.9 C 44.1 28.6 46.7 28.1 46.0 29.2 C 47.4 31.3 48.2 28.9 48.7 30.4 C 49.1 31.1 49.7 30.1 50.1 30.3 C 50.5 31.4 51.3 31.0 53.7 32.0 C 58.8 34.0 55.2 29.8 57.3 30.1 C 57.7 29.7 55.7 25.8 56.2 28.4 C 56.0 27.7 51.0 28.8 53.9 26.9 C 51.9 27.4 54.6 26.0 50.9 26.2 C 54.9 29.3 45.6 25.4 50.2 25.8 C 49.6 25.1 47.8 24.6 48.9 25.5 C 48.9 27.2 46.1 23.8 47.3 26.3 C 44.7 24.9 44.9 26.9 44.5 25.5 C 44.4 23.1 44.4 26.0 43.2 25.0 C 39.9 24.0 43.2 22.3 40.7 23.4 C 37.9 21.3 39.8 24.1 38.6 24.0 C 37.8 25.4 35.7 21.9 38.1 22.4 C 36.6 22.8 38.1 21.7 36.4 22.2 C 37.1 23.8 34.9 20.2 35.1 21.4 C 33.6 21.3 34.1 22.3 33.7 22.3 C 31.7 21.7 32.7 20.5 32.0 21.4 C 31.4 21.8 31.0 19.8 30.6 20.2 C 32.6 20.8 28.5 21.1 28.5 20.3 C 29.8 20.6 28.5 18.3 27.4 19.2 C 27.5 22.4 25.8 17.9 24.6 18.7 C 25.0 20.6 20.2 17.6 22.4 17.4 C 22.2 17.5 22.1 18.5 22.1 18.5 M 30.0 20.2 C 31.6 20.9 28.1 20.0 30.0 20.2 M 30.0 19.8 C 30.6 20.5 28.6 18.9 30.2 19.6 C 30.2 19.6 29.9 19.7 30.0 19.8 M 36.9 21.7 C 36.5 22.1 36.0 21.2 36.9 21.7 M 37.9 23.2 C 38.8 23.9 36.4 22.8 37.9 23.2 M 53.0 27.3 C 50.8 29.3 51.8 25.5 53.0 27.3 M 43.2 23.8 C 41.3 23.6 44.2 23.0 43.2 23.8 M 42.5 24.3 C 41.5 24.4 42.5 23.7 42.5 24.3 M 50.2 26.5 C 50.3 26.6 50.3 26.6 50.2 26.5 C 50.2 26.5 50.2 26.5 50.2 26.5 Z M 54.6 27.9 C 54.6 27.8 54.6 27.8 54.6 27.9 C 54.6 27.9 54.6 27.9 54.6 27.9 Z M 45.8 25.4 C 44.5 24.4 48.1 25.9 45.8 25.4 C 45.8 25.4 45.8 25.4 45.8 25.4 Z M 51.4 31.0 C 51.3 31.0 51.3 31.0 51.4 31.0 C 51.4 31.0 51.4 31.0 51.4 31.0 Z M 28.3 21.0 C 28.3 21.0 28.3 21.0 28.3 21.0 C 28.3 21.0 28.3 21.0 28.3 21.0 Z M 23.5 18.5 C 23.5 18.9 22.7 18.0 23.5 18.5 C 23.5 18.5 23.5 18.5 23.5 18.5 Z M 18.6 20.1 C 18.5 20.1 18.5 20.1 18.6 20.1 C 18.6 20.1 18.6 20.1 18.6 20.1 Z M 26.2 21.7 C 26.2 21.8 26.2 21.8 26.2 21.7 C 26.2 21.7 26.2 21.7 26.2 21.7 Z M 27.5 20.1 C 27.1 18.5 29.3 21.1 27.5 20.1 C 27.5 20.1 27.5 20.1 27.5 20.1 Z M 43.0 28.3 C 43.3 27.7 44.1 28.9 43.0 28.3 C 43.0 28.3 43.0 28.3 43.0 28.3 Z M 37.9 23.8 C 38.2 23.5 38.6 24.1 37.9 23.8 C 37.9 23.8 37.9 23.8 37.9 23.8 Z M 35.7 21.1 C 36.0 20.8 36.3 21.5 35.7 21.1 C 35.7 21.1 35.7 21.1 35.7 21.1 Z M 23.7 18.2 C 23.9 18.1 23.9 18.1 23.7 18.2 C 23.7 18.2 23.7 18.2 23.7 18.2 Z M 25.2 19.7 C 24.4 18.1 27.0 21.0 25.2 19.7 C 25.2 19.7 25.2 19.7 25.2 19.7 Z M 23.0 19.5 C 23.5 20.1 21.4 18.8 23.0 19.5 M 23.6 21.8 C 25.3 21.7 21.6 23.6 23.6 21.8 C 23.6 21.8 23.6 21.8 23.6 21.8 Z M 31.3 24.6 C 31.4 24.7 31.4 24.7 31.3 24.6 C 31.3 24.6 31.3 24.6 31.3 24.6 Z M 31.6 20.7 C 32.9 21.1 30.6 20.7 31.6 20.7 C 31.6 20.7 31.6 20.7 31.6 20.7 Z M 19.9 16.9 C 21.2 17.3 18.9 16.9 19.9 16.9 C 19.9 16.9 19.9 16.9 19.9 16.9 Z M 36.2 24.7 C 38.5 25.2 34.7 25.0 36.2 24.7 C 36.2 24.7 36.2 24.7 36.2 24.7 Z M 44.8 25.7 C 44.9 25.7 44.9 25.7 44.8 25.7 C 44.8 25.7 44.8 25.7 44.8 25.7 Z M 46.5 25.6 C 46.5 25.7 46.5 25.7 46.5 25.6 C 46.5 25.6 46.5 25.6 46.5 25.6 Z M 52.4 28.8 C 52.5 28.9 52.5 28.9 52.4 28.8 C 52.4 28.8 52.4 28.8 52.4 28.8 Z M 48.1 25.4 C 48.1 25.5 48.1 25.5 48.1 25.4 C 48.1 25.4 48.1 25.4 48.1 25.4 Z M 52.3 27.1 C 52.4 27.1 52.4 27.1 52.3 27.1 C 52.3 27.1 52.3 27.1 52.3 27.1 Z M 52.1 25.8 C 52.1 25.9 52.1 25.9 52.1 25.8 C 52.1 25.8 52.1 25.8 52.1 25.8 Z M 40.7 28.4 C 40.7 28.5 40.7 28.5 40.7 28.4 C 40.7 28.4 40.7 28.4 40.7 28.4 Z M 26.3 18.5 C 26.3 18.6 26.3 18.6 26.3 18.5 C 26.3 18.5 26.3 18.5 26.3 18.5 Z M 51.8 27.4 C 51.9 27.5 51.9 27.5 51.8 27.4 C 51.8 27.4 51.8 27.4 51.8 27.4 Z M 40.8 25.3 C 40.6 26.4 40.4 23.6 41.1 25.3 C 41.1 25.3 40.8 25.1 40.8 25.3 M 41.8 27.5 C 41.7 27.5 41.7 27.5 41.8 27.5 C 41.8 27.5 41.8 27.5 41.8 27.5 Z M 36.7 26.7 C 36.6 26.7 36.6 26.7 36.7 26.7 C 36.7 26.7 36.7 26.7 36.7 26.7 Z M 47.4 25.0 C 47.3 24.3 48.4 25.8 47.2 25.0 M 51.9 30.7 C 51.9 30.1 53.0 31.5 51.7 30.7 M 18.2 16.8 C 17.9 17.2 17.4 16.3 18.2 16.8 M 35.5 27.0 C 35.1 27.4 34.6 26.4 35.5 27.0 M 38.1 26.3 C 38.1 25.6 39.2 27.1 37.9 26.2 M 48.6 29.7 C 48.7 29.7 48.7 29.7 48.6 29.7 C 48.6 29.7 48.6 29.7 48.6 29.7 Z M 33.6 21.4 C 33.7 21.4 33.7 21.4 33.6 21.4 C 33.6 21.4 33.6 21.4 33.6 21.4 Z M 39.2 24.4 C 38.6 23.4 40.1 25.3 39.2 24.4 M 31.5 22.3 C 30.6 20.9 33.2 23.2 31.5 22.3 M 54.4 31.7 C 53.4 30.1 55.1 32.7 54.4 31.7 M 48.8 26.7 C 47.8 25.0 49.5 27.6 48.8 26.7 M 34.7 22.3 C 34.8 21.6 35.9 23.1 34.7 22.3 M 21.3 17.6 C 20.1 17.1 23.1 17.6 21.3 17.6 M 45.4 28.8 C 45.4 28.8 45.4 28.8 45.4 28.8 C 45.4 28.8 45.4 28.8 45.4 28.8 Z M 24.0 23.6 C 24.0 23.6 24.0 23.6 24.0 23.6 C 24.0 23.6 24.0 23.6 24.0 23.6 Z M 57.3 28.2 C 57.3 28.2 57.3 28.2 57.3 28.2 C 57.3 28.2 57.3 28.2 57.3 28.2 Z M 47.8 27.0 C 47.8 27.1 47.8 27.1 47.8 27.0 C 47.8 27.0 47.8 27.0 47.8 27.0 Z M 54.8 27.2 C 54.8 27.3 54.8 27.3 54.8 27.2 C 54.8 27.2 54.8 27.2 54.8 27.2 Z M 43.4 26.8 C 43.4 26.8 43.4 26.8 43.4 26.8 C 43.4 26.8 43.4 26.8 43.4 26.8 Z M 43.5 23.3 C 43.6 23.4 43.6 23.4 43.5 23.3 C 43.5 23.3 43.5 23.3 43.5 23.3 Z M 38.7 23.4 C 38.7 23.4 38.7 23.4 38.7 23.4 C 38.7 23.4 38.7 23.4 38.7 23.4 Z M 45.5 24.2 C 48.2 24.8 43.8 24.8 45.5 24.2 C 45.5 24.2 45.5 24.2 45.5 24.2 Z M 39.9 26.0 C 40.0 26.0 40.0 26.0 39.9 26.0 C 39.9 26.0 39.9 26.0 39.9 26.0 Z M 40.2 23.6 C 42.2 23.2 40.7 25.4 40.2 23.6 M 33.0 20.7 C 33.6 20.3 33.0 21.5 33.0 20.7 M 28.8 23.9 C 28.8 24.0 28.8 24.0 28.8 23.9 C 28.8 23.9 28.8 23.9 28.8 23.9 Z M 29.7 23.8 C 29.7 23.9 29.7 23.9 29.7 23.8 C 29.7 23.8 29.7 23.8 29.7 23.8 Z M 31.2 19.9 C 31.3 20.0 31.3 20.0 31.2 19.9 C 31.2 19.9 31.2 19.9 31.2 19.9 Z M 29.4 25.1 C 29.5 25.1 29.5 25.1 29.4 25.1 C 29.4 25.1 29.4 25.1 29.4 25.1 Z M 42.5 23.1 C 42.5 23.1 42.5 23.1 42.5 23.1 C 42.5 23.1 42.5 23.1 42.5 23.1 Z M 56.2 27.2 C 56.3 27.2 56.3 27.2 56.2 27.2 C 56.2 27.2 56.2 27.2 56.2 27.2 Z M 20.7 21.1 C 20.8 21.1 20.8 21.1 20.7 21.1 C 20.7 21.1 20.7 21.1 20.7 21.1 Z M 43.5 24.8 C 43.6 24.9 43.6 24.9 43.5 24.8 C 43.5 24.8 43.5 24.8 43.5 24.8 Z M 26.9 23.2 C 26.9 23.2 26.9 23.2 26.9 23.2 C 26.9 23.2 26.9 23.2 26.9 23.2 Z M 42.7 24.3 C 42.8 24.3 42.8 24.3 42.7 24.3 C 42.7 24.3 42.7 24.3 42.7 24.3 Z M 44.9 28.9 C 44.9 28.9 44.9 28.9 44.9 28.9 C 44.9 28.9 44.9 28.9 44.9 28.9 Z M 47.6 30.5 C 47.6 30.5 47.6 30.5 47.6 30.5 C 47.6 30.5 47.6 30.5 47.6 30.5 Z M 45.3 26.6 C 45.4 26.7 45.4 26.7 45.3 26.6 C 45.3 26.6 45.3 26.6 45.3 26.6 Z M 26.3 21.5 C 21.3 18.8 30.8 22.3 26.3 21.5 M 46.2 27.2 C 42.5 25.8 49.5 26.8 46.2 27.2 C 46.7 27.0 46.2 27.1 46.2 27.2 M 58.7 28.0 C 56.8 28.7 56.5 29.9 56.8 31.3 C 57.4 32.1 58.1 29.7 57.5 31.7 C 55.7 31.6 57.4 34.9 58.1 32.4 C 60.6 32.7 58.0 34.1 59.7 33.5 C 62.3 34.0 60.8 34.4 62.8 34.8 C 64.3 33.7 63.7 35.8 64.6 34.6 C 63.2 35.8 66.7 34.8 66.6 35.5 C 64.6 35.9 73.2 37.5 68.8 35.7 C 70.8 35.6 70.1 36.7 70.7 37.1 C 71.8 36.5 73.6 38.6 75.0 38.1 C 74.8 37.9 74.3 37.7 74.2 37.3 C 74.0 36.7 75.4 37.8 75.3 37.7 C 76.1 37.7 79.4 37.7 75.7 38.2 C 75.4 38.9 78.4 38.7 78.1 39.3 C 80.9 40.2 79.3 38.1 80.2 39.5 C 82.2 40.1 83.6 40.6 83.6 40.4 C 84.8 40.9 84.8 41.8 86.1 41.3 C 88.1 43.6 88.7 39.0 88.7 42.2 C 89.7 41.7 89.7 43.8 90.2 42.0 C 89.1 42.5 93.9 44.6 92.2 42.6 C 92.9 42.4 95.3 45.6 95.4 43.6 C 96.9 42.6 97.1 41.2 95.1 39.2 C 95.0 40.3 92.8 37.3 94.1 39.7 C 96.0 40.9 90.1 39.2 91.5 38.9 C 92.5 36.8 88.2 39.4 87.4 37.5 C 88.2 38.6 83.3 37.6 85.1 36.4 C 84.3 36.0 83.8 36.7 83.1 35.5 C 86.0 36.5 81.5 36.9 82.0 35.9 C 82.7 35.5 78.5 33.7 78.7 34.7 C 79.5 37.4 77.7 33.9 76.7 34.6 C 74.2 34.4 77.6 32.8 75.4 33.9 C 75.0 33.5 71.8 32.5 73.9 32.7 C 74.6 33.1 71.3 34.6 71.6 32.5 C 75.3 32.5 67.8 30.8 68.8 31.7 C 73.7 34.3 62.9 31.3 67.3 31.4 C 65.3 29.7 68.1 31.2 65.1 30.8 C 65.3 31.5 62.9 31.4 63.8 30.4 C 63.9 28.5 62.3 32.6 61.2 29.6 C 61.3 28.4 57.5 29.3 59.1 28.5 C 59.3 28.4 58.8 28.1 58.7 28.0 M 59.7 28.6 C 59.2 28.8 59.2 27.9 59.7 28.6 M 59.2 28.8 C 59.2 28.8 59.2 28.8 59.2 28.8 C 59.2 28.8 59.2 28.8 59.2 28.8 Z M 64.7 30.8 C 64.6 30.7 64.6 30.7 64.7 30.8 C 64.7 30.8 64.7 30.8 64.7 30.8 Z M 67.7 36.6 C 67.7 36.6 67.7 36.6 67.7 36.6 C 67.7 36.6 67.7 36.6 67.7 36.6 Z M 68.4 32.0 C 68.3 32.0 68.3 32.0 68.4 32.0 C 68.4 32.0 68.4 32.0 68.4 32.0 Z M 62.6 30.5 C 62.6 30.4 62.6 30.4 62.6 30.5 C 62.6 30.5 62.6 30.5 62.6 30.5 Z M 68.2 31.2 C 68.3 32.0 67.1 30.3 68.3 31.1 C 68.3 31.2 68.1 31.1 68.2 31.2 M 73.1 32.4 C 73.1 32.5 73.1 32.5 73.1 32.4 M 82.2 40.9 C 82.2 41.0 82.2 41.0 82.2 40.9 M 84.7 35.8 C 84.8 35.9 84.8 35.9 84.7 35.8 M 77.7 34.5 C 79.3 34.9 78.0 35.0 77.7 34.5 M 88.5 37.3 C 86.8 36.3 90.6 37.6 88.5 37.3 M 90.4 37.5 C 90.6 37.6 90.6 37.6 90.4 37.5 M 81.9 35.2 C 81.9 35.3 81.9 35.3 81.9 35.2 C 81.9 35.2 81.9 35.2 81.9 35.2 Z M 77.2 34.0 C 75.4 33.1 79.4 34.0 77.2 34.0 M 65.5 30.3 C 66.7 30.3 65.2 31.2 65.5 30.3 M 63.2 30.0 C 63.2 30.1 63.2 30.1 63.2 30.0 C 63.2 30.0 63.2 30.0 63.2 30.0 Z M 85.5 36.4 C 85.4 36.4 85.4 36.4 85.5 36.4 C 85.5 36.4 85.5 36.4 85.5 36.4 Z M 87.7 36.9 C 87.6 36.9 87.6 36.9 87.7 36.9 C 87.7 36.9 87.7 36.9 87.7 36.9 Z M 89.8 43.0 C 89.7 43.0 89.7 43.0 89.8 43.0 C 89.8 43.0 89.8 43.0 89.8 43.0 Z M 64.2 32.6 C 62.9 31.8 66.2 31.4 65.5 32.5 C 65.5 33.1 64.4 32.5 64.2 32.6 M 75.3 35.1 C 75.2 37.0 74.6 32.4 75.3 35.1 M 90.4 38.7 C 91.2 41.1 89.0 36.7 90.4 38.7 M 93.4 39.2 C 94.1 39.8 87.9 37.8 92.4 38.6 C 93.0 38.4 93.2 38.9 93.4 39.2 M 72.9 33.2 C 73.1 34.3 70.8 32.1 72.9 33.2 M 81.0 38.7 C 81.9 38.3 83.9 38.3 82.8 39.1 C 82.4 40.4 80.0 39.0 81.0 38.7 M 59.9 29.6 C 61.5 28.5 59.4 30.9 59.9 29.6 M 65.5 31.5 C 65.5 31.4 65.5 31.4 65.5 31.5 C 65.5 31.5 65.5 31.5 65.5 31.5 Z M 67.8 31.9 C 67.8 32.0 67.8 32.0 67.8 31.9 M 61.2 28.6 C 61.2 28.7 61.2 28.7 61.2 28.6 M 81.4 37.1 C 81.5 37.3 81.5 37.3 81.4 37.1 M 77.2 34.8 C 78.9 36.9 75.9 34.7 77.2 34.8 M 71.0 36.1 C 71.5 37.0 69.7 35.7 71.0 36.1 M 80.9 35.3 C 82.0 37.1 78.4 36.0 80.9 35.3 M 76.2 34.3 C 76.3 34.3 76.3 34.3 76.2 34.3 C 76.2 34.3 76.2 34.3 76.2 34.3 Z M 81.5 39.0 C 81.5 39.0 81.5 39.0 81.5 39.0 C 81.5 39.0 81.5 39.0 81.5 39.0 Z M 82.2 39.2 C 82.1 39.2 82.1 39.2 82.2 39.2 C 82.2 39.2 82.2 39.2 82.2 39.2 Z M 82.9 35.7 C 82.8 35.7 82.8 35.7 82.9 35.7 C 82.9 35.7 82.9 35.7 82.9 35.7 Z M 61.9 33.9 C 63.4 34.5 60.6 33.8 61.9 33.9 C 61.9 33.9 61.9 33.9 61.9 33.9 Z M 70.0 31.8 C 72.2 33.6 67.9 32.3 70.0 31.8 C 70.0 31.8 70.0 31.8 70.0 31.8 Z M 72.3 34.5 C 72.3 34.5 72.3 34.5 72.3 34.5 C 72.3 34.5 72.3 34.5 72.3 34.5 Z M 80.2 34.1 C 80.2 34.2 80.2 34.2 80.2 34.1 C 80.2 34.1 80.2 34.1 80.2 34.1 Z M 62.6 34.3 C 62.6 34.4 62.6 34.4 62.6 34.3 C 62.6 34.3 62.6 34.3 62.6 34.3 Z M 87.0 37.7 C 87.0 37.8 87.0 37.8 87.0 37.7 C 87.0 37.7 87.0 37.7 87.0 37.7 Z M 77.3 38.0 C 78.0 37.6 77.3 38.5 77.3 38.0 C 77.3 38.0 77.3 38.0 77.3 38.0 Z M 79.6 38.7 C 79.7 38.7 79.7 38.7 79.6 38.7 C 79.6 38.7 79.6 38.7 79.6 38.7 Z M 91.0 37.5 C 91.1 37.5 91.1 37.5 91.0 37.5 C 91.0 37.5 91.0 37.5 91.0 37.5 Z M 85.1 41.8 C 85.1 41.8 85.1 41.8 85.1 41.8 C 85.1 41.8 85.1 41.8 85.1 41.8 Z M 87.5 40.7 C 87.4 40.7 87.4 40.7 87.5 40.7 C 87.5 40.7 87.5 40.7 87.5 40.7 Z M 82.4 35.9 C 84.7 36.3 81.6 36.4 82.4 35.9 C 82.4 35.9 82.4 35.9 82.4 35.9 Z M 93.3 41.9 C 93.3 42.1 93.3 42.1 93.3 41.9 C 93.3 41.9 93.3 41.9 93.3 41.9 Z M 95.1 40.4 C 95.1 40.5 95.1 40.5 95.1 40.4 C 95.1 40.4 95.1 40.4 95.1 40.4 Z M 95.9 39.5 C 96.0 39.6 96.0 39.6 95.9 39.5 C 95.9 39.5 95.9 39.5 95.9 39.5 Z M 67.1 33.9 C 67.1 33.9 67.1 33.9 67.1 33.9 C 67.1 33.9 67.1 33.9 67.1 33.9 Z M 67.1 30.5 C 67.1 30.5 67.1 30.5 67.1 30.5 C 67.1 30.5 67.1 30.5 67.1 30.5 Z M 70.3 31.3 C 70.3 31.3 70.3 31.3 70.3 31.3 C 70.3 31.3 70.3 31.3 70.3 31.3 Z M 66.0 35.7 C 66.0 35.6 66.0 35.6 66.0 35.7 C 66.0 35.7 66.0 35.7 66.0 35.7 Z M 78.4 36.5 C 78.4 36.4 78.4 36.4 78.4 36.5 C 78.4 36.5 78.4 36.5 78.4 36.5 Z M 79.2 38.1 C 79.1 38.0 79.1 38.0 79.2 38.1 C 79.2 38.1 79.2 38.1 79.2 38.1 Z M 76.0 39.0 C 75.9 38.9 75.9 38.9 76.0 39.0 C 76.0 39.0 76.0 39.0 76.0 39.0 Z M 79.7 39.4 C 79.7 39.4 79.7 39.4 79.7 39.4 C 79.7 39.4 79.7 39.4 79.7 39.4 Z M 58.3 32.8 C 58.3 32.8 58.3 32.8 58.3 32.8 C 58.3 32.8 58.3 32.8 58.3 32.8 Z M 58.8 30.3 C 58.7 30.4 58.7 30.4 58.8 30.3 C 58.8 30.3 58.8 30.3 58.8 30.3 Z M 79.3 34.8 C 80.0 34.5 80.2 35.9 79.3 34.8 M 74.8 33.8 C 74.7 33.9 74.7 33.9 74.8 33.8 C 74.8 33.8 74.8 33.8 74.8 33.8 Z M 86.8 37.2 C 87.1 38.3 84.8 36.1 86.8 37.2 C 86.8 37.2 86.8 37.2 86.8 37.2 Z M 83.2 40.5 C 83.3 40.5 83.3 40.5 83.2 40.5 C 83.2 40.5 83.2 40.5 83.2 40.5 Z M 84.5 40.4 C 84.6 40.6 84.6 40.6 84.5 40.4 C 84.5 40.4 84.5 40.4 84.5 40.4 Z M 91.7 39.7 C 91.8 39.9 91.8 39.9 91.7 39.7 M 74.5 32.8 C 75.0 33.4 74.9 33.3 74.5 32.8 M 88.3 37.7 C 88.2 37.7 88.2 37.7 88.3 37.7 C 88.3 37.7 88.3 37.7 88.3 37.7 Z M 93.3 39.6 C 93.2 39.6 93.2 39.6 93.3 39.6 C 93.3 39.6 93.3 39.6 93.3 39.6 Z M 71.1 32.5 C 70.9 33.7 70.4 33.3 71.1 32.5 M 62.2 30.2 C 62.2 30.3 62.2 30.3 62.2 30.2 C 62.2 30.2 62.2 30.2 62.2 30.2 Z M 100.6 40.9 C 98.6 38.9 98.0 40.7 98.0 40.8 C 99.0 38.4 95.6 41.1 95.9 41.7 C 95.7 42.0 96.3 46.8 98.8 44.8 C 99.3 44.6 99.4 45.4 99.7 45.6 C 102.7 46.3 98.0 43.6 101.7 44.7 C 102.2 45.2 100.8 47.1 103.4 46.3 C 103.4 46.5 105.6 48.0 105.0 46.8 C 105.8 48.1 106.9 47.1 108.0 47.2 C 108.9 48.1 106.8 48.5 110.6 48.4 C 111.6 50.5 113.0 47.7 113.8 50.0 C 114.6 50.3 116.9 47.6 114.3 48.8 C 114.7 48.7 113.9 46.8 116.4 48.2 C 115.9 48.4 113.5 51.1 118.2 50.9 C 118.9 51.2 120.8 50.9 121.1 51.3 C 118.8 51.0 123.7 53.6 123.4 52.5 C 126.7 54.2 125.1 52.2 127.3 54.0 C 129.3 54.6 127.1 52.4 129.3 53.9 C 131.3 54.3 129.8 54.7 129.6 54.6 C 131.2 55.3 132.0 54.9 132.5 55.1 C 132.9 55.4 133.4 56.2 134.1 55.6 C 136.2 54.7 135.0 52.8 136.2 51.6 C 135.1 50.6 135.3 52.5 134.8 51.2 C 133.9 51.9 134.7 51.1 131.2 50.3 C 131.2 50.5 131.9 51.4 131.0 51.2 C 129.7 50.7 131.3 48.6 128.6 49.6 C 131.1 50.9 124.6 49.3 127.0 50.5 C 123.8 49.9 126.1 50.1 124.1 48.8 C 123.7 50.5 124.4 47.1 123.2 48.1 C 123.2 47.4 119.6 46.6 121.8 48.3 C 118.1 47.7 120.6 47.4 119.6 46.2 C 118.0 45.6 118.7 48.8 118.2 46.5 C 116.3 45.0 117.9 47.5 116.7 45.5 C 117.0 47.0 115.2 45.0 115.3 46.6 C 111.6 45.6 116.2 45.2 113.3 45.4 C 114.1 45.7 114.4 43.6 112.4 44.5 C 112.4 47.0 110.9 41.7 111.2 45.2 C 105.7 44.6 110.7 43.7 107.8 42.8 C 107.1 42.6 108.3 44.1 107.7 43.9 C 104.1 42.4 107.4 42.5 105.0 43.4 C 101.3 42.7 104.4 41.8 102.6 41.1 C 102.3 41.8 100.4 42.6 100.6 40.9 M 103.6 42.6 C 104.5 42.4 103.9 43.3 103.6 42.6 M 96.5 39.7 C 97.4 39.5 96.8 40.4 96.5 39.7 M 106.7 43.1 C 107.9 42.9 106.8 44.0 106.7 43.1 M 126.1 49.6 C 124.7 49.2 126.8 49.4 126.1 49.6 M 99.5 40.5 C 100.7 40.2 99.5 41.4 99.5 40.5 M 97.8 41.3 C 97.8 41.3 97.8 41.3 97.8 41.3 M 128.4 49.0 C 128.4 49.0 128.4 49.0 128.4 49.0 M 123.1 47.4 C 124.2 47.7 122.4 47.5 123.1 47.4 M 121.4 52.5 C 122.5 52.8 120.7 52.6 121.4 52.5 M 131.2 49.7 C 132.5 49.7 131.4 50.4 131.2 49.7 M 133.8 51.7 C 135.0 51.6 134.3 52.5 133.8 51.7 M 102.4 44.2 C 102.4 44.3 102.4 44.3 102.4 44.2 C 102.4 44.2 102.4 44.2 102.4 44.2 Z M 111.6 48.4 C 110.6 47.5 112.8 49.4 111.6 48.4 M 110.9 44.5 C 111.3 45.7 109.4 43.9 110.9 44.5 C 110.9 44.5 110.9 44.5 110.9 44.5 Z M 109.0 44.4 C 109.0 44.5 109.0 44.5 109.0 44.4 C 109.0 44.4 109.0 44.4 109.0 44.4 Z M 114.5 46.1 C 114.4 46.1 114.4 46.1 114.5 46.1 C 114.5 46.1 114.5 46.1 114.5 46.1 Z M 113.3 45.9 C 112.8 46.0 112.7 45.5 113.3 45.9 C 113.3 45.9 113.3 45.9 113.3 45.9 Z M 120.2 51.5 C 119.7 51.6 119.7 51.1 120.2 51.5 C 120.2 51.5 120.2 51.5 120.2 51.5 Z M 111.5 45.7 C 111.0 46.7 110.9 44.8 111.5 45.7 C 111.5 45.7 111.5 45.7 111.5 45.7 Z M 116.6 49.9 C 117.1 49.8 117.3 51.2 116.6 49.9 M 129.4 49.5 C 130.0 49.3 130.1 50.8 129.4 49.5 M 118.0 45.8 C 118.6 45.6 118.7 47.1 118.0 45.8 M 104.4 42.3 C 104.4 42.5 104.4 42.5 104.4 42.3 M 109.4 48.8 C 110.2 48.6 109.6 49.4 109.4 48.8 M 98.7 45.2 C 99.5 45.0 98.9 45.8 98.7 45.2 M 126.3 53.8 C 126.4 53.5 127.5 54.3 126.3 53.8 M 118.9 47.8 C 119.8 48.3 120.7 49.1 118.6 48.4 C 118.6 48.2 119.2 48.2 118.9 47.8 C 118.9 47.8 118.9 47.8 118.9 47.8 Z M 121.8 51.3 C 121.9 51.4 121.9 51.4 121.8 51.3 M 120.9 47.4 C 121.1 47.5 121.1 47.5 120.9 47.4 M 126.8 49.2 C 126.9 49.4 126.9 49.4 126.8 49.2 M 127.6 49.2 C 127.6 49.2 127.6 49.2 127.6 49.2 C 127.6 49.2 127.6 49.2 127.6 49.2 Z M 134.2 50.7 C 134.1 50.7 134.1 50.7 134.2 50.7 C 134.2 50.7 134.2 50.7 134.2 50.7 Z M 124.9 48.8 C 124.8 48.9 124.8 48.9 124.9 48.8 C 124.9 48.8 124.9 48.8 124.9 48.8 Z M 129.0 54.4 C 129.0 54.4 129.0 54.4 129.0 54.4 C 129.0 54.4 129.0 54.4 129.0 54.4 Z M 128.5 53.6 C 128.5 53.6 128.5 53.6 128.5 53.6 C 128.5 53.6 128.5 53.6 128.5 53.6 Z M 101.1 41.1 C 102.2 40.6 101.0 43.0 101.1 41.1 M 131.4 54.4 C 132.0 55.4 129.8 54.1 131.4 54.4 C 131.4 54.4 131.4 54.4 131.4 54.4 Z M 123.9 49.5 C 124.0 49.7 124.0 49.7 123.9 49.5 M 128.0 49.4 C 128.0 49.5 128.0 49.5 128.0 49.4 M 111.1 43.5 C 111.1 43.7 111.1 43.7 111.1 43.5 M 132.4 50.9 C 135.1 52.0 130.7 52.0 132.4 50.9 M 109.6 44.1 C 109.5 44.0 109.5 44.0 109.6 44.1 M 115.1 47.9 C 117.0 48.4 114.3 48.3 115.1 47.9 M 120.2 48.0 C 120.1 48.0 120.1 48.0 120.2 48.0 C 120.2 48.0 120.2 48.0 120.2 48.0 Z M 117.5 47.2 C 116.1 46.9 117.2 46.8 117.5 47.2 C 117.5 47.2 117.5 47.2 117.5 47.2 Z M 102.1 42.4 C 103.8 43.1 100.2 42.2 102.1 42.4 C 102.1 42.4 102.1 42.4 102.1 42.4 Z M 130.4 53.0 C 130.4 53.0 130.4 53.0 130.4 53.0 C 130.4 53.0 130.4 53.0 130.4 53.0 Z M 124.8 48.0 C 123.9 48.0 124.5 47.6 124.8 48.0 C 124.8 48.0 124.8 48.0 124.8 48.0 Z M 135.1 51.0 C 134.3 51.0 134.9 50.5 135.1 51.0 C 135.1 51.0 135.1 51.0 135.1 51.0 Z M 100.1 41.6 C 105.9 45.2 91.7 38.6 100.1 41.6 C 100.1 41.6 100.1 41.6 100.1 41.6 Z M 118.8 46.8 C 118.7 46.8 118.7 46.8 118.8 46.8 C 118.8 46.8 118.8 46.8 118.8 46.8 Z M 107.3 42.6 C 107.2 42.6 107.2 42.6 107.3 42.6 C 107.3 42.6 107.3 42.6 107.3 42.6 Z M 105.0 42.9 C 104.9 43.0 104.9 43.0 105.0 42.9 C 105.0 42.9 105.0 42.9 105.0 42.9 Z M 104.3 47.2 C 104.3 47.2 104.3 47.2 104.3 47.2 C 104.3 47.2 104.3 47.2 104.3 47.2 Z M 105.6 45.5 C 105.4 45.6 105.4 45.6 105.6 45.5 C 105.6 45.5 105.6 45.5 105.6 45.5 Z M 101.3 45.0 C 101.2 45.1 101.2 45.1 101.3 45.0 C 101.3 45.0 101.3 45.0 101.3 45.0 Z M 101.2 45.6 C 101.2 45.6 101.2 45.6 101.2 45.6 C 101.2 45.6 101.2 45.6 101.2 45.6 Z M 127.6 50.5 C 127.5 50.6 127.5 50.6 127.6 50.5 C 127.6 50.5 127.6 50.5 127.6 50.5 Z M 124.9 51.6 C 126.6 51.4 124.2 52.3 124.9 51.6 C 124.9 51.6 124.9 51.6 124.9 51.6 Z M 112.0 46.8 C 113.5 47.0 111.0 47.1 112.0 46.8 C 112.0 46.8 112.0 46.8 112.0 46.8 Z M 112.9 49.5 C 112.9 49.5 112.9 49.5 112.9 49.5 C 112.9 49.5 112.9 49.5 112.9 49.5 Z M 105.3 41.9 C 105.2 42.0 105.2 42.0 105.3 41.9 C 105.3 41.9 105.3 41.9 105.3 41.9 Z M 102.6 41.9 C 102.2 42.7 102.0 41.2 102.6 41.9 M 115.3 45.1 C 115.3 45.3 115.3 45.3 115.3 45.1 C 115.3 45.1 115.3 45.1 115.3 45.1 Z M 122.9 48.9 C 122.8 48.9 122.8 48.9 122.9 48.9 C 122.9 48.9 122.9 48.9 122.9 48.9 Z M 130.9 50.7 C 130.9 50.8 130.9 50.8 130.9 50.7 C 130.9 50.7 130.9 50.7 130.9 50.7 Z M 120.2 46.7 C 120.2 46.8 120.2 46.8 120.2 46.7 C 120.2 46.7 120.2 46.7 120.2 46.7 Z M 116.2 46.4 C 116.2 46.5 116.2 46.5 116.2 46.4 C 116.2 46.4 116.2 46.4 116.2 46.4 Z M 132.3 52.4 C 132.2 52.4 132.2 52.4 132.3 52.4 C 132.3 52.4 132.3 52.4 132.3 52.4 Z M 121.1 46.9 C 121.1 46.9 121.1 46.9 121.1 46.9 C 121.1 46.9 121.1 46.9 121.1 46.9 Z M 122.6 50.3 C 122.5 50.3 122.5 50.3 122.6 50.3 C 122.6 50.3 122.6 50.3 122.6 50.3 Z M 103.3 40.8 C 103.3 40.8 103.3 40.8 103.3 40.8 C 103.3 40.8 103.3 40.8 103.3 40.8 Z M 132.7 51.3 C 132.7 51.3 132.7 51.3 132.7 51.3 C 132.7 51.3 132.7 51.3 132.7 51.3 Z M 133.4 50.7 C 133.4 50.7 133.4 50.7 133.4 50.7 C 133.4 50.7 133.4 50.7 133.4 50.7 Z M 126.6 53.1 C 124.0 51.8 129.2 53.6 127.4 52.1 C 131.5 53.1 127.2 53.3 126.6 53.1 C 126.6 53.1 126.6 53.1 126.6 53.1 Z M 137.3 51.5 C 135.4 52.1 135.0 53.3 135.4 54.7 C 135.9 55.5 136.6 53.2 136.1 55.1 C 134.2 55.0 135.9 58.3 136.7 55.8 C 139.1 56.1 136.6 57.5 138.3 56.9 C 140.8 57.4 139.3 57.8 141.3 58.2 C 142.8 57.1 142.2 59.2 143.1 58.0 C 141.7 59.2 145.2 58.3 145.1 58.9 C 143.1 59.3 151.7 60.9 147.3 59.1 C 149.4 59.0 148.7 60.1 149.2 60.5 C 150.3 59.9 152.1 62.1 153.5 61.6 C 153.3 61.3 152.8 61.1 152.7 60.8 C 152.5 60.1 153.9 61.3 153.8 61.2 C 154.6 61.1 157.9 61.1 154.2 61.7 C 153.9 62.3 156.9 62.1 156.7 62.7 C 159.5 63.6 157.8 61.5 158.7 62.9 C 160.7 63.6 162.1 64.0 162.2 63.8 C 163.3 64.3 163.3 65.2 164.6 64.8 C 166.6 67.0 167.2 62.4 167.3 65.6 C 168.2 65.1 168.3 67.2 168.7 65.4 C 167.6 66.0 172.4 68.0 170.7 66.1 C 171.4 65.8 173.8 69.1 173.9 67.1 C 175.5 66.0 175.7 64.6 173.6 62.6 C 173.6 63.7 171.4 60.7 172.6 63.1 C 174.6 64.3 168.6 62.6 170.0 62.3 C 171.0 60.2 166.8 62.8 166.0 60.9 C 166.7 62.0 161.8 61.0 163.7 59.8 C 162.8 59.4 162.4 60.1 161.7 58.9 C 164.5 59.9 160.0 60.3 160.5 59.3 C 161.2 58.9 157.0 57.1 157.2 58.1 C 158.0 60.8 156.2 57.3 155.2 58.0 C 152.7 57.8 156.1 56.2 153.9 57.3 C 153.5 56.9 150.3 55.9 152.5 56.1 C 153.1 56.5 149.8 58.0 150.1 56.0 C 153.8 55.9 146.4 54.2 147.3 55.1 C 152.2 57.7 141.4 54.7 145.8 54.9 C 143.8 53.1 146.6 54.7 143.6 54.2 C 143.8 55.0 141.4 54.9 142.3 53.8 C 142.4 51.9 140.8 56.0 139.8 53.0 C 139.8 51.9 136.0 52.7 137.7 51.9 C 137.8 51.8 137.4 51.5 137.3 51.5 M 138.2 52.0 C 137.7 52.3 137.8 51.3 138.2 52.0 M 137.7 52.2 C 137.7 52.2 137.7 52.2 137.7 52.2 C 137.7 52.2 137.7 52.2 137.7 52.2 Z M 143.2 54.2 C 143.2 54.1 143.2 54.1 143.2 54.2 C 143.2 54.2 143.2 54.2 143.2 54.2 Z M 146.2 60.0 C 146.2 60.0 146.2 60.0 146.2 60.0 C 146.2 60.0 146.2 60.0 146.2 60.0 Z M 146.9 55.4 C 146.8 55.4 146.8 55.4 146.9 55.4 C 146.9 55.4 146.9 55.4 146.9 55.4 Z M 141.1 53.9 C 141.1 53.9 141.1 53.9 141.1 53.9 C 141.1 53.9 141.1 53.9 141.1 53.9 Z M 146.7 54.6 C 146.8 55.4 145.6 53.7 146.8 54.5 C 146.9 54.6 146.6 54.5 146.7 54.6 M 151.6 55.8 C 151.7 55.9 151.7 55.9 151.6 55.8 M 160.7 64.3 C 160.7 64.4 160.7 64.4 160.7 64.3 M 163.2 59.2 C 163.3 59.3 163.3 59.3 163.2 59.2 M 156.3 57.9 C 157.8 58.3 156.5 58.4 156.3 57.9 M 167.0 60.7 C 165.3 59.8 169.1 61.0 167.0 60.7 M 168.9 60.9 C 169.1 61.0 169.1 61.0 168.9 60.9 M 160.5 58.6 C 160.4 58.7 160.4 58.7 160.5 58.6 C 160.5 58.6 160.5 58.6 160.5 58.6 Z M 155.7 57.5 C 153.9 56.5 157.9 57.4 155.7 57.5 M 144.0 53.7 C 145.2 53.7 143.8 54.6 144.0 53.7 M 141.7 53.5 C 141.7 53.5 141.7 53.5 141.7 53.5 C 141.7 53.5 141.7 53.5 141.7 53.5 Z M 164.0 59.8 C 164.0 59.8 164.0 59.8 164.0 59.8 C 164.0 59.8 164.0 59.8 164.0 59.8 Z M 166.2 60.3 C 166.1 60.3 166.1 60.3 166.2 60.3 C 166.2 60.3 166.2 60.3 166.2 60.3 Z M 168.3 66.4 C 168.2 66.4 168.2 66.4 168.3 66.4 C 168.3 66.4 168.3 66.4 168.3 66.4 Z M 142.7 56.0 C 141.4 55.2 144.7 54.8 144.0 56.0 C 144.1 56.5 142.9 55.9 142.7 56.0 M 153.9 58.6 C 153.7 60.4 153.1 55.8 153.9 58.6 M 168.9 62.1 C 169.7 64.5 167.5 60.1 168.9 62.1 M 171.9 62.6 C 172.6 63.3 166.4 61.2 171.0 62.0 C 171.5 61.8 171.7 62.3 171.9 62.6 M 151.5 56.6 C 151.6 57.7 149.3 55.5 151.5 56.6 M 159.5 62.1 C 160.4 61.7 162.4 61.7 161.3 62.5 C 160.9 63.9 158.5 62.4 159.5 62.1 M 138.4 53.1 C 140.0 51.9 138.0 54.3 138.4 53.1 M 144.0 54.9 C 144.0 54.8 144.0 54.8 144.0 54.9 C 144.0 54.9 144.0 54.9 144.0 54.9 Z M 146.3 55.3 C 146.4 55.5 146.4 55.5 146.3 55.3 M 139.7 52.0 C 139.8 52.2 139.8 52.2 139.7 52.0 M 160.0 60.5 C 160.0 60.7 160.0 60.7 160.0 60.5 M 155.7 58.2 C 157.4 60.3 154.5 58.2 155.7 58.2 M 149.6 59.5 C 150.0 60.4 148.2 59.1 149.6 59.5 M 159.5 58.7 C 160.6 60.6 156.9 59.4 159.5 58.7 M 154.7 57.7 C 154.8 57.8 154.8 57.8 154.7 57.7 C 154.7 57.7 154.7 57.7 154.7 57.7 Z M 160.1 62.5 C 160.0 62.5 160.0 62.5 160.1 62.5 C 160.1 62.5 160.1 62.5 160.1 62.5 Z M 160.7 62.6 C 160.7 62.6 160.7 62.6 160.7 62.6 C 160.7 62.6 160.7 62.6 160.7 62.6 Z M 161.4 59.1 C 161.3 59.1 161.3 59.1 161.4 59.1 C 161.4 59.1 161.4 59.1 161.4 59.1 Z M 140.4 57.3 C 141.9 57.9 139.1 57.2 140.4 57.3 C 140.4 57.3 140.4 57.3 140.4 57.3 Z M 148.5 55.2 C 150.7 57.0 146.4 55.7 148.5 55.2 C 148.5 55.2 148.5 55.2 148.5 55.2 Z M 150.8 57.9 C 150.8 58.0 150.8 58.0 150.8 57.9 C 150.8 57.9 150.8 57.9 150.8 57.9 Z M 158.7 57.5 C 158.7 57.6 158.7 57.6 158.7 57.5 C 158.7 57.5 158.7 57.5 158.7 57.5 Z M 141.1 57.7 C 141.1 57.8 141.1 57.8 141.1 57.7 C 141.1 57.7 141.1 57.7 141.1 57.7 Z M 165.5 61.2 C 165.5 61.2 165.5 61.2 165.5 61.2 C 165.5 61.2 165.5 61.2 165.5 61.2 Z M 155.8 61.4 C 156.5 61.1 155.8 61.9 155.8 61.4 C 155.8 61.4 155.8 61.4 155.8 61.4 Z M 158.1 62.1 C 158.2 62.1 158.2 62.1 158.1 62.1 C 158.1 62.1 158.1 62.1 158.1 62.1 Z M 169.5 60.9 C 169.6 61.0 169.6 61.0 169.5 60.9 C 169.5 60.9 169.5 60.9 169.5 60.9 Z M 163.6 65.2 C 163.7 65.2 163.7 65.2 163.6 65.2 C 163.6 65.2 163.6 65.2 163.6 65.2 Z M 166.0 64.1 C 166.0 64.1 166.0 64.1 166.0 64.1 C 166.0 64.1 166.0 64.1 166.0 64.1 Z M 160.9 59.3 C 163.3 59.7 160.2 59.8 160.9 59.3 C 160.9 59.3 160.9 59.3 160.9 59.3 Z M 171.8 65.4 C 171.9 65.5 171.9 65.5 171.8 65.4 C 171.8 65.4 171.8 65.4 171.8 65.4 Z M 173.6 63.8 C 173.6 63.9 173.6 63.9 173.6 63.8 C 173.6 63.8 173.6 63.8 173.6 63.8 Z M 174.5 62.9 C 174.5 63.0 174.5 63.0 174.5 62.9 C 174.5 62.9 174.5 62.9 174.5 62.9 Z M 145.6 57.4 C 145.6 57.3 145.6 57.3 145.6 57.4 C 145.6 57.4 145.6 57.4 145.6 57.4 Z M 145.7 54.0 C 145.6 53.9 145.6 53.9 145.7 54.0 C 145.7 54.0 145.7 54.0 145.7 54.0 Z M 148.8 54.7 C 148.8 54.7 148.8 54.7 148.8 54.7 C 148.8 54.7 148.8 54.7 148.8 54.7 Z M 144.5 59.1 C 144.5 59.1 144.5 59.1 144.5 59.1 C 144.5 59.1 144.5 59.1 144.5 59.1 Z M 157.0 59.9 C 156.9 59.8 156.9 59.8 157.0 59.9 C 157.0 59.9 157.0 59.9 157.0 59.9 Z M 157.7 61.5 C 157.6 61.4 157.6 61.4 157.7 61.5 C 157.7 61.5 157.7 61.5 157.7 61.5 Z M 154.5 62.4 C 154.5 62.4 154.5 62.4 154.5 62.4 C 154.5 62.4 154.5 62.4 154.5 62.4 Z M 158.2 62.9 C 158.2 62.8 158.2 62.8 158.2 62.9 C 158.2 62.9 158.2 62.9 158.2 62.9 Z M 136.9 56.2 C 136.8 56.2 136.8 56.2 136.9 56.2 C 136.9 56.2 136.9 56.2 136.9 56.2 Z M 137.3 53.7 C 137.3 53.8 137.3 53.8 137.3 53.7 C 137.3 53.7 137.3 53.7 137.3 53.7 Z M 157.8 58.3 C 158.5 57.9 158.7 59.3 157.8 58.3 M 153.3 57.2 C 153.3 57.3 153.3 57.3 153.3 57.2 C 153.3 57.2 153.3 57.2 153.3 57.2 Z M 165.3 60.6 C 165.6 61.7 163.3 59.5 165.3 60.6 C 165.3 60.6 165.3 60.6 165.3 60.6 Z M 161.7 63.9 C 161.8 63.9 161.8 63.9 161.7 63.9 C 161.7 63.9 161.7 63.9 161.7 63.9 Z M 163.0 63.9 C 163.1 64.0 163.1 64.0 163.0 63.9 C 163.0 63.9 163.0 63.9 163.0 63.9 Z M 170.2 63.2 C 170.3 63.3 170.3 63.3 170.2 63.2 M 153.0 56.2 C 153.5 56.8 153.4 56.7 153.0 56.2 M 166.8 61.1 C 166.7 61.1 166.7 61.1 166.8 61.1 C 166.8 61.1 166.8 61.1 166.8 61.1 Z M 171.8 63.1 C 171.7 63.1 171.7 63.1 171.8 63.1 C 171.8 63.1 171.8 63.1 171.8 63.1 Z M 149.6 55.9 C 149.4 57.1 148.9 56.7 149.6 55.9 M 140.7 53.7 C 140.7 53.7 140.7 53.7 140.7 53.7 C 140.7 53.7 140.7 53.7 140.7 53.7 Z M 179.1 64.3 C 177.1 62.3 176.5 64.1 176.5 64.2 C 177.5 61.8 174.1 64.5 174.4 65.1 C 174.2 65.4 174.8 70.2 177.3 68.2 C 177.9 68.0 177.9 68.8 178.2 69.0 C 181.2 69.8 176.6 67.0 180.2 68.1 C 180.7 68.7 179.4 70.5 181.9 69.7 C 181.9 69.9 184.1 71.4 183.5 70.2 C 184.3 71.5 185.4 70.6 186.6 70.7 C 187.4 71.5 185.3 71.9 189.1 71.8 C 190.1 73.9 191.5 71.2 192.3 73.4 C 193.2 73.7 195.4 71.1 192.9 72.2 C 193.2 72.1 192.4 70.3 194.9 71.6 C 194.4 71.9 192.0 74.5 196.8 74.3 C 197.4 74.6 199.3 74.3 199.6 74.7 C 197.3 74.4 202.2 77.0 202.0 75.9 C 205.2 77.6 203.6 75.6 205.8 77.4 C 207.9 78.0 205.6 75.8 207.9 77.4 C 209.8 77.8 208.3 78.1 208.1 78.0 C 209.7 78.7 210.5 78.3 211.1 78.5 C 211.4 78.8 211.9 79.6 212.6 79.0 C 214.7 78.1 213.6 76.2 214.8 75.1 C 213.7 74.0 213.9 76.0 213.3 74.6 C 212.4 75.3 213.2 74.5 209.7 73.7 C 209.7 73.9 210.4 74.8 209.5 74.6 C 208.2 74.1 209.8 72.0 207.1 73.0 C 209.6 74.3 203.2 72.7 205.5 73.9 C 202.3 73.3 204.7 73.5 202.6 72.2 C 202.3 73.9 202.9 70.5 201.7 71.5 C 201.7 70.8 198.1 70.0 200.4 71.8 C 196.6 71.1 199.2 70.9 198.1 69.6 C 196.5 69.0 197.2 72.2 196.8 69.9 C 194.9 68.4 196.4 70.9 195.3 68.9 C 195.6 70.4 193.7 68.4 193.8 70.0 C 190.1 69.1 194.8 68.6 191.8 68.9 C 192.6 69.2 192.9 67.1 190.9 67.9 C 190.9 70.4 189.5 65.2 189.7 68.6 C 184.2 68.0 189.2 67.1 186.4 66.2 C 185.6 66.0 186.8 67.5 186.2 67.3 C 182.6 65.8 185.9 65.9 183.5 66.8 C 179.8 66.1 182.9 65.2 181.1 64.6 C 180.8 65.3 179.0 66.1 179.1 64.3 M 182.1 66.0 C 183.0 65.8 182.4 66.7 182.1 66.0 M 175.1 63.1 C 176.0 62.9 175.4 63.8 175.1 63.1 M 185.3 66.5 C 186.4 66.3 185.3 67.4 185.3 66.5 M 204.6 73.1 C 203.2 72.7 205.3 72.8 204.6 73.1 M 178.0 63.9 C 179.2 63.6 178.0 64.8 178.0 63.9 M 176.3 64.7 C 176.4 64.8 176.4 64.8 176.3 64.7 M 206.9 72.4 C 206.9 72.4 206.9 72.4 206.9 72.4 M 201.7 70.8 C 202.8 71.2 200.9 70.9 201.7 70.8 M 199.9 75.9 C 201.0 76.3 199.2 76.0 199.9 75.9 M 209.8 73.2 C 211.0 73.1 209.9 73.8 209.8 73.2 M 212.3 75.2 C 213.5 75.0 212.8 75.9 212.3 75.2 M 180.9 67.6 C 180.9 67.7 180.9 67.7 180.9 67.6 C 180.9 67.6 180.9 67.6 180.9 67.6 Z M 190.1 71.8 C 189.2 70.9 191.4 72.8 190.1 71.8 M 189.4 67.9 C 189.8 69.2 187.9 67.4 189.4 67.9 C 189.4 67.9 189.4 67.9 189.4 67.9 Z M 187.6 67.9 C 187.5 67.9 187.5 67.9 187.6 67.9 C 187.6 67.9 187.6 67.9 187.6 67.9 Z M 193.0 69.5 C 192.9 69.5 192.9 69.5 193.0 69.5 C 193.0 69.5 193.0 69.5 193.0 69.5 Z M 191.8 69.3 C 191.3 69.4 191.3 68.9 191.8 69.3 C 191.8 69.3 191.8 69.3 191.8 69.3 Z M 198.7 75.0 C 198.2 75.0 198.2 74.6 198.7 75.0 C 198.7 75.0 198.7 75.0 198.7 75.0 Z M 190.0 69.1 C 189.6 70.1 189.4 68.2 190.0 69.1 C 190.0 69.1 190.0 69.1 190.0 69.1 Z M 195.1 73.4 C 195.7 73.2 195.8 74.7 195.1 73.4 M 207.9 72.9 C 208.5 72.8 208.6 74.2 207.9 72.9 M 196.5 69.2 C 197.1 69.0 197.3 70.5 196.5 69.2 M 182.9 65.8 C 183.0 65.9 183.0 65.9 182.9 65.8 M 187.9 72.2 C 188.8 72.0 188.1 72.8 187.9 72.2 M 177.2 68.6 C 178.1 68.5 177.4 69.2 177.2 68.6 M 204.9 77.2 C 204.9 77.0 206.0 77.7 204.9 77.2 M 197.4 71.2 C 198.4 71.7 199.2 72.5 197.1 71.9 C 197.1 71.6 197.8 71.6 197.4 71.2 C 197.4 71.2 197.4 71.2 197.4 71.2 Z M 200.3 74.7 C 200.4 74.9 200.4 74.9 200.3 74.7 M 199.5 70.8 C 199.6 71.0 199.6 71.0 199.5 70.8 M 205.3 72.7 C 205.4 72.9 205.4 72.9 205.3 72.7 M 206.1 72.6 C 206.1 72.6 206.1 72.6 206.1 72.6 C 206.1 72.6 206.1 72.6 206.1 72.6 Z M 212.7 74.1 C 212.7 74.1 212.7 74.1 212.7 74.1 C 212.7 74.1 212.7 74.1 212.7 74.1 Z M 203.4 72.2 C 203.4 72.3 203.4 72.3 203.4 72.2 C 203.4 72.2 203.4 72.2 203.4 72.2 Z M 207.5 77.8 C 207.5 77.9 207.5 77.9 207.5 77.8 C 207.5 77.8 207.5 77.8 207.5 77.8 Z M 207.0 77.0 C 207.0 77.0 207.0 77.0 207.0 77.0 C 207.0 77.0 207.0 77.0 207.0 77.0 Z M 179.6 64.5 C 180.7 64.0 179.6 66.4 179.6 64.5 M 209.9 77.8 C 210.5 78.8 208.4 77.5 209.9 77.8 C 209.9 77.8 209.9 77.8 209.9 77.8 Z M 202.4 72.9 C 202.5 73.1 202.5 73.1 202.4 72.9 M 206.5 72.8 C 206.5 73.0 206.5 73.0 206.5 72.8 M 189.6 66.9 C 189.7 67.1 189.7 67.1 189.6 66.9 M 210.9 74.3 C 213.6 75.4 209.3 75.5 210.9 74.3 M 188.1 67.5 C 188.0 67.4 188.0 67.4 188.1 67.5 M 193.7 71.3 C 195.5 71.8 192.8 71.7 193.7 71.3 M 198.7 71.4 C 198.7 71.4 198.7 71.4 198.7 71.4 C 198.7 71.4 198.7 71.4 198.7 71.4 Z M 196.0 70.6 C 194.6 70.3 195.7 70.2 196.0 70.6 C 196.0 70.6 196.0 70.6 196.0 70.6 Z M 180.6 65.8 C 182.3 66.5 178.8 65.6 180.6 65.8 C 180.6 65.8 180.6 65.8 180.6 65.8 Z M 209.0 76.4 C 208.9 76.5 208.9 76.5 209.0 76.4 C 209.0 76.4 209.0 76.4 209.0 76.4 Z M 203.3 71.4 C 202.4 71.4 203.0 71.0 203.3 71.4 C 203.3 71.4 203.3 71.4 203.3 71.4 Z M 213.7 74.4 C 212.8 74.4 213.4 74.0 213.7 74.4 C 213.7 74.4 213.7 74.4 213.7 74.4 Z M 178.6 65.0 C 184.4 68.7 170.3 62.0 178.6 65.0 C 178.6 65.0 178.6 65.0 178.6 65.0 Z M 197.3 70.2 C 197.2 70.2 197.2 70.2 197.3 70.2 C 197.3 70.2 197.3 70.2 197.3 70.2 Z M 185.8 66.0 C 185.7 66.0 185.7 66.0 185.8 66.0 C 185.8 66.0 185.8 66.0 185.8 66.0 Z M 183.5 66.3 C 183.5 66.4 183.5 66.4 183.5 66.3 C 183.5 66.3 183.5 66.3 183.5 66.3 Z M 182.9 70.6 C 182.8 70.6 182.8 70.6 182.9 70.6 C 182.9 70.6 182.9 70.6 182.9 70.6 Z M 184.1 68.9 C 184.0 69.0 184.0 69.0 184.1 68.9 C 184.1 68.9 184.1 68.9 184.1 68.9 Z M 179.8 68.4 C 179.7 68.5 179.7 68.5 179.8 68.4 C 179.8 68.4 179.8 68.4 179.8 68.4 Z M 179.7 69.0 C 179.7 69.0 179.7 69.0 179.7 69.0 C 179.7 69.0 179.7 69.0 179.7 69.0 Z M 206.1 73.9 C 206.1 74.0 206.1 74.0 206.1 73.9 C 206.1 73.9 206.1 73.9 206.1 73.9 Z M 203.4 75.0 C 205.1 74.8 202.7 75.7 203.4 75.0 C 203.4 75.0 203.4 75.0 203.4 75.0 Z M 190.6 70.3 C 192.0 70.4 189.5 70.5 190.6 70.3 C 190.6 70.3 190.6 70.3 190.6 70.3 Z M 191.4 72.9 C 191.4 72.9 191.4 72.9 191.4 72.9 C 191.4 72.9 191.4 72.9 191.4 72.9 Z M 183.8 65.4 C 183.7 65.4 183.7 65.4 183.8 65.4 C 183.8 65.4 183.8 65.4 183.8 65.4 Z M 181.1 65.3 C 180.7 66.1 180.5 64.7 181.1 65.3 M 193.8 68.6 C 193.8 68.7 193.8 68.7 193.8 68.6 C 193.8 68.6 193.8 68.6 193.8 68.6 Z M 201.4 72.3 C 201.3 72.3 201.3 72.3 201.4 72.3 C 201.4 72.3 201.4 72.3 201.4 72.3 Z M 209.4 74.1 C 209.4 74.2 209.4 74.2 209.4 74.1 C 209.4 74.1 209.4 74.1 209.4 74.1 Z M 198.7 70.1 C 198.7 70.3 198.7 70.3 198.7 70.1 C 198.7 70.1 198.7 70.1 198.7 70.1 Z M 194.8 69.8 C 194.7 69.9 194.7 69.9 194.8 69.8 C 194.8 69.8 194.8 69.8 194.8 69.8 Z M 210.8 75.8 C 210.7 75.9 210.7 75.9 210.8 75.8 C 210.8 75.8 210.8 75.8 210.8 75.8 Z M 199.7 70.3 C 199.6 70.3 199.6 70.3 199.7 70.3 C 199.7 70.3 199.7 70.3 199.7 70.3 Z M 201.1 73.7 C 201.0 73.8 201.0 73.8 201.1 73.7 C 201.1 73.7 201.1 73.7 201.1 73.7 Z M 181.8 64.2 C 181.8 64.2 181.8 64.2 181.8 64.2 C 181.8 64.2 181.8 64.2 181.8 64.2 Z M 211.2 74.7 C 211.2 74.7 211.2 74.7 211.2 74.7 C 211.2 74.7 211.2 74.7 211.2 74.7 Z M 212.0 74.1 C 211.9 74.1 211.9 74.1 212.0 74.1 C 212.0 74.1 212.0 74.1 212.0 74.1 Z M 205.1 76.5 C 202.5 75.2 207.7 77.1 206.0 75.5 C 210.0 76.5 205.7 76.7 205.1 76.5 C 205.1 76.5 205.1 76.5 205.1 76.5 Z M 215.8 74.9 C 213.9 75.6 213.6 76.7 213.9 78.1 C 214.5 78.9 215.1 76.6 214.6 78.6 C 212.7 78.4 214.5 81.7 215.2 79.2 C 217.6 79.5 215.1 80.9 216.8 80.3 C 219.3 80.8 217.8 81.2 219.8 81.6 C 221.3 80.6 220.7 82.6 221.6 81.5 C 220.2 82.6 223.8 81.7 223.6 82.4 C 221.6 82.7 230.3 84.3 225.8 82.6 C 227.9 82.5 227.2 83.5 227.8 83.9 C 228.8 83.3 230.6 85.5 232.0 85.0 C 231.9 84.7 231.3 84.5 231.2 84.2 C 231.0 83.5 232.5 84.7 232.3 84.6 C 233.2 84.5 236.4 84.5 232.8 85.1 C 232.4 85.7 235.5 85.5 235.2 86.1 C 238.0 87.0 236.3 85.0 237.2 86.4 C 239.2 87.0 240.6 87.4 240.7 87.2 C 241.8 87.8 241.8 88.6 243.2 88.2 C 245.1 90.4 245.7 85.8 245.8 89.0 C 246.7 88.5 246.8 90.7 247.2 88.8 C 246.1 89.4 251.0 91.5 249.2 89.5 C 249.9 89.2 252.3 92.5 252.5 90.5 C 254.0 89.5 254.2 88.0 252.1 86.0 C 252.1 87.2 249.9 84.2 251.2 86.5 C 253.1 87.8 247.1 86.0 248.6 85.7 C 249.5 83.7 245.3 86.2 244.5 84.3 C 245.3 85.5 240.3 84.5 242.2 83.3 C 241.3 82.9 240.9 83.6 240.2 82.3 C 243.0 83.3 238.6 83.7 239.0 82.8 C 239.7 82.3 235.5 80.5 235.7 81.6 C 236.5 84.3 234.7 80.8 233.7 81.4 C 231.2 81.2 234.7 79.6 232.4 80.7 C 232.0 80.3 228.8 79.4 231.0 79.5 C 231.7 80.0 228.4 81.4 228.6 79.4 C 232.3 79.3 224.9 77.6 225.8 78.6 C 230.8 81.2 220.0 78.1 224.4 78.3 C 222.3 76.5 225.2 78.1 222.1 77.7 C 222.4 78.4 219.9 78.3 220.8 77.2 C 220.9 75.3 219.3 79.4 218.3 76.4 C 218.4 75.3 214.6 76.2 216.2 75.3 C 216.3 75.2 215.9 74.9 215.8 74.9 M 216.8 75.4 C 216.3 75.7 216.3 74.7 216.8 75.4 M 216.2 75.7 C 216.2 75.6 216.2 75.6 216.2 75.7 C 216.2 75.7 216.2 75.7 216.2 75.7 Z M 221.7 77.6 C 221.7 77.5 221.7 77.5 221.7 77.6 C 221.7 77.6 221.7 77.6 221.7 77.6 Z M 224.8 83.5 C 224.7 83.4 224.7 83.4 224.8 83.5 C 224.8 83.5 224.8 83.5 224.8 83.5 Z M 225.4 78.8 C 225.3 78.8 225.3 78.8 225.4 78.8 C 225.4 78.8 225.4 78.8 225.4 78.8 Z M 219.6 77.3 C 219.6 77.3 219.6 77.3 219.6 77.3 C 219.6 77.3 219.6 77.3 219.6 77.3 Z M 225.2 78.0 C 225.3 78.8 224.1 77.2 225.3 78.0 C 225.4 78.0 225.1 77.9 225.2 78.0 M 230.2 79.2 C 230.2 79.3 230.2 79.3 230.2 79.2 M 239.3 87.7 C 239.3 87.8 239.3 87.8 239.3 87.7 M 241.7 82.6 C 241.8 82.7 241.8 82.7 241.7 82.6 M 234.8 81.3 C 236.3 81.7 235.0 81.8 234.8 81.3 M 245.5 84.2 C 243.8 83.2 247.6 84.4 245.5 84.2 M 247.5 84.3 C 247.6 84.4 247.6 84.4 247.5 84.3 M 239.0 82.1 C 238.9 82.1 238.9 82.1 239.0 82.1 C 239.0 82.1 239.0 82.1 239.0 82.1 Z M 234.2 80.9 C 232.4 79.9 236.4 80.8 234.2 80.9 M 222.6 77.1 C 223.7 77.1 222.3 78.0 222.6 77.1 M 220.3 76.9 C 220.2 76.9 220.2 76.9 220.3 76.9 C 220.3 76.9 220.3 76.9 220.3 76.9 Z M 242.6 83.2 C 242.5 83.2 242.5 83.2 242.6 83.2 C 242.6 83.2 242.6 83.2 242.6 83.2 Z M 244.7 83.8 C 244.7 83.7 244.7 83.7 244.7 83.8 C 244.7 83.8 244.7 83.8 244.7 83.8 Z M 246.8 89.8 C 246.7 89.8 246.7 89.8 246.8 89.8 C 246.8 89.8 246.8 89.8 246.8 89.8 Z M 221.3 79.4 C 219.9 78.7 223.2 78.2 222.6 79.4 C 222.6 79.9 221.5 79.4 221.3 79.4 M 232.4 82.0 C 232.2 83.8 231.6 79.2 232.4 82.0 M 247.4 85.5 C 248.2 87.9 246.0 83.5 247.4 85.5 M 250.4 86.0 C 251.2 86.7 244.9 84.6 249.5 85.4 C 250.0 85.2 250.2 85.7 250.4 86.0 M 230.0 80.1 C 230.1 81.1 227.8 79.0 230.0 80.1 M 238.1 85.5 C 238.9 85.1 240.9 85.2 239.8 86.0 C 239.4 87.3 237.1 85.8 238.1 85.5 M 216.9 76.5 C 218.5 75.3 216.5 77.8 216.9 76.5 M 222.5 78.3 C 222.6 78.2 222.6 78.2 222.5 78.3 C 222.5 78.3 222.5 78.3 222.5 78.3 Z M 224.8 78.7 C 224.9 78.9 224.9 78.9 224.8 78.7 M 218.2 75.4 C 218.3 75.6 218.3 75.6 218.2 75.4 M 238.5 84.0 C 238.6 84.1 238.6 84.1 238.5 84.0 M 234.2 81.6 C 236.0 83.7 233.0 81.6 234.2 81.6 M 228.1 82.9 C 228.5 83.8 226.7 82.5 228.1 82.9 M 238.0 82.1 C 239.1 84.0 235.5 82.8 238.0 82.1 M 233.2 81.1 C 233.3 81.2 233.3 81.2 233.2 81.1 C 233.2 81.1 233.2 81.1 233.2 81.1 Z M 238.6 85.9 C 238.5 85.9 238.5 85.9 238.6 85.9 C 238.6 85.9 238.6 85.9 238.6 85.9 Z M 239.3 86.0 C 239.2 86.0 239.2 86.0 239.3 86.0 C 239.3 86.0 239.3 86.0 239.3 86.0 Z M 239.9 82.5 C 239.8 82.5 239.8 82.5 239.9 82.5 C 239.9 82.5 239.9 82.5 239.9 82.5 Z M 218.9 80.7 C 220.4 81.3 217.7 80.6 218.9 80.7 C 218.9 80.7 218.9 80.7 218.9 80.7 Z M 227.0 78.6 C 229.2 80.5 224.9 79.1 227.0 78.6 C 227.0 78.6 227.0 78.6 227.0 78.6 Z M 229.3 81.3 C 229.3 81.4 229.3 81.4 229.3 81.3 C 229.3 81.3 229.3 81.3 229.3 81.3 Z M 237.3 80.9 C 237.2 81.0 237.2 81.0 237.3 80.9 C 237.3 80.9 237.3 80.9 237.3 80.9 Z M 219.7 81.1 C 219.6 81.2 219.6 81.2 219.7 81.1 C 219.7 81.1 219.7 81.1 219.7 81.1 Z M 244.1 84.6 C 244.0 84.7 244.0 84.7 244.1 84.6 C 244.1 84.6 244.1 84.6 244.1 84.6 Z M 234.4 84.8 C 235.1 84.5 234.3 85.3 234.4 84.8 C 234.4 84.8 234.4 84.8 234.4 84.8 Z M 236.6 85.5 C 236.7 85.6 236.7 85.6 236.6 85.5 C 236.6 85.5 236.6 85.5 236.6 85.5 Z M 248.1 84.4 C 248.1 84.4 248.1 84.4 248.1 84.4 C 248.1 84.4 248.1 84.4 248.1 84.4 Z M 242.1 88.6 C 242.2 88.6 242.2 88.6 242.1 88.6 C 242.1 88.6 242.1 88.6 242.1 88.6 Z M 244.5 87.5 C 244.5 87.6 244.5 87.6 244.5 87.5 C 244.5 87.5 244.5 87.5 244.5 87.5 Z M 239.4 82.7 C 241.8 83.1 238.7 83.2 239.4 82.7 C 239.4 82.7 239.4 82.7 239.4 82.7 Z M 250.4 88.8 C 250.4 88.9 250.4 88.9 250.4 88.8 C 250.4 88.8 250.4 88.8 250.4 88.8 Z M 252.1 87.2 C 252.1 87.3 252.1 87.3 252.1 87.2 C 252.1 87.2 252.1 87.2 252.1 87.2 Z M 253.0 86.3 C 253.0 86.4 253.0 86.4 253.0 86.3 C 253.0 86.3 253.0 86.3 253.0 86.3 Z M 224.2 80.8 C 224.1 80.7 224.1 80.7 224.2 80.8 C 224.2 80.8 224.2 80.8 224.2 80.8 Z M 224.2 77.4 C 224.2 77.3 224.2 77.3 224.2 77.4 C 224.2 77.4 224.2 77.4 224.2 77.4 Z M 227.3 78.2 C 227.3 78.1 227.3 78.1 227.3 78.2 C 227.3 78.2 227.3 78.2 227.3 78.2 Z M 223.0 82.5 C 223.0 82.5 223.0 82.5 223.0 82.5 C 223.0 82.5 223.0 82.5 223.0 82.5 Z M 235.5 83.3 C 235.5 83.3 235.5 83.3 235.5 83.3 C 235.5 83.3 235.5 83.3 235.5 83.3 Z M 236.2 84.9 C 236.2 84.8 236.2 84.8 236.2 84.9 C 236.2 84.9 236.2 84.9 236.2 84.9 Z M 233.0 85.8 C 233.0 85.8 233.0 85.8 233.0 85.8 C 233.0 85.8 233.0 85.8 233.0 85.8 Z M 236.7 86.3 C 236.7 86.2 236.7 86.2 236.7 86.3 C 236.7 86.3 236.7 86.3 236.7 86.3 Z M 215.4 79.6 C 215.4 79.6 215.4 79.6 215.4 79.6 C 215.4 79.6 215.4 79.6 215.4 79.6 Z M 215.9 77.1 C 215.8 77.2 215.8 77.2 215.9 77.1 C 215.9 77.1 215.9 77.1 215.9 77.1 Z M 236.4 81.7 C 237.0 81.3 237.2 82.7 236.4 81.7 M 231.8 80.7 C 231.8 80.7 231.8 80.7 231.8 80.7 C 231.8 80.7 231.8 80.7 231.8 80.7 Z M 243.8 84.0 C 244.1 85.1 241.9 82.9 243.8 84.0 C 243.8 84.0 243.8 84.0 243.8 84.0 Z M 240.3 87.3 C 240.3 87.4 240.3 87.4 240.3 87.3 C 240.3 87.3 240.3 87.3 240.3 87.3 Z M 241.6 87.3 C 241.6 87.4 241.6 87.4 241.6 87.3 C 241.6 87.3 241.6 87.3 241.6 87.3 Z M 248.8 86.6 C 248.8 86.7 248.8 86.7 248.8 86.6 M 231.5 79.6 C 232.1 80.3 231.9 80.1 231.5 79.6 M 245.3 84.5 C 245.2 84.5 245.2 84.5 245.3 84.5 C 245.3 84.5 245.3 84.5 245.3 84.5 Z M 250.3 86.5 C 250.3 86.5 250.3 86.5 250.3 86.5 C 250.3 86.5 250.3 86.5 250.3 86.5 Z M 228.2 79.3 C 227.9 80.5 227.4 80.1 228.2 79.3 M 219.2 77.1 C 219.2 77.2 219.2 77.2 219.2 77.1 C 219.2 77.1 219.2 77.1 219.2 77.1 Z M 257.7 88.7 C 252.8 85.7 253.3 88.6 252.9 89.0 C 252.0 89.5 252.6 90.2 253.5 91.0 C 254.1 92.9 255.7 89.8 256.0 91.6 C 256.8 94.3 258.2 90.2 258.1 92.7 C 257.7 93.2 259.9 93.4 259.8 93.2 C 260.5 94.6 262.5 93.1 262.6 92.9 C 263.2 93.4 262.7 95.5 265.3 94.6 C 267.1 94.5 267.2 96.8 267.2 95.2 C 268.0 97.2 268.2 95.0 269.2 95.9 C 269.8 97.0 269.7 94.6 270.7 96.7 C 271.8 95.6 269.7 97.4 274.1 97.6 C 272.2 96.9 276.4 97.2 275.3 97.8 C 273.6 98.3 277.4 98.0 279.0 99.2 C 279.7 98.8 282.3 98.3 281.5 99.5 C 283.0 101.6 283.8 99.2 284.2 100.6 C 284.7 101.4 285.3 100.3 285.7 100.5 C 286.1 101.7 286.9 101.2 289.2 102.2 C 294.3 104.3 290.7 100.0 292.8 100.3 C 293.3 100.0 291.3 96.0 291.8 98.7 C 291.6 97.9 286.6 99.1 289.5 97.2 C 287.5 97.7 290.1 96.2 286.5 96.5 C 290.4 99.6 281.1 95.6 285.7 96.1 C 285.2 95.3 283.3 94.9 284.5 95.7 C 284.5 97.5 281.6 94.1 282.8 96.6 C 280.2 95.2 280.4 97.2 280.0 95.7 C 280.0 93.4 280.0 96.3 278.8 95.3 C 275.5 94.3 278.8 92.6 276.3 93.6 C 273.4 91.6 275.3 94.3 274.1 94.3 C 273.4 95.6 271.2 92.2 273.7 92.7 C 272.2 93.1 273.7 91.9 272.0 92.4 C 272.6 94.1 270.5 90.4 270.6 91.6 C 269.2 91.6 269.6 92.6 269.2 92.5 C 267.3 91.9 268.3 90.8 267.6 91.7 C 267.0 92.1 266.6 90.0 266.2 90.4 C 268.2 91.1 264.1 91.4 264.1 90.6 C 265.4 90.8 264.0 88.6 262.9 89.4 C 263.0 92.7 261.4 88.1 260.2 88.9 C 260.6 90.8 255.8 87.8 258.0 87.6 C 257.8 87.7 257.7 88.7 257.7 88.7 M 265.5 90.5 C 267.1 91.1 263.7 90.3 265.5 90.5 M 265.6 90.0 C 266.1 90.8 264.2 89.1 265.7 89.9 C 265.8 89.9 265.5 90.0 265.6 90.0 M 272.4 92.0 C 272.1 92.4 271.6 91.4 272.4 92.0 M 273.4 93.4 C 274.4 94.2 271.9 93.0 273.4 93.4 M 288.6 97.6 C 286.3 99.6 287.4 95.7 288.6 97.6 M 278.8 94.1 C 276.8 93.9 279.7 93.3 278.8 94.1 M 278.0 94.6 C 277.1 94.7 278.0 93.9 278.0 94.6 M 285.7 96.7 C 285.8 96.8 285.8 96.8 285.7 96.7 C 285.7 96.7 285.7 96.7 285.7 96.7 Z M 290.2 98.1 C 290.2 98.1 290.2 98.1 290.2 98.1 C 290.2 98.1 290.2 98.1 290.2 98.1 Z M 281.3 95.7 C 280.1 94.7 283.6 96.1 281.3 95.7 C 281.3 95.7 281.3 95.7 281.3 95.7 Z M 286.9 101.2 C 286.8 101.2 286.8 101.2 286.9 101.2 C 286.9 101.2 286.9 101.2 286.9 101.2 Z M 263.9 91.2 C 263.8 91.2 263.8 91.2 263.9 91.2 C 263.9 91.2 263.9 91.2 263.9 91.2 Z M 259.1 88.8 C 259.1 89.1 258.3 88.2 259.1 88.8 C 259.1 88.8 259.1 88.8 259.1 88.8 Z M 254.1 90.4 C 254.1 90.4 254.1 90.4 254.1 90.4 C 254.1 90.4 254.1 90.4 254.1 90.4 Z M 261.8 92.0 C 261.7 92.0 261.7 92.0 261.8 92.0 C 261.8 92.0 261.8 92.0 261.8 92.0 Z M 263.1 90.4 C 262.7 88.8 264.9 91.3 263.1 90.4 C 263.1 90.4 263.1 90.4 263.1 90.4 Z M 278.6 98.6 C 278.8 98.0 279.7 99.1 278.6 98.6 C 278.6 98.6 278.6 98.6 278.6 98.6 Z M 273.5 94.0 C 273.8 93.8 274.2 94.4 273.5 94.0 C 273.5 94.0 273.5 94.0 273.5 94.0 Z M 271.2 91.3 C 271.5 91.1 271.9 91.7 271.2 91.3 C 271.2 91.3 271.2 91.3 271.2 91.3 Z M 259.3 88.4 C 259.4 88.4 259.4 88.4 259.3 88.4 C 259.3 88.4 259.3 88.4 259.3 88.4 Z M 260.8 90.0 C 259.9 88.3 262.5 91.3 260.8 90.0 C 260.8 90.0 260.8 90.0 260.8 90.0 Z M 258.5 89.7 C 259.1 90.4 257.0 89.0 258.5 89.7 M 259.2 92.0 C 260.9 91.9 257.1 93.9 259.2 92.0 C 259.2 92.0 259.2 92.0 259.2 92.0 Z M 266.9 94.9 C 267.0 94.9 267.0 94.9 266.9 94.9 C 266.9 94.9 266.9 94.9 266.9 94.9 Z M 267.2 90.9 C 268.5 91.4 266.2 90.9 267.2 90.9 C 267.2 90.9 267.2 90.9 267.2 90.9 Z M 255.5 87.1 C 256.8 87.6 254.5 87.2 255.5 87.1 C 255.5 87.1 255.5 87.1 255.5 87.1 Z M 271.8 95.0 C 274.1 95.4 270.2 95.3 271.8 95.0 C 271.8 95.0 271.8 95.0 271.8 95.0 Z M 280.4 95.9 C 280.4 96.0 280.4 96.0 280.4 95.9 C 280.4 95.9 280.4 95.9 280.4 95.9 Z M 282.1 95.9 C 282.1 95.9 282.1 95.9 282.1 95.9 C 282.1 95.9 282.1 95.9 282.1 95.9 Z M 288.0 99.1 C 288.1 99.1 288.1 99.1 288.0 99.1 C 288.0 99.1 288.0 99.1 288.0 99.1 Z M 283.6 95.7 C 283.7 95.7 283.7 95.7 283.6 95.7 C 283.6 95.7 283.6 95.7 283.6 95.7 Z M 287.9 97.3 C 288.0 97.4 288.0 97.4 287.9 97.3 C 287.9 97.3 287.9 97.3 287.9 97.3 Z M 287.6 96.0 C 287.7 96.1 287.7 96.1 287.6 96.0 C 287.6 96.0 287.6 96.0 287.6 96.0 Z M 276.2 98.7 C 276.3 98.7 276.3 98.7 276.2 98.7 C 276.2 98.7 276.2 98.7 276.2 98.7 Z M 261.8 88.7 C 261.9 88.9 261.9 88.9 261.8 88.7 C 261.8 88.7 261.8 88.7 261.8 88.7 Z M 287.4 97.7 C 287.4 97.7 287.4 97.7 287.4 97.7 C 287.4 97.7 287.4 97.7 287.4 97.7 Z M 276.4 95.5 C 276.1 96.6 275.9 93.8 276.7 95.5 C 276.6 95.6 276.4 95.3 276.4 95.5 M 277.3 97.7 C 277.2 97.8 277.2 97.8 277.3 97.7 C 277.3 97.7 277.3 97.7 277.3 97.7 Z M 272.3 97.0 C 272.2 97.0 272.2 97.0 272.3 97.0 C 272.3 97.0 272.3 97.0 272.3 97.0 Z M 282.9 95.2 C 282.9 94.6 284.0 96.1 282.7 95.2 M 287.5 101.0 C 287.5 100.3 288.5 101.8 287.3 101.0 M 253.8 87.1 C 253.5 87.5 253.0 86.5 253.8 87.1 M 271.0 97.2 C 270.7 97.6 270.2 96.7 271.0 97.2 M 273.7 96.5 C 273.7 95.8 274.7 97.3 273.5 96.5 M 284.2 99.9 C 284.2 100.0 284.2 100.0 284.2 99.9 C 284.2 99.9 284.2 99.9 284.2 99.9 Z M 269.2 91.6 C 269.2 91.7 269.2 91.7 269.2 91.6 C 269.2 91.6 269.2 91.6 269.2 91.6 Z M 274.7 94.7 C 274.2 93.6 275.6 95.5 274.7 94.7 M 267.0 92.6 C 266.2 91.2 268.8 93.5 267.0 92.6 M 289.9 102.0 C 289.0 100.3 290.7 102.9 289.9 102.0 M 284.3 96.9 C 283.4 95.3 285.1 97.9 284.3 96.9 M 270.2 92.5 C 270.3 91.9 271.4 93.3 270.2 92.5 M 256.9 87.9 C 255.7 87.4 258.7 87.9 256.9 87.9 M 280.9 99.0 C 281.0 99.1 281.0 99.1 280.9 99.0 C 280.9 99.0 280.9 99.0 280.9 99.0 Z M 259.6 93.8 C 259.6 93.9 259.6 93.9 259.6 93.8 C 259.6 93.8 259.6 93.8 259.6 93.8 Z M 292.8 98.4 C 292.9 98.5 292.9 98.5 292.8 98.4 C 292.8 98.4 292.8 98.4 292.8 98.4 Z M 283.4 97.3 C 283.4 97.4 283.4 97.4 283.4 97.3 C 283.4 97.3 283.4 97.3 283.4 97.3 Z M 290.4 97.5 C 290.4 97.6 290.4 97.6 290.4 97.5 C 290.4 97.5 290.4 97.5 290.4 97.5 Z M 279.0 97.0 C 279.0 97.0 279.0 97.0 279.0 97.0 C 279.0 97.0 279.0 97.0 279.0 97.0 Z M 279.1 93.6 C 279.1 93.6 279.1 93.6 279.1 93.6 C 279.1 93.6 279.1 93.6 279.1 93.6 Z M 274.2 93.6 C 274.2 93.6 274.2 93.6 274.2 93.6 C 274.2 93.6 274.2 93.6 274.2 93.6 Z M 281.1 94.5 C 283.8 95.1 279.4 95.1 281.1 94.5 C 281.1 94.5 281.1 94.5 281.1 94.5 Z M 275.5 96.2 C 275.5 96.3 275.5 96.3 275.5 96.2 C 275.5 96.2 275.5 96.2 275.5 96.2 Z M 275.8 93.9 C 277.8 93.5 276.2 95.7 275.8 93.9 M 268.6 90.9 C 269.2 90.6 268.6 91.7 268.6 90.9 M 264.3 94.2 C 264.3 94.2 264.3 94.2 264.3 94.2 C 264.3 94.2 264.3 94.2 264.3 94.2 Z M 265.2 94.1 C 265.3 94.2 265.3 94.2 265.2 94.1 C 265.2 94.1 265.2 94.1 265.2 94.1 Z M 266.8 90.2 C 266.8 90.2 266.8 90.2 266.8 90.2 C 266.8 90.2 266.8 90.2 266.8 90.2 Z M 265.0 95.3 C 265.1 95.4 265.1 95.4 265.0 95.3 C 265.0 95.3 265.0 95.3 265.0 95.3 Z M 278.1 93.4 C 278.1 93.4 278.1 93.4 278.1 93.4 C 278.1 93.4 278.1 93.4 278.1 93.4 Z M 291.8 97.4 C 291.8 97.5 291.8 97.5 291.8 97.4 C 291.8 97.4 291.8 97.4 291.8 97.4 Z M 256.3 91.3 C 256.4 91.4 256.4 91.4 256.3 91.3 C 256.3 91.3 256.3 91.3 256.3 91.3 Z M 279.1 95.0 C 279.1 95.1 279.1 95.1 279.1 95.0 C 279.1 95.0 279.1 95.0 279.1 95.0 Z M 262.5 93.4 C 262.5 93.5 262.5 93.5 262.5 93.4 C 262.5 93.4 262.5 93.4 262.5 93.4 Z M 278.3 94.5 C 278.3 94.5 278.3 94.5 278.3 94.5 C 278.3 94.5 278.3 94.5 278.3 94.5 Z M 280.4 99.2 C 280.5 99.2 280.5 99.2 280.4 99.2 C 280.4 99.2 280.4 99.2 280.4 99.2 Z M 283.2 100.8 C 283.2 100.8 283.2 100.8 283.2 100.8 C 283.2 100.8 283.2 100.8 283.2 100.8 Z M 280.9 96.9 C 280.9 96.9 280.9 96.9 280.9 96.9 C 280.9 96.9 280.9 96.9 280.9 96.9 Z M 261.9 91.8 C 256.8 89.1 266.3 92.5 261.9 91.8 M 281.7 97.4 C 278.0 96.0 285.1 97.1 281.7 97.4 C 282.2 97.2 281.8 97.4 281.7 97.4 M 296.9 99.4 C 294.9 97.5 294.3 99.3 294.3 99.3 C 295.3 96.9 291.9 99.6 292.2 100.3 C 292.0 100.6 292.6 105.4 295.1 103.3 C 295.6 103.1 295.7 103.9 296.0 104.1 C 299.0 104.9 294.4 102.2 298.0 103.2 C 298.5 103.8 297.1 105.6 299.7 104.8 C 299.7 105.0 301.9 106.5 301.3 105.3 C 302.1 106.6 303.2 105.7 304.3 105.8 C 305.2 106.6 303.1 107.0 306.9 106.9 C 307.9 109.1 309.3 106.3 310.1 108.5 C 310.9 108.8 313.2 106.2 310.6 107.3 C 311.0 107.2 310.2 105.4 312.7 106.7 C 312.2 107.0 309.8 109.6 314.5 109.4 C 315.2 109.7 317.1 109.4 317.4 109.9 C 315.1 109.6 320.0 112.1 319.8 111.1 C 323.0 112.7 321.4 110.7 323.6 112.5 C 325.6 113.1 323.4 110.9 325.7 112.5 C 327.6 112.9 326.1 113.3 325.9 113.2 C 327.5 113.8 328.3 113.4 328.8 113.6 C 329.2 113.9 329.7 114.8 330.4 114.1 C 332.5 113.2 331.3 111.3 332.5 110.2 C 331.4 109.1 331.6 111.1 331.1 109.8 C 330.2 110.5 331.0 109.7 327.5 108.8 C 327.5 109.1 328.2 109.9 327.3 109.8 C 326.0 109.2 327.6 107.1 324.9 108.2 C 327.4 109.5 320.9 107.8 323.3 109.1 C 320.1 108.4 322.4 108.6 320.4 107.4 C 320.0 109.0 320.7 105.6 319.5 106.6 C 319.5 105.9 315.9 105.2 318.1 106.9 C 314.4 106.2 317.0 106.0 315.9 104.8 C 314.3 104.2 315.0 107.3 314.6 105.1 C 312.6 103.5 314.2 106.0 313.1 104.0 C 313.3 105.6 311.5 103.5 311.6 105.2 C 307.9 104.2 312.5 103.7 309.6 104.0 C 310.4 104.3 310.7 102.2 308.7 103.0 C 308.7 105.6 307.2 100.3 307.5 103.8 C 302.0 103.1 307.0 102.2 304.1 101.3 C 303.4 101.1 304.6 102.6 304.0 102.4 C 300.4 100.9 303.7 101.0 301.3 101.9 C 297.6 101.3 300.7 100.3 298.9 99.7 C 298.6 100.4 296.7 101.2 296.9 99.4 M 299.9 101.2 C 300.8 100.9 300.2 101.8 299.9 101.2 M 292.8 98.3 C 293.7 98.0 293.1 98.9 292.8 98.3 M 303.0 101.6 C 304.2 101.4 303.1 102.5 303.0 101.6 M 322.4 108.2 C 321.0 107.8 323.1 108.0 322.4 108.2 M 295.8 99.0 C 297.0 98.8 295.8 100.0 295.8 99.0 M 294.1 99.8 C 294.1 99.9 294.1 99.9 294.1 99.8 M 324.7 107.5 C 324.7 107.5 324.7 107.5 324.7 107.5 M 319.4 105.9 C 320.5 106.3 318.7 106.1 319.4 105.9 M 317.7 111.0 C 318.8 111.4 317.0 111.1 317.7 111.0 M 327.5 108.3 C 328.8 108.2 327.7 109.0 327.5 108.3 M 330.1 110.3 C 331.3 110.1 330.6 111.0 330.1 110.3 M 298.7 102.8 C 298.7 102.8 298.7 102.8 298.7 102.8 C 298.7 102.8 298.7 102.8 298.7 102.8 Z M 307.9 106.9 C 306.9 106.1 309.1 108.0 307.9 106.9 M 307.2 103.0 C 307.6 104.3 305.7 102.5 307.2 103.0 C 307.2 103.0 307.2 103.0 307.2 103.0 Z M 305.3 103.0 C 305.3 103.0 305.3 103.0 305.3 103.0 C 305.3 103.0 305.3 103.0 305.3 103.0 Z M 310.8 104.7 C 310.7 104.7 310.7 104.7 310.8 104.7 C 310.8 104.7 310.8 104.7 310.8 104.7 Z M 309.6 104.4 C 309.1 104.5 309.0 104.0 309.6 104.4 C 309.6 104.4 309.6 104.4 309.6 104.4 Z M 316.5 110.1 C 316.0 110.2 316.0 109.7 316.5 110.1 C 316.5 110.1 316.5 110.1 316.5 110.1 Z M 307.8 104.3 C 307.3 105.3 307.2 103.3 307.8 104.3 C 307.8 104.3 307.8 104.3 307.8 104.3 Z M 312.9 108.5 C 313.4 108.4 313.6 109.8 312.9 108.5 M 325.7 108.0 C 326.3 107.9 326.4 109.3 325.7 108.0 M 314.3 104.3 C 314.9 104.2 315.0 105.6 314.3 104.3 M 300.7 100.9 C 300.7 101.0 300.7 101.0 300.7 100.9 M 305.7 107.3 C 306.5 107.2 305.9 107.9 305.7 107.3 M 295.0 103.8 C 295.8 103.6 295.2 104.3 295.0 103.8 M 322.6 112.4 C 322.7 112.1 323.8 112.8 322.6 112.4 M 315.2 106.4 C 316.2 106.8 317.0 107.7 314.9 107.0 C 314.9 106.7 315.5 106.7 315.2 106.4 C 315.2 106.4 315.2 106.4 315.2 106.4 Z M 318.1 109.8 C 318.2 110.0 318.2 110.0 318.1 109.8 M 317.2 105.9 C 317.4 106.1 317.4 106.1 317.2 105.9 M 323.1 107.8 C 323.2 108.0 323.2 108.0 323.1 107.8 M 323.9 107.7 C 323.9 107.8 323.9 107.8 323.9 107.7 C 323.9 107.7 323.9 107.7 323.9 107.7 Z M 330.5 109.2 C 330.5 109.2 330.5 109.2 330.5 109.2 C 330.5 109.2 330.5 109.2 330.5 109.2 Z M 321.2 107.4 C 321.1 107.4 321.1 107.4 321.2 107.4 C 321.2 107.4 321.2 107.4 321.2 107.4 Z M 325.3 112.9 C 325.3 113.0 325.3 113.0 325.3 112.9 C 325.3 112.9 325.3 112.9 325.3 112.9 Z M 324.8 112.1 C 324.8 112.2 324.8 112.2 324.8 112.1 C 324.8 112.1 324.8 112.1 324.8 112.1 Z M 297.4 99.6 C 298.5 99.1 297.3 101.6 297.4 99.6 M 327.7 113.0 C 328.3 113.9 326.1 112.7 327.7 113.0 C 327.7 113.0 327.7 113.0 327.7 113.0 Z M 320.2 108.0 C 320.3 108.2 320.3 108.2 320.2 108.0 M 324.3 107.9 C 324.3 108.1 324.3 108.1 324.3 107.9 M 307.4 102.0 C 307.5 102.2 307.5 102.2 307.4 102.0 M 328.7 109.5 C 331.4 110.5 327.0 110.6 328.7 109.5 M 305.9 102.7 C 305.8 102.6 305.8 102.6 305.9 102.7 M 311.4 106.4 C 313.3 106.9 310.6 106.8 311.4 106.4 M 316.5 106.5 C 316.4 106.6 316.4 106.6 316.5 106.5 C 316.5 106.5 316.5 106.5 316.5 106.5 Z M 313.8 105.7 C 312.4 105.5 313.5 105.3 313.8 105.7 C 313.8 105.7 313.8 105.7 313.8 105.7 Z M 298.4 101.0 C 300.1 101.6 296.5 100.8 298.4 101.0 C 298.4 101.0 298.4 101.0 298.4 101.0 Z M 326.7 111.5 C 326.7 111.6 326.7 111.6 326.7 111.5 C 326.7 111.5 326.7 111.5 326.7 111.5 Z M 321.1 106.5 C 320.2 106.6 320.8 106.1 321.1 106.5 C 321.1 106.5 321.1 106.5 321.1 106.5 Z M 331.4 109.5 C 330.6 109.5 331.2 109.1 331.4 109.5 C 331.4 109.5 331.4 109.5 331.4 109.5 Z M 296.4 100.2 C 302.2 103.8 288.0 97.2 296.4 100.2 C 296.4 100.2 296.4 100.2 296.4 100.2 Z M 315.1 105.3 C 315.0 105.4 315.0 105.4 315.1 105.3 C 315.1 105.3 315.1 105.3 315.1 105.3 Z M 303.6 101.1 C 303.5 101.2 303.5 101.2 303.6 101.1 C 303.6 101.1 303.6 101.1 303.6 101.1 Z M 301.3 101.5 C 301.2 101.5 301.2 101.5 301.3 101.5 C 301.3 101.5 301.3 101.5 301.3 101.5 Z M 300.6 105.7 C 300.6 105.8 300.6 105.8 300.6 105.7 C 300.6 105.7 300.6 105.7 300.6 105.7 Z M 301.9 104.1 C 301.7 104.2 301.7 104.2 301.9 104.1 C 301.9 104.1 301.9 104.1 301.9 104.1 Z M 297.6 103.5 C 297.5 103.6 297.5 103.6 297.6 103.5 C 297.6 103.5 297.6 103.5 297.6 103.5 Z M 297.5 104.1 C 297.5 104.1 297.5 104.1 297.5 104.1 C 297.5 104.1 297.5 104.1 297.5 104.1 Z M 323.9 109.1 C 323.8 109.1 323.8 109.1 323.9 109.1 C 323.9 109.1 323.9 109.1 323.9 109.1 Z M 321.2 110.1 C 322.9 110.0 320.5 110.9 321.2 110.1 C 321.2 110.1 321.2 110.1 321.2 110.1 Z M 308.3 105.4 C 309.8 105.6 307.3 105.6 308.3 105.4 C 308.3 105.4 308.3 105.4 308.3 105.4 Z M 309.2 108.0 C 309.2 108.1 309.2 108.1 309.2 108.0 C 309.2 108.0 309.2 108.0 309.2 108.0 Z M 301.6 100.5 C 301.5 100.6 301.5 100.6 301.6 100.5 C 301.6 100.5 301.6 100.5 301.6 100.5 Z M 298.9 100.4 C 298.5 101.3 298.3 99.8 298.9 100.4 M 311.6 103.7 C 311.6 103.8 311.6 103.8 311.6 103.7 C 311.6 103.7 311.6 103.7 311.6 103.7 Z M 319.2 107.4 C 319.1 107.5 319.1 107.5 319.2 107.4 C 319.2 107.4 319.2 107.4 319.2 107.4 Z M 327.2 109.2 C 327.2 109.3 327.2 109.3 327.2 109.2 C 327.2 109.2 327.2 109.2 327.2 109.2 Z M 316.5 105.3 C 316.5 105.4 316.5 105.4 316.5 105.3 C 316.5 105.3 316.5 105.3 316.5 105.3 Z M 312.5 104.9 C 312.5 105.0 312.5 105.0 312.5 104.9 C 312.5 104.9 312.5 104.9 312.5 104.9 Z M 328.6 110.9 C 328.5 111.0 328.5 111.0 328.6 110.9 C 328.6 110.9 328.6 110.9 328.6 110.9 Z M 317.5 105.4 C 317.4 105.4 317.4 105.4 317.5 105.4 C 317.5 105.4 317.5 105.4 317.5 105.4 Z M 318.9 108.8 C 318.8 108.9 318.8 108.9 318.9 108.8 C 318.9 108.8 318.9 108.8 318.9 108.8 Z M 299.6 99.3 C 299.6 99.4 299.6 99.4 299.6 99.3 C 299.6 99.3 299.6 99.3 299.6 99.3 Z M 329.0 109.8 C 329.0 109.9 329.0 109.9 329.0 109.8 C 329.0 109.8 329.0 109.8 329.0 109.8 Z M 329.7 109.2 C 329.7 109.2 329.7 109.2 329.7 109.2 C 329.7 109.2 329.7 109.2 329.7 109.2 Z M 322.9 111.6 C 320.3 110.3 325.5 112.2 323.7 110.6 C 327.8 111.6 323.5 111.8 322.9 111.6 C 322.9 111.6 322.9 111.6 322.9 111.6 Z M 333.6 110.0 C 331.7 110.7 331.3 111.8 331.7 113.2 C 332.2 114.0 332.9 111.7 332.4 113.7 C 330.5 113.5 332.2 116.9 333.0 114.3 C 335.4 114.7 332.9 116.1 334.6 115.5 C 337.1 116.0 335.6 116.3 337.6 116.7 C 339.1 115.7 338.5 117.8 339.4 116.6 C 338.0 117.7 341.5 116.8 341.4 117.5 C 339.4 117.8 348.0 119.5 343.6 117.7 C 345.7 117.6 345.0 118.7 345.6 119.0 C 346.6 118.4 348.4 120.6 349.8 120.1 C 349.6 119.9 349.1 119.6 349.0 119.3 C 348.8 118.7 350.2 119.8 350.1 119.7 C 350.9 119.6 354.2 119.7 350.6 120.2 C 350.2 120.8 353.3 120.7 353.0 121.3 C 355.8 122.1 354.1 120.1 355.0 121.5 C 357.0 122.1 358.4 122.5 358.5 122.4 C 359.6 122.9 359.6 123.7 360.9 123.3 C 362.9 125.5 363.5 120.9 363.6 124.1 C 364.5 123.7 364.6 125.8 365.0 123.9 C 363.9 124.5 368.7 126.6 367.0 124.6 C 367.7 124.3 370.1 127.6 370.2 125.6 C 371.8 124.6 372.0 123.2 369.9 121.2 C 369.9 122.3 367.7 119.3 368.9 121.6 C 370.9 122.9 364.9 121.1 366.4 120.9 C 367.3 118.8 363.1 121.4 362.3 119.4 C 363.0 120.6 358.1 119.6 360.0 118.4 C 359.1 118.0 358.7 118.7 358.0 117.5 C 360.8 118.5 356.3 118.8 356.8 117.9 C 357.5 117.4 353.3 115.6 353.5 116.7 C 354.3 119.4 352.5 115.9 351.5 116.5 C 349.0 116.3 352.4 114.8 350.2 115.9 C 349.8 115.4 346.6 114.5 348.8 114.6 C 349.5 115.1 346.1 116.5 346.4 114.5 C 350.1 114.5 342.7 112.8 343.6 113.7 C 348.5 116.3 337.7 113.2 342.1 113.4 C 340.1 111.7 343.0 113.2 339.9 112.8 C 340.1 113.5 337.7 113.4 338.6 112.4 C 338.7 110.4 337.1 114.5 336.1 111.5 C 336.1 110.4 332.3 111.3 334.0 110.5 C 334.1 110.4 333.7 110.0 333.6 110.0 M 334.5 110.5 C 334.0 110.8 334.1 109.8 334.5 110.5 M 334.0 110.8 C 334.0 110.7 334.0 110.7 334.0 110.8 C 334.0 110.8 334.0 110.8 334.0 110.8 Z M 339.5 112.7 C 339.5 112.7 339.5 112.7 339.5 112.7 C 339.5 112.7 339.5 112.7 339.5 112.7 Z M 342.5 118.6 C 342.5 118.5 342.5 118.5 342.5 118.6 C 342.5 118.6 342.5 118.6 342.5 118.6 Z M 343.2 113.9 C 343.1 113.9 343.1 113.9 343.2 113.9 C 343.2 113.9 343.2 113.9 343.2 113.9 Z M 337.4 112.4 C 337.4 112.4 337.4 112.4 337.4 112.4 C 337.4 112.4 337.4 112.4 337.4 112.4 Z M 343.0 113.2 C 343.1 113.9 341.9 112.3 343.1 113.1 C 343.2 113.1 342.9 113.1 343.0 113.2 M 348.0 114.3 C 348.0 114.4 348.0 114.4 348.0 114.3 M 357.0 122.9 C 357.0 123.0 357.0 123.0 357.0 122.9 M 359.5 117.7 C 359.6 117.9 359.6 117.9 359.5 117.7 M 352.6 116.5 C 354.1 116.8 352.8 116.9 352.6 116.5 M 363.3 119.3 C 361.6 118.3 365.4 119.5 363.3 119.3 M 365.2 119.4 C 365.4 119.5 365.4 119.5 365.2 119.4 M 356.8 117.2 C 356.7 117.2 356.7 117.2 356.8 117.2 C 356.8 117.2 356.8 117.2 356.8 117.2 Z M 352.0 116.0 C 350.2 115.1 354.2 116.0 352.0 116.0 M 340.3 112.3 C 341.5 112.3 340.1 113.1 340.3 112.3 M 338.0 112.0 C 338.0 112.0 338.0 112.0 338.0 112.0 C 338.0 112.0 338.0 112.0 338.0 112.0 Z M 360.3 118.4 C 360.3 118.4 360.3 118.4 360.3 118.4 C 360.3 118.4 360.3 118.4 360.3 118.4 Z M 362.5 118.9 C 362.4 118.9 362.4 118.9 362.5 118.9 C 362.5 118.9 362.5 118.9 362.5 118.9 Z M 364.6 124.9 C 364.5 124.9 364.5 124.9 364.6 124.9 C 364.6 124.9 364.6 124.9 364.6 124.9 Z M 339.0 114.6 C 337.7 113.8 341.0 113.4 340.4 114.5 C 340.4 115.1 339.2 114.5 339.0 114.6 M 350.2 117.1 C 350.0 118.9 349.4 114.4 350.2 117.1 M 365.2 120.6 C 366.0 123.1 363.8 118.7 365.2 120.6 M 368.2 121.1 C 368.9 121.8 362.7 119.8 367.3 120.5 C 367.8 120.3 368.0 120.8 368.2 121.1 M 347.8 115.2 C 347.9 116.3 345.6 114.1 347.8 115.2 M 355.8 120.7 C 356.7 120.3 358.7 120.3 357.6 121.1 C 357.2 122.4 354.8 120.9 355.8 120.7 M 334.7 111.6 C 336.3 110.5 334.3 112.9 334.7 111.6 M 340.3 113.4 C 340.3 113.4 340.3 113.4 340.3 113.4 C 340.3 113.4 340.3 113.4 340.3 113.4 Z M 342.6 113.8 C 342.7 114.0 342.7 114.0 342.6 113.8 M 336.0 110.6 C 336.1 110.7 336.1 110.7 336.0 110.6 M 356.3 119.1 C 356.3 119.2 356.3 119.2 356.3 119.1 M 352.0 116.7 C 353.7 118.9 350.8 116.7 352.0 116.7 M 345.9 118.0 C 346.3 118.9 344.5 117.7 345.9 118.0 M 355.8 117.2 C 356.9 119.1 353.2 117.9 355.8 117.2 M 351.0 116.3 C 351.1 116.3 351.1 116.3 351.0 116.3 C 351.0 116.3 351.0 116.3 351.0 116.3 Z M 356.4 121.0 C 356.3 121.0 356.3 121.0 356.4 121.0 C 356.4 121.0 356.4 121.0 356.4 121.0 Z M 357.0 121.1 C 357.0 121.1 357.0 121.1 357.0 121.1 C 357.0 121.1 357.0 121.1 357.0 121.1 Z M 357.7 117.6 C 357.6 117.7 357.6 117.7 357.7 117.6 C 357.7 117.6 357.7 117.6 357.7 117.6 Z M 336.7 115.8 C 338.2 116.4 335.4 115.7 336.7 115.8 C 336.7 115.8 336.7 115.8 336.7 115.8 Z M 344.8 113.7 C 347.0 115.6 342.7 114.2 344.8 113.7 C 344.8 113.7 344.8 113.7 344.8 113.7 Z M 347.1 116.4 C 347.1 116.5 347.1 116.5 347.1 116.4 C 347.1 116.4 347.1 116.4 347.1 116.4 Z M 355.0 116.1 C 355.0 116.1 355.0 116.1 355.0 116.1 C 355.0 116.1 355.0 116.1 355.0 116.1 Z M 337.4 116.3 C 337.4 116.3 337.4 116.3 337.4 116.3 C 337.4 116.3 337.4 116.3 337.4 116.3 Z M 361.8 119.7 C 361.8 119.8 361.8 119.8 361.8 119.7 C 361.8 119.7 361.8 119.7 361.8 119.7 Z M 352.1 120.0 C 352.9 119.6 352.1 120.4 352.1 120.0 C 352.1 120.0 352.1 120.0 352.1 120.0 Z M 354.4 120.7 C 354.5 120.7 354.5 120.7 354.4 120.7 C 354.4 120.7 354.4 120.7 354.4 120.7 Z M 365.8 119.5 C 365.9 119.5 365.9 119.5 365.8 119.5 C 365.8 119.5 365.8 119.5 365.8 119.5 Z M 359.9 123.8 C 360.0 123.8 360.0 123.8 359.9 123.8 C 359.9 123.8 359.9 123.8 359.9 123.8 Z M 362.3 122.7 C 362.3 122.7 362.3 122.7 362.3 122.7 C 362.3 122.7 362.3 122.7 362.3 122.7 Z M 357.2 117.9 C 359.6 118.3 356.5 118.3 357.2 117.9 C 357.2 117.9 357.2 117.9 357.2 117.9 Z M 368.1 123.9 C 368.2 124.0 368.2 124.0 368.1 123.9 C 368.1 123.9 368.1 123.9 368.1 123.9 Z M 369.9 122.3 C 369.9 122.4 369.9 122.4 369.9 122.3 C 369.9 122.3 369.9 122.3 369.9 122.3 Z M 370.8 121.5 C 370.8 121.6 370.8 121.6 370.8 121.5 C 370.8 121.5 370.8 121.5 370.8 121.5 Z M 341.9 115.9 C 341.9 115.8 341.9 115.8 341.9 115.9 C 341.9 115.9 341.9 115.9 341.9 115.9 Z M 342.0 112.5 C 341.9 112.5 341.9 112.5 342.0 112.5 C 342.0 112.5 342.0 112.5 342.0 112.5 Z M 345.1 113.3 C 345.1 113.2 345.1 113.2 345.1 113.3 C 345.1 113.3 345.1 113.3 345.1 113.3 Z M 340.8 117.6 C 340.8 117.6 340.8 117.6 340.8 117.6 C 340.8 117.6 340.8 117.6 340.8 117.6 Z M 353.3 118.5 C 353.2 118.4 353.2 118.4 353.3 118.5 C 353.3 118.5 353.3 118.5 353.3 118.5 Z M 354.0 120.1 C 353.9 120.0 353.9 120.0 354.0 120.1 C 354.0 120.1 354.0 120.1 354.0 120.1 Z M 350.8 120.9 C 350.8 120.9 350.8 120.9 350.8 120.9 C 350.8 120.9 350.8 120.9 350.8 120.9 Z M 354.5 121.4 C 354.5 121.4 354.5 121.4 354.5 121.4 C 354.5 121.4 354.5 121.4 354.5 121.4 Z M 333.2 114.7 C 333.1 114.8 333.1 114.8 333.2 114.7 C 333.2 114.7 333.2 114.7 333.2 114.7 Z M 333.6 112.2 C 333.6 112.3 333.6 112.3 333.6 112.2 C 333.6 112.2 333.6 112.2 333.6 112.2 Z M 354.1 116.8 C 354.8 116.5 355.0 117.8 354.1 116.8 M 349.6 115.8 C 349.6 115.8 349.6 115.8 349.6 115.8 C 349.6 115.8 349.6 115.8 349.6 115.8 Z M 361.6 119.1 C 361.9 120.3 359.7 118.0 361.6 119.1 C 361.6 119.1 361.6 119.1 361.6 119.1 Z M 358.0 122.5 C 358.1 122.5 358.1 122.5 358.0 122.5 C 358.0 122.5 358.0 122.5 358.0 122.5 Z M 359.3 122.4 C 359.4 122.5 359.4 122.5 359.3 122.4 C 359.3 122.4 359.3 122.4 359.3 122.4 Z M 366.5 121.7 C 366.6 121.8 366.6 121.8 366.5 121.7 M 349.3 114.8 C 349.8 115.4 349.7 115.3 349.3 114.8 M 363.1 119.6 C 363.0 119.6 363.0 119.6 363.1 119.6 C 363.1 119.6 363.1 119.6 363.1 119.6 Z M 368.1 121.6 C 368.0 121.6 368.0 121.6 368.1 121.6 C 368.1 121.6 368.1 121.6 368.1 121.6 Z M 345.9 114.5 C 345.7 115.7 345.2 115.2 345.9 114.5 M 337.0 112.2 C 337.0 112.3 337.0 112.3 337.0 112.2 C 337.0 112.2 337.0 112.2 337.0 112.2 Z M 375.4 122.9 C 373.4 120.9 372.8 122.7 372.8 122.7 C 373.8 120.4 370.4 123.1 370.7 123.7 C 370.5 124.0 371.1 128.8 373.6 126.7 C 374.2 126.5 374.2 127.4 374.5 127.5 C 377.5 128.3 372.9 125.6 376.5 126.7 C 377.0 127.2 375.7 129.0 378.2 128.2 C 378.2 128.5 380.4 129.9 379.8 128.7 C 380.7 130.0 381.7 129.1 382.9 129.2 C 383.7 130.0 381.6 130.4 385.4 130.3 C 386.4 132.5 387.8 129.7 388.6 131.9 C 389.5 132.3 391.7 129.6 389.2 130.7 C 389.5 130.6 388.7 128.8 391.3 130.1 C 390.7 130.4 388.3 133.1 393.1 132.9 C 393.7 133.1 395.6 132.8 395.9 133.3 C 393.6 133.0 398.5 135.6 398.3 134.5 C 401.5 136.1 400.0 134.1 402.1 135.9 C 404.2 136.6 401.9 134.3 404.2 135.9 C 406.1 136.3 404.6 136.7 404.4 136.6 C 406.0 137.2 406.8 136.8 407.4 137.1 C 407.7 137.3 408.2 138.2 408.9 137.5 C 411.0 136.6 409.9 134.8 411.1 133.6 C 410.0 132.5 410.2 134.5 409.6 133.2 C 408.7 133.9 409.5 133.1 406.0 132.2 C 406.0 132.5 406.7 133.3 405.8 133.2 C 404.5 132.7 406.2 130.6 403.4 131.6 C 405.9 132.9 399.5 131.2 401.8 132.5 C 398.6 131.8 401.0 132.0 398.9 130.8 C 398.6 132.4 399.2 129.0 398.0 130.1 C 398.0 129.3 394.5 128.6 396.7 130.3 C 392.9 129.6 395.5 129.4 394.4 128.2 C 392.8 127.6 393.5 130.8 393.1 128.5 C 391.2 126.9 392.7 129.4 391.6 127.4 C 391.9 129.0 390.0 126.9 390.1 128.6 C 386.4 127.6 391.1 127.1 388.1 127.4 C 388.9 127.7 389.2 125.6 387.2 126.4 C 387.2 129.0 385.8 123.7 386.0 127.2 C 380.5 126.5 385.5 125.6 382.7 124.8 C 381.9 124.6 383.1 126.0 382.5 125.9 C 378.9 124.3 382.2 124.4 379.8 125.4 C 376.1 124.7 379.2 123.7 377.4 123.1 C 377.1 123.8 375.3 124.6 375.4 122.9 M 378.4 124.6 C 379.3 124.3 378.7 125.2 378.4 124.6 M 371.4 121.7 C 372.3 121.4 371.7 122.3 371.4 121.7 M 381.6 125.0 C 382.7 124.8 381.6 125.9 381.6 125.0 M 400.9 131.6 C 399.5 131.2 401.6 131.4 400.9 131.6 M 374.3 122.4 C 375.5 122.2 374.3 123.4 374.3 122.4 M 372.6 123.3 C 372.7 123.3 372.7 123.3 372.6 123.3 M 403.2 130.9 C 403.2 131.0 403.2 131.0 403.2 130.9 M 398.0 129.3 C 399.1 129.7 397.2 129.5 398.0 129.3 M 396.2 134.4 C 397.3 134.8 395.5 134.6 396.2 134.4 M 406.1 131.7 C 407.3 131.6 406.2 132.4 406.1 131.7 M 408.7 133.7 C 409.8 133.5 409.1 134.4 408.7 133.7 M 377.2 126.2 C 377.2 126.2 377.2 126.2 377.2 126.2 C 377.2 126.2 377.2 126.2 377.2 126.2 Z M 386.5 130.3 C 385.5 129.5 387.7 131.4 386.5 130.3 M 385.7 126.4 C 386.1 127.7 384.2 125.9 385.7 126.4 C 385.7 126.4 385.7 126.4 385.7 126.4 Z M 383.9 126.4 C 383.8 126.4 383.8 126.4 383.9 126.4 C 383.9 126.4 383.9 126.4 383.9 126.4 Z M 389.3 128.1 C 389.2 128.1 389.2 128.1 389.3 128.1 C 389.3 128.1 389.3 128.1 389.3 128.1 Z M 388.1 127.8 C 387.6 127.9 387.6 127.4 388.1 127.8 C 388.1 127.8 388.1 127.8 388.1 127.8 Z M 395.0 133.5 C 394.5 133.6 394.5 133.1 395.0 133.5 C 395.0 133.5 395.0 133.5 395.0 133.5 Z M 386.3 127.7 C 385.9 128.7 385.7 126.8 386.3 127.7 C 386.3 127.7 386.3 127.7 386.3 127.7 Z M 391.4 131.9 C 392.0 131.8 392.1 133.2 391.4 131.9 M 404.2 131.4 C 404.8 131.3 405.0 132.7 404.2 131.4 M 392.8 127.7 C 393.4 127.6 393.6 129.0 392.8 127.7 M 379.2 124.3 C 379.3 124.5 379.3 124.5 379.2 124.3 M 384.2 130.7 C 385.1 130.6 384.4 131.3 384.2 130.7 M 373.5 127.2 C 374.4 127.0 373.7 127.8 373.5 127.2 M 401.2 135.8 C 401.2 135.5 402.3 136.3 401.2 135.8 M 393.7 129.8 C 394.7 130.2 395.5 131.1 393.4 130.4 C 393.4 130.1 394.1 130.2 393.7 129.8 C 393.7 129.8 393.7 129.8 393.7 129.8 Z M 396.6 133.3 C 396.7 133.4 396.7 133.4 396.6 133.3 M 395.8 129.4 C 395.9 129.5 395.9 129.5 395.8 129.4 M 401.6 131.2 C 401.7 131.4 401.7 131.4 401.6 131.2 M 402.4 131.1 C 402.4 131.2 402.4 131.2 402.4 131.1 C 402.4 131.1 402.4 131.1 402.4 131.1 Z M 409.0 132.6 C 409.0 132.7 409.0 132.7 409.0 132.6 C 409.0 132.6 409.0 132.6 409.0 132.6 Z M 399.7 130.8 C 399.7 130.8 399.7 130.8 399.7 130.8 C 399.7 130.8 399.7 130.8 399.7 130.8 Z M 403.8 136.4 C 403.8 136.4 403.8 136.4 403.8 136.4 C 403.8 136.4 403.8 136.4 403.8 136.4 Z M 403.3 135.5 C 403.3 135.6 403.3 135.6 403.3 135.5 C 403.3 135.5 403.3 135.5 403.3 135.5 Z M 375.9 123.0 C 377.0 122.6 375.9 125.0 375.9 123.0 M 406.2 136.4 C 406.8 137.4 404.7 136.1 406.2 136.4 C 406.2 136.4 406.2 136.4 406.2 136.4 Z M 398.7 131.5 C 398.8 131.6 398.8 131.6 398.7 131.5 M 402.8 131.3 C 402.8 131.5 402.8 131.5 402.8 131.3 M 385.9 125.5 C 386.0 125.6 386.0 125.6 385.9 125.5 M 407.2 132.9 C 409.9 134.0 405.6 134.0 407.2 132.9 M 384.4 126.1 C 384.3 126.0 384.3 126.0 384.4 126.1 M 390.0 129.9 C 391.8 130.3 389.1 130.3 390.0 129.9 M 395.0 129.9 C 395.0 130.0 395.0 130.0 395.0 129.9 C 395.0 129.9 395.0 129.9 395.0 129.9 Z M 392.3 129.1 C 390.9 128.9 392.0 128.7 392.3 129.1 C 392.3 129.1 392.3 129.1 392.3 129.1 Z M 376.9 124.4 C 378.6 125.0 375.1 124.2 376.9 124.4 C 376.9 124.4 376.9 124.4 376.9 124.4 Z M 405.3 134.9 C 405.2 135.0 405.2 135.0 405.3 134.9 C 405.3 134.9 405.3 134.9 405.3 134.9 Z M 399.6 130.0 C 398.7 130.0 399.3 129.5 399.6 130.0 C 399.6 130.0 399.6 130.0 399.6 130.0 Z M 410.0 132.9 C 409.1 132.9 409.7 132.5 410.0 132.9 C 410.0 132.9 410.0 132.9 410.0 132.9 Z M 374.9 123.6 C 380.7 127.2 366.6 120.6 374.9 123.6 C 374.9 123.6 374.9 123.6 374.9 123.6 Z M 393.6 128.7 C 393.5 128.8 393.5 128.8 393.6 128.7 C 393.6 128.7 393.6 128.7 393.6 128.7 Z M 382.1 124.5 C 382.0 124.6 382.0 124.6 382.1 124.5 C 382.1 124.5 382.1 124.5 382.1 124.5 Z M 379.8 124.9 C 379.8 124.9 379.8 124.9 379.8 124.9 C 379.8 124.9 379.8 124.9 379.8 124.9 Z M 379.2 129.1 C 379.1 129.2 379.1 129.2 379.2 129.1 C 379.2 129.1 379.2 129.1 379.2 129.1 Z M 380.4 127.5 C 380.3 127.6 380.3 127.6 380.4 127.5 C 380.4 127.5 380.4 127.5 380.4 127.5 Z M 376.1 127.0 C 376.0 127.0 376.0 127.0 376.1 127.0 C 376.1 127.0 376.1 127.0 376.1 127.0 Z M 376.0 127.5 C 376.0 127.6 376.0 127.6 376.0 127.5 C 376.0 127.5 376.0 127.5 376.0 127.5 Z M 402.4 132.5 C 402.4 132.6 402.4 132.6 402.4 132.5 C 402.4 132.5 402.4 132.5 402.4 132.5 Z M 399.7 133.5 C 401.4 133.4 399.0 134.3 399.7 133.5 C 399.7 133.5 399.7 133.5 399.7 133.5 Z M 386.9 128.8 C 388.3 129.0 385.8 129.1 386.9 128.8 C 386.9 128.8 386.9 128.8 386.9 128.8 Z M 387.7 131.5 C 387.7 131.5 387.7 131.5 387.7 131.5 C 387.7 131.5 387.7 131.5 387.7 131.5 Z M 380.1 123.9 C 380.0 124.0 380.0 124.0 380.1 123.9 C 380.1 123.9 380.1 123.9 380.1 123.9 Z M 377.4 123.9 C 377.1 124.7 376.8 123.2 377.4 123.9 M 390.1 127.1 C 390.1 127.2 390.1 127.2 390.1 127.1 C 390.1 127.1 390.1 127.1 390.1 127.1 Z M 397.7 130.8 C 397.7 130.9 397.7 130.9 397.7 130.8 C 397.7 130.8 397.7 130.8 397.7 130.8 Z M 405.8 132.6 C 405.7 132.7 405.7 132.7 405.8 132.6 C 405.8 132.6 405.8 132.6 405.8 132.6 Z M 395.1 128.7 C 395.0 128.8 395.0 128.8 395.1 128.7 C 395.1 128.7 395.1 128.7 395.1 128.7 Z M 391.1 128.4 C 391.0 128.5 391.0 128.5 391.1 128.4 C 391.1 128.4 391.1 128.4 391.1 128.4 Z M 407.1 134.4 C 407.1 134.4 407.1 134.4 407.1 134.4 C 407.1 134.4 407.1 134.4 407.1 134.4 Z M 396.0 128.8 C 395.9 128.9 395.9 128.9 396.0 128.8 C 396.0 128.8 396.0 128.8 396.0 128.8 Z M 397.4 132.2 C 397.4 132.3 397.4 132.3 397.4 132.2 C 397.4 132.2 397.4 132.2 397.4 132.2 Z M 378.1 122.7 C 378.1 122.8 378.1 122.8 378.1 122.7 C 378.1 122.7 378.1 122.7 378.1 122.7 Z M 407.5 133.2 C 407.5 133.3 407.5 133.3 407.5 133.2 C 407.5 133.2 407.5 133.2 407.5 133.2 Z M 408.3 132.6 C 408.2 132.7 408.2 132.7 408.3 132.6 C 408.3 132.6 408.3 132.6 408.3 132.6 Z M 401.4 135.0 C 398.8 133.7 404.0 135.6 402.3 134.1 C 406.3 135.0 402.0 135.3 401.4 135.0 C 401.4 135.0 401.4 135.0 401.4 135.0 Z M 401.4 135.0 " fill="#FFF8FB"></path><path d="M 414.6 150.9 C 414.3 151.4 412.7 151.4 414.0 150.7 C 414.1 150.7 414.7 150.7 414.6 150.9 Z M 417.3 150.2 C 417.1 150.3 416.9 150.3 416.8 150.2 C 416.4 149.8 418.0 150.0 417.3 150.2 Z M 413.2 150.7 C 413.2 150.7 412.3 151.0 412.4 150.8 C 412.5 150.6 413.3 150.6 413.2 150.7 Z M 419.5 148.5 C 419.5 148.8 418.6 149.0 418.4 148.9 C 417.9 148.7 419.4 148.0 419.5 148.5 Z M 414.4 142.8 C 414.4 142.7 414.4 142.6 414.4 142.6 C 414.4 142.7 414.4 142.7 414.4 142.8 Z M 432.2 145.9 C 432.1 146.0 431.7 145.9 431.7 145.7 C 431.8 145.4 432.7 145.7 432.2 145.9 Z M 418.4 127.5 C 418.4 127.5 418.2 127.8 418.1 127.6 C 418.0 127.4 418.3 127.4 418.4 127.5 Z M 418.1 127.5 C 417.9 127.5 417.9 127.1 418.1 127.2 C 418.3 127.4 418.4 127.4 418.1 127.5 Z M 429.4 134.3 C 429.5 134.4 429.6 134.4 429.5 134.4 C 429.3 134.4 429.3 134.2 429.4 134.3 Z M 429.0 134.2 C 428.7 134.3 428.8 133.9 428.9 134.0 C 429.1 134.1 429.2 134.2 429.0 134.2 Z M 428.0 131.3 C 428.1 131.4 428.2 131.4 428.0 131.4 C 427.9 131.5 427.8 131.2 428.0 131.3 Z M 415.9 133.6 C 415.9 133.4 416.1 133.0 416.3 133.1 C 416.5 133.2 416.0 133.8 415.9 133.6 Z M 416.0 132.9 C 415.8 132.9 415.9 132.6 416.0 132.7 C 416.1 132.8 416.2 132.9 416.0 132.9 Z M 415.8 134.9 C 416.0 135.0 415.9 135.5 415.8 135.6 C 415.7 135.8 415.6 136.0 415.4 136.1 C 415.4 136.2 415.5 134.8 415.8 134.9 Z M 414.8 139.1 C 414.7 139.0 414.7 139.0 414.8 138.8 C 415.0 138.7 414.9 139.1 414.8 139.1 Z M 415.4 136.7 C 415.3 136.7 415.2 136.6 415.4 136.5 C 415.5 136.3 415.5 136.8 415.4 136.7 Z M 424.7 147.8 C 424.8 148.0 424.1 148.0 424.0 148.0 C 424.0 148.0 424.2 147.9 424.1 147.9 C 423.9 147.8 424.2 147.2 424.7 147.8 Z M 418.8 149.8 C 418.7 149.8 418.6 149.7 418.6 149.5 C 418.6 149.5 419.2 149.6 418.8 149.8 Z M 423.6 147.2 C 423.6 147.3 423.5 147.3 423.4 147.3 C 423.4 147.2 423.6 147.2 423.6 147.2 Z M 424.0 147.0 C 423.9 147.1 423.5 146.9 423.5 146.7 C 423.6 146.5 424.6 146.8 424.0 147.0 Z M 425.6 147.9 C 425.4 147.9 425.4 147.9 425.5 147.8 C 425.6 147.7 425.6 147.9 425.6 147.9 Z M 422.2 149.1 C 422.0 149.1 422.0 149.1 422.1 149.0 C 422.2 148.9 422.2 149.1 422.2 149.1 Z M 427.1 147.0 C 427.1 147.0 426.7 147.4 426.5 147.0 C 426.2 146.6 427.1 147.0 427.1 147.0 Z M 429.4 145.9 C 429.2 145.9 429.3 145.7 429.4 145.8 C 429.6 145.8 429.6 145.9 429.4 145.9 Z M 430.1 144.9 C 430.4 144.9 430.6 145.0 430.2 145.1 C 429.8 145.2 429.8 144.8 430.1 144.9 Z M 429.7 145.2 C 429.7 145.1 429.8 145.1 429.8 145.1 C 429.9 145.2 429.7 145.2 429.7 145.2 Z M 427.8 146.3 C 427.6 146.5 427.3 146.3 427.6 146.1 C 427.9 146.0 427.9 146.1 427.8 146.3 Z M 412.7 144.6 C 412.7 144.7 412.5 144.6 412.4 144.5 C 412.3 144.4 412.7 144.4 412.7 144.6 Z M 416.2 136.1 C 416.0 136.2 416.0 136.1 416.2 135.9 C 416.3 135.7 416.4 136.0 416.2 136.1 Z M 418.3 130.7 C 418.1 130.8 418.1 130.7 418.3 130.5 C 418.4 130.3 418.5 130.6 418.3 130.7 Z M 415.5 138.3 C 415.4 138.4 415.2 137.7 415.7 137.5 C 416.2 137.3 415.9 138.2 415.5 138.3 Z M 418.3 145.1 C 418.4 145.2 418.2 145.1 418.2 145.1 C 418.3 144.9 418.3 144.9 418.3 145.1 Z M 416.6 137.3 C 416.6 137.4 416.4 137.3 416.3 137.2 C 416.2 137.1 416.5 137.1 416.6 137.3 Z M 417.7 131.6 C 417.5 131.8 417.2 131.6 417.1 131.4 C 416.9 130.8 417.4 130.6 417.8 130.4 C 418.0 130.2 417.8 131.5 417.7 131.6 Z M 413.1 146.2 C 413.2 146.0 413.3 145.9 413.3 145.8 C 413.2 145.8 413.3 145.7 413.4 145.6 C 413.5 145.0 413.1 144.5 413.1 144.2 C 413.0 143.2 414.2 143.3 414.4 142.8 C 414.3 142.9 414.3 143.0 414.4 143.1 C 414.6 143.5 415.0 141.5 415.1 141.4 C 415.3 139.6 414.4 141.5 413.9 141.4 C 413.6 141.3 414.6 140.3 414.7 140.3 C 415.0 139.8 414.5 139.6 414.9 139.2 C 415.0 139.0 416.5 138.8 416.4 138.5 C 416.3 138.3 416.6 137.8 416.6 137.7 C 416.7 137.4 416.8 136.8 416.3 137.0 C 415.9 137.1 415.5 137.1 416.0 136.7 C 416.3 136.5 417.6 134.8 416.7 134.6 C 416.6 134.6 416.2 134.9 416.2 135.0 C 416.2 134.4 417.0 132.8 416.7 132.3 C 416.1 131.2 417.1 132.7 417.5 132.4 C 418.1 131.7 418.5 131.4 418.7 130.4 C 418.7 130.2 418.9 129.3 418.3 129.6 C 417.9 129.8 417.7 129.5 417.4 130.0 C 417.2 129.2 418.2 129.1 418.0 128.9 C 417.8 128.7 417.6 129.0 417.7 128.6 C 418.0 128.0 417.8 128.2 418.3 128.2 C 418.4 128.3 418.7 127.8 418.7 127.8 C 418.7 127.8 418.7 127.8 418.8 127.8 C 418.9 127.4 418.2 126.4 418.4 126.4 C 418.6 126.3 419.2 126.7 419.3 126.8 C 419.4 126.7 419.4 126.7 419.4 126.7 C 419.4 126.5 419.2 125.9 419.3 125.9 C 419.4 125.8 420.1 126.4 419.9 126.1 C 419.8 125.8 420.4 124.9 420.6 125.0 C 420.9 125.0 422.1 125.1 422.2 124.9 C 422.3 124.7 422.7 125.3 422.9 125.4 C 423.0 125.5 423.0 126.0 423.0 126.1 C 423.0 126.2 423.4 126.5 423.4 126.5 C 423.4 126.5 423.7 126.6 423.9 126.8 C 424.2 127.1 424.2 127.5 424.5 127.9 C 424.7 128.4 425.0 128.3 425.4 128.6 C 425.7 128.9 425.5 129.7 425.7 130.1 C 425.9 130.4 426.3 130.0 426.7 130.4 C 427.0 130.7 427.1 131.0 427.0 131.0 C 426.8 130.9 426.8 131.1 426.9 131.2 C 426.9 131.3 427.2 131.9 427.4 132.0 C 427.7 132.1 427.0 130.6 428.2 132.0 C 428.8 132.7 428.8 133.6 428.7 133.5 C 428.2 133.0 428.5 134.7 428.7 134.5 C 428.9 134.3 429.9 135.5 430.1 134.9 C 430.1 134.7 431.3 135.8 431.4 136.0 C 431.5 136.2 432.1 136.7 431.8 137.2 C 431.7 137.4 432.8 137.6 433.0 137.8 C 433.1 137.9 433.9 138.9 434.0 139.2 C 434.1 139.5 433.6 139.0 433.5 138.8 C 433.3 138.6 433.2 138.1 433.0 138.0 C 432.8 137.9 433.0 138.4 433.1 138.7 C 433.3 138.9 433.2 139.1 433.3 139.4 C 433.4 139.5 433.5 139.6 433.7 139.8 C 433.8 139.9 433.9 139.9 433.9 139.9 C 434.1 139.8 434.0 139.6 434.1 139.5 C 434.2 139.5 434.4 139.6 434.7 139.9 C 435.0 140.2 435.1 140.4 435.4 140.9 C 435.6 141.4 435.8 141.4 436.1 141.6 C 436.3 141.9 436.5 142.1 436.5 142.2 C 436.4 142.3 436.0 142.0 435.9 142.1 C 435.8 142.1 436.0 142.7 436.1 142.8 C 436.6 143.6 435.5 143.6 436.1 144.4 C 436.4 144.8 435.8 144.6 435.3 144.5 C 435.4 144.6 435.4 144.7 435.0 144.9 C 435.0 145.0 434.4 145.0 434.1 145.2 C 433.9 145.2 432.8 145.7 433.4 145.2 C 433.5 145.2 433.5 145.2 433.6 145.1 C 433.6 145.1 433.6 145.1 433.6 145.1 C 433.6 145.1 433.8 144.6 433.8 144.6 C 433.8 144.6 433.5 145.1 433.5 145.1 C 433.4 145.0 433.2 144.8 433.1 144.7 C 433.0 144.8 433.0 144.8 432.9 144.9 C 432.9 144.9 432.9 144.9 432.9 145.0 C 432.9 145.0 432.9 145.0 432.9 145.0 C 433.0 145.2 432.9 145.1 432.8 145.1 C 432.4 145.5 431.3 145.4 430.9 145.3 C 431.7 144.1 429.9 144.6 429.4 144.9 C 428.8 145.2 429.1 146.4 429.4 146.3 C 429.0 146.4 428.8 146.2 428.6 145.9 C 428.6 146.0 428.0 145.4 428.0 145.4 C 426.9 145.2 427.4 146.2 427.1 146.3 C 426.9 146.5 426.6 146.6 426.3 146.8 C 426.0 146.9 426.3 147.1 426.2 147.3 C 426.0 147.8 425.0 147.1 424.7 147.1 C 425.0 147.0 425.3 146.8 425.4 146.6 C 425.1 146.9 424.8 146.4 424.6 146.4 C 424.3 146.3 423.9 146.5 423.6 146.6 C 423.0 146.8 422.4 147.1 421.9 147.3 C 422.1 147.3 423.1 147.8 423.2 147.8 C 423.0 147.8 422.4 147.8 422.7 148.2 C 423.3 148.8 421.7 148.8 421.5 148.9 C 420.7 149.0 420.1 149.9 419.1 149.3 C 419.1 149.3 420.2 148.8 420.1 148.7 C 419.7 148.1 419.3 147.8 418.6 148.2 C 418.4 148.3 417.5 149.0 417.5 149.1 C 417.5 149.0 419.0 150.2 417.9 150.0 C 417.7 149.9 418.0 149.6 417.7 149.5 C 417.3 149.4 416.9 149.7 416.5 149.7 C 416.4 149.8 415.8 149.7 415.8 149.8 C 415.7 150.0 415.7 150.3 415.6 150.5 C 415.4 150.6 415.0 150.5 415.0 150.3 C 415.0 150.3 415.0 150.2 415.0 150.2 C 414.9 150.2 414.8 150.2 414.8 150.0 C 414.7 150.1 414.6 150.1 414.4 150.0 C 414.3 150.0 414.6 149.8 414.8 149.9 C 414.8 149.8 414.8 149.7 414.8 149.6 C 414.5 149.8 414.2 149.9 414.1 149.9 C 413.7 150.4 413.8 150.6 412.9 150.2 C 412.1 149.9 412.2 147.9 412.8 146.9 C 412.8 146.7 412.9 146.4 413.1 146.2 Z M 433.9 140.5 C 433.8 140.5 433.8 140.5 433.8 140.5 C 433.7 140.5 433.6 140.6 433.6 140.7 C 433.7 141.0 433.7 140.5 433.8 140.7 C 434.0 141.0 434.1 140.9 433.9 140.5 Z M 433.0 143.0 C 433.1 143.1 433.1 143.0 433.1 142.8 C 433.0 142.9 433.0 142.9 433.0 143.0 Z M 433.1 144.2 C 433.5 144.0 432.8 143.6 432.2 143.9 C 432.7 144.1 433.0 144.2 433.1 144.2 Z M 432.4 144.9 C 432.4 144.8 432.4 144.7 432.4 144.7 C 432.4 144.5 432.1 144.8 432.1 144.6 C 432.1 144.5 432.4 144.3 432.2 144.2 C 432.1 144.2 432.0 144.2 431.9 144.2 C 431.9 144.2 431.9 144.3 431.9 144.3 C 431.7 144.5 432.1 144.9 432.4 144.9 Z M 432.1 139.9 C 432.2 139.9 432.2 139.8 432.1 139.7 C 432.0 139.6 431.9 139.8 432.1 139.9 Z M 431.4 137.5 C 431.4 137.7 431.6 137.9 431.6 137.6 C 431.6 137.4 431.3 137.3 431.4 137.5 Z M 427.8 139.6 C 427.9 139.6 427.9 139.5 427.8 139.5 C 427.6 139.3 427.7 139.6 427.8 139.6 Z M 427.1 141.6 C 426.9 141.7 427.1 141.9 427.2 141.8 C 427.2 141.7 427.2 141.5 427.1 141.6 Z M 428.7 137.0 C 428.6 136.9 428.5 137.1 428.7 137.1 C 428.9 137.2 428.9 137.1 428.7 137.0 Z M 428.3 139.9 C 428.2 139.6 428.2 139.7 428.1 139.7 C 428.0 139.7 428.0 139.9 428.1 140.1 C 428.3 140.2 428.4 140.2 428.3 139.9 Z M 428.0 141.7 C 427.4 141.8 427.4 142.0 428.1 141.8 C 428.8 141.5 428.3 141.6 428.0 141.7 Z M 430.7 135.8 C 430.8 135.9 431.1 136.1 431.1 136.1 C 431.1 136.1 430.6 135.4 430.7 135.8 Z M 426.4 146.2 C 426.6 146.2 426.7 146.0 426.4 146.0 C 426.1 146.0 426.2 146.3 426.4 146.2 Z M 425.7 145.1 C 426.0 145.5 426.4 145.5 426.4 145.6 C 426.3 145.5 426.4 145.1 426.5 145.0 C 426.8 144.8 427.4 145.1 427.7 144.7 C 428.0 144.3 427.2 144.5 427.0 144.5 C 427.1 144.5 427.2 144.4 427.2 144.3 C 427.1 144.1 426.9 144.1 426.8 144.3 C 426.7 144.4 425.3 144.6 425.7 145.1 Z M 427.1 140.2 C 427.3 140.4 427.6 140.3 427.5 140.0 C 427.4 139.8 427.2 139.6 427.1 139.6 C 427.1 139.7 427.0 140.1 427.1 140.2 Z M 427.4 138.6 C 427.7 138.6 427.6 138.6 427.4 138.4 C 427.2 138.2 427.2 138.7 427.4 138.6 Z M 426.5 131.3 C 426.3 131.3 426.6 131.6 426.7 131.5 C 426.7 131.4 426.7 131.3 426.5 131.3 Z M 425.9 133.9 C 425.5 133.7 425.7 134.2 425.8 134.2 C 425.9 134.2 426.1 134.0 425.9 133.9 Z M 426.9 135.9 C 426.7 135.7 426.8 136.1 427.0 136.1 C 427.1 136.0 427.0 135.9 426.9 135.9 Z M 426.8 136.9 C 426.7 136.8 426.6 137.1 426.8 137.1 C 426.9 137.2 426.9 137.0 426.8 136.9 Z M 423.6 145.0 C 423.6 145.0 423.5 144.5 423.3 144.8 C 423.0 145.1 423.0 145.1 423.6 145.0 Z M 425.1 142.2 C 425.4 142.1 425.7 141.9 425.7 141.0 C 425.7 140.1 425.4 140.4 425.1 140.9 C 424.9 141.3 424.9 139.9 424.4 140.8 C 424.2 141.1 424.8 142.3 425.1 142.2 Z M 425.3 136.5 C 425.4 137.1 426.2 137.2 425.9 136.8 C 425.5 136.3 425.1 136.0 425.3 136.5 Z M 425.3 136.2 C 425.4 136.2 425.4 136.1 425.3 136.0 C 425.2 135.9 425.2 136.1 425.3 136.2 Z M 422.1 148.4 C 423.1 147.9 421.8 147.6 421.8 147.6 C 420.6 147.6 421.1 148.9 422.1 148.4 Z M 419.1 128.4 C 419.1 128.5 419.0 128.5 419.0 128.5 C 419.0 128.5 419.0 128.6 419.0 128.6 C 419.1 128.8 419.4 128.5 419.4 128.5 C 419.3 128.4 419.2 128.4 419.1 128.4 Z M 417.3 133.6 C 417.4 133.4 417.4 133.3 417.3 133.1 C 416.8 133.0 416.3 134.6 417.3 134.2 C 417.4 134.2 418.4 133.4 418.1 133.2 C 417.9 133.0 417.1 134.2 417.3 133.6 Z M 418.4 132.2 C 418.2 132.8 419.2 131.8 418.8 131.9 C 418.6 131.9 418.5 132.0 418.4 132.2 Z M 421.3 127.9 C 421.2 127.0 419.9 126.8 420.1 128.3 C 420.4 129.8 420.9 130.0 420.9 129.3 C 421.0 128.6 421.4 129.3 421.3 127.9 Z M 419.2 134.8 C 418.4 134.4 418.5 134.8 419.1 135.3 C 419.2 135.4 419.7 135.1 419.2 134.8 Z M 418.8 136.7 C 418.6 137.0 418.7 137.0 418.8 136.9 C 419.1 136.8 419.0 136.5 418.8 136.7 Z M 422.9 127.0 C 422.9 126.6 422.6 126.3 422.8 126.3 C 423.0 126.4 422.9 126.3 422.8 126.0 C 422.7 125.7 422.6 126.2 422.6 126.4 C 422.5 126.6 423.0 127.3 422.9 127.0 Z M 423.8 135.2 C 423.7 135.1 423.7 135.3 423.8 135.4 C 423.9 135.4 423.9 135.3 423.8 135.2 Z M 422.6 142.7 C 422.6 142.7 422.6 142.5 422.4 142.7 C 422.3 142.8 422.3 142.8 422.6 142.7 Z M 420.6 148.5 C 420.7 148.4 420.3 148.2 420.5 147.9 C 420.5 147.8 420.7 148.0 420.7 148.1 C 420.7 148.0 420.8 147.3 420.4 147.7 C 420.2 147.8 420.0 148.7 420.6 148.5 Z M 423.0 137.1 C 423.2 137.5 423.8 136.4 423.9 136.6 C 424.1 136.9 424.2 136.8 424.0 136.4 C 423.8 136.1 422.8 136.7 423.0 137.1 Z M 423.7 134.0 C 423.7 134.2 424.1 134.9 424.1 134.5 C 424.0 134.2 423.7 133.9 423.9 133.9 C 424.2 134.0 424.1 133.9 424.0 133.6 C 423.9 133.3 423.7 133.8 423.7 134.0 Z M 425.0 128.8 C 425.0 128.9 425.4 129.2 425.3 128.9 C 425.2 128.7 425.0 128.6 425.0 128.8 Z M 420.4 143.0 C 420.6 142.8 420.5 142.7 420.2 142.9 C 419.9 143.0 420.2 143.2 420.4 143.0 Z M 424.0 129.0 C 424.2 129.4 424.1 128.8 424.3 129.1 C 424.5 129.4 424.5 129.2 424.3 128.9 C 424.2 128.6 423.8 128.6 424.0 129.0 Z M 418.2 147.5 C 418.3 147.3 418.2 147.1 418.1 147.2 C 418.0 147.3 418.1 147.6 418.2 147.5 Z M 418.1 145.3 C 418.1 145.3 418.2 145.3 418.3 145.3 C 419.8 144.8 417.3 144.8 418.1 145.3 Z M 419.1 142.4 C 419.1 142.8 419.4 142.4 419.4 142.4 C 419.3 142.3 419.2 142.3 419.1 142.4 Z M 420.1 139.1 C 419.9 139.0 419.9 139.4 420.0 139.4 C 420.2 139.4 420.2 139.2 420.1 139.1 Z M 416.4 149.5 C 416.6 149.5 416.5 149.4 416.4 149.3 C 416.3 149.3 416.2 149.5 416.4 149.5 Z M 418.6 141.3 C 418.7 141.4 418.7 141.4 418.7 141.2 C 418.7 141.1 418.6 141.3 418.6 141.3 Z M 421.5 131.4 C 421.6 131.5 421.7 131.6 421.7 131.7 C 421.9 131.7 422.2 131.1 422.4 131.1 C 422.4 131.2 422.4 131.2 422.4 131.2 C 422.4 131.2 422.4 131.2 422.5 131.2 C 422.6 131.2 422.6 131.3 422.5 131.3 C 422.5 131.4 422.5 131.6 422.5 131.7 C 422.8 131.6 423.0 131.4 422.9 131.2 C 422.8 130.9 422.3 130.7 422.0 130.7 C 421.9 130.8 421.8 130.9 421.7 131.0 C 421.7 131.0 421.7 131.0 421.7 131.0 C 421.9 131.2 422.0 131.4 421.8 131.4 C 421.7 131.3 421.6 131.2 421.6 131.2 C 421.6 131.3 421.5 131.3 421.5 131.4 Z M 418.6 139.9 C 418.6 140.2 418.7 140.1 418.9 139.8 C 419.1 139.6 418.5 139.7 418.6 139.9 Z M 416.1 149.0 C 416.2 148.9 416.1 148.8 416.1 148.7 C 416.1 148.8 416.0 148.8 416.0 148.9 C 415.9 149.0 415.8 149.2 415.7 149.3 C 415.9 149.4 416.1 149.3 416.1 149.0 Z M 416.0 145.9 C 416.1 146.0 415.7 147.2 416.0 147.0 C 416.5 146.8 416.8 147.5 416.9 146.5 C 416.9 146.1 416.4 145.6 416.4 145.1 C 416.5 142.9 415.7 145.5 415.4 146.0 C 415.3 146.1 416.0 145.7 416.0 145.9 Z M 416.2 142.9 C 416.1 142.8 415.7 143.0 415.7 143.2 C 415.6 143.7 416.4 143.2 416.2 142.9 Z M 414.2 148.7 C 414.2 148.7 414.2 148.7 414.3 148.7 C 414.3 148.7 414.2 148.7 414.2 148.6 C 414.2 148.6 414.2 148.7 414.2 148.7 Z M 413.5 150.1 C 414.3 149.8 413.2 149.5 412.9 149.5 C 412.4 149.6 413.1 150.3 413.5 150.1 Z M 414.8 144.2 C 414.9 143.8 413.9 143.0 413.7 143.7 C 413.5 144.4 414.4 145.1 414.8 144.2 Z M 414.5 139.4 C 414.6 139.6 414.3 140.0 414.2 139.7 C 414.1 139.5 414.5 139.3 414.5 139.4 Z M 411.9 145.7 C 412.0 145.6 412.0 145.8 412.0 145.8 C 411.8 145.8 411.8 145.8 411.9 145.7 Z M 413.0 145.4 C 412.9 145.5 412.7 145.8 412.6 145.9 C 412.5 146.0 412.5 145.6 412.6 145.5 C 412.6 145.4 413.0 145.4 413.0 145.4 Z M 414.2 141.9 C 413.9 142.1 414.0 141.8 414.1 141.6 C 414.2 141.5 414.3 141.8 414.2 141.9 Z M 413.6 142.6 C 413.7 142.5 413.8 142.7 413.7 142.8 C 413.6 143.0 413.5 142.8 413.6 142.6 Z M 414.7 141.4 C 414.7 141.8 414.7 142.4 414.3 142.2 C 414.2 142.1 414.7 140.6 414.7 141.4 Z M 414.7 141.4 " fill="#FFF8FB"></path></g></svg>