<?xml version="1.0" encoding="UTF-8" standalone="no"?><svg xmlns="http://www.w3.org/2000/svg" xmlns:xlink="http://www.w3.org/1999/xlink" clip-rule="evenodd" stroke-miterlimit="10" viewBox="0 0 243 114"><desc>SVG generated by Keynote</desc><defs></defs><g transform="matrix(1.00, 0.00, -0.00, -1.00, 0.0, 114.0)"><path d="M 19.3 17.6 C 19.0 17.6 18.4 17.1 18.1 17.2 M 19.3 17.6 C 19.0 16.3 17.8 15.7 16.2 14.9 C 14.4 14.2 15.9 15.9 15.5 16.3 C 13.0 15.8 13.3 15.1 14.1 14.1 C 12.9 14.5 10.7 12.2 10.8 13.8 C 14.5 15.2 8.0 13.1 10.8 15.1 C 11.1 15.4 10.1 15.5 9.7 15.3 C 10.5 16.3 8.5 16.3 10.0 17.4 C 9.9 18.3 9.8 17.8 10.6 18.9 C 11.0 19.2 10.9 18.8 11.0 18.6 C 11.5 17.6 12.0 19.6 13.2 19.3 C 13.4 20.9 14.9 19.7 14.4 18.8 C 15.1 19.3 15.5 21.0 16.7 20.4 C 16.9 21.2 19.2 21.5 18.2 20.2 C 17.5 19.4 18.7 19.3 18.9 19.1 C 18.7 18.7 17.3 18.6 17.2 18.3 C 17.6 18.2 19.5 18.4 17.7 17.7 C 18.4 17.5 17.7 16.9 19.3 17.6 C 19.3 17.6 19.3 17.6 19.3 17.6 Z M 13.2 14.4 C 13.3 14.1 13.8 14.7 13.2 14.4 C 13.2 14.4 13.2 14.4 13.2 14.4 Z M 15.8 20.8 C 15.9 20.4 16.4 21.0 15.8 20.8 C 15.8 20.8 15.8 20.8 15.8 20.8 Z M 11.2 18.7 C 11.4 18.3 11.9 18.9 11.2 18.7 C 11.2 18.7 11.2 18.7 11.2 18.7 Z M 14.8 15.3 C 15.7 15.9 13.7 15.5 13.7 15.1 C 13.9 15.2 14.6 14.9 14.8 15.3 C 14.8 15.3 14.8 15.3 14.8 15.3 Z M 14.1 17.4 C 14.3 17.3 14.7 17.4 14.5 17.7 C 14.2 17.7 14.0 17.5 14.1 17.4 C 14.1 17.4 14.1 17.4 14.1 17.4 Z M 9.7 14.1 C 9.8 14.0 10.3 14.1 10.1 14.4 C 9.8 14.4 9.6 14.2 9.7 14.1 C 9.7 14.1 9.7 14.1 9.7 14.1 Z M 15.6 16.6 C 15.8 16.8 15.8 17.2 15.4 17.1 C 15.4 16.9 14.7 16.6 15.6 16.6 C 15.6 16.6 15.6 16.6 15.6 16.6 Z M 17.6 16.0 C 18.3 16.5 16.4 16.4 16.5 16.3 C 16.3 15.9 17.2 15.6 17.6 16.0 C 17.6 16.0 17.6 16.0 17.6 16.0 Z M 15.9 17.3 C 16.5 17.7 15.5 17.5 15.9 17.3 C 15.9 17.3 15.9 17.3 15.9 17.3 Z M 9.4 17.0 C 10.0 17.4 9.0 17.1 9.4 17.0 C 9.4 17.0 9.4 17.0 9.4 17.0 Z M 12.7 19.4 C 13.3 19.9 12.3 19.6 12.7 19.4 C 12.7 19.4 12.7 19.4 12.7 19.4 Z M 12.7 15.3 C 11.5 14.8 12.8 14.3 12.7 15.3 C 12.7 15.3 12.7 15.3 12.7 15.3 Z M 19.5 16.7 C 18.3 16.2 19.7 15.7 19.5 16.7 C 19.5 16.7 19.5 16.7 19.5 16.7 Z M 216.1 89.8 C 217.3 90.0 213.4 87.3 214.5 89.3 C 214.6 90.6 211.7 89.4 212.8 88.6 C 212.0 88.2 212.0 88.1 211.3 88.5 C 211.5 87.6 209.6 86.4 208.7 86.6 C 208.0 87.1 210.1 87.2 208.6 87.5 C 206.0 86.8 208.5 88.4 207.2 89.0 C 207.1 88.9 207.2 88.4 206.9 88.6 C 206.5 89.5 207.7 90.6 206.8 91.1 C 207.2 91.1 208.7 92.7 208.2 91.6 C 208.3 90.7 209.8 93.4 210.2 92.0 C 210.6 92.8 211.5 92.2 211.8 93.2 C 212.2 93.5 212.5 92.8 212.5 92.6 C 212.7 91.9 212.5 94.2 213.6 93.4 C 213.6 93.7 215.7 94.3 214.3 93.3 C 214.7 93.5 217.0 94.7 216.2 93.0 C 214.8 91.8 218.4 92.4 216.5 91.6 C 215.0 90.9 214.6 91.0 216.0 90.8 C 216.3 91.0 218.0 91.5 216.8 90.4 C 216.4 90.5 215.8 90.1 216.1 89.8 C 216.1 89.8 216.1 89.8 216.1 89.8 Z M 215.7 91.7 C 214.9 91.5 215.8 91.3 215.7 91.7 C 215.7 91.7 215.7 91.7 215.7 91.7 Z M 211.6 93.4 C 210.7 93.2 211.7 92.9 211.6 93.4 C 211.6 93.4 211.6 93.4 211.6 93.4 Z M 213.5 88.5 C 213.0 88.7 213.3 87.4 213.5 88.5 C 213.5 88.5 213.5 88.5 213.5 88.5 Z M 213.4 92.9 C 213.3 92.9 213.6 92.8 213.8 92.8 C 213.7 92.8 213.5 92.9 213.4 92.9 C 213.4 92.9 213.4 92.9 213.4 92.9 Z M 212.1 88.0 C 210.6 88.1 212.2 86.9 212.1 88.0 C 212.1 88.0 212.1 88.0 212.1 88.0 Z M 209.1 88.2 C 208.4 89.5 207.8 87.5 209.1 88.2 C 209.1 88.2 209.1 88.2 209.1 88.2 Z M 209.8 91.7 C 210.1 91.5 210.0 92.0 209.8 91.7 C 209.8 91.7 209.8 91.7 209.8 91.7 Z M 215.3 94.0 C 215.6 93.8 215.5 94.2 215.3 94.0 C 215.3 94.0 215.3 94.0 215.3 94.0 Z M 208.3 91.0 C 208.5 90.6 208.6 91.4 208.3 91.0 C 208.3 91.0 208.3 91.0 208.3 91.0 Z M 213.1 88.9 C 214.7 88.3 214.0 91.0 213.1 88.9 C 213.1 88.9 213.1 88.9 213.1 88.9 Z M 215.2 89.6 C 216.1 89.7 214.9 90.2 214.6 89.9 C 214.6 89.8 215.1 89.6 215.2 89.6 C 215.2 89.6 215.2 89.6 215.2 89.6 Z M 211.8 88.6 C 212.8 88.4 212.5 89.1 211.8 88.6 C 211.8 88.6 211.8 88.6 211.8 88.6 Z M 214.1 88.8 C 214.4 89.1 213.7 88.8 214.1 88.8 C 214.1 88.8 214.1 88.8 214.1 88.8 Z M 210.6 86.9 C 211.0 87.2 210.3 87.0 210.6 86.9 C 210.6 86.9 210.6 86.9 210.6 86.9 Z M 216.4 89.4 C 216.8 89.7 216.0 89.5 216.4 89.4 C 216.4 89.4 216.4 89.4 216.4 89.4 Z M 210.7 87.7 C 210.4 88.2 211.2 89.6 209.5 88.0 C 209.2 87.5 210.3 87.2 210.7 87.7 C 210.7 87.7 210.7 87.7 210.7 87.7 Z M 22.9 18.9 C 18.2 15.6 18.6 18.5 18.1 18.9 C 17.2 19.4 17.7 20.1 18.6 20.9 C 19.0 22.9 20.8 19.9 21.0 21.7 C 21.6 24.4 23.2 20.4 23.0 22.9 C 22.6 23.4 24.7 23.7 24.6 23.5 C 25.2 24.9 27.3 23.5 27.4 23.3 C 28.0 23.9 27.3 25.9 30.0 25.2 C 31.7 25.2 31.7 27.5 31.8 26.0 C 32.4 27.9 32.8 25.8 33.7 26.8 C 34.3 27.9 34.3 25.5 35.1 27.6 C 36.2 26.6 34.1 28.3 38.4 28.8 C 36.6 28.0 40.7 28.4 39.6 29.0 C 37.9 29.5 41.6 29.4 43.2 30.6 C 43.8 30.3 46.4 29.9 45.6 31.1 C 46.9 33.3 47.8 30.9 48.2 32.4 C 48.6 33.1 49.2 32.1 49.6 32.4 C 49.9 33.5 50.8 33.1 53.0 34.2 C 57.9 36.6 54.6 32.2 56.7 32.6 C 57.1 32.3 55.4 28.2 55.7 30.9 C 55.6 30.1 50.6 30.9 53.6 29.2 C 51.6 29.6 54.3 28.3 50.7 28.3 C 54.4 31.7 45.5 27.2 50.0 27.9 C 49.5 27.1 47.7 26.6 48.8 27.5 C 48.7 29.3 46.1 25.7 47.1 28.2 C 44.6 26.7 44.7 28.7 44.4 27.2 C 44.5 24.9 44.3 27.8 43.2 26.7 C 40.0 25.5 43.4 24.0 40.9 24.9 C 38.2 22.7 39.9 25.6 38.7 25.4 C 37.9 26.7 35.9 23.2 38.4 23.8 C 36.8 24.1 38.4 23.1 36.7 23.5 C 37.2 25.2 35.4 21.4 35.4 22.6 C 34.0 22.5 34.4 23.5 34.0 23.4 C 32.1 22.7 33.1 21.6 32.4 22.4 C 31.8 22.8 31.5 20.8 31.1 21.1 C 33.0 21.9 29.0 21.9 29.1 21.1 C 30.3 21.5 29.1 19.2 28.0 19.9 C 27.8 23.2 26.6 18.5 25.3 19.3 C 25.5 21.2 21.0 17.9 23.2 17.8 C 23.0 17.9 22.9 18.9 22.9 18.9 M 30.5 21.1 C 32.0 21.9 28.6 20.8 30.5 21.1 M 30.6 20.7 C 31.1 21.5 29.2 19.7 30.7 20.5 C 30.7 20.6 30.5 20.6 30.6 20.7 M 37.1 23.1 C 36.8 23.4 36.4 22.5 37.1 23.1 M 38.0 24.5 C 38.9 25.3 36.6 24.1 38.0 24.5 M 52.7 29.6 C 50.3 31.5 51.6 27.7 52.7 29.6 M 43.3 25.5 C 41.4 25.2 44.2 24.8 43.3 25.5 M 42.5 25.9 C 41.5 26.0 42.5 25.3 42.5 25.9 M 49.9 28.6 C 50.0 28.7 50.0 28.7 49.9 28.6 C 49.9 28.6 49.9 28.6 49.9 28.6 Z M 54.2 30.2 C 54.2 30.2 54.2 30.2 54.2 30.2 C 54.2 30.2 54.2 30.2 54.2 30.2 Z M 45.7 27.3 C 44.5 26.2 47.9 27.8 45.7 27.3 C 45.7 27.3 45.7 27.3 45.7 27.3 Z M 50.8 33.1 C 50.7 33.1 50.7 33.1 50.8 33.1 C 50.8 33.1 50.8 33.1 50.8 33.1 Z M 28.8 21.8 C 28.7 21.8 28.7 21.8 28.8 21.8 C 28.8 21.8 28.8 21.8 28.8 21.8 Z M 24.2 19.0 C 24.2 19.4 23.4 18.5 24.2 19.0 C 24.2 19.0 24.2 19.0 24.2 19.0 Z M 19.3 20.3 C 19.2 20.3 19.2 20.3 19.3 20.3 C 19.3 20.3 19.3 20.3 19.3 20.3 Z M 26.7 22.4 C 26.6 22.4 26.6 22.4 26.7 22.4 C 26.7 22.4 26.7 22.4 26.7 22.4 Z M 28.1 20.9 C 27.8 19.3 29.8 21.9 28.1 20.9 C 28.1 20.9 28.1 20.9 28.1 20.9 Z M 42.8 30.0 C 43.0 29.4 43.8 30.6 42.8 30.0 C 42.8 30.0 42.8 30.0 42.8 30.0 Z M 38.0 25.1 C 38.3 24.9 38.7 25.5 38.0 25.1 C 38.0 25.1 38.0 25.1 38.0 25.1 Z M 36.0 22.3 C 36.3 22.1 36.7 22.7 36.0 22.3 C 36.0 22.3 36.0 22.3 36.0 22.3 Z M 24.5 18.7 C 24.6 18.7 24.6 18.7 24.5 18.7 C 24.5 18.7 24.5 18.7 24.5 18.7 Z M 25.8 20.4 C 25.1 18.7 27.5 21.7 25.8 20.4 C 25.8 20.4 25.8 20.4 25.8 20.4 Z M 23.6 19.9 C 24.1 20.7 22.1 19.2 23.6 19.9 M 24.1 22.3 C 25.8 22.3 21.9 24.0 24.1 22.3 C 24.1 22.3 24.1 22.3 24.1 22.3 Z M 31.5 25.6 C 31.6 25.7 31.6 25.7 31.5 25.6 C 31.5 25.6 31.5 25.6 31.5 25.6 Z M 32.0 21.7 C 33.3 22.2 31.1 21.6 32.0 21.7 C 32.0 21.7 32.0 21.7 32.0 21.7 Z M 20.8 17.2 C 22.1 17.7 19.8 17.2 20.8 17.2 C 20.8 17.2 20.8 17.2 20.8 17.2 Z M 36.3 26.0 C 38.5 26.6 34.8 26.2 36.3 26.0 C 36.3 26.0 36.3 26.0 36.3 26.0 Z M 44.7 27.5 C 44.8 27.5 44.8 27.5 44.7 27.5 C 44.7 27.5 44.7 27.5 44.7 27.5 Z M 46.4 27.5 C 46.4 27.5 46.4 27.5 46.4 27.5 C 46.4 27.5 46.4 27.5 46.4 27.5 Z M 52.0 31.0 C 52.1 31.1 52.1 31.1 52.0 31.0 C 52.0 31.0 52.0 31.0 52.0 31.0 Z M 47.9 27.4 C 48.0 27.4 48.0 27.4 47.9 27.4 C 47.9 27.4 47.9 27.4 47.9 27.4 Z M 52.0 29.3 C 52.1 29.4 52.1 29.4 52.0 29.3 C 52.0 29.3 52.0 29.3 52.0 29.3 Z M 51.8 28.0 C 51.9 28.1 51.9 28.1 51.8 28.0 C 51.8 28.0 51.8 28.0 51.8 28.0 Z M 40.4 29.9 C 40.5 30.0 40.5 30.0 40.4 29.9 C 40.4 29.9 40.4 29.9 40.4 29.9 Z M 26.9 19.2 C 27.0 19.3 27.0 19.3 26.9 19.2 C 26.9 19.2 26.9 19.2 26.9 19.2 Z M 51.5 29.6 C 51.6 29.7 51.6 29.7 51.5 29.6 C 51.5 29.6 51.5 29.6 51.5 29.6 Z M 40.8 26.8 C 40.5 27.9 40.5 25.1 41.1 26.9 C 41.0 26.9 40.8 26.6 40.8 26.8 M 41.6 29.1 C 41.5 29.1 41.5 29.1 41.6 29.1 C 41.6 29.1 41.6 29.1 41.6 29.1 Z M 36.7 28.0 C 36.6 28.0 36.6 28.0 36.7 28.0 C 36.7 28.0 36.7 28.0 36.7 28.0 Z M 47.3 26.9 C 47.3 26.3 48.3 27.8 47.1 26.9 M 51.4 32.9 C 51.4 32.3 52.4 33.8 51.2 32.9 M 19.1 17.0 C 18.8 17.4 18.3 16.4 19.1 17.0 M 35.4 28.2 C 35.1 28.6 34.6 27.6 35.4 28.2 M 38.1 27.6 C 38.1 27.0 39.1 28.5 37.9 27.6 M 48.2 31.7 C 48.2 31.7 48.2 31.7 48.2 31.7 C 48.2 31.7 48.2 31.7 48.2 31.7 Z M 34.0 22.5 C 34.0 22.6 34.0 22.6 34.0 22.5 C 34.0 22.5 34.0 22.5 34.0 22.5 Z M 39.2 25.9 C 38.8 24.8 40.1 26.8 39.2 25.9 M 31.8 23.3 C 31.0 21.9 33.5 24.3 31.8 23.3 M 53.7 34.1 C 52.9 32.4 54.4 35.1 53.7 34.1 M 48.6 28.7 C 47.7 27.0 49.2 29.7 48.6 28.7 M 34.9 23.5 C 35.1 22.8 36.1 24.3 34.9 23.5 M 22.1 18.0 C 21.0 17.5 23.9 18.1 22.1 18.0 M 45.1 30.6 C 45.1 30.6 45.1 30.6 45.1 30.6 C 45.1 30.6 45.1 30.6 45.1 30.6 Z M 24.3 24.1 C 24.4 24.2 24.4 24.2 24.3 24.1 C 24.3 24.1 24.3 24.1 24.3 24.1 Z M 56.8 30.7 C 56.8 30.7 56.8 30.7 56.8 30.7 C 56.8 30.7 56.8 30.7 56.8 30.7 Z M 47.6 29.0 C 47.6 29.1 47.6 29.1 47.6 29.0 C 47.6 29.0 47.6 29.0 47.6 29.0 Z M 54.4 29.6 C 54.5 29.7 54.5 29.7 54.4 29.6 C 54.4 29.6 54.4 29.6 54.4 29.6 Z M 43.3 28.4 C 43.3 28.5 43.3 28.5 43.3 28.4 C 43.3 28.4 43.3 28.4 43.3 28.4 Z M 43.6 25.1 C 43.6 25.1 43.6 25.1 43.6 25.1 C 43.6 25.1 43.6 25.1 43.6 25.1 Z M 38.8 24.8 C 38.8 24.8 38.8 24.8 38.8 24.8 C 38.8 24.8 38.8 24.8 38.8 24.8 Z M 45.5 26.0 C 48.2 26.8 43.8 26.6 45.5 26.0 C 45.5 26.0 45.5 26.0 45.5 26.0 Z M 39.9 27.5 C 39.9 27.5 39.9 27.5 39.9 27.5 C 39.9 27.5 39.9 27.5 39.9 27.5 Z M 40.3 25.1 C 42.3 24.9 40.6 27.0 40.3 25.1 M 33.4 21.7 C 34.1 21.5 33.4 22.6 33.4 21.7 M 29.0 24.7 C 29.0 24.8 29.0 24.8 29.0 24.7 C 29.0 24.7 29.0 24.7 29.0 24.7 Z M 29.9 24.7 C 30.0 24.8 30.0 24.8 29.9 24.7 C 29.9 24.7 29.9 24.7 29.9 24.7 Z M 31.7 20.9 C 31.8 20.9 31.8 20.9 31.7 20.9 C 31.7 20.9 31.7 20.9 31.7 20.9 Z M 29.6 25.9 C 29.7 26.0 29.7 26.0 29.6 25.9 C 29.6 25.9 29.6 25.9 29.6 25.9 Z M 42.6 24.8 C 42.6 24.8 42.6 24.8 42.6 24.8 C 42.6 24.8 42.6 24.8 42.6 24.8 Z M 55.9 29.6 C 55.9 29.7 55.9 29.7 55.9 29.6 C 55.9 29.6 55.9 29.6 55.9 29.6 Z M 21.3 21.4 C 21.4 21.5 21.4 21.5 21.3 21.4 C 21.3 21.4 21.3 21.4 21.3 21.4 Z M 43.5 26.5 C 43.6 26.6 43.6 26.6 43.5 26.5 C 43.5 26.5 43.5 26.5 43.5 26.5 Z M 27.2 23.9 C 27.3 23.9 27.3 23.9 27.2 23.9 C 27.2 23.9 27.2 23.9 27.2 23.9 Z M 42.8 25.9 C 42.8 26.0 42.8 26.0 42.8 25.9 C 42.8 25.9 42.8 25.9 42.8 25.9 Z M 44.6 30.7 C 44.6 30.7 44.6 30.7 44.6 30.7 C 44.6 30.7 44.6 30.7 44.6 30.7 Z M 47.1 32.4 C 47.2 32.5 47.2 32.5 47.1 32.4 C 47.1 32.4 47.1 32.4 47.1 32.4 Z M 45.1 28.4 C 45.2 28.5 45.2 28.5 45.1 28.4 C 45.1 28.4 45.1 28.4 45.1 28.4 Z M 26.8 22.2 C 22.0 19.2 31.1 23.2 26.8 22.2 M 45.9 29.0 C 42.4 27.4 49.3 28.9 45.9 29.0 C 46.4 28.9 46.0 29.0 45.9 29.0 M 58.3 30.6 C 56.4 31.2 56.0 32.3 56.2 33.7 C 56.7 34.6 57.5 32.3 56.8 34.3 C 55.0 34.0 56.5 37.4 57.4 34.9 C 59.8 35.4 57.2 36.6 58.9 36.1 C 61.4 36.8 59.8 37.1 61.8 37.6 C 63.3 36.6 62.6 38.7 63.5 37.6 C 62.1 38.6 65.7 37.9 65.5 38.6 C 63.5 38.8 71.9 40.9 67.6 38.9 C 69.7 38.9 68.9 40.0 69.5 40.4 C 70.5 39.8 72.2 42.1 73.6 41.7 C 73.4 41.4 72.9 41.2 72.8 40.8 C 72.7 40.2 74.0 41.4 73.9 41.3 C 74.7 41.3 77.9 41.5 74.3 41.8 C 73.9 42.4 76.9 42.4 76.6 43.0 C 79.3 44.0 77.8 41.9 78.6 43.4 C 80.5 44.1 81.9 44.6 81.9 44.5 C 83.0 45.0 83.0 45.9 84.3 45.5 C 86.1 47.9 87.0 43.3 86.9 46.5 C 87.8 46.1 87.7 48.2 88.3 46.4 C 87.2 46.9 91.8 49.3 90.2 47.2 C 90.9 47.0 93.1 50.4 93.3 48.4 C 94.9 47.5 95.2 46.1 93.3 43.9 C 93.2 45.1 91.2 41.9 92.3 44.4 C 94.1 45.7 88.4 43.6 89.8 43.4 C 90.9 41.4 86.5 43.7 85.9 41.8 C 86.6 43.0 81.8 41.7 83.7 40.6 C 82.9 40.1 82.4 40.8 81.8 39.5 C 84.5 40.7 80.1 40.8 80.6 39.9 C 81.3 39.5 77.3 37.4 77.4 38.5 C 78.1 41.2 76.5 37.6 75.5 38.2 C 73.0 37.9 76.5 36.5 74.2 37.5 C 73.9 37.0 70.8 35.9 72.9 36.2 C 73.6 36.7 70.2 37.9 70.6 35.9 C 74.2 36.1 67.0 33.9 67.9 34.9 C 72.6 37.8 62.2 34.1 66.5 34.6 C 64.6 32.7 67.3 34.4 64.3 33.8 C 64.5 34.5 62.1 34.3 63.1 33.3 C 63.3 31.4 61.4 35.4 60.6 32.3 C 60.8 31.2 57.0 31.9 58.6 31.1 C 58.7 31.0 58.4 30.7 58.3 30.6 M 59.2 31.2 C 58.7 31.5 58.8 30.5 59.2 31.2 M 58.6 31.5 C 58.6 31.4 58.6 31.4 58.6 31.5 C 58.6 31.5 58.6 31.5 58.6 31.5 Z M 63.9 33.7 C 63.9 33.6 63.9 33.6 63.9 33.7 C 63.9 33.7 63.9 33.7 63.9 33.7 Z M 66.5 39.7 C 66.5 39.7 66.5 39.7 66.5 39.7 C 66.5 39.7 66.5 39.7 66.5 39.7 Z M 67.5 35.1 C 67.4 35.1 67.4 35.1 67.5 35.1 C 67.5 35.1 67.5 35.1 67.5 35.1 Z M 61.9 33.3 C 61.9 33.3 61.9 33.3 61.9 33.3 C 61.9 33.3 61.9 33.3 61.9 33.3 Z M 67.4 34.4 C 67.4 35.1 66.3 33.4 67.5 34.3 C 67.5 34.3 67.3 34.3 67.4 34.4 M 72.1 35.8 C 72.1 35.9 72.1 35.9 72.1 35.8 M 80.5 44.9 C 80.5 45.0 80.5 45.0 80.5 44.9 M 83.3 39.9 C 83.4 40.0 83.4 40.0 83.3 39.9 M 76.5 38.2 C 78.0 38.7 76.8 38.7 76.5 38.2 M 86.9 41.7 C 85.3 40.6 89.0 42.0 86.9 41.7 M 88.8 41.9 C 89.0 42.1 89.0 42.1 88.8 41.9 M 80.6 39.2 C 80.6 39.2 80.6 39.2 80.6 39.2 C 80.6 39.2 80.6 39.2 80.6 39.2 Z M 76.0 37.7 C 74.3 36.7 78.2 37.8 76.0 37.7 M 64.8 33.3 C 65.9 33.4 64.5 34.2 64.8 33.3 M 62.5 32.9 C 62.5 32.9 62.5 32.9 62.5 32.9 C 62.5 32.9 62.5 32.9 62.5 32.9 Z M 84.1 40.6 C 84.0 40.6 84.0 40.6 84.1 40.6 C 84.1 40.6 84.1 40.6 84.1 40.6 Z M 86.2 41.2 C 86.1 41.2 86.1 41.2 86.2 41.2 C 86.2 41.2 86.2 41.2 86.2 41.2 Z M 87.8 47.4 C 87.7 47.4 87.7 47.4 87.8 47.4 C 87.8 47.4 87.8 47.4 87.8 47.4 Z M 63.3 35.5 C 62.1 34.7 65.4 34.4 64.6 35.5 C 64.6 36.1 63.6 35.5 63.3 35.5 M 74.1 38.7 C 73.9 40.5 73.6 35.9 74.1 38.7 M 88.7 43.1 C 89.3 45.6 87.4 41.1 88.7 43.1 M 91.6 43.8 C 92.3 44.5 86.3 42.1 90.7 43.2 C 91.3 43.0 91.4 43.5 91.6 43.8 M 71.9 36.7 C 72.0 37.7 69.8 35.4 71.9 36.7 M 79.5 42.6 C 80.4 42.3 82.3 42.4 81.2 43.1 C 80.7 44.4 78.5 42.8 79.5 42.6 M 59.3 32.3 C 61.0 31.3 58.8 33.6 59.3 32.3 M 64.7 34.5 C 64.7 34.4 64.7 34.4 64.7 34.5 C 64.7 34.5 64.7 34.5 64.7 34.5 Z M 66.9 35.0 C 67.0 35.2 67.0 35.2 66.9 35.0 M 60.6 31.3 C 60.7 31.5 60.7 31.5 60.6 31.3 M 80.0 41.1 C 80.1 41.2 80.1 41.2 80.0 41.1 M 76.0 38.5 C 77.5 40.7 74.8 38.4 76.0 38.5 M 69.8 39.4 C 70.2 40.3 68.5 38.9 69.8 39.4 M 79.6 39.2 C 80.6 41.1 77.1 39.7 79.6 39.2 M 75.0 37.9 C 75.1 38.0 75.1 38.0 75.0 37.9 C 75.0 37.9 75.0 37.9 75.0 37.9 Z M 80.0 43.0 C 79.9 43.0 79.9 43.0 80.0 43.0 C 80.0 43.0 80.0 43.0 80.0 43.0 Z M 80.6 43.1 C 80.6 43.1 80.6 43.1 80.6 43.1 C 80.6 43.1 80.6 43.1 80.6 43.1 Z M 81.5 39.7 C 81.4 39.7 81.4 39.7 81.5 39.7 C 81.5 39.7 81.5 39.7 81.5 39.7 Z M 61.0 36.7 C 62.4 37.3 59.7 36.5 61.0 36.7 C 61.0 36.7 61.0 36.7 61.0 36.7 Z M 69.1 35.0 C 71.1 37.0 67.0 35.4 69.1 35.0 C 69.1 35.0 69.1 35.0 69.1 35.0 Z M 71.2 37.9 C 71.2 37.9 71.2 37.9 71.2 37.9 C 71.2 37.9 71.2 37.9 71.2 37.9 Z M 79.0 38.0 C 79.0 38.1 79.0 38.1 79.0 38.0 C 79.0 38.0 79.0 38.0 79.0 38.0 Z M 61.7 37.1 C 61.6 37.2 61.6 37.2 61.7 37.1 C 61.7 37.1 61.7 37.1 61.7 37.1 Z M 85.5 42.0 C 85.4 42.1 85.4 42.1 85.5 42.0 C 85.5 42.0 85.5 42.0 85.5 42.0 Z M 75.9 41.7 C 76.6 41.4 75.8 42.2 75.9 41.7 C 75.9 41.7 75.9 41.7 75.9 41.7 Z M 78.1 42.5 C 78.1 42.5 78.1 42.5 78.1 42.5 C 78.1 42.5 78.1 42.5 78.1 42.5 Z M 89.4 42.0 C 89.5 42.0 89.5 42.0 89.4 42.0 C 89.4 42.0 89.4 42.0 89.4 42.0 Z M 83.3 45.9 C 83.3 45.9 83.3 45.9 83.3 45.9 C 83.3 45.9 83.3 45.9 83.3 45.9 Z M 85.7 45.0 C 85.7 45.0 85.7 45.0 85.7 45.0 C 85.7 45.0 85.7 45.0 85.7 45.0 Z M 81.0 39.9 C 83.3 40.4 80.3 40.3 81.0 39.9 C 81.0 39.9 81.0 39.9 81.0 39.9 Z M 91.4 46.6 C 91.4 46.7 91.4 46.7 91.4 46.6 C 91.4 46.6 91.4 46.6 91.4 46.6 Z M 93.2 45.1 C 93.2 45.2 93.2 45.2 93.2 45.1 C 93.2 45.1 93.2 45.1 93.2 45.1 Z M 94.1 44.3 C 94.2 44.4 94.2 44.4 94.1 44.3 C 94.1 44.3 94.1 44.3 94.1 44.3 Z M 66.1 37.0 C 66.1 37.0 66.1 37.0 66.1 37.0 C 66.1 37.0 66.1 37.0 66.1 37.0 Z M 66.4 33.6 C 66.4 33.6 66.4 33.6 66.4 33.6 C 66.4 33.6 66.4 33.6 66.4 33.6 Z M 69.4 34.6 C 69.4 34.6 69.4 34.6 69.4 34.6 C 69.4 34.6 69.4 34.6 69.4 34.6 Z M 64.9 38.7 C 64.8 38.6 64.8 38.6 64.9 38.7 C 64.9 38.7 64.9 38.7 64.9 38.7 Z M 77.1 40.3 C 77.1 40.2 77.1 40.2 77.1 40.3 C 77.1 40.3 77.1 40.3 77.1 40.3 Z M 77.7 41.9 C 77.7 41.8 77.7 41.8 77.7 41.9 C 77.7 41.9 77.7 41.9 77.7 41.9 Z M 74.5 42.6 C 74.5 42.5 74.5 42.5 74.5 42.6 C 74.5 42.6 74.5 42.6 74.5 42.6 Z M 78.1 43.3 C 78.1 43.2 78.1 43.2 78.1 43.3 C 78.1 43.3 78.1 43.3 78.1 43.3 Z M 57.5 35.3 C 57.5 35.4 57.5 35.4 57.5 35.3 C 57.5 35.3 57.5 35.3 57.5 35.3 Z M 58.2 32.9 C 58.1 32.9 58.1 32.9 58.2 32.9 C 58.2 32.9 58.2 32.9 58.2 32.9 Z M 78.1 38.7 C 78.8 38.4 78.9 39.7 78.1 38.7 M 73.7 37.4 C 73.6 37.4 73.6 37.4 73.7 37.4 C 73.7 37.4 73.7 37.4 73.7 37.4 Z M 85.3 41.4 C 85.5 42.6 83.4 40.2 85.3 41.4 C 85.3 41.4 85.3 41.4 85.3 41.4 Z M 81.5 44.5 C 81.6 44.6 81.6 44.6 81.5 44.5 C 81.5 44.5 81.5 44.5 81.5 44.5 Z M 82.8 44.5 C 82.8 44.7 82.8 44.7 82.8 44.5 C 82.8 44.5 82.8 44.5 82.8 44.5 Z M 89.9 44.3 C 90.0 44.4 90.0 44.4 89.9 44.3 M 73.4 36.3 C 73.9 37.0 73.8 36.9 73.4 36.3 M 86.7 42.0 C 86.6 42.0 86.6 42.0 86.7 42.0 C 86.7 42.0 86.7 42.0 86.7 42.0 Z M 91.5 44.3 C 91.4 44.3 91.4 44.3 91.5 44.3 C 91.5 44.3 91.5 44.3 91.5 44.3 Z M 70.2 35.8 C 69.8 37.0 69.4 36.5 70.2 35.8 M 61.5 33.0 C 61.5 33.1 61.5 33.1 61.5 33.0 C 61.5 33.0 61.5 33.0 61.5 33.0 Z M 98.6 46.0 C 96.8 43.9 96.1 45.6 96.1 45.7 C 97.2 43.4 93.6 45.9 93.9 46.5 C 93.7 46.8 94.0 51.6 96.6 49.7 C 97.1 49.5 97.1 50.4 97.4 50.6 C 100.3 51.5 95.9 48.5 99.4 49.8 C 99.9 50.4 98.4 52.1 101.0 51.5 C 101.0 51.7 103.1 53.3 102.5 52.1 C 103.3 53.4 104.4 52.6 105.5 52.7 C 106.3 53.6 104.2 53.9 108.0 54.0 C 108.8 56.2 110.4 53.5 111.0 55.8 C 111.8 56.2 114.2 53.7 111.6 54.6 C 112.0 54.6 111.3 52.7 113.7 54.2 C 113.2 54.4 110.6 56.9 115.3 57.0 C 116.0 57.3 117.8 57.1 118.1 57.6 C 115.8 57.1 120.5 60.0 120.3 58.9 C 123.4 60.8 122.0 58.7 124.0 60.6 C 126.0 61.3 123.9 59.0 126.0 60.7 C 127.9 61.2 126.4 61.5 126.2 61.4 C 127.8 62.1 128.6 61.8 129.1 62.0 C 129.4 62.3 129.9 63.2 130.6 62.6 C 132.7 61.8 131.7 59.9 133.0 58.8 C 132.0 57.7 132.0 59.7 131.6 58.3 C 130.6 58.9 131.5 58.2 128.1 57.1 C 128.1 57.4 128.7 58.3 127.8 58.1 C 126.6 57.5 128.4 55.5 125.6 56.3 C 128.0 57.8 121.7 55.8 123.9 57.1 C 120.9 56.3 123.1 56.6 121.2 55.3 C 120.7 56.9 121.7 53.5 120.4 54.5 C 120.4 53.8 117.0 52.8 119.0 54.7 C 115.4 53.8 117.9 53.7 117.0 52.4 C 115.4 51.7 115.9 54.9 115.6 52.6 C 113.8 51.0 115.2 53.5 114.2 51.5 C 114.4 53.1 112.7 50.9 112.7 52.6 C 109.1 51.3 113.7 51.2 110.8 51.3 C 111.6 51.6 112.0 49.5 110.0 50.2 C 109.8 52.8 108.7 47.4 108.7 50.9 C 103.4 49.9 108.4 49.3 105.6 48.3 C 104.9 48.1 106.0 49.6 105.4 49.4 C 102.0 47.6 105.2 47.9 102.8 48.7 C 99.2 47.8 102.3 47.1 100.6 46.3 C 100.2 47.0 98.3 47.7 98.6 46.0 M 101.5 47.9 C 102.3 47.7 101.7 48.5 101.5 47.9 M 94.7 44.5 C 95.6 44.3 94.9 45.2 94.7 44.5 M 104.5 48.5 C 105.7 48.4 104.5 49.4 104.5 48.5 M 123.1 56.2 C 121.8 55.7 123.8 56.0 123.1 56.2 M 97.5 45.5 C 98.8 45.3 97.5 46.4 97.5 45.5 M 95.8 46.2 C 95.9 46.2 95.9 46.2 95.8 46.2 M 125.4 55.7 C 125.5 55.7 125.5 55.7 125.4 55.7 M 120.4 53.8 C 121.4 54.2 119.7 53.9 120.4 53.8 M 118.3 58.7 C 119.4 59.2 117.6 58.8 118.3 58.7 M 128.2 56.6 C 129.4 56.6 128.3 57.3 128.2 56.6 M 130.6 58.8 C 131.7 58.7 131.0 59.5 130.6 58.8 M 100.2 49.4 C 100.1 49.4 100.1 49.4 100.2 49.4 C 100.2 49.4 100.2 49.4 100.2 49.4 Z M 109.0 54.1 C 108.1 53.2 110.1 55.2 109.0 54.1 M 108.5 50.1 C 108.8 51.4 107.1 49.5 108.5 50.1 C 108.5 50.1 108.5 50.1 108.5 50.1 Z M 106.7 50.0 C 106.6 50.0 106.6 50.0 106.7 50.0 C 106.7 50.0 106.7 50.0 106.7 50.0 Z M 111.9 52.0 C 111.8 52.0 111.8 52.0 111.9 52.0 C 111.9 52.0 111.9 52.0 111.9 52.0 Z M 110.8 51.7 C 110.3 51.8 110.3 51.3 110.8 51.7 C 110.8 51.7 110.8 51.7 110.8 51.7 Z M 117.2 57.8 C 116.7 57.8 116.7 57.3 117.2 57.8 C 117.2 57.8 117.2 57.8 117.2 57.8 Z M 109.0 51.4 C 108.5 52.4 108.5 50.5 109.0 51.4 C 109.0 51.4 109.0 51.4 109.0 51.4 Z M 113.7 55.9 C 114.3 55.9 114.3 57.3 113.7 55.9 M 126.4 56.2 C 127.0 56.1 127.0 57.6 126.4 56.2 M 115.4 51.9 C 116.0 51.8 116.1 53.2 115.4 51.9 M 102.2 47.6 C 102.3 47.8 102.3 47.8 102.2 47.6 M 106.7 54.4 C 107.6 54.2 106.9 54.9 106.7 54.4 M 96.4 50.2 C 97.3 50.0 96.6 50.7 96.4 50.2 M 123.1 60.4 C 123.1 60.1 124.2 60.9 123.1 60.4 M 116.1 54.0 C 117.1 54.5 117.8 55.4 115.8 54.6 C 115.8 54.3 116.5 54.4 116.1 54.0 C 116.1 54.0 116.1 54.0 116.1 54.0 Z M 118.8 57.6 C 118.9 57.7 118.9 57.7 118.8 57.6 M 118.2 53.7 C 118.3 53.8 118.3 53.8 118.2 53.7 M 123.8 55.9 C 123.9 56.1 123.9 56.1 123.8 55.9 M 124.7 55.8 C 124.6 55.9 124.6 55.9 124.7 55.8 C 124.7 55.8 124.7 55.8 124.7 55.8 Z M 131.0 57.7 C 131.0 57.8 131.0 57.8 131.0 57.7 C 131.0 57.7 131.0 57.7 131.0 57.7 Z M 122.0 55.3 C 121.9 55.4 121.9 55.4 122.0 55.3 C 122.0 55.3 122.0 55.3 122.0 55.3 Z M 125.7 61.1 C 125.7 61.2 125.7 61.2 125.7 61.1 C 125.7 61.1 125.7 61.1 125.7 61.1 Z M 125.2 60.3 C 125.2 60.3 125.2 60.3 125.2 60.3 C 125.2 60.3 125.2 60.3 125.2 60.3 Z M 99.1 46.2 C 100.2 45.8 98.9 48.1 99.1 46.2 M 128.0 61.3 C 128.6 62.3 126.5 60.9 128.0 61.3 C 128.0 61.3 128.0 61.3 128.0 61.3 Z M 121.0 55.9 C 121.0 56.1 121.0 56.1 121.0 55.9 M 125.0 56.1 C 125.0 56.2 125.0 56.2 125.0 56.1 M 108.8 49.2 C 108.8 49.3 108.8 49.3 108.8 49.2 M 129.3 57.9 C 131.8 59.1 127.5 58.9 129.3 57.9 M 107.2 49.7 C 107.2 49.6 107.2 49.6 107.2 49.7 M 112.5 53.8 C 114.2 54.4 111.6 54.2 112.5 53.8 M 117.4 54.2 C 117.4 54.2 117.4 54.2 117.4 54.2 C 117.4 54.2 117.4 54.2 117.4 54.2 Z M 114.8 53.2 C 113.5 52.9 114.6 52.8 114.8 53.2 C 114.8 53.2 114.8 53.2 114.8 53.2 Z M 100.0 47.6 C 101.6 48.3 98.2 47.3 100.0 47.6 C 100.0 47.6 100.0 47.6 100.0 47.6 Z M 127.2 59.8 C 127.1 59.9 127.1 59.9 127.2 59.8 C 127.2 59.8 127.2 59.8 127.2 59.8 Z M 121.9 54.5 C 121.1 54.5 121.7 54.1 121.9 54.5 C 121.9 54.5 121.9 54.5 121.9 54.5 Z M 131.9 58.1 C 131.1 58.0 131.7 57.6 131.9 58.1 C 131.9 58.1 131.9 58.1 131.9 58.1 Z M 98.1 46.6 C 103.6 50.6 90.0 43.2 98.1 46.6 C 98.1 46.6 98.1 46.6 98.1 46.6 Z M 116.1 52.9 C 116.1 53.0 116.1 53.0 116.1 52.9 C 116.1 52.9 116.1 52.9 116.1 52.9 Z M 105.1 48.0 C 105.0 48.1 105.0 48.1 105.1 48.0 C 105.1 48.0 105.1 48.0 105.1 48.0 Z M 102.8 48.3 C 102.8 48.3 102.8 48.3 102.8 48.3 C 102.8 48.3 102.8 48.3 102.8 48.3 Z M 101.9 52.5 C 101.8 52.5 101.8 52.5 101.9 52.5 C 101.9 52.5 101.9 52.5 101.9 52.5 Z M 103.2 50.9 C 103.1 51.0 103.1 51.0 103.2 50.9 C 103.2 50.9 103.2 50.9 103.2 50.9 Z M 99.0 50.1 C 98.9 50.1 98.9 50.1 99.0 50.1 C 99.0 50.1 99.0 50.1 99.0 50.1 Z M 98.9 50.7 C 98.8 50.7 98.8 50.7 98.9 50.7 C 98.9 50.7 98.9 50.7 98.9 50.7 Z M 124.6 57.2 C 124.5 57.3 124.5 57.3 124.6 57.2 C 124.6 57.2 124.6 57.2 124.6 57.2 Z M 121.8 58.1 C 123.5 58.0 121.1 58.8 121.8 58.1 C 121.8 58.1 121.8 58.1 121.8 58.1 Z M 109.5 52.6 C 110.9 52.9 108.4 52.8 109.5 52.6 C 109.5 52.6 109.5 52.6 109.5 52.6 Z M 110.1 55.3 C 110.1 55.3 110.1 55.3 110.1 55.3 C 110.1 55.3 110.1 55.3 110.1 55.3 Z M 103.2 47.3 C 103.1 47.4 103.1 47.4 103.2 47.3 C 103.2 47.3 103.2 47.3 103.2 47.3 Z M 100.5 47.1 C 100.1 47.9 99.9 46.4 100.5 47.1 M 112.8 51.1 C 112.8 51.2 112.8 51.2 112.8 51.1 C 112.8 51.1 112.8 51.1 112.8 51.1 Z M 120.0 55.2 C 120.0 55.3 120.0 55.3 120.0 55.2 C 120.0 55.2 120.0 55.2 120.0 55.2 Z M 127.8 57.5 C 127.7 57.6 127.7 57.6 127.8 57.5 C 127.8 57.5 127.8 57.5 127.8 57.5 Z M 117.5 53.0 C 117.5 53.1 117.5 53.1 117.5 53.0 C 117.5 53.0 117.5 53.0 117.5 53.0 Z M 113.6 52.4 C 113.6 52.5 113.6 52.5 113.6 52.4 C 113.6 52.4 113.6 52.4 113.6 52.4 Z M 129.1 59.3 C 129.0 59.4 129.0 59.4 129.1 59.3 C 129.1 59.3 129.1 59.3 129.1 59.3 Z M 118.4 53.2 C 118.4 53.2 118.4 53.2 118.4 53.2 C 118.4 53.2 118.4 53.2 118.4 53.2 Z M 119.7 56.6 C 119.6 56.7 119.6 56.7 119.7 56.6 C 119.7 56.6 119.7 56.6 119.7 56.6 Z M 101.3 46.0 C 101.3 46.0 101.3 46.0 101.3 46.0 C 101.3 46.0 101.3 46.0 101.3 46.0 Z M 129.5 58.2 C 129.5 58.3 129.5 58.3 129.5 58.2 C 129.5 58.2 129.5 58.2 129.5 58.2 Z M 130.3 57.7 C 130.2 57.7 130.2 57.7 130.3 57.7 C 130.3 57.7 130.3 57.7 130.3 57.7 Z M 123.4 59.7 C 120.9 58.2 125.9 60.4 124.3 58.7 C 128.2 59.9 124.0 59.9 123.4 59.7 C 123.4 59.7 123.4 59.7 123.4 59.7 Z M 134.0 58.7 C 132.1 59.3 131.7 60.4 131.9 61.8 C 132.4 62.6 133.2 60.3 132.6 62.3 C 130.7 62.0 132.2 65.5 133.1 63.0 C 135.5 63.4 132.9 64.7 134.6 64.2 C 137.1 64.8 135.6 65.1 137.5 65.6 C 139.1 64.7 138.3 66.7 139.3 65.6 C 137.8 66.7 141.4 66.0 141.2 66.6 C 139.2 66.8 147.6 69.0 143.4 67.0 C 145.4 67.0 144.6 68.0 145.2 68.4 C 146.3 67.9 147.9 70.1 149.3 69.7 C 149.2 69.5 148.6 69.2 148.6 68.9 C 148.4 68.2 149.8 69.4 149.6 69.4 C 150.5 69.3 153.7 69.5 150.0 69.9 C 149.6 70.5 152.7 70.5 152.3 71.1 C 155.0 72.1 153.5 70.0 154.3 71.4 C 156.2 72.2 157.6 72.7 157.7 72.5 C 158.8 73.1 158.7 73.9 160.1 73.6 C 161.9 75.9 162.8 71.4 162.6 74.6 C 163.5 74.1 163.5 76.3 164.0 74.5 C 162.9 75.0 167.5 77.3 165.9 75.2 C 166.6 75.0 168.8 78.4 169.1 76.4 C 170.6 75.5 170.9 74.1 169.0 72.0 C 168.9 73.1 166.9 70.0 168.1 72.4 C 169.9 73.8 164.1 71.7 165.6 71.5 C 166.6 69.5 162.3 71.8 161.6 69.8 C 162.3 71.0 157.5 69.7 159.4 68.6 C 158.6 68.2 158.1 68.9 157.5 67.6 C 160.3 68.8 155.8 68.8 156.4 67.9 C 157.1 67.5 153.1 65.5 153.2 66.5 C 153.8 69.3 152.3 65.7 151.2 66.3 C 148.8 65.9 152.3 64.6 150.0 65.5 C 149.6 65.1 146.6 63.9 148.7 64.2 C 149.3 64.7 145.9 65.9 146.3 63.9 C 150.0 64.1 142.8 62.0 143.7 63.0 C 148.3 65.8 137.9 62.2 142.2 62.6 C 140.4 60.7 143.0 62.4 140.1 61.8 C 140.2 62.6 137.9 62.3 138.8 61.3 C 139.0 59.4 137.2 63.4 136.4 60.4 C 136.5 59.2 132.7 59.9 134.4 59.2 C 134.5 59.1 134.1 58.7 134.0 58.7 M 134.9 59.3 C 134.4 59.5 134.5 58.5 134.9 59.3 M 134.4 59.5 C 134.4 59.5 134.4 59.5 134.4 59.5 C 134.4 59.5 134.4 59.5 134.4 59.5 Z M 139.6 61.8 C 139.6 61.7 139.6 61.7 139.6 61.8 C 139.6 61.8 139.6 61.8 139.6 61.8 Z M 142.2 67.8 C 142.2 67.7 142.2 67.7 142.2 67.8 C 142.2 67.8 142.2 67.8 142.2 67.8 Z M 143.2 63.2 C 143.2 63.2 143.2 63.2 143.2 63.2 C 143.2 63.2 143.2 63.2 143.2 63.2 Z M 137.6 61.3 C 137.6 61.3 137.6 61.3 137.6 61.3 C 137.6 61.3 137.6 61.3 137.6 61.3 Z M 143.1 62.4 C 143.1 63.2 142.0 61.5 143.2 62.3 C 143.2 62.4 143.0 62.3 143.1 62.4 M 147.9 63.9 C 147.9 64.0 147.9 64.0 147.9 63.9 M 156.2 72.9 C 156.2 73.0 156.2 73.0 156.2 72.9 M 159.0 68.0 C 159.1 68.1 159.1 68.1 159.0 68.0 M 152.3 66.3 C 153.7 66.7 152.5 66.7 152.3 66.3 M 162.7 69.7 C 161.0 68.6 164.7 70.1 162.7 69.7 M 164.6 70.0 C 164.7 70.1 164.7 70.1 164.6 70.0 M 156.4 67.2 C 156.3 67.3 156.3 67.3 156.4 67.2 C 156.4 67.2 156.4 67.2 156.4 67.2 Z M 151.8 65.8 C 150.0 64.7 153.9 65.9 151.8 65.8 M 140.5 61.4 C 141.7 61.4 140.2 62.2 140.5 61.4 M 138.3 60.9 C 138.2 61.0 138.2 61.0 138.3 60.9 C 138.3 60.9 138.3 60.9 138.3 60.9 Z M 159.8 68.6 C 159.7 68.6 159.7 68.6 159.8 68.6 C 159.8 68.6 159.8 68.6 159.8 68.6 Z M 161.9 69.3 C 161.8 69.3 161.8 69.3 161.9 69.3 C 161.9 69.3 161.9 69.3 161.9 69.3 Z M 163.5 75.4 C 163.5 75.4 163.5 75.4 163.5 75.4 C 163.5 75.4 163.5 75.4 163.5 75.4 Z M 139.1 63.6 C 137.8 62.7 141.1 62.5 140.4 63.6 C 140.3 64.1 139.3 63.5 139.1 63.6 M 149.9 66.8 C 149.6 68.6 149.3 64.0 149.9 66.8 M 164.4 71.2 C 165.1 73.7 163.2 69.1 164.4 71.2 M 167.4 71.9 C 168.0 72.6 162.0 70.2 166.5 71.2 C 167.0 71.0 167.2 71.6 167.4 71.9 M 147.6 64.7 C 147.7 65.8 145.6 63.5 147.6 64.7 M 155.2 70.7 C 156.1 70.3 158.1 70.5 156.9 71.2 C 156.4 72.5 154.2 70.8 155.2 70.7 M 135.0 60.4 C 136.7 59.3 134.5 61.6 135.0 60.4 M 140.4 62.5 C 140.4 62.4 140.4 62.4 140.4 62.5 C 140.4 62.5 140.4 62.5 140.4 62.5 Z M 142.6 63.1 C 142.7 63.2 142.7 63.2 142.6 63.1 M 136.4 59.4 C 136.4 59.5 136.4 59.5 136.4 59.4 M 155.7 69.1 C 155.8 69.3 155.8 69.3 155.7 69.1 M 151.7 66.5 C 153.3 68.7 150.5 66.4 151.7 66.5 M 145.6 67.4 C 145.9 68.3 144.2 67.0 145.6 67.4 M 155.4 67.2 C 156.3 69.2 152.8 67.8 155.4 67.2 M 150.7 66.0 C 150.8 66.0 150.8 66.0 150.7 66.0 C 150.7 66.0 150.7 66.0 150.7 66.0 Z M 155.7 71.0 C 155.7 71.0 155.7 71.0 155.7 71.0 C 155.7 71.0 155.7 71.0 155.7 71.0 Z M 156.4 71.2 C 156.3 71.2 156.3 71.2 156.4 71.2 C 156.4 71.2 156.4 71.2 156.4 71.2 Z M 157.3 67.7 C 157.2 67.8 157.2 67.8 157.3 67.7 C 157.3 67.7 157.3 67.7 157.3 67.7 Z M 136.7 64.7 C 138.2 65.4 135.5 64.5 136.7 64.7 C 136.7 64.7 136.7 64.7 136.7 64.7 Z M 144.8 63.1 C 146.9 65.1 142.7 63.5 144.8 63.1 C 144.8 63.1 144.8 63.1 144.8 63.1 Z M 146.9 65.9 C 146.9 66.0 146.9 66.0 146.9 65.9 C 146.9 65.9 146.9 65.9 146.9 65.9 Z M 154.7 66.0 C 154.7 66.1 154.7 66.1 154.7 66.0 C 154.7 66.0 154.7 66.0 154.7 66.0 Z M 137.4 65.2 C 137.4 65.2 137.4 65.2 137.4 65.2 C 137.4 65.2 137.4 65.2 137.4 65.2 Z M 161.2 70.1 C 161.2 70.1 161.2 70.1 161.2 70.1 C 161.2 70.1 161.2 70.1 161.2 70.1 Z M 151.6 69.7 C 152.3 69.4 151.6 70.2 151.6 69.7 C 151.6 69.7 151.6 69.7 151.6 69.7 Z M 153.8 70.6 C 153.9 70.6 153.9 70.6 153.8 70.6 C 153.8 70.6 153.8 70.6 153.8 70.6 Z M 165.1 70.1 C 165.2 70.1 165.2 70.1 165.1 70.1 C 165.1 70.1 165.1 70.1 165.1 70.1 Z M 159.0 74.0 C 159.1 74.0 159.1 74.0 159.0 74.0 C 159.0 74.0 159.0 74.0 159.0 74.0 Z M 161.5 73.0 C 161.4 73.0 161.4 73.0 161.5 73.0 C 161.5 73.0 161.5 73.0 161.5 73.0 Z M 156.7 67.9 C 159.0 68.5 156.0 68.4 156.7 67.9 C 156.7 67.9 156.7 67.9 156.7 67.9 Z M 167.1 74.6 C 167.1 74.7 167.1 74.7 167.1 74.6 C 167.1 74.6 167.1 74.6 167.1 74.6 Z M 168.9 73.1 C 169.0 73.3 169.0 73.3 168.9 73.1 C 168.9 73.1 168.9 73.1 168.9 73.1 Z M 169.9 72.3 C 169.9 72.5 169.9 72.5 169.9 72.3 C 169.9 72.3 169.9 72.3 169.9 72.3 Z M 141.8 65.1 C 141.8 65.0 141.8 65.0 141.8 65.1 C 141.8 65.1 141.8 65.1 141.8 65.1 Z M 142.1 61.7 C 142.1 61.6 142.1 61.6 142.1 61.7 C 142.1 61.7 142.1 61.7 142.1 61.7 Z M 145.2 62.6 C 145.1 62.6 145.1 62.6 145.2 62.6 C 145.2 62.6 145.2 62.6 145.2 62.6 Z M 140.6 66.7 C 140.6 66.7 140.6 66.7 140.6 66.7 C 140.6 66.7 140.6 66.7 140.6 66.7 Z M 152.8 68.3 C 152.8 68.2 152.8 68.2 152.8 68.3 C 152.8 68.3 152.8 68.3 152.8 68.3 Z M 153.4 69.9 C 153.4 69.9 153.4 69.9 153.4 69.9 C 153.4 69.9 153.4 69.9 153.4 69.9 Z M 150.2 70.6 C 150.2 70.6 150.2 70.6 150.2 70.6 C 150.2 70.6 150.2 70.6 150.2 70.6 Z M 153.8 71.3 C 153.8 71.3 153.8 71.3 153.8 71.3 C 153.8 71.3 153.8 71.3 153.8 71.3 Z M 133.3 63.4 C 133.3 63.4 133.3 63.4 133.3 63.4 C 133.3 63.4 133.3 63.4 133.3 63.4 Z M 133.9 60.9 C 133.8 61.0 133.8 61.0 133.9 60.9 C 133.9 60.9 133.9 60.9 133.9 60.9 Z M 153.8 66.7 C 154.5 66.4 154.6 67.8 153.8 66.7 M 149.4 65.4 C 149.4 65.5 149.4 65.5 149.4 65.4 C 149.4 65.4 149.4 65.4 149.4 65.4 Z M 161.0 69.5 C 161.2 70.6 159.1 68.2 161.0 69.5 C 161.0 69.5 161.0 69.5 161.0 69.5 Z M 157.3 72.6 C 157.3 72.6 157.3 72.6 157.3 72.6 C 157.3 72.6 157.3 72.6 157.3 72.6 Z M 158.5 72.6 C 158.6 72.7 158.6 72.7 158.5 72.6 C 158.5 72.6 158.5 72.6 158.5 72.6 Z M 165.7 72.3 C 165.8 72.5 165.8 72.5 165.7 72.3 M 149.2 64.4 C 149.7 65.0 149.6 64.9 149.2 64.4 M 162.4 70.0 C 162.3 70.0 162.3 70.0 162.4 70.0 C 162.4 70.0 162.4 70.0 162.4 70.0 Z M 167.2 72.3 C 167.2 72.3 167.2 72.3 167.2 72.3 C 167.2 72.3 167.2 72.3 167.2 72.3 Z M 145.9 63.9 C 145.6 65.1 145.1 64.6 145.9 63.9 M 137.2 61.1 C 137.2 61.2 137.2 61.2 137.2 61.1 C 137.2 61.1 137.2 61.1 137.2 61.1 Z M 174.3 74.0 C 172.5 71.9 171.8 73.7 171.8 73.7 C 172.9 71.4 169.4 73.9 169.7 74.5 C 169.5 74.8 169.7 79.7 172.3 77.8 C 172.8 77.6 172.8 78.4 173.1 78.6 C 176.0 79.6 171.7 76.6 175.1 77.9 C 175.6 78.4 174.2 80.2 176.7 79.5 C 176.7 79.8 178.8 81.4 178.3 80.1 C 179.0 81.5 180.1 80.6 181.2 80.8 C 182.0 81.7 179.9 81.9 183.7 82.1 C 184.5 84.2 186.1 81.6 186.7 83.9 C 187.5 84.2 189.9 81.7 187.3 82.7 C 187.7 82.6 187.0 80.7 189.4 82.2 C 188.9 82.4 186.4 84.9 191.0 85.0 C 191.7 85.4 193.6 85.2 193.8 85.6 C 191.6 85.2 196.2 88.0 196.1 87.0 C 199.1 88.8 197.7 86.7 199.8 88.6 C 201.7 89.4 199.6 87.0 201.8 88.7 C 203.7 89.3 202.1 89.5 202.0 89.4 C 203.5 90.2 204.3 89.8 204.8 90.1 C 205.1 90.4 205.6 91.2 206.3 90.6 C 208.5 89.9 207.5 87.9 208.7 86.9 C 207.7 85.7 207.8 87.7 207.3 86.4 C 206.4 87.0 207.2 86.2 203.8 85.2 C 203.8 85.4 204.4 86.3 203.6 86.1 C 202.3 85.5 204.1 83.5 201.3 84.4 C 203.7 85.8 197.5 83.8 199.7 85.2 C 196.6 84.4 198.9 84.7 196.9 83.3 C 196.5 84.9 197.4 81.6 196.1 82.5 C 196.2 81.8 192.7 80.9 194.8 82.7 C 191.1 81.8 193.7 81.7 192.7 80.5 C 191.1 79.8 191.6 83.0 191.4 80.7 C 189.6 79.0 190.9 81.6 189.9 79.5 C 190.1 81.1 188.4 78.9 188.4 80.6 C 184.8 79.4 189.5 79.2 186.6 79.3 C 187.3 79.6 187.8 77.6 185.7 78.3 C 185.5 80.8 184.5 75.5 184.5 79.0 C 179.1 78.0 184.1 77.4 181.3 76.3 C 180.6 76.1 181.7 77.6 181.1 77.4 C 177.7 75.7 180.9 76.0 178.5 76.8 C 174.9 75.9 178.0 75.1 176.3 74.4 C 175.9 75.0 174.1 75.7 174.3 74.0 M 177.2 75.9 C 178.1 75.7 177.5 76.6 177.2 75.9 M 170.4 72.6 C 171.3 72.4 170.7 73.2 170.4 72.6 M 180.2 76.5 C 181.4 76.4 180.3 77.4 180.2 76.5 M 198.8 84.3 C 197.5 83.8 199.6 84.1 198.8 84.3 M 173.3 73.5 C 174.5 73.3 173.2 74.5 173.3 73.5 M 171.5 74.2 C 171.6 74.3 171.6 74.3 171.5 74.2 M 201.1 83.7 C 201.2 83.8 201.2 83.8 201.1 83.7 M 196.1 81.8 C 197.2 82.2 195.4 81.9 196.1 81.8 M 194.0 86.8 C 195.1 87.2 193.3 86.9 194.0 86.8 M 203.9 84.7 C 205.1 84.7 204.0 85.3 203.9 84.7 M 206.3 86.8 C 207.5 86.7 206.8 87.6 206.3 86.8 M 175.9 77.4 C 175.9 77.5 175.9 77.5 175.9 77.4 C 175.9 77.4 175.9 77.4 175.9 77.4 Z M 184.7 82.1 C 183.8 81.2 185.8 83.2 184.7 82.1 M 184.2 78.2 C 184.6 79.5 182.8 77.6 184.2 78.2 C 184.2 78.2 184.2 78.2 184.2 78.2 Z M 182.4 78.0 C 182.4 78.1 182.4 78.1 182.4 78.0 C 182.4 78.0 182.4 78.0 182.4 78.0 Z M 187.6 80.0 C 187.6 80.0 187.6 80.0 187.6 80.0 C 187.6 80.0 187.6 80.0 187.6 80.0 Z M 186.5 79.7 C 186.0 79.8 186.0 79.3 186.5 79.7 C 186.5 79.7 186.5 79.7 186.5 79.7 Z M 192.9 85.8 C 192.4 85.8 192.4 85.4 192.9 85.8 C 192.9 85.8 192.9 85.8 192.9 85.8 Z M 184.8 79.5 C 184.2 80.4 184.2 78.5 184.8 79.5 C 184.8 79.5 184.8 79.5 184.8 79.5 Z M 189.5 84.0 C 190.0 83.9 190.1 85.3 189.5 84.0 M 202.1 84.3 C 202.7 84.2 202.8 85.6 202.1 84.3 M 191.2 79.9 C 191.8 79.8 191.8 81.2 191.2 79.9 M 178.0 75.7 C 178.0 75.8 178.0 75.8 178.0 75.7 M 182.5 82.4 C 183.3 82.3 182.7 83.0 182.5 82.4 M 172.2 78.2 C 173.0 78.1 172.3 78.8 172.2 78.2 M 198.8 88.4 C 198.9 88.2 199.9 89.0 198.8 88.4 M 191.9 82.0 C 192.8 82.5 193.6 83.4 191.6 82.6 C 191.6 82.3 192.2 82.4 191.9 82.0 C 191.9 82.0 191.9 82.0 191.9 82.0 Z M 194.5 85.6 C 194.6 85.8 194.6 85.8 194.5 85.6 M 193.9 81.7 C 194.1 81.9 194.1 81.9 193.9 81.7 M 199.6 83.9 C 199.6 84.1 199.6 84.1 199.6 83.9 M 200.4 83.9 C 200.4 83.9 200.4 83.9 200.4 83.9 C 200.4 83.9 200.4 83.9 200.4 83.9 Z M 206.8 85.8 C 206.7 85.8 206.7 85.8 206.8 85.8 C 206.8 85.8 206.8 85.8 206.8 85.8 Z M 197.7 83.4 C 197.7 83.4 197.7 83.4 197.7 83.4 C 197.7 83.4 197.7 83.4 197.7 83.4 Z M 201.4 89.2 C 201.4 89.2 201.4 89.2 201.4 89.2 C 201.4 89.2 201.4 89.2 201.4 89.2 Z M 201.0 88.3 C 201.0 88.4 201.0 88.4 201.0 88.3 C 201.0 88.3 201.0 88.3 201.0 88.3 Z M 174.8 74.2 C 176.0 73.8 174.6 76.2 174.8 74.2 M 203.7 89.3 C 204.3 90.3 202.2 88.9 203.7 89.3 C 203.7 89.3 203.7 89.3 203.7 89.3 Z M 196.7 84.0 C 196.8 84.1 196.8 84.1 196.7 84.0 M 200.7 84.1 C 200.7 84.3 200.7 84.3 200.7 84.1 M 184.5 77.2 C 184.6 77.4 184.6 77.4 184.5 77.2 M 205.0 85.9 C 207.6 87.1 203.3 86.9 205.0 85.9 M 183.0 77.8 C 182.9 77.6 182.9 77.6 183.0 77.8 M 188.2 81.9 C 190.0 82.5 187.3 82.2 188.2 81.9 M 193.2 82.2 C 193.1 82.3 193.1 82.3 193.2 82.2 C 193.2 82.2 193.2 82.2 193.2 82.2 Z M 190.5 81.3 C 189.2 80.9 190.3 80.9 190.5 81.3 C 190.5 81.3 190.5 81.3 190.5 81.3 Z M 175.7 75.6 C 177.4 76.4 173.9 75.3 175.7 75.6 C 175.7 75.6 175.7 75.6 175.7 75.6 Z M 202.9 87.8 C 202.8 87.9 202.8 87.9 202.9 87.8 C 202.9 87.8 202.9 87.8 202.9 87.8 Z M 197.7 82.5 C 196.8 82.5 197.4 82.1 197.7 82.5 C 197.7 82.5 197.7 82.5 197.7 82.5 Z M 207.7 86.1 C 206.8 86.1 207.4 85.7 207.7 86.1 C 207.7 86.1 207.7 86.1 207.7 86.1 Z M 173.8 74.7 C 179.3 78.7 165.8 71.2 173.8 74.7 C 173.8 74.7 173.8 74.7 173.8 74.7 Z M 191.9 81.0 C 191.8 81.0 191.8 81.0 191.9 81.0 C 191.9 81.0 191.9 81.0 191.9 81.0 Z M 180.8 76.1 C 180.8 76.1 180.8 76.1 180.8 76.1 C 180.8 76.1 180.8 76.1 180.8 76.1 Z M 178.5 76.3 C 178.5 76.3 178.5 76.3 178.5 76.3 C 178.5 76.3 178.5 76.3 178.5 76.3 Z M 177.6 80.5 C 177.6 80.5 177.6 80.5 177.6 80.5 C 177.6 80.5 177.6 80.5 177.6 80.5 Z M 178.9 78.9 C 178.8 79.0 178.8 79.0 178.9 78.9 C 178.9 78.9 178.9 78.9 178.9 78.9 Z M 174.7 78.1 C 174.7 78.2 174.7 78.2 174.7 78.1 C 174.7 78.1 174.7 78.1 174.7 78.1 Z M 174.6 78.7 C 174.6 78.7 174.6 78.7 174.6 78.7 C 174.6 78.7 174.6 78.7 174.6 78.7 Z M 200.3 85.2 C 200.2 85.3 200.2 85.3 200.3 85.2 C 200.3 85.2 200.3 85.2 200.3 85.2 Z M 197.6 86.1 C 199.2 86.0 196.8 86.8 197.6 86.1 C 197.6 86.1 197.6 86.1 197.6 86.1 Z M 185.2 80.6 C 186.6 80.9 184.2 80.8 185.2 80.6 C 185.2 80.6 185.2 80.6 185.2 80.6 Z M 185.8 83.3 C 185.9 83.3 185.9 83.3 185.8 83.3 C 185.8 83.3 185.8 83.3 185.8 83.3 Z M 178.9 75.3 C 178.8 75.4 178.8 75.4 178.9 75.3 C 178.9 75.3 178.9 75.3 178.9 75.3 Z M 176.2 75.1 C 175.8 75.9 175.7 74.4 176.2 75.1 M 188.6 79.1 C 188.5 79.2 188.5 79.2 188.6 79.1 C 188.6 79.1 188.6 79.1 188.6 79.1 Z M 195.7 83.3 C 195.7 83.3 195.7 83.3 195.7 83.3 C 195.7 83.3 195.7 83.3 195.7 83.3 Z M 203.6 85.6 C 203.5 85.7 203.5 85.7 203.6 85.6 C 203.6 85.6 203.6 85.6 203.6 85.6 Z M 193.3 81.0 C 193.2 81.1 193.2 81.1 193.3 81.0 C 193.3 81.0 193.3 81.0 193.3 81.0 Z M 189.4 80.4 C 189.3 80.5 189.3 80.5 189.4 80.4 C 189.4 80.4 189.4 80.4 189.4 80.4 Z M 204.8 87.4 C 204.7 87.4 204.7 87.4 204.8 87.4 C 204.8 87.4 204.8 87.4 204.8 87.4 Z M 194.2 81.2 C 194.1 81.2 194.1 81.2 194.2 81.2 C 194.2 81.2 194.2 81.2 194.2 81.2 Z M 195.4 84.7 C 195.3 84.7 195.3 84.7 195.4 84.7 C 195.4 84.7 195.4 84.7 195.4 84.7 Z M 177.0 74.1 C 177.0 74.1 177.0 74.1 177.0 74.1 C 177.0 74.1 177.0 74.1 177.0 74.1 Z M 205.3 86.3 C 205.2 86.3 205.2 86.3 205.3 86.3 C 205.3 86.3 205.3 86.3 205.3 86.3 Z M 206.0 85.7 C 206.0 85.7 206.0 85.7 206.0 85.7 C 206.0 85.7 206.0 85.7 206.0 85.7 Z M 199.2 87.7 C 196.6 86.2 201.6 88.4 200.0 86.8 C 204.0 88.0 199.7 88.0 199.2 87.7 C 199.2 87.7 199.2 87.7 199.2 87.7 Z M 199.2 87.7 " fill="#FFF8FB"></path><path d="M 211.1 104.3 C 210.8 104.8 209.2 104.7 210.5 104.2 C 210.6 104.1 211.3 104.1 211.1 104.3 Z M 213.9 103.8 C 213.7 103.9 213.5 103.9 213.3 103.8 C 213.0 103.3 214.6 103.7 213.9 103.8 Z M 209.8 104.0 C 209.7 104.1 208.8 104.3 209.0 104.1 C 209.1 103.9 209.8 104.0 209.8 104.0 Z M 216.2 102.3 C 216.2 102.6 215.2 102.7 215.1 102.6 C 214.6 102.4 216.1 101.8 216.2 102.3 Z M 211.4 96.2 C 211.4 96.2 211.5 96.1 211.4 96.0 C 211.5 96.1 211.4 96.2 211.4 96.2 Z M 229.0 100.5 C 228.9 100.6 228.5 100.4 228.5 100.2 C 228.6 100.0 229.5 100.4 229.0 100.5 Z M 216.5 81.3 C 216.5 81.3 216.2 81.5 216.1 81.4 C 216.0 81.2 216.3 81.1 216.5 81.3 Z M 216.2 81.2 C 216.0 81.2 216.0 80.8 216.2 80.9 C 216.3 81.1 216.4 81.2 216.2 81.2 Z M 227.0 88.7 C 227.1 88.8 227.2 88.9 227.0 88.9 C 226.9 88.9 226.9 88.6 227.0 88.7 Z M 226.5 88.6 C 226.3 88.7 226.4 88.3 226.5 88.4 C 226.7 88.5 226.8 88.6 226.5 88.6 Z M 225.8 85.7 C 225.8 85.8 225.9 85.8 225.8 85.8 C 225.7 85.8 225.6 85.6 225.8 85.7 Z M 213.6 87.1 C 213.5 87.0 213.8 86.6 214.0 86.7 C 214.2 86.8 213.7 87.4 213.6 87.1 Z M 213.7 86.5 C 213.5 86.5 213.6 86.1 213.7 86.3 C 213.8 86.4 213.9 86.5 213.7 86.5 Z M 213.3 88.5 C 213.6 88.6 213.4 89.1 213.3 89.2 C 213.2 89.3 213.1 89.5 212.9 89.6 C 212.8 89.7 213.0 88.4 213.3 88.5 Z M 212.1 92.5 C 212.0 92.5 212.0 92.4 212.1 92.3 C 212.3 92.2 212.2 92.6 212.1 92.5 Z M 212.8 90.3 C 212.7 90.2 212.7 90.1 212.8 90.0 C 213.0 89.9 212.9 90.3 212.8 90.3 Z M 221.4 101.9 C 221.5 102.1 220.8 102.1 220.7 102.0 C 220.7 102.0 221.0 102.0 220.8 101.9 C 220.6 101.9 220.9 101.3 221.4 101.9 Z M 215.4 103.5 C 215.2 103.5 215.2 103.4 215.2 103.2 C 215.2 103.2 215.8 103.3 215.4 103.5 Z M 220.3 101.3 C 220.4 101.4 220.2 101.4 220.2 101.3 C 220.2 101.2 220.3 101.2 220.3 101.3 Z M 220.8 101.1 C 220.7 101.1 220.3 101.0 220.3 100.8 C 220.4 100.5 221.3 100.9 220.8 101.1 Z M 222.3 102.0 C 222.1 102.1 222.1 102.1 222.2 102.0 C 222.3 101.9 222.3 102.0 222.3 102.0 Z M 218.8 103.0 C 218.6 103.0 218.6 103.0 218.7 102.9 C 218.8 102.8 218.8 103.0 218.8 103.0 Z M 223.9 101.3 C 223.9 101.3 223.5 101.6 223.3 101.3 C 223.0 100.8 223.8 101.3 223.9 101.3 Z M 226.2 100.3 C 226.1 100.3 226.1 100.1 226.3 100.2 C 226.4 100.2 226.4 100.3 226.2 100.3 Z M 227.0 99.3 C 227.3 99.4 227.5 99.5 227.1 99.6 C 226.7 99.6 226.7 99.3 227.0 99.3 Z M 226.6 99.6 C 226.5 99.5 226.7 99.5 226.7 99.6 C 226.7 99.7 226.6 99.7 226.6 99.6 Z M 224.6 100.6 C 224.4 100.8 224.1 100.6 224.4 100.4 C 224.7 100.3 224.8 100.4 224.6 100.6 Z M 209.6 97.9 C 209.6 98.1 209.4 97.9 209.4 97.8 C 209.3 97.7 209.6 97.7 209.6 97.9 Z M 213.7 89.7 C 213.5 89.8 213.5 89.6 213.7 89.5 C 213.8 89.3 213.9 89.6 213.7 89.7 Z M 216.1 84.4 C 216.0 84.5 216.0 84.4 216.1 84.2 C 216.3 84.0 216.3 84.4 216.1 84.4 Z M 212.9 91.9 C 212.8 91.9 212.6 91.2 213.1 91.0 C 213.6 90.8 213.3 91.8 212.9 91.9 Z M 215.2 98.8 C 215.2 98.9 215.1 98.8 215.1 98.8 C 215.2 98.6 215.2 98.6 215.2 98.8 Z M 214.0 90.9 C 214.0 91.0 213.8 90.9 213.7 90.8 C 213.7 90.7 214.0 90.7 214.0 90.9 Z M 215.5 85.3 C 215.3 85.5 215.0 85.2 214.9 85.0 C 214.7 84.5 215.3 84.3 215.6 84.1 C 215.9 83.9 215.6 85.2 215.5 85.3 Z M 210.0 99.5 C 210.1 99.4 210.1 99.3 210.2 99.2 C 210.1 99.1 210.2 99.0 210.3 99.0 C 210.4 98.4 210.1 97.9 210.1 97.5 C 210.0 96.6 211.2 96.7 211.4 96.2 C 211.4 96.4 211.3 96.5 211.4 96.6 C 211.6 96.9 212.2 95.0 212.2 94.9 C 212.6 93.1 211.6 95.0 211.0 94.8 C 210.8 94.7 211.8 93.8 211.9 93.8 C 212.3 93.3 211.8 93.0 212.2 92.7 C 212.3 92.5 213.8 92.4 213.7 92.1 C 213.6 91.9 213.9 91.4 214.0 91.3 C 214.1 91.0 214.3 90.4 213.7 90.6 C 213.3 90.6 213.0 90.6 213.4 90.3 C 213.7 90.1 215.2 88.5 214.3 88.2 C 214.2 88.2 213.8 88.5 213.8 88.6 C 213.8 87.9 214.7 86.5 214.4 85.9 C 213.9 84.8 214.8 86.4 215.2 86.0 C 215.9 85.5 216.3 85.2 216.5 84.2 C 216.5 83.9 216.8 83.1 216.2 83.3 C 215.8 83.5 215.6 83.2 215.3 83.7 C 215.1 82.9 216.1 82.8 216.0 82.7 C 215.8 82.4 215.5 82.7 215.7 82.2 C 216.0 81.7 215.7 81.9 216.2 82.0 C 216.4 82.0 216.7 81.6 216.7 81.6 C 216.7 81.6 216.8 81.6 216.8 81.6 C 216.9 81.2 216.3 80.2 216.6 80.1 C 216.8 80.1 217.2 80.5 217.4 80.6 C 217.5 80.6 217.5 80.5 217.5 80.5 C 217.5 80.3 217.3 79.7 217.4 79.7 C 217.5 79.6 218.2 80.3 218.1 80.0 C 217.9 79.7 218.6 78.8 218.8 78.9 C 219.1 78.9 220.3 79.0 220.4 78.9 C 220.5 78.7 220.9 79.3 221.0 79.4 C 221.2 79.5 221.2 80.0 221.2 80.1 C 221.2 80.2 221.5 80.5 221.5 80.5 C 221.5 80.5 221.8 80.6 222.0 80.9 C 222.3 81.2 222.3 81.6 222.5 82.1 C 222.7 82.5 223.0 82.5 223.3 82.8 C 223.7 83.1 223.4 83.9 223.5 84.3 C 223.7 84.7 224.2 84.3 224.5 84.6 C 224.9 85.0 224.9 85.3 224.8 85.2 C 224.6 85.2 224.6 85.4 224.6 85.5 C 224.7 85.6 225.0 86.2 225.2 86.3 C 225.4 86.4 224.8 84.9 226.0 86.4 C 226.5 87.2 226.4 88.0 226.3 87.9 C 225.8 87.4 226.0 89.1 226.2 88.9 C 226.5 88.7 227.4 90.0 227.6 89.4 C 227.6 89.2 228.8 90.3 228.8 90.6 C 228.9 90.8 229.5 91.3 229.2 91.8 C 229.1 92.0 230.2 92.3 230.3 92.4 C 230.4 92.6 231.2 93.6 231.2 93.9 C 231.3 94.2 230.9 93.7 230.7 93.5 C 230.6 93.3 230.5 92.8 230.3 92.7 C 230.1 92.5 230.3 93.1 230.4 93.3 C 230.6 93.6 230.4 93.8 230.5 94.1 C 230.7 94.1 230.8 94.3 230.9 94.5 C 231.0 94.6 231.1 94.7 231.2 94.6 C 231.3 94.5 231.3 94.3 231.4 94.3 C 231.4 94.3 231.7 94.4 231.9 94.7 C 232.1 95.0 232.3 95.2 232.5 95.7 C 232.7 96.2 232.9 96.2 233.2 96.5 C 233.4 96.7 233.6 97.0 233.5 97.1 C 233.4 97.2 233.1 96.9 233.0 96.9 C 232.9 96.9 233.0 97.5 233.1 97.7 C 233.6 98.5 232.5 98.4 233.0 99.2 C 233.3 99.7 232.7 99.4 232.3 99.3 C 232.3 99.5 232.3 99.5 231.8 99.7 C 231.9 99.8 231.2 99.8 231.0 99.9 C 230.8 99.9 229.7 100.4 230.3 99.9 C 230.4 99.9 230.4 99.8 230.5 99.8 C 230.4 99.8 230.4 99.8 230.4 99.8 C 230.4 99.8 230.7 99.3 230.7 99.3 C 230.7 99.3 230.4 99.8 230.4 99.8 C 230.2 99.6 230.1 99.5 230.0 99.4 C 229.9 99.4 229.9 99.5 229.8 99.6 C 229.8 99.6 229.8 99.6 229.8 99.6 C 229.8 99.6 229.8 99.6 229.8 99.6 C 229.8 99.8 229.8 99.8 229.6 99.8 C 229.2 100.1 228.2 99.9 227.8 99.8 C 228.7 98.7 226.8 99.0 226.2 99.3 C 225.6 99.5 225.9 100.8 226.2 100.7 C 225.8 100.8 225.6 100.6 225.4 100.3 C 225.5 100.3 224.8 99.7 224.9 99.7 C 223.8 99.5 224.2 100.4 223.9 100.6 C 223.7 100.8 223.3 100.9 223.1 101.0 C 222.8 101.1 223.1 101.3 223.0 101.5 C 222.7 102.0 221.8 101.2 221.5 101.2 C 221.7 101.1 222.0 100.9 222.2 100.8 C 221.9 101.1 221.6 100.5 221.4 100.5 C 221.1 100.4 220.7 100.6 220.3 100.6 C 219.8 100.8 219.2 101.0 218.6 101.2 C 218.8 101.3 219.8 101.8 219.9 101.8 C 219.7 101.8 219.1 101.8 219.4 102.2 C 219.9 102.8 218.4 102.7 218.1 102.8 C 217.3 102.8 216.7 103.7 215.7 103.0 C 215.7 103.0 216.9 102.6 216.8 102.5 C 216.4 101.9 216.0 101.6 215.3 101.9 C 215.1 102.0 214.1 102.7 214.1 102.7 C 214.1 102.6 215.5 104.0 214.5 103.7 C 214.3 103.6 214.6 103.2 214.3 103.2 C 214.0 103.1 213.5 103.3 213.1 103.3 C 213.0 103.3 212.4 103.2 212.4 103.3 C 212.3 103.5 212.3 103.8 212.1 104.0 C 211.9 104.1 211.6 104.0 211.5 103.8 C 211.5 103.7 211.5 103.7 211.5 103.7 C 211.5 103.7 211.4 103.6 211.4 103.5 C 211.3 103.5 211.1 103.6 211.0 103.4 C 210.9 103.4 211.2 103.3 211.4 103.4 C 211.4 103.3 211.4 103.2 211.4 103.1 C 211.1 103.2 210.8 103.3 210.7 103.4 C 210.3 103.8 210.3 104.0 209.4 103.6 C 208.7 103.2 208.9 101.2 209.6 100.3 C 209.6 100.0 209.7 99.8 210.0 99.5 Z M 231.0 95.3 C 231.0 95.2 231.0 95.2 231.0 95.2 C 230.9 95.2 230.8 95.3 230.7 95.4 C 230.8 95.7 230.8 95.2 231.0 95.5 C 231.1 95.7 231.2 95.6 231.0 95.3 Z M 230.0 97.6 C 230.1 97.7 230.2 97.6 230.1 97.5 C 230.0 97.5 230.0 97.6 230.0 97.6 Z M 230.1 98.8 C 230.4 98.7 229.7 98.3 229.2 98.5 C 229.6 98.7 229.9 98.8 230.1 98.8 Z M 229.3 99.5 C 229.3 99.4 229.3 99.4 229.3 99.3 C 229.3 99.1 229.0 99.4 229.0 99.2 C 229.0 99.1 229.4 98.9 229.1 98.8 C 229.0 98.8 228.9 98.8 228.9 98.8 C 228.8 98.8 228.8 98.8 228.8 98.9 C 228.7 99.1 229.0 99.5 229.3 99.5 Z M 229.3 94.5 C 229.4 94.5 229.4 94.4 229.3 94.3 C 229.2 94.2 229.1 94.4 229.3 94.5 Z M 228.7 92.1 C 228.8 92.3 228.9 92.4 229.0 92.2 C 229.0 91.9 228.7 91.8 228.7 92.1 Z M 225.1 93.9 C 225.2 93.9 225.1 93.9 225.0 93.8 C 224.9 93.7 224.9 93.9 225.1 93.9 Z M 224.2 95.8 C 224.0 95.9 224.2 96.2 224.3 96.1 C 224.3 96.0 224.3 95.8 224.2 95.8 Z M 226.1 91.4 C 226.0 91.3 225.9 91.5 226.1 91.5 C 226.2 91.5 226.3 91.5 226.1 91.4 Z M 225.5 94.3 C 225.5 94.0 225.4 94.0 225.3 94.0 C 225.2 94.1 225.2 94.3 225.3 94.4 C 225.5 94.6 225.6 94.5 225.5 94.3 Z M 225.1 96.0 C 224.5 96.1 224.5 96.3 225.2 96.1 C 225.9 95.9 225.4 95.9 225.1 96.0 Z M 228.2 90.3 C 228.2 90.4 228.5 90.6 228.5 90.6 C 228.5 90.6 228.1 89.9 228.2 90.3 Z M 223.2 100.5 C 223.4 100.4 223.6 100.2 223.2 100.2 C 222.9 100.2 223.0 100.5 223.2 100.5 Z M 222.5 99.3 C 222.8 99.7 223.2 99.8 223.2 99.8 C 223.2 99.7 223.3 99.3 223.4 99.3 C 223.7 99.0 224.3 99.4 224.6 99.0 C 225.0 98.6 224.1 98.7 223.9 98.8 C 224.0 98.8 224.1 98.7 224.1 98.5 C 224.0 98.4 223.9 98.4 223.8 98.5 C 223.6 98.7 222.2 98.8 222.5 99.3 Z M 224.3 94.5 C 224.5 94.7 224.8 94.6 224.7 94.3 C 224.6 94.1 224.5 93.9 224.4 93.9 C 224.3 93.9 224.2 94.4 224.3 94.5 Z M 224.7 92.9 C 225.0 92.9 224.9 92.9 224.8 92.7 C 224.5 92.5 224.5 93.0 224.7 92.9 Z M 224.3 85.6 C 224.1 85.6 224.3 85.9 224.4 85.8 C 224.5 85.7 224.4 85.6 224.3 85.6 Z M 223.5 88.1 C 223.1 87.9 223.3 88.4 223.4 88.4 C 223.5 88.4 223.7 88.3 223.5 88.1 Z M 224.4 90.1 C 224.2 90.0 224.3 90.3 224.4 90.3 C 224.6 90.3 224.5 90.2 224.4 90.1 Z M 224.2 91.2 C 224.1 91.0 224.0 91.3 224.2 91.4 C 224.3 91.4 224.3 91.3 224.2 91.2 Z M 220.5 99.0 C 220.5 99.0 220.5 98.6 220.2 98.8 C 219.9 99.1 219.9 99.1 220.5 99.0 Z M 222.2 96.4 C 222.5 96.3 222.8 96.1 222.8 95.2 C 222.9 94.3 222.6 94.6 222.3 95.0 C 222.0 95.5 222.1 94.0 221.6 94.9 C 221.3 95.2 221.9 96.4 222.2 96.4 Z M 222.7 90.7 C 222.8 91.3 223.6 91.4 223.3 91.0 C 223.0 90.5 222.6 90.2 222.7 90.7 Z M 222.8 90.3 C 222.9 90.4 222.9 90.3 222.8 90.2 C 222.6 90.0 222.6 90.3 222.8 90.3 Z M 218.8 102.4 C 219.8 101.9 218.5 101.5 218.5 101.5 C 217.4 101.4 217.8 102.8 218.8 102.4 Z M 217.1 82.2 C 217.0 82.2 217.0 82.3 217.0 82.3 C 217.0 82.3 217.0 82.3 217.0 82.4 C 217.1 82.6 217.4 82.3 217.4 82.3 C 217.3 82.2 217.1 82.2 217.1 82.2 Z M 214.9 87.3 C 215.0 87.1 215.0 86.9 215.0 86.7 C 214.5 86.7 213.9 88.2 214.9 87.9 C 215.1 87.9 216.1 87.1 215.8 86.9 C 215.6 86.7 214.7 87.8 214.9 87.3 Z M 216.2 85.9 C 215.9 86.5 217.0 85.6 216.6 85.6 C 216.4 85.6 216.2 85.7 216.2 85.9 Z M 219.3 81.9 C 219.2 80.9 218.0 80.6 218.1 82.1 C 218.3 83.7 218.8 83.9 218.9 83.2 C 218.9 82.5 219.3 83.3 219.3 81.9 Z M 216.8 88.6 C 216.0 88.1 216.1 88.6 216.6 89.0 C 216.8 89.2 217.3 88.9 216.8 88.6 Z M 216.2 90.5 C 216.1 90.7 216.1 90.7 216.3 90.6 C 216.5 90.5 216.4 90.3 216.2 90.5 Z M 221.0 81.0 C 221.0 80.6 220.7 80.3 220.9 80.3 C 221.1 80.4 221.1 80.3 221.0 80.1 C 220.9 79.8 220.7 80.2 220.7 80.4 C 220.6 80.6 221.0 81.3 221.0 81.0 Z M 221.3 89.3 C 221.2 89.1 221.2 89.4 221.4 89.4 C 221.5 89.5 221.5 89.4 221.3 89.3 Z M 219.6 96.7 C 219.6 96.7 219.7 96.5 219.5 96.6 C 219.3 96.8 219.3 96.8 219.6 96.7 Z M 217.2 102.3 C 217.4 102.2 217.0 102.0 217.2 101.7 C 217.3 101.6 217.4 101.9 217.4 101.9 C 217.4 101.9 217.5 101.1 217.1 101.5 C 216.9 101.6 216.7 102.5 217.2 102.3 Z M 220.4 91.2 C 220.5 91.6 221.2 90.4 221.4 90.7 C 221.5 91.0 221.6 90.9 221.4 90.5 C 221.2 90.2 220.2 90.7 220.4 91.2 Z M 221.3 88.1 C 221.3 88.3 221.7 89.0 221.6 88.6 C 221.6 88.3 221.3 87.9 221.6 88.0 C 221.8 88.1 221.7 88.0 221.6 87.7 C 221.5 87.4 221.3 87.9 221.3 88.1 Z M 223.0 82.9 C 223.0 83.1 223.3 83.4 223.2 83.1 C 223.2 82.9 222.9 82.8 223.0 82.9 Z M 217.4 96.9 C 217.6 96.7 217.6 96.6 217.3 96.7 C 217.0 96.8 217.3 97.0 217.4 96.9 Z M 221.9 83.1 C 222.1 83.5 222.1 82.9 222.2 83.2 C 222.4 83.5 222.5 83.4 222.3 83.0 C 222.1 82.7 221.8 82.7 221.9 83.1 Z M 215.0 101.1 C 215.0 101.0 215.0 100.8 214.9 100.9 C 214.7 101.0 214.9 101.3 215.0 101.1 Z M 214.9 99.0 C 215.0 99.0 215.1 99.0 215.2 99.0 C 216.7 98.6 214.3 98.4 214.9 99.0 Z M 216.2 96.2 C 216.1 96.6 216.5 96.2 216.5 96.2 C 216.4 96.0 216.3 96.0 216.2 96.2 Z M 217.3 93.0 C 217.2 92.8 217.1 93.2 217.3 93.2 C 217.5 93.2 217.4 93.1 217.3 93.0 Z M 213.0 103.0 C 213.2 103.1 213.2 102.9 213.0 102.9 C 212.9 102.9 212.8 103.0 213.0 103.0 Z M 215.8 95.1 C 215.8 95.1 215.9 95.1 215.9 95.0 C 215.9 94.8 215.7 95.0 215.8 95.1 Z M 219.3 85.3 C 219.4 85.5 219.4 85.6 219.5 85.7 C 219.7 85.6 220.0 85.1 220.2 85.1 C 220.2 85.1 220.2 85.2 220.2 85.2 C 220.2 85.2 220.2 85.2 220.3 85.2 C 220.4 85.2 220.4 85.3 220.3 85.3 C 220.3 85.4 220.3 85.6 220.3 85.7 C 220.5 85.6 220.8 85.4 220.7 85.2 C 220.6 84.9 220.2 84.7 219.8 84.6 C 219.7 84.7 219.6 84.8 219.5 85.0 C 219.5 85.0 219.5 85.0 219.5 85.0 C 219.7 85.2 219.7 85.4 219.6 85.3 C 219.5 85.3 219.4 85.2 219.4 85.1 C 219.4 85.2 219.3 85.3 219.3 85.3 Z M 215.8 93.7 C 215.8 94.0 216.0 93.8 216.2 93.5 C 216.3 93.3 215.8 93.4 215.8 93.7 Z M 212.8 102.5 C 212.8 102.4 212.8 102.4 212.7 102.3 C 212.7 102.3 212.7 102.4 212.7 102.4 C 212.6 102.6 212.5 102.7 212.4 102.9 C 212.6 102.9 212.8 102.9 212.8 102.5 Z M 212.9 99.4 C 212.9 99.5 212.4 100.7 212.8 100.6 C 213.3 100.4 213.5 101.0 213.7 100.1 C 213.7 99.7 213.3 99.2 213.3 98.7 C 213.6 96.5 212.6 99.0 212.2 99.5 C 212.2 99.6 212.9 99.3 212.9 99.4 Z M 213.3 96.5 C 213.1 96.4 212.8 96.6 212.8 96.7 C 212.6 97.3 213.5 96.7 213.3 96.5 Z M 210.9 102.1 C 210.9 102.2 210.9 102.2 211.0 102.2 C 211.0 102.1 210.9 102.1 210.9 102.0 C 210.9 102.1 210.9 102.1 210.9 102.1 Z M 210.1 103.5 C 210.9 103.2 209.8 102.8 209.5 102.9 C 209.0 102.9 209.7 103.6 210.1 103.5 Z M 211.8 97.7 C 211.9 97.3 210.9 96.4 210.7 97.1 C 210.5 97.8 211.3 98.6 211.8 97.7 Z M 211.8 92.9 C 211.9 93.1 211.5 93.4 211.4 93.1 C 211.4 92.9 211.8 92.8 211.8 92.9 Z M 208.8 99.0 C 208.9 98.9 208.9 99.0 208.9 99.0 C 208.7 99.1 208.7 99.1 208.8 99.0 Z M 209.9 98.7 C 209.7 98.9 209.6 99.1 209.5 99.2 C 209.4 99.4 209.4 98.9 209.4 98.9 C 209.5 98.7 209.9 98.8 209.9 98.7 Z M 211.3 95.3 C 211.1 95.5 211.1 95.2 211.2 95.1 C 211.3 95.0 211.4 95.3 211.3 95.3 Z M 210.7 96.0 C 210.8 95.9 210.9 96.1 210.8 96.2 C 210.7 96.4 210.6 96.2 210.7 96.0 Z M 211.9 94.9 C 211.9 95.3 211.8 95.8 211.4 95.6 C 211.3 95.6 211.9 94.1 211.9 94.9 Z M 211.9 94.9 " fill="#FFF8FB"></path></g></svg>