<?xml version="1.0" encoding="UTF-8" standalone="no"?><svg xmlns="http://www.w3.org/2000/svg" xmlns:xlink="http://www.w3.org/1999/xlink" clip-rule="evenodd" stroke-miterlimit="10" viewBox="0 0 691 315"><desc>SVG generated by Keynote</desc><defs></defs><g transform="matrix(1.00, 0.00, -0.00, -1.00, 0.0, 315.0)"><path d="M 2.0 313.5 L 690.0 313.5 L 690.0 1.5 L 2.0 1.5 Z M 2.0 313.5 " fill="#BFBFBF" fill-opacity="0.25"></path><path d="M 0.5 0.5 L 687.5 0.5 L 687.5 311.5 L 0.5 311.5 Z M 0.5 0.5 L 687.5 311.5 M 687.5 0.5 L 0.5 311.5 " fill="none" stroke="#4C4C4C" stroke-opacity="0.75" stroke-width="1.00" transform="matrix(1.00, 0.00, 0.00, -1.00, 2.0, 313.5)"></path><g><clipPath id="clip0x6000010a9900"><path d="M 330.0 141.5 L 362.0 141.5 L 362.0 173.5 L 330.0 173.5 Z M 330.0 141.5 "></path></clipPath><g clip-path="url(#clip0x6000010a9900)"><path d="M 330.5 173.0 L 361.5 173.0 L 361.5 142.0 L 330.5 142.0 L 330.5 173.0 Z M 330.5 173.0 " fill="#F2F3F2"></path><path d="M 283.0 319.0 L 314.0 319.0 L 314.0 350.0 L 283.0 350.0 L 283.0 319.0 Z M 283.0 319.0 " fill="none" stroke="#FFFFFF" stroke-width="1.00" stroke-linecap="round" transform="matrix(1.00, 0.00, 0.00, -1.00, 47.5, 492.0)"></path><path d="M 343.5 147.1 L 343.5 149.8 L 346.2 149.8 L 346.2 147.1 L 343.5 147.1 Z M 343.5 147.1 " fill="#000000"></path><path d="M 343.5 152.5 L 343.5 153.2 C 343.5 154.9 344.2 156.6 345.5 158.1 L 346.4 159.1 C 347.8 160.8 348.5 162.1 348.5 163.1 C 348.5 164.0 348.2 164.6 347.6 165.1 C 346.9 165.5 346.1 165.8 345.0 165.8 C 343.6 165.8 342.1 165.4 340.6 164.8 L 340.6 167.1 C 342.3 167.6 343.8 167.8 345.3 167.8 C 347.2 167.8 348.6 167.4 349.7 166.6 C 350.8 165.7 351.4 164.6 351.4 163.2 C 351.4 162.4 351.2 161.7 350.9 161.1 C 350.6 160.5 350.0 159.8 349.1 159.0 L 348.2 158.2 C 347.4 157.4 346.8 156.7 346.6 156.2 C 346.3 155.6 346.2 154.9 346.2 154.0 L 346.2 152.5 L 343.5 152.5 Z M 343.5 152.5 " fill="#000000"></path></g></g></g></svg>