<?xml version="1.0" encoding="UTF-8" standalone="no"?><svg xmlns="http://www.w3.org/2000/svg" xmlns:xlink="http://www.w3.org/1999/xlink" clip-rule="evenodd" stroke-miterlimit="10" viewBox="0 0 1920 1080"><desc>SVG generated by Keynote</desc><defs><linearGradient id="gradSh1.4" x1="0.0" y1="0.0" x2="100.0" y2="0.0" gradientUnits="userSpaceOnUse" gradientTransform="matrix(0.00, -2.63, -5.34, 0.00, 449.8, 732.0)"><stop offset="0.00000" stop-color="#EDAC0F"></stop><stop offset="0.01026" stop-color="#EDAC10"></stop><stop offset="0.01173" stop-color="#ECAB10"></stop><stop offset="0.81085" stop-color="#D47D20"></stop><stop offset="0.81158" stop-color="#D47C20"></stop><stop offset="1.00000" stop-color="#CE7123"></stop></linearGradient><pattern id="patternP1" patternUnits="userSpaceOnUse" width="512" height="512" viewBox="0 0 512 512"><image xlink:href="71D9304BD44382C20CC202032C6D6058.png" width="512.00" height="512.00"></image></pattern><pattern id="patternP2" patternUnits="userSpaceOnUse" width="512" height="512" viewBox="0 0 512 512"><image xlink:href="../../60252C77-7F6D-4FAE-860E-2CB847E39FFD/assets/BF7F347A5AA08698479112B0B19D9FB4.png" width="512.00" height="512.00"></image></pattern><pattern id="patternP3" patternUnits="userSpaceOnUse" width="512" height="512" viewBox="0 0 512 512"><image xlink:href="14AA4F468E5EBA534246493D67C8DFF4.png" width="512.00" height="512.00"></image></pattern><pattern id="patternP4" patternUnits="userSpaceOnUse" width="512" height="512" viewBox="0 0 512 512"><image xlink:href="../../172D7124-FDD3-4A62-BE2D-AB8B9C68D233/assets/14AA4F468E5EBA534246493D67C8DFF4.png" width="512.00" height="512.00"></image></pattern></defs><g transform="matrix(1.00, 0.00, -0.00, -1.00, 0.0, 1080.0)"><g><clipPath id="clip0x6000020a0600"><path d="M 0.0 1080.0 L 1920.0 1080.0 L 1920.0 0.0 L 0.0 0.0 Z M 0.0 1080.0 "></path></clipPath><g clip-path="url(#clip0x6000020a0600)"><image xlink:href="../../9A1EA51A-CD95-4C67-B9FE-66E6BE22F494/assets/0AD07D05F001956134D524CAFA0749E7.jpeg" width="3840.00" height="2048.00" transform="matrix(0.53, 0.00, -0.00, -0.53, -52.5, 1080.0)"></image></g></g><image xlink:href="84DFA1D6C16564ECCAC0E77706C83ABF.png" width="783.00" height="91.00" transform="matrix(1.00, 0.00, -0.00, -1.00, 567.0, 946.0)"></image><text xml:space="preserve" font-family="HelveticaNeue-Bold,Helvetica Neue" font-weight="bold" font-size="90.0" fill="#FEFFFE" transform="matrix(1.00, 0.00, -0.00, -1.00, 568.5, 877.6)">C</text><text xml:space="preserve" font-family="HelveticaNeue-Bold,Helvetica Neue" font-weight="bold" font-size="90.0" fill="#FEFFFE" transform="matrix(1.00, 0.00, -0.00, -1.00, 635.2, 877.6)">o</text><text xml:space="preserve" font-family="HelveticaNeue-Bold,Helvetica Neue" font-weight="bold" font-size="90.0" fill="#FEFFFE" transform="matrix(1.00, 0.00, -0.00, -1.00, 690.2, 877.6)">n</text><text xml:space="preserve" font-family="HelveticaNeue-Bold,Helvetica Neue" font-weight="bold" font-size="90.0" fill="#FEFFFE" transform="matrix(1.00, 0.00, -0.00, -1.00, 743.5, 877.6)">c</text><text xml:space="preserve" font-family="HelveticaNeue-Bold,Helvetica Neue" font-weight="bold" font-size="90.0" fill="#FEFFFE" transform="matrix(1.00, 0.00, -0.00, -1.00, 795.2, 877.6)">e</text><text xml:space="preserve" font-family="HelveticaNeue-Bold,Helvetica Neue" font-weight="bold" font-size="90.0" fill="#FEFFFE" transform="matrix(1.00, 0.00, -0.00, -1.00, 846.9, 877.6)">p</text><text xml:space="preserve" font-family="HelveticaNeue-Bold,Helvetica Neue" font-weight="bold" font-size="90.0" fill="#FEFFFE" transform="matrix(1.00, 0.00, -0.00, -1.00, 901.8, 877.6)">t</text><text xml:space="preserve" font-family="HelveticaNeue-Bold,Helvetica Neue" font-weight="bold" font-size="90.0" fill="#FEFFFE" transform="matrix(1.00, 0.00, -0.00, -1.00, 933.5, 877.6)"> </text><text xml:space="preserve" font-family="HelveticaNeue-Bold,Helvetica Neue" font-weight="bold" font-size="90.0" fill="#FEFFFE" transform="matrix(1.00, 0.00, -0.00, -1.00, 958.5, 877.6)">o</text><text xml:space="preserve" font-family="HelveticaNeue-Bold,Helvetica Neue" font-weight="bold" font-size="90.0" fill="#FEFFFE" transform="matrix(1.00, 0.00, -0.00, -1.00, 1013.5, 877.6)">f</text><text xml:space="preserve" font-family="HelveticaNeue-Bold,Helvetica Neue" font-weight="bold" font-size="90.0" fill="#FEFFFE" transform="matrix(1.00, 0.00, -0.00, -1.00, 1043.5, 877.6)"> </text><text xml:space="preserve" font-family="HelveticaNeue-Bold,Helvetica Neue" font-weight="bold" font-size="90.0" fill="#FEFFFE" transform="matrix(1.00, 0.00, -0.00, -1.00, 1068.5, 877.6)">j</text><text xml:space="preserve" font-family="HelveticaNeue-Bold,Helvetica Neue" font-weight="bold" font-size="90.0" fill="#FEFFFE" transform="matrix(1.00, 0.00, -0.00, -1.00, 1093.5, 877.6)">H</text><text xml:space="preserve" font-family="HelveticaNeue-Bold,Helvetica Neue" font-weight="bold" font-size="90.0" fill="#FEFFFE" transform="matrix(1.00, 0.00, -0.00, -1.00, 1160.2, 877.6)">o</text><text xml:space="preserve" font-family="HelveticaNeue-Bold,Helvetica Neue" font-weight="bold" font-size="90.0" fill="#FEFFFE" transform="matrix(1.00, 0.00, -0.00, -1.00, 1215.2, 877.6)">m</text><text xml:space="preserve" font-family="HelveticaNeue-Bold,Helvetica Neue" font-weight="bold" font-size="90.0" fill="#FEFFFE" transform="matrix(1.00, 0.00, -0.00, -1.00, 1296.8, 877.6)">e</text><image xlink:href="C8F0FA25ADD7B617033C4DA09674BC8D.png" width="1646.00" height="708.00" transform="matrix(1.00, 0.00, -0.00, -1.00, 136.2, 788.8)" opacity="0.50"></image><g><clipPath id="clip0x6000020a5640"><path d="M 140.0 787.0 L 1778.0 787.0 L 1778.0 87.0 L 140.0 87.0 Z M 140.2 786.8 "></path></clipPath><g clip-path="url(#clip0x6000020a5640)"><image xlink:href="F0D8563D13E31FEA6C4FADC7D59CBF79.png" width="1639.00" height="701.00" transform="matrix(1.00, 0.00, -0.00, 1.00, 139.2, 86.8)"></image></g></g><image xlink:href="E21DD481842BE72A6DC058802834C05A.png" width="540.00" height="270.00" transform="matrix(1.00, 0.00, -0.00, -1.00, 179.7, 733.2)" opacity="0.50"></image><g><clipPath id="clip0x6000020a58e0"><path d="M 183.7 502.3 L 184.0 698.5 C 184.0 716.5 198.3 731.0 216.4 731.0 L 683.0 731.0 C 701.0 731.0 716.0 716.5 716.0 698.5 L 716.0 502.3 C 716.0 484.2 701.0 470.0 683.0 470.0 L 216.4 470.0 C 198.3 470.0 183.7 484.2 183.7 502.3 Z M 183.7 502.3 "></path></clipPath><g clip-path="url(#clip0x6000020a58e0)"><path d="M 183.7 502.3 L 184.0 698.5 C 184.0 716.5 198.3 731.0 216.4 731.0 L 683.0 731.0 C 701.0 731.0 716.0 716.5 716.0 698.5 L 716.0 502.3 C 716.0 484.2 701.0 470.0 683.0 470.0 L 216.4 470.0 C 198.3 470.0 183.7 484.2 183.7 502.3 Z M 183.7 502.3 " fill="url(#gradSh1.4)"></path></g></g><image xlink:href="ABA28A9D80018BE19212DE6A2E0F35E5.png" width="253.00" height="43.00" transform="matrix(1.00, 0.00, -0.00, -1.00, 323.0, 617.0)"></image><g><clipPath id="clip0x6000022a5b80"><path d="M 174.2 469.6 L 725.2 469.6 L 725.2 731.2 L 174.2 731.2 Z M 174.2 469.6 "></path></clipPath><g clip-path="url(#clip0x6000022a5b80)"><text xml:space="preserve" font-family="HelveticaNeue-Medium,Helvetica Neue" font-size="42.0" fill="#3B3B3B" transform="matrix(1.00, 0.00, -0.00, -1.00, 322.0, 585.3)">@</text><text xml:space="preserve" font-family="HelveticaNeue-Medium,Helvetica Neue" font-size="42.0" fill="#3B3B3B" transform="matrix(1.00, 0.00, -0.00, -1.00, 355.6, 585.3)">j</text><text xml:space="preserve" font-family="HelveticaNeue-Medium,Helvetica Neue" font-size="42.0" fill="#3B3B3B" transform="matrix(1.00, 0.00, -0.00, -1.00, 365.7, 585.3)">a</text><text xml:space="preserve" font-family="HelveticaNeue-Medium,Helvetica Neue" font-size="42.0" fill="#3B3B3B" transform="matrix(1.00, 0.00, -0.00, -1.00, 389.0, 585.3)">c</text><text xml:space="preserve" font-family="HelveticaNeue-Medium,Helvetica Neue" font-size="42.0" fill="#3B3B3B" transform="matrix(1.00, 0.00, -0.00, -1.00, 412.4, 585.3)">o</text><text xml:space="preserve" font-family="HelveticaNeue-Medium,Helvetica Neue" font-size="42.0" fill="#3B3B3B" transform="matrix(1.00, 0.00, -0.00, -1.00, 437.3, 585.3)">b</text><text xml:space="preserve" font-family="HelveticaNeue-Medium,Helvetica Neue" font-size="42.0" fill="#3B3B3B" transform="matrix(1.00, 0.00, -0.00, -1.00, 463.0, 585.3)">s</text><text xml:space="preserve" font-family="HelveticaNeue-Medium,Helvetica Neue" font-size="42.0" fill="#3B3B3B" transform="matrix(1.00, 0.00, -0.00, -1.00, 484.8, 585.3)"> </text><text xml:space="preserve" font-family="HelveticaNeue-Medium,Helvetica Neue" font-size="42.0" fill="#3B3B3B" transform="matrix(1.00, 0.00, -0.00, -1.00, 496.4, 585.3)">M</text><text xml:space="preserve" font-family="HelveticaNeue-Medium,Helvetica Neue" font-size="42.0" fill="#3B3B3B" transform="matrix(1.00, 0.00, -0.00, -1.00, 533.8, 585.3)">a</text><text xml:space="preserve" font-family="HelveticaNeue-Medium,Helvetica Neue" font-size="42.0" fill="#3B3B3B" transform="matrix(1.00, 0.00, -0.00, -1.00, 557.1, 585.3)">i</text><text xml:space="preserve" font-family="HelveticaNeue-Medium,Helvetica Neue" font-size="42.0" fill="#3B3B3B" transform="matrix(1.00, 0.00, -0.00, -1.00, 567.3, 585.3)">l</text></g></g><image xlink:href="865FE4DB90086DCC6E5EF9D3649253A2.png" width="611.00" height="420.00" transform="matrix(0.00, 1.00, 1.00, -0.00, 748.7, 137.9)" opacity="0.50"></image><g><clipPath id="clip0x6080034b23c0"><path d="M 1074.2 143.9 L 842.7 144.0 C 793.0 144.0 753.0 184.2 753.0 233.9 L 753.0 656.9 C 753.0 706.6 793.0 747.0 842.7 747.0 L 1074.2 747.0 C 1124.0 747.0 1164.0 706.6 1164.0 656.9 L 1164.0 233.9 C 1164.0 184.2 1124.0 143.9 1074.2 143.9 Z M 1074.2 143.9 "></path></clipPath><g clip-path="url(#clip0x6080034b23c0)"><path d="M 1164.0 143.9 L 1164.0 747.0 L 753.0 747.0 L 753.0 143.9 Z M 1164.0 143.9 " fill="url(#patternP1)"></path></g></g><image xlink:href="7B91D932F40C91C0DB8201B4BD9CF4B6.png" width="536.00" height="270.00" transform="matrix(1.00, 0.00, -0.00, -1.00, 1197.2, 410.1)" opacity="0.50"></image><g><clipPath id="clip0x6080034b3ec0"><path d="M 1201.2 179.2 L 1201.0 375.4 C 1201.0 393.5 1215.9 408.0 1233.9 408.0 L 1696.6 408.0 C 1714.7 408.0 1729.0 393.5 1729.0 375.4 L 1729.0 179.2 C 1729.0 161.2 1714.7 147.0 1696.6 147.0 L 1233.9 147.0 C 1215.9 147.0 1201.2 161.2 1201.2 179.2 Z M 1201.2 179.2 "></path></clipPath><g clip-path="url(#clip0x6080034b3ec0)"><path d="M 1201.0 147.0 L 1729.0 147.0 L 1729.0 408.0 L 1201.0 408.0 Z M 1201.0 147.0 " fill="url(#patternP2)"></path></g></g><image xlink:href="0DE062A7ED29BBFFA82A514D744DAA3D.png" width="263.00" height="46.00" transform="matrix(1.00, 0.00, -0.00, -1.00, 1333.0, 341.0)"></image><g><clipPath id="clip0x6000022a65a0"><path d="M 1189.7 146.5 L 1740.8 146.5 L 1740.8 408.1 L 1189.7 408.1 Z M 1189.7 146.5 "></path></clipPath><g clip-path="url(#clip0x6000022a65a0)"><text xml:space="preserve" font-family="HelveticaNeue-Medium,Helvetica Neue" font-size="42.0" fill="#FEFFFE" transform="matrix(1.00, 0.00, -0.00, -1.00, 1336.5, 307.9)">Y</text><text xml:space="preserve" font-family="HelveticaNeue-Medium,Helvetica Neue" font-size="42.0" fill="#FEFFFE" transform="matrix(1.00, 0.00, -0.00, -1.00, 1359.8, 307.9)">o</text><text xml:space="preserve" font-family="HelveticaNeue-Medium,Helvetica Neue" font-size="42.0" fill="#FEFFFE" transform="matrix(1.00, 0.00, -0.00, -1.00, 1384.7, 307.9)">u</text><text xml:space="preserve" font-family="HelveticaNeue-Medium,Helvetica Neue" font-size="42.0" fill="#FEFFFE" transform="matrix(1.00, 0.00, -0.00, -1.00, 1408.8, 307.9)">r</text><text xml:space="preserve" font-family="HelveticaNeue-Medium,Helvetica Neue" font-size="42.0" fill="#FEFFFE" transform="matrix(1.00, 0.00, -0.00, -1.00, 1423.6, 307.9)"> </text><text xml:space="preserve" font-family="HelveticaNeue-Medium,Helvetica Neue" font-size="42.0" fill="#FEFFFE" transform="matrix(1.00, 0.00, -0.00, -1.00, 1435.3, 307.9)">p</text><text xml:space="preserve" font-family="HelveticaNeue-Medium,Helvetica Neue" font-size="42.0" fill="#FEFFFE" transform="matrix(1.00, 0.00, -0.00, -1.00, 1461.0, 307.9)">r</text><text xml:space="preserve" font-family="HelveticaNeue-Medium,Helvetica Neue" font-size="42.0" fill="#FEFFFE" transform="matrix(1.00, 0.00, -0.00, -1.00, 1475.0, 307.9)">o</text><text xml:space="preserve" font-family="HelveticaNeue-Medium,Helvetica Neue" font-size="42.0" fill="#FEFFFE" transform="matrix(1.00, 0.00, -0.00, -1.00, 1499.9, 307.9)">j</text><text xml:space="preserve" font-family="HelveticaNeue-Medium,Helvetica Neue" font-size="42.0" fill="#FEFFFE" transform="matrix(1.00, 0.00, -0.00, -1.00, 1510.0, 307.9)">e</text><text xml:space="preserve" font-family="HelveticaNeue-Medium,Helvetica Neue" font-size="42.0" fill="#FEFFFE" transform="matrix(1.00, 0.00, -0.00, -1.00, 1533.4, 307.9)">c</text><text xml:space="preserve" font-family="HelveticaNeue-Medium,Helvetica Neue" font-size="42.0" fill="#FEFFFE" transform="matrix(1.00, 0.00, -0.00, -1.00, 1556.7, 307.9)">t</text><text xml:space="preserve" font-family="HelveticaNeue-Medium,Helvetica Neue" font-size="42.0" fill="#FEFFFE" transform="matrix(1.00, 0.00, -0.00, -1.00, 1570.7, 307.9)">?</text><text xml:space="preserve" font-family="HelveticaNeue-Medium,Helvetica Neue" font-size="42.0" fill="#FEFFFE" transform="matrix(1.00, 0.00, -0.00, -1.00, 1594.1, 307.9)"> </text></g></g><g><clipPath id="clip0x6000022a6cc0"><path d="M 1189.7 146.5 L 1740.8 146.5 L 1740.8 408.1 L 1189.7 408.1 Z M 1189.7 146.5 "></path></clipPath><g clip-path="url(#clip0x6000022a6cc0)"></g></g><image xlink:href="2BC724272AF94581E723103A40B57378.png" width="463.00" height="37.00" transform="matrix(1.00, 0.00, -0.00, -1.00, 1234.0, 241.0)"></image><g><clipPath id="clip0x6000022a6d80"><path d="M 1189.7 146.5 L 1740.8 146.5 L 1740.8 408.1 L 1189.7 408.1 Z M 1189.7 146.5 "></path></clipPath><g clip-path="url(#clip0x6000022a6d80)"><text xml:space="preserve" font-family="HelveticaNeue-Thin,Helvetica Neue" font-size="33.0" fill="#FEFFFE" transform="matrix(1.00, 0.00, -0.00, -1.00, 1235.0, 214.6)">(</text><text xml:space="preserve" font-family="HelveticaNeue-Thin,Helvetica Neue" font-size="33.0" fill="#FEFFFE" transform="matrix(1.00, 0.00, -0.00, -1.00, 1242.9, 214.6)">J</text><text xml:space="preserve" font-family="HelveticaNeue-Thin,Helvetica Neue" font-size="33.0" fill="#FEFFFE" transform="matrix(1.00, 0.00, -0.00, -1.00, 1258.8, 214.6)">a</text><text xml:space="preserve" font-family="HelveticaNeue-Thin,Helvetica Neue" font-size="33.0" fill="#FEFFFE" transform="matrix(1.00, 0.00, -0.00, -1.00, 1275.3, 214.6)">y</text><text xml:space="preserve" font-family="HelveticaNeue-Thin,Helvetica Neue" font-size="33.0" fill="#FEFFFE" transform="matrix(1.00, 0.00, -0.00, -1.00, 1290.0, 214.6)">d</text><text xml:space="preserve" font-family="HelveticaNeue-Thin,Helvetica Neue" font-size="33.0" fill="#FEFFFE" transform="matrix(1.00, 0.00, -0.00, -1.00, 1308.3, 214.6)">u</text><text xml:space="preserve" font-family="HelveticaNeue-Thin,Helvetica Neue" font-size="33.0" fill="#FEFFFE" transform="matrix(1.00, 0.00, -0.00, -1.00, 1325.4, 214.6)">c</text><text xml:space="preserve" font-family="HelveticaNeue-Thin,Helvetica Neue" font-size="33.0" fill="#FEFFFE" transform="matrix(1.00, 0.00, -0.00, -1.00, 1342.6, 214.6)">k</text><text xml:space="preserve" font-family="HelveticaNeue-Thin,Helvetica Neue" font-size="33.0" fill="#FEFFFE" transform="matrix(1.00, 0.00, -0.00, -1.00, 1357.9, 214.6)">s</text><text xml:space="preserve" font-family="HelveticaNeue-Thin,Helvetica Neue" font-size="33.0" fill="#FEFFFE" transform="matrix(1.00, 0.00, -0.00, -1.00, 1373.7, 214.6)">,</text><text xml:space="preserve" font-family="HelveticaNeue-Thin,Helvetica Neue" font-size="33.0" fill="#FEFFFE" transform="matrix(1.00, 0.00, -0.00, -1.00, 1382.9, 214.6)"> </text><text xml:space="preserve" font-family="HelveticaNeue-Thin,Helvetica Neue" font-size="33.0" fill="#FEFFFE" transform="matrix(1.00, 0.00, -0.00, -1.00, 1392.1, 214.6)">W</text><text xml:space="preserve" font-family="HelveticaNeue-Thin,Helvetica Neue" font-size="33.0" fill="#FEFFFE" transform="matrix(1.00, 0.00, -0.00, -1.00, 1421.4, 214.6)">h</text><text xml:space="preserve" font-family="HelveticaNeue-Thin,Helvetica Neue" font-size="33.0" fill="#FEFFFE" transform="matrix(1.00, 0.00, -0.00, -1.00, 1438.5, 214.6)">o</text><text xml:space="preserve" font-family="HelveticaNeue-Thin,Helvetica Neue" font-size="33.0" fill="#FEFFFE" transform="matrix(1.00, 0.00, -0.00, -1.00, 1456.3, 214.6)">I</text><text xml:space="preserve" font-family="HelveticaNeue-Thin,Helvetica Neue" font-size="33.0" fill="#FEFFFE" transform="matrix(1.00, 0.00, -0.00, -1.00, 1461.9, 214.6)">s</text><text xml:space="preserve" font-family="HelveticaNeue-Thin,Helvetica Neue" font-size="33.0" fill="#FEFFFE" transform="matrix(1.00, 0.00, -0.00, -1.00, 1477.7, 214.6)">J</text><text xml:space="preserve" font-family="HelveticaNeue-Thin,Helvetica Neue" font-size="33.0" fill="#FEFFFE" transform="matrix(1.00, 0.00, -0.00, -1.00, 1493.6, 214.6)">a</text><text xml:space="preserve" font-family="HelveticaNeue-Thin,Helvetica Neue" font-size="33.0" fill="#FEFFFE" transform="matrix(1.00, 0.00, -0.00, -1.00, 1510.1, 214.6)">c</text><text xml:space="preserve" font-family="HelveticaNeue-Thin,Helvetica Neue" font-size="33.0" fill="#FEFFFE" transform="matrix(1.00, 0.00, -0.00, -1.00, 1527.2, 214.6)">k</text><text xml:space="preserve" font-family="HelveticaNeue-Thin,Helvetica Neue" font-size="33.0" fill="#FEFFFE" transform="matrix(1.00, 0.00, -0.00, -1.00, 1542.5, 214.6)">,</text><text xml:space="preserve" font-family="HelveticaNeue-Thin,Helvetica Neue" font-size="33.0" fill="#FEFFFE" transform="matrix(1.00, 0.00, -0.00, -1.00, 1551.7, 214.6)"> </text><text xml:space="preserve" font-family="HelveticaNeue-Thin,Helvetica Neue" font-size="33.0" fill="#FEFFFE" transform="matrix(1.00, 0.00, -0.00, -1.00, 1560.9, 214.6)">j</text><text xml:space="preserve" font-family="HelveticaNeue-Thin,Helvetica Neue" font-size="33.0" fill="#FEFFFE" transform="matrix(1.00, 0.00, -0.00, -1.00, 1566.4, 214.6)">F</text><text xml:space="preserve" font-family="HelveticaNeue-Thin,Helvetica Neue" font-size="33.0" fill="#FEFFFE" transform="matrix(1.00, 0.00, -0.00, -1.00, 1582.5, 214.6)">o</text><text xml:space="preserve" font-family="HelveticaNeue-Thin,Helvetica Neue" font-size="33.0" fill="#FEFFFE" transform="matrix(1.00, 0.00, -0.00, -1.00, 1600.2, 214.6)">o</text><text xml:space="preserve" font-family="HelveticaNeue-Thin,Helvetica Neue" font-size="33.0" fill="#FEFFFE" transform="matrix(1.00, 0.00, -0.00, -1.00, 1617.9, 214.6)">d</text><text xml:space="preserve" font-family="HelveticaNeue-Thin,Helvetica Neue" font-size="33.0" fill="#FEFFFE" transform="matrix(1.00, 0.00, -0.00, -1.00, 1636.2, 214.6)">,</text><text xml:space="preserve" font-family="HelveticaNeue-Thin,Helvetica Neue" font-size="33.0" fill="#FEFFFE" transform="matrix(1.00, 0.00, -0.00, -1.00, 1645.4, 214.6)"> </text><text xml:space="preserve" font-family="HelveticaNeue-Thin,Helvetica Neue" font-size="33.0" fill="#FEFFFE" transform="matrix(1.00, 0.00, -0.00, -1.00, 1654.6, 214.6)">…</text><text xml:space="preserve" font-family="HelveticaNeue-Thin,Helvetica Neue" font-size="33.0" fill="#FEFFFE" transform="matrix(1.00, 0.00, -0.00, -1.00, 1687.6, 214.6)">)</text></g></g><image xlink:href="46D8972A1C2143C06C4C5588CC32D7CE.png" width="256.00" height="270.00" transform="matrix(1.00, 0.00, -0.00, -1.00, 179.4, 410.1)" opacity="0.50"></image><g><clipPath id="clip0x6000022a7b00"><path d="M 183.4 179.2 L 183.0 375.4 C 183.0 393.5 198.0 408.0 216.1 408.0 L 398.3 408.0 C 416.4 408.0 431.0 393.5 431.0 375.4 L 431.0 179.2 C 431.0 161.2 416.4 147.0 398.3 147.0 L 216.1 147.0 C 198.0 147.0 183.4 161.2 183.4 179.2 Z M 183.4 179.2 "></path></clipPath><g clip-path="url(#clip0x6000022a7b00)"><image xlink:href="894D3EA5101F8FEAD73A96448EFDC0FA.png" width="249.00" height="262.00" transform="matrix(1.00, 0.00, -0.00, 1.00, 182.4, 146.1)"></image></g></g><image xlink:href="DF04CD5124B6423BC4E11B8A56264D9A.png" width="256.00" height="270.00" transform="matrix(1.00, 0.00, -0.00, -1.00, 464.0, 410.1)" opacity="0.50"></image><g><clipPath id="clip0x6000022a7e60"><path d="M 468.0 179.2 L 468.0 375.4 C 468.0 393.5 482.7 408.0 500.7 408.0 L 683.0 408.0 C 701.0 408.0 716.0 393.5 716.0 375.4 L 716.0 179.2 C 716.0 161.2 701.0 147.0 683.0 147.0 L 500.7 147.0 C 482.7 147.0 468.0 161.2 468.0 179.2 Z M 468.0 179.2 "></path></clipPath><g clip-path="url(#clip0x6000022a7e60)"><path d="M 468.0 147.0 L 716.0 147.0 L 716.0 408.0 L 468.0 408.0 Z M 468.0 147.0 " fill="url(#patternP3)"></path></g></g><image xlink:href="352F0B2016722A6343297A52D0AD0196.png" width="152.00" height="45.00" transform="matrix(1.00, 0.00, -0.00, -1.00, 882.0, 479.0)"></image><text xml:space="preserve" font-family="HelveticaNeue-Medium,Helvetica Neue" font-size="42.0" fill="#FEFFFE" transform="matrix(1.00, 0.00, -0.00, -1.00, 886.5, 446.7)">j</text><text xml:space="preserve" font-family="HelveticaNeue-Medium,Helvetica Neue" font-size="42.0" fill="#FEFFFE" transform="matrix(1.00, 0.00, -0.00, -1.00, 896.6, 446.7)">P</text><text xml:space="preserve" font-family="HelveticaNeue-Medium,Helvetica Neue" font-size="42.0" fill="#FEFFFE" transform="matrix(1.00, 0.00, -0.00, -1.00, 924.6, 446.7)">e</text><text xml:space="preserve" font-family="HelveticaNeue-Medium,Helvetica Neue" font-size="42.0" fill="#FEFFFE" transform="matrix(1.00, 0.00, -0.00, -1.00, 948.0, 446.7)">o</text><text xml:space="preserve" font-family="HelveticaNeue-Medium,Helvetica Neue" font-size="42.0" fill="#FEFFFE" transform="matrix(1.00, 0.00, -0.00, -1.00, 972.9, 446.7)">p</text><text xml:space="preserve" font-family="HelveticaNeue-Medium,Helvetica Neue" font-size="42.0" fill="#FEFFFE" transform="matrix(1.00, 0.00, -0.00, -1.00, 998.5, 446.7)">l</text><text xml:space="preserve" font-family="HelveticaNeue-Medium,Helvetica Neue" font-size="42.0" fill="#FEFFFE" transform="matrix(1.00, 0.00, -0.00, -1.00, 1008.6, 446.7)">e</text><text xml:space="preserve" font-family="HelveticaNeue-Medium,Helvetica Neue" font-size="42.0" fill="#FEFFFE" transform="matrix(1.00, 0.00, -0.00, -1.00, 1032.0, 446.7)"> </text><image xlink:href="A8DE1C94F5F10E0E3DF79A6DBD2DB483.png" width="256.00" height="270.00" transform="matrix(1.00, 0.00, -0.00, -1.00, 1481.9, 733.2)" opacity="0.50"></image><g><clipPath id="clip0x6080034b3bc0"><path d="M 1485.9 502.3 L 1486.0 698.5 C 1486.0 716.5 1500.5 731.0 1518.6 731.0 L 1700.8 731.0 C 1718.9 731.0 1734.0 716.5 1734.0 698.5 L 1734.0 502.3 C 1734.0 484.2 1718.9 470.0 1700.8 470.0 L 1518.6 470.0 C 1500.5 470.0 1485.9 484.2 1485.9 502.3 Z M 1485.9 502.3 "></path></clipPath><g clip-path="url(#clip0x6080034b3bc0)"><path d="M 1485.9 470.0 L 1734.0 470.0 L 1734.0 731.0 L 1485.9 731.0 Z M 1485.9 470.0 " fill="url(#patternP4)"></path></g></g><image xlink:href="182AE7CA517BFBF4331779B69726DB1D.png" width="179.00" height="46.00" transform="matrix(1.00, 0.00, -0.00, -1.00, 1519.0, 618.0)"></image><g><clipPath id="clip0x6000022a83a0"><path d="M 1474.4 469.6 L 1745.1 469.6 L 1745.1 731.2 L 1474.4 731.2 Z M 1474.4 469.6 "></path></clipPath><g clip-path="url(#clip0x6000022a83a0)"><text xml:space="preserve" font-family="HelveticaNeue-Medium,Helvetica Neue" font-size="42.0" fill="#FEFFFE" transform="matrix(1.00, 0.00, -0.00, -1.00, 1523.0, 585.3)">j</text><text xml:space="preserve" font-family="HelveticaNeue-Medium,Helvetica Neue" font-size="42.0" fill="#FEFFFE" transform="matrix(1.00, 0.00, -0.00, -1.00, 1533.1, 585.3)">W</text><text xml:space="preserve" font-family="HelveticaNeue-Medium,Helvetica Neue" font-size="42.0" fill="#FEFFFE" transform="matrix(1.00, 0.00, -0.00, -1.00, 1571.2, 585.3)">a</text><text xml:space="preserve" font-family="HelveticaNeue-Medium,Helvetica Neue" font-size="42.0" fill="#FEFFFE" transform="matrix(1.00, 0.00, -0.00, -1.00, 1594.6, 585.3)">k</text><text xml:space="preserve" font-family="HelveticaNeue-Medium,Helvetica Neue" font-size="42.0" fill="#FEFFFE" transform="matrix(1.00, 0.00, -0.00, -1.00, 1617.1, 585.3)">e</text><text xml:space="preserve" font-family="HelveticaNeue-Medium,Helvetica Neue" font-size="42.0" fill="#FEFFFE" transform="matrix(1.00, 0.00, -0.00, -1.00, 1640.5, 585.3)">U</text><text xml:space="preserve" font-family="HelveticaNeue-Medium,Helvetica Neue" font-size="42.0" fill="#FEFFFE" transform="matrix(1.00, 0.00, -0.00, -1.00, 1670.8, 585.3)">p</text></g></g><image xlink:href="34EBEB8547A1C07FD8A38804E3E26977.png" width="256.00" height="270.00" transform="matrix(1.00, 0.00, -0.00, -1.00, 1197.2, 733.2)" opacity="0.50"></image><g><clipPath id="clip0x6080034b3020"><path d="M 1201.2 502.3 L 1201.0 698.5 C 1201.0 716.5 1215.9 731.0 1233.9 731.0 L 1416.2 731.0 C 1434.3 731.0 1449.0 716.5 1449.0 698.5 L 1449.0 502.3 C 1449.0 484.2 1434.3 470.0 1416.2 470.0 L 1233.9 470.0 C 1215.9 470.0 1201.2 484.2 1201.2 502.3 Z M 1201.2 502.3 "></path></clipPath><g clip-path="url(#clip0x6080034b3020)"><image xlink:href="FA9BA64F6D5711FEC05BE7DE21ED7F0D.png" width="249.00" height="262.00" transform="matrix(1.00, 0.00, -0.00, 1.00, 1200.2, 469.2)"></image></g></g><image xlink:href="4A74C37F03BC4E0C5B29144EF048306A.png" width="77.00" height="34.00" transform="matrix(1.00, 0.00, -0.00, -1.00, 1288.0, 641.0)"></image><g><clipPath id="clip0x6080034b2ea0"><path d="M 1191.7 469.6 L 1458.4 469.6 L 1458.4 731.2 L 1191.7 731.2 Z M 1191.7 469.6 "></path></clipPath><g clip-path="url(#clip0x6080034b2ea0)"><text xml:space="preserve" font-family="HelveticaNeue-Medium,Helvetica Neue" font-size="42.0" fill="#3B3B3B" transform="matrix(1.00, 0.00, -0.00, -1.00, 1286.2, 610.1)">H</text><text xml:space="preserve" font-family="HelveticaNeue-Medium,Helvetica Neue" font-size="42.0" fill="#3B3B3B" transform="matrix(1.00, 0.00, -0.00, -1.00, 1316.5, 610.1)">/</text><text xml:space="preserve" font-family="HelveticaNeue-Medium,Helvetica Neue" font-size="42.0" fill="#3B3B3B" transform="matrix(1.00, 0.00, -0.00, -1.00, 1331.3, 610.1)">w</text><text xml:space="preserve" font-family="HelveticaNeue-Medium,Helvetica Neue" font-size="42.0" fill="#3B3B3B" transform="matrix(1.00, 0.00, -0.00, -1.00, 1364.0, 610.1)"> </text></g></g><image xlink:href="69C2FBDC1DB1B8D1BD06D762761D0C60.png" width="74.00" height="34.00" transform="matrix(1.00, 0.00, -0.00, -1.00, 1288.0, 590.0)"></image><g><clipPath id="clip0x6000022a8760"><path d="M 1191.7 469.6 L 1458.4 469.6 L 1458.4 731.2 L 1191.7 731.2 Z M 1191.7 469.6 "></path></clipPath><g clip-path="url(#clip0x6000022a8760)"><text xml:space="preserve" font-family="HelveticaNeue-Medium,Helvetica Neue" font-size="42.0" fill="#3B3B3B" transform="matrix(1.00, 0.00, -0.00, -1.00, 1288.5, 559.1)">d</text><text xml:space="preserve" font-family="HelveticaNeue-Medium,Helvetica Neue" font-size="42.0" fill="#3B3B3B" transform="matrix(1.00, 0.00, -0.00, -1.00, 1314.2, 559.1)">u</text><text xml:space="preserve" font-family="HelveticaNeue-Medium,Helvetica Neue" font-size="42.0" fill="#3B3B3B" transform="matrix(1.00, 0.00, -0.00, -1.00, 1338.3, 559.1)">e</text></g></g><image xlink:href="5C065CD6D71263ECC5FD252394927B18.png" width="156.00" height="47.00" transform="matrix(1.00, 0.00, -0.00, -1.00, 513.0, 295.0)"></image><text xml:space="preserve" font-family="HelveticaNeue-Medium,Helvetica Neue" font-size="42.0" fill="#FEFFFE" transform="matrix(1.00, 0.00, -0.00, -1.00, 517.1, 261.6)">j</text><text xml:space="preserve" font-family="HelveticaNeue-Medium,Helvetica Neue" font-size="42.0" fill="#FEFFFE" transform="matrix(1.00, 0.00, -0.00, -1.00, 527.3, 261.6)">C</text><text xml:space="preserve" font-family="HelveticaNeue-Medium,Helvetica Neue" font-size="42.0" fill="#FEFFFE" transform="matrix(1.00, 0.00, -0.00, -1.00, 557.6, 261.6)">o</text><text xml:space="preserve" font-family="HelveticaNeue-Medium,Helvetica Neue" font-size="42.0" fill="#FEFFFE" transform="matrix(1.00, 0.00, -0.00, -1.00, 582.5, 261.6)">u</text><text xml:space="preserve" font-family="HelveticaNeue-Medium,Helvetica Neue" font-size="42.0" fill="#FEFFFE" transform="matrix(1.00, 0.00, -0.00, -1.00, 606.6, 261.6)">r</text><text xml:space="preserve" font-family="HelveticaNeue-Medium,Helvetica Neue" font-size="42.0" fill="#FEFFFE" transform="matrix(1.00, 0.00, -0.00, -1.00, 621.4, 261.6)">s</text><text xml:space="preserve" font-family="HelveticaNeue-Medium,Helvetica Neue" font-size="42.0" fill="#FEFFFE" transform="matrix(1.00, 0.00, -0.00, -1.00, 643.2, 261.6)">e</text><image xlink:href="3DE88D8C0CEC4E4E8069AC702B49AB15.png" width="194.00" height="44.00" transform="matrix(1.00, 0.00, -0.00, -1.00, 204.0, 293.0)"></image><text xml:space="preserve" font-family="HelveticaNeue-Light,Helvetica Neue" font-size="38.0" fill="#000000" transform="matrix(1.00, 0.00, -0.00, -1.00, 206.1, 263.0)">U</text><text xml:space="preserve" font-family="HelveticaNeue-Light,Helvetica Neue" font-size="38.0" fill="#000000" transform="matrix(1.00, 0.00, -0.00, -1.00, 232.1, 263.0)">S</text><text xml:space="preserve" font-family="HelveticaNeue-Light,Helvetica Neue" font-size="38.0" fill="#000000" transform="matrix(1.00, 0.00, -0.00, -1.00, 256.0, 263.0)">G</text><text xml:space="preserve" font-family="HelveticaNeue-Light,Helvetica Neue" font-size="38.0" fill="#000000" transform="matrix(1.00, 0.00, -0.00, -1.00, 284.2, 263.0)"> </text><text xml:space="preserve" font-family="HelveticaNeue-Light,Helvetica Neue" font-size="38.0" fill="#000000" transform="matrix(1.00, 0.00, -0.00, -1.00, 294.8, 263.0)">V</text><text xml:space="preserve" font-family="HelveticaNeue-Light,Helvetica Neue" font-size="38.0" fill="#000000" transform="matrix(1.00, 0.00, -0.00, -1.00, 315.2, 263.0)">o</text><text xml:space="preserve" font-family="HelveticaNeue-Light,Helvetica Neue" font-size="38.0" fill="#000000" transform="matrix(1.00, 0.00, -0.00, -1.00, 336.3, 263.0)">t</text><text xml:space="preserve" font-family="HelveticaNeue-Light,Helvetica Neue" font-size="38.0" fill="#000000" transform="matrix(1.00, 0.00, -0.00, -1.00, 347.6, 263.0)">i</text><text xml:space="preserve" font-family="HelveticaNeue-Light,Helvetica Neue" font-size="38.0" fill="#000000" transform="matrix(1.00, 0.00, -0.00, -1.00, 354.6, 263.0)">n</text><text xml:space="preserve" font-family="HelveticaNeue-Light,Helvetica Neue" font-size="38.0" fill="#000000" transform="matrix(1.00, 0.00, -0.00, -1.00, 375.0, 263.0)">g</text></g></svg>