<?xml version="1.0" encoding="UTF-8" standalone="no"?><svg xmlns="http://www.w3.org/2000/svg" xmlns:xlink="http://www.w3.org/1999/xlink" clip-rule="evenodd" stroke-miterlimit="10" viewBox="0 0 539 277"><desc>SVG generated by Keynote</desc><defs><pattern id="patternP1" patternUnits="userSpaceOnUse" width="512" height="512" viewBox="0 0 512 512"><image xlink:href="../../60252C77-7F6D-4FAE-860E-2CB847E39FFD/assets/BF7F347A5AA08698479112B0B19D9FB4.png" width="512.00" height="512.00"></image></pattern></defs><g transform="matrix(1.00, 0.00, -0.00, -1.00, 0.0, 277.0)"><image xlink:href="../../172D7124-FDD3-4A62-BE2D-AB8B9C68D233/assets/7B91D932F40C91C0DB8201B4BD9CF4B6.png" width="536.00" height="270.00" transform="matrix(1.00, 0.00, -0.00, -1.00, 1.2, 271.1)" opacity="0.50"></image><g><clipPath id="clip0x6080040b3d40"><path d="M 5.2 40.2 L 5.0 236.4 C 5.0 254.5 19.9 269.0 37.9 269.0 L 500.6 269.0 C 518.7 269.0 533.0 254.5 533.0 236.4 L 533.0 40.2 C 533.0 22.2 518.7 8.0 500.6 8.0 L 37.9 8.0 C 19.9 8.0 5.2 22.2 5.2 40.2 Z M 5.2 40.2 "></path></clipPath><g clip-path="url(#clip0x6080040b3d40)"><path d="M 5.0 8.0 L 533.0 8.0 L 533.0 269.0 L 5.0 269.0 Z M 5.0 8.0 " fill="url(#patternP1)"></path></g></g><image xlink:href="../../172D7124-FDD3-4A62-BE2D-AB8B9C68D233/assets/0DE062A7ED29BBFFA82A514D744DAA3D.png" width="263.00" height="46.00" transform="matrix(1.00, 0.00, -0.00, -1.00, 137.0, 202.0)"></image><g><clipPath id="clip0x6080040b3fe0"><path d="M -6.3 7.5 L 544.8 7.5 L 544.8 269.1 L -6.3 269.1 Z M -6.3 7.5 "></path></clipPath><g clip-path="url(#clip0x6080040b3fe0)"><text xml:space="preserve" font-family="HelveticaNeue-Medium,Helvetica Neue" font-size="42.0" fill="#FEFFFE" transform="matrix(1.00, 0.00, -0.00, -1.00, 140.5, 168.9)">Y</text><text xml:space="preserve" font-family="HelveticaNeue-Medium,Helvetica Neue" font-size="42.0" fill="#FEFFFE" transform="matrix(1.00, 0.00, -0.00, -1.00, 163.8, 168.9)">o</text><text xml:space="preserve" font-family="HelveticaNeue-Medium,Helvetica Neue" font-size="42.0" fill="#FEFFFE" transform="matrix(1.00, 0.00, -0.00, -1.00, 188.7, 168.9)">u</text><text xml:space="preserve" font-family="HelveticaNeue-Medium,Helvetica Neue" font-size="42.0" fill="#FEFFFE" transform="matrix(1.00, 0.00, -0.00, -1.00, 212.8, 168.9)">r</text><text xml:space="preserve" font-family="HelveticaNeue-Medium,Helvetica Neue" font-size="42.0" fill="#FEFFFE" transform="matrix(1.00, 0.00, -0.00, -1.00, 227.6, 168.9)"> </text><text xml:space="preserve" font-family="HelveticaNeue-Medium,Helvetica Neue" font-size="42.0" fill="#FEFFFE" transform="matrix(1.00, 0.00, -0.00, -1.00, 239.3, 168.9)">p</text><text xml:space="preserve" font-family="HelveticaNeue-Medium,Helvetica Neue" font-size="42.0" fill="#FEFFFE" transform="matrix(1.00, 0.00, -0.00, -1.00, 265.0, 168.9)">r</text><text xml:space="preserve" font-family="HelveticaNeue-Medium,Helvetica Neue" font-size="42.0" fill="#FEFFFE" transform="matrix(1.00, 0.00, -0.00, -1.00, 279.0, 168.9)">o</text><text xml:space="preserve" font-family="HelveticaNeue-Medium,Helvetica Neue" font-size="42.0" fill="#FEFFFE" transform="matrix(1.00, 0.00, -0.00, -1.00, 303.9, 168.9)">j</text><text xml:space="preserve" font-family="HelveticaNeue-Medium,Helvetica Neue" font-size="42.0" fill="#FEFFFE" transform="matrix(1.00, 0.00, -0.00, -1.00, 314.0, 168.9)">e</text><text xml:space="preserve" font-family="HelveticaNeue-Medium,Helvetica Neue" font-size="42.0" fill="#FEFFFE" transform="matrix(1.00, 0.00, -0.00, -1.00, 337.4, 168.9)">c</text><text xml:space="preserve" font-family="HelveticaNeue-Medium,Helvetica Neue" font-size="42.0" fill="#FEFFFE" transform="matrix(1.00, 0.00, -0.00, -1.00, 360.7, 168.9)">t</text><text xml:space="preserve" font-family="HelveticaNeue-Medium,Helvetica Neue" font-size="42.0" fill="#FEFFFE" transform="matrix(1.00, 0.00, -0.00, -1.00, 374.7, 168.9)">?</text><text xml:space="preserve" font-family="HelveticaNeue-Medium,Helvetica Neue" font-size="42.0" fill="#FEFFFE" transform="matrix(1.00, 0.00, -0.00, -1.00, 398.1, 168.9)"> </text></g></g><g><clipPath id="clip0x6080040b48e0"><path d="M -6.3 7.5 L 544.8 7.5 L 544.8 269.1 L -6.3 269.1 Z M -6.3 7.5 "></path></clipPath><g clip-path="url(#clip0x6080040b48e0)"></g></g><image xlink:href="../../172D7124-FDD3-4A62-BE2D-AB8B9C68D233/assets/2BC724272AF94581E723103A40B57378.png" width="463.00" height="37.00" transform="matrix(1.00, 0.00, -0.00, -1.00, 38.0, 102.0)"></image><g><clipPath id="clip0x6080040b4940"><path d="M -6.3 7.5 L 544.8 7.5 L 544.8 269.1 L -6.3 269.1 Z M -6.3 7.5 "></path></clipPath><g clip-path="url(#clip0x6080040b4940)"><text xml:space="preserve" font-family="HelveticaNeue-Thin,Helvetica Neue" font-size="33.0" fill="#FEFFFE" transform="matrix(1.00, 0.00, -0.00, -1.00, 39.0, 75.6)">(</text><text xml:space="preserve" font-family="HelveticaNeue-Thin,Helvetica Neue" font-size="33.0" fill="#FEFFFE" transform="matrix(1.00, 0.00, -0.00, -1.00, 46.9, 75.6)">J</text><text xml:space="preserve" font-family="HelveticaNeue-Thin,Helvetica Neue" font-size="33.0" fill="#FEFFFE" transform="matrix(1.00, 0.00, -0.00, -1.00, 62.8, 75.6)">a</text><text xml:space="preserve" font-family="HelveticaNeue-Thin,Helvetica Neue" font-size="33.0" fill="#FEFFFE" transform="matrix(1.00, 0.00, -0.00, -1.00, 79.3, 75.6)">y</text><text xml:space="preserve" font-family="HelveticaNeue-Thin,Helvetica Neue" font-size="33.0" fill="#FEFFFE" transform="matrix(1.00, 0.00, -0.00, -1.00, 94.0, 75.6)">d</text><text xml:space="preserve" font-family="HelveticaNeue-Thin,Helvetica Neue" font-size="33.0" fill="#FEFFFE" transform="matrix(1.00, 0.00, -0.00, -1.00, 112.3, 75.6)">u</text><text xml:space="preserve" font-family="HelveticaNeue-Thin,Helvetica Neue" font-size="33.0" fill="#FEFFFE" transform="matrix(1.00, 0.00, -0.00, -1.00, 129.4, 75.6)">c</text><text xml:space="preserve" font-family="HelveticaNeue-Thin,Helvetica Neue" font-size="33.0" fill="#FEFFFE" transform="matrix(1.00, 0.00, -0.00, -1.00, 146.6, 75.6)">k</text><text xml:space="preserve" font-family="HelveticaNeue-Thin,Helvetica Neue" font-size="33.0" fill="#FEFFFE" transform="matrix(1.00, 0.00, -0.00, -1.00, 161.9, 75.6)">s</text><text xml:space="preserve" font-family="HelveticaNeue-Thin,Helvetica Neue" font-size="33.0" fill="#FEFFFE" transform="matrix(1.00, 0.00, -0.00, -1.00, 177.7, 75.6)">,</text><text xml:space="preserve" font-family="HelveticaNeue-Thin,Helvetica Neue" font-size="33.0" fill="#FEFFFE" transform="matrix(1.00, 0.00, -0.00, -1.00, 186.9, 75.6)"> </text><text xml:space="preserve" font-family="HelveticaNeue-Thin,Helvetica Neue" font-size="33.0" fill="#FEFFFE" transform="matrix(1.00, 0.00, -0.00, -1.00, 196.1, 75.6)">W</text><text xml:space="preserve" font-family="HelveticaNeue-Thin,Helvetica Neue" font-size="33.0" fill="#FEFFFE" transform="matrix(1.00, 0.00, -0.00, -1.00, 225.4, 75.6)">h</text><text xml:space="preserve" font-family="HelveticaNeue-Thin,Helvetica Neue" font-size="33.0" fill="#FEFFFE" transform="matrix(1.00, 0.00, -0.00, -1.00, 242.5, 75.6)">o</text><text xml:space="preserve" font-family="HelveticaNeue-Thin,Helvetica Neue" font-size="33.0" fill="#FEFFFE" transform="matrix(1.00, 0.00, -0.00, -1.00, 260.3, 75.6)">I</text><text xml:space="preserve" font-family="HelveticaNeue-Thin,Helvetica Neue" font-size="33.0" fill="#FEFFFE" transform="matrix(1.00, 0.00, -0.00, -1.00, 265.9, 75.6)">s</text><text xml:space="preserve" font-family="HelveticaNeue-Thin,Helvetica Neue" font-size="33.0" fill="#FEFFFE" transform="matrix(1.00, 0.00, -0.00, -1.00, 281.7, 75.6)">J</text><text xml:space="preserve" font-family="HelveticaNeue-Thin,Helvetica Neue" font-size="33.0" fill="#FEFFFE" transform="matrix(1.00, 0.00, -0.00, -1.00, 297.6, 75.6)">a</text><text xml:space="preserve" font-family="HelveticaNeue-Thin,Helvetica Neue" font-size="33.0" fill="#FEFFFE" transform="matrix(1.00, 0.00, -0.00, -1.00, 314.1, 75.6)">c</text><text xml:space="preserve" font-family="HelveticaNeue-Thin,Helvetica Neue" font-size="33.0" fill="#FEFFFE" transform="matrix(1.00, 0.00, -0.00, -1.00, 331.2, 75.6)">k</text><text xml:space="preserve" font-family="HelveticaNeue-Thin,Helvetica Neue" font-size="33.0" fill="#FEFFFE" transform="matrix(1.00, 0.00, -0.00, -1.00, 346.5, 75.6)">,</text><text xml:space="preserve" font-family="HelveticaNeue-Thin,Helvetica Neue" font-size="33.0" fill="#FEFFFE" transform="matrix(1.00, 0.00, -0.00, -1.00, 355.7, 75.6)"> </text><text xml:space="preserve" font-family="HelveticaNeue-Thin,Helvetica Neue" font-size="33.0" fill="#FEFFFE" transform="matrix(1.00, 0.00, -0.00, -1.00, 364.9, 75.6)">j</text><text xml:space="preserve" font-family="HelveticaNeue-Thin,Helvetica Neue" font-size="33.0" fill="#FEFFFE" transform="matrix(1.00, 0.00, -0.00, -1.00, 370.4, 75.6)">F</text><text xml:space="preserve" font-family="HelveticaNeue-Thin,Helvetica Neue" font-size="33.0" fill="#FEFFFE" transform="matrix(1.00, 0.00, -0.00, -1.00, 386.5, 75.6)">o</text><text xml:space="preserve" font-family="HelveticaNeue-Thin,Helvetica Neue" font-size="33.0" fill="#FEFFFE" transform="matrix(1.00, 0.00, -0.00, -1.00, 404.2, 75.6)">o</text><text xml:space="preserve" font-family="HelveticaNeue-Thin,Helvetica Neue" font-size="33.0" fill="#FEFFFE" transform="matrix(1.00, 0.00, -0.00, -1.00, 421.9, 75.6)">d</text><text xml:space="preserve" font-family="HelveticaNeue-Thin,Helvetica Neue" font-size="33.0" fill="#FEFFFE" transform="matrix(1.00, 0.00, -0.00, -1.00, 440.2, 75.6)">,</text><text xml:space="preserve" font-family="HelveticaNeue-Thin,Helvetica Neue" font-size="33.0" fill="#FEFFFE" transform="matrix(1.00, 0.00, -0.00, -1.00, 449.4, 75.6)"> </text><text xml:space="preserve" font-family="HelveticaNeue-Thin,Helvetica Neue" font-size="33.0" fill="#FEFFFE" transform="matrix(1.00, 0.00, -0.00, -1.00, 458.6, 75.6)">…</text><text xml:space="preserve" font-family="HelveticaNeue-Thin,Helvetica Neue" font-size="33.0" fill="#FEFFFE" transform="matrix(1.00, 0.00, -0.00, -1.00, 491.6, 75.6)">)</text></g></g></g></svg>