<?xml version="1.0" encoding="UTF-8" standalone="no"?><svg xmlns="http://www.w3.org/2000/svg" xmlns:xlink="http://www.w3.org/1999/xlink" clip-rule="evenodd" stroke-miterlimit="10" viewBox="0 0 423 618"><desc>SVG generated by Keynote</desc><defs><pattern id="patternP1" patternUnits="userSpaceOnUse" width="512" height="512" viewBox="0 0 512 512"><image xlink:href="../../172D7124-FDD3-4A62-BE2D-AB8B9C68D233/assets/71D9304BD44382C20CC202032C6D6058.png" width="512.00" height="512.00"></image></pattern></defs><g transform="matrix(1.00, 0.00, -0.00, -1.00, 0.0, 618.0)"><image xlink:href="../../172D7124-FDD3-4A62-BE2D-AB8B9C68D233/assets/865FE4DB90086DCC6E5EF9D3649253A2.png" width="611.00" height="420.00" transform="matrix(0.00, 1.00, 1.00, -0.00, 1.7, 1.9)" opacity="0.50"></image><g><clipPath id="clip0x6080040b36e0"><path d="M 327.2 7.9 L 95.7 8.0 C 46.0 8.0 6.0 48.2 6.0 97.9 L 6.0 520.9 C 6.0 570.6 46.0 611.0 95.7 611.0 L 327.2 611.0 C 377.0 611.0 417.0 570.6 417.0 520.9 L 417.0 97.9 C 417.0 48.2 377.0 7.9 327.2 7.9 Z M 327.2 7.9 "></path></clipPath><g clip-path="url(#clip0x6080040b36e0)"><path d="M 417.0 7.9 L 417.0 611.0 L 6.0 611.0 L 6.0 7.9 Z M 417.0 7.9 " fill="url(#patternP1)"></path></g></g></g></svg>