<?xml version="1.0" encoding="UTF-8" standalone="no"?><svg xmlns="http://www.w3.org/2000/svg" xmlns:xlink="http://www.w3.org/1999/xlink" clip-rule="evenodd" stroke-miterlimit="10" viewBox="0 0 259 277"><desc>SVG generated by Keynote</desc><defs><pattern id="patternP1" patternUnits="userSpaceOnUse" width="512" height="512" viewBox="0 0 512 512"><image xlink:href="../../172D7124-FDD3-4A62-BE2D-AB8B9C68D233/assets/14AA4F468E5EBA534246493D67C8DFF4.png" width="512.00" height="512.00"></image></pattern></defs><g transform="matrix(1.00, 0.00, -0.00, -1.00, 0.0, 277.0)"><image xlink:href="../../172D7124-FDD3-4A62-BE2D-AB8B9C68D233/assets/A8DE1C94F5F10E0E3DF79A6DBD2DB483.png" width="256.00" height="270.00" transform="matrix(1.00, 0.00, -0.00, -1.00, 1.9, 271.2)" opacity="0.50"></image><g><clipPath id="clip0x600002ab7e20"><path d="M 5.9 40.3 L 6.0 236.5 C 6.0 254.5 20.5 269.0 38.6 269.0 L 220.8 269.0 C 238.9 269.0 254.0 254.5 254.0 236.5 L 254.0 40.3 C 254.0 22.2 238.9 8.0 220.8 8.0 L 38.6 8.0 C 20.5 8.0 5.9 22.2 5.9 40.3 Z M 5.9 40.3 "></path></clipPath><g clip-path="url(#clip0x600002ab7e20)"><path d="M 5.9 8.0 L 254.0 8.0 L 254.0 269.0 L 5.9 269.0 Z M 5.9 8.0 " fill="url(#patternP1)"></path></g></g><image xlink:href="../../172D7124-FDD3-4A62-BE2D-AB8B9C68D233/assets/182AE7CA517BFBF4331779B69726DB1D.png" width="179.00" height="46.00" transform="matrix(1.00, 0.00, -0.00, -1.00, 39.0, 156.0)"></image><g><clipPath id="clip0x6080040b66e0"><path d="M -5.6 7.6 L 265.1 7.6 L 265.1 269.2 L -5.6 269.2 Z M -5.6 7.6 "></path></clipPath><g clip-path="url(#clip0x6080040b66e0)"><text xml:space="preserve" font-family="HelveticaNeue-Medium,Helvetica Neue" font-size="42.0" fill="#FEFFFE" transform="matrix(1.00, 0.00, -0.00, -1.00, 43.0, 123.3)">j</text><text xml:space="preserve" font-family="HelveticaNeue-Medium,Helvetica Neue" font-size="42.0" fill="#FEFFFE" transform="matrix(1.00, 0.00, -0.00, -1.00, 53.1, 123.3)">W</text><text xml:space="preserve" font-family="HelveticaNeue-Medium,Helvetica Neue" font-size="42.0" fill="#FEFFFE" transform="matrix(1.00, 0.00, -0.00, -1.00, 91.2, 123.3)">a</text><text xml:space="preserve" font-family="HelveticaNeue-Medium,Helvetica Neue" font-size="42.0" fill="#FEFFFE" transform="matrix(1.00, 0.00, -0.00, -1.00, 114.6, 123.3)">k</text><text xml:space="preserve" font-family="HelveticaNeue-Medium,Helvetica Neue" font-size="42.0" fill="#FEFFFE" transform="matrix(1.00, 0.00, -0.00, -1.00, 137.1, 123.3)">e</text><text xml:space="preserve" font-family="HelveticaNeue-Medium,Helvetica Neue" font-size="42.0" fill="#FEFFFE" transform="matrix(1.00, 0.00, -0.00, -1.00, 160.5, 123.3)">U</text><text xml:space="preserve" font-family="HelveticaNeue-Medium,Helvetica Neue" font-size="42.0" fill="#FEFFFE" transform="matrix(1.00, 0.00, -0.00, -1.00, 190.8, 123.3)">p</text></g></g></g></svg>