<?xml version="1.0" encoding="UTF-8" standalone="no"?><svg xmlns="http://www.w3.org/2000/svg" xmlns:xlink="http://www.w3.org/1999/xlink" clip-rule="evenodd" stroke-miterlimit="10" viewBox="0 0 1920 1080"><desc>SVG generated by Keynote</desc><defs><linearGradient id="gradSh1.8" x1="0.0" y1="0.0" x2="100.0" y2="0.0" gradientUnits="userSpaceOnUse" gradientTransform="matrix(0.00, -2.63, -5.34, 0.00, 449.8, 732.0)"><stop offset="0.00000" stop-color="#EDAC0F"></stop><stop offset="0.01026" stop-color="#EDAC10"></stop><stop offset="0.01173" stop-color="#ECAB10"></stop><stop offset="0.81085" stop-color="#D47D20"></stop><stop offset="0.81158" stop-color="#D47C20"></stop><stop offset="1.00000" stop-color="#CE7123"></stop></linearGradient><pattern id="patternP1" patternUnits="userSpaceOnUse" width="512" height="512" viewBox="0 0 512 512"><image xlink:href="../../172D7124-FDD3-4A62-BE2D-AB8B9C68D233/assets/71D9304BD44382C20CC202032C6D6058.png" width="512.00" height="512.00"></image></pattern><pattern id="patternP2" patternUnits="userSpaceOnUse" width="512" height="512" viewBox="0 0 512 512"><image xlink:href="../../60252C77-7F6D-4FAE-860E-2CB847E39FFD/assets/BF7F347A5AA08698479112B0B19D9FB4.png" width="512.00" height="512.00"></image></pattern><pattern id="patternP3" patternUnits="userSpaceOnUse" width="512" height="512" viewBox="0 0 512 512"><image xlink:href="../../172D7124-FDD3-4A62-BE2D-AB8B9C68D233/assets/14AA4F468E5EBA534246493D67C8DFF4.png" width="512.00" height="512.00"></image></pattern><pattern id="patternP4" patternUnits="userSpaceOnUse" width="512" height="512" viewBox="0 0 512 512"><image xlink:href="../../172D7124-FDD3-4A62-BE2D-AB8B9C68D233/assets/14AA4F468E5EBA534246493D67C8DFF4.png" width="512.00" height="512.00"></image></pattern></defs><g transform="matrix(1.00, 0.00, -0.00, -1.00, 0.0, 1080.0)"><g><clipPath id="clip0x6080042a3180"><path d="M 0.0 1080.0 L 1920.0 1080.0 L 1920.0 0.0 L 0.0 0.0 Z M 0.0 1080.0 "></path></clipPath><g clip-path="url(#clip0x6080042a3180)"><image xlink:href="../../9A1EA51A-CD95-4C67-B9FE-66E6BE22F494/assets/0AD07D05F001956134D524CAFA0749E7.jpeg" width="3840.00" height="2048.00" transform="matrix(0.53, 0.00, -0.00, -0.53, -52.5, 1080.0)"></image></g></g><image xlink:href="../../172D7124-FDD3-4A62-BE2D-AB8B9C68D233/assets/84DFA1D6C16564ECCAC0E77706C83ABF.png" width="783.00" height="91.00" transform="matrix(1.00, 0.00, -0.00, -1.00, 567.0, 946.0)"></image><text xml:space="preserve" font-family="HelveticaNeue-Bold,Helvetica Neue" font-weight="bold" font-size="90.0" fill="#FEFFFE" transform="matrix(1.00, 0.00, -0.00, -1.00, 568.5, 877.6)">C</text><text xml:space="preserve" font-family="HelveticaNeue-Bold,Helvetica Neue" font-weight="bold" font-size="90.0" fill="#FEFFFE" transform="matrix(1.00, 0.00, -0.00, -1.00, 635.2, 877.6)">o</text><text xml:space="preserve" font-family="HelveticaNeue-Bold,Helvetica Neue" font-weight="bold" font-size="90.0" fill="#FEFFFE" transform="matrix(1.00, 0.00, -0.00, -1.00, 690.2, 877.6)">n</text><text xml:space="preserve" font-family="HelveticaNeue-Bold,Helvetica Neue" font-weight="bold" font-size="90.0" fill="#FEFFFE" transform="matrix(1.00, 0.00, -0.00, -1.00, 743.5, 877.6)">c</text><text xml:space="preserve" font-family="HelveticaNeue-Bold,Helvetica Neue" font-weight="bold" font-size="90.0" fill="#FEFFFE" transform="matrix(1.00, 0.00, -0.00, -1.00, 795.2, 877.6)">e</text><text xml:space="preserve" font-family="HelveticaNeue-Bold,Helvetica Neue" font-weight="bold" font-size="90.0" fill="#FEFFFE" transform="matrix(1.00, 0.00, -0.00, -1.00, 846.9, 877.6)">p</text><text xml:space="preserve" font-family="HelveticaNeue-Bold,Helvetica Neue" font-weight="bold" font-size="90.0" fill="#FEFFFE" transform="matrix(1.00, 0.00, -0.00, -1.00, 901.8, 877.6)">t</text><text xml:space="preserve" font-family="HelveticaNeue-Bold,Helvetica Neue" font-weight="bold" font-size="90.0" fill="#FEFFFE" transform="matrix(1.00, 0.00, -0.00, -1.00, 933.5, 877.6)"> </text><text xml:space="preserve" font-family="HelveticaNeue-Bold,Helvetica Neue" font-weight="bold" font-size="90.0" fill="#FEFFFE" transform="matrix(1.00, 0.00, -0.00, -1.00, 958.5, 877.6)">o</text><text xml:space="preserve" font-family="HelveticaNeue-Bold,Helvetica Neue" font-weight="bold" font-size="90.0" fill="#FEFFFE" transform="matrix(1.00, 0.00, -0.00, -1.00, 1013.5, 877.6)">f</text><text xml:space="preserve" font-family="HelveticaNeue-Bold,Helvetica Neue" font-weight="bold" font-size="90.0" fill="#FEFFFE" transform="matrix(1.00, 0.00, -0.00, -1.00, 1043.5, 877.6)"> </text><text xml:space="preserve" font-family="HelveticaNeue-Bold,Helvetica Neue" font-weight="bold" font-size="90.0" fill="#FEFFFE" transform="matrix(1.00, 0.00, -0.00, -1.00, 1068.5, 877.6)">j</text><text xml:space="preserve" font-family="HelveticaNeue-Bold,Helvetica Neue" font-weight="bold" font-size="90.0" fill="#FEFFFE" transform="matrix(1.00, 0.00, -0.00, -1.00, 1093.5, 877.6)">H</text><text xml:space="preserve" font-family="HelveticaNeue-Bold,Helvetica Neue" font-weight="bold" font-size="90.0" fill="#FEFFFE" transform="matrix(1.00, 0.00, -0.00, -1.00, 1160.2, 877.6)">o</text><text xml:space="preserve" font-family="HelveticaNeue-Bold,Helvetica Neue" font-weight="bold" font-size="90.0" fill="#FEFFFE" transform="matrix(1.00, 0.00, -0.00, -1.00, 1215.2, 877.6)">m</text><text xml:space="preserve" font-family="HelveticaNeue-Bold,Helvetica Neue" font-weight="bold" font-size="90.0" fill="#FEFFFE" transform="matrix(1.00, 0.00, -0.00, -1.00, 1296.8, 877.6)">e</text><image xlink:href="../../172D7124-FDD3-4A62-BE2D-AB8B9C68D233/assets/C8F0FA25ADD7B617033C4DA09674BC8D.png" width="1646.00" height="708.00" transform="matrix(1.00, 0.00, -0.00, -1.00, 136.2, 788.8)" opacity="0.50"></image><g><clipPath id="clip0x6080042a2760"><path d="M 140.0 787.0 L 1778.0 787.0 L 1778.0 87.0 L 140.0 87.0 Z M 140.2 786.8 "></path></clipPath><g clip-path="url(#clip0x6080042a2760)"><image xlink:href="../../E901D94D-9C30-4E26-8D8A-4907947B68B3/assets/DA829FFB06C240005F08F2658ECAEBCD.png" width="1639.00" height="701.00" transform="matrix(1.00, 0.00, -0.00, 1.00, 139.2, 86.8)"></image></g></g><image xlink:href="../../172D7124-FDD3-4A62-BE2D-AB8B9C68D233/assets/E21DD481842BE72A6DC058802834C05A.png" width="540.00" height="270.00" transform="matrix(1.00, 0.00, -0.00, -1.00, 179.7, 733.2)" opacity="0.50"></image><g><clipPath id="clip0x600002ca5e20"><path d="M 183.7 502.3 L 184.0 698.5 C 184.0 716.5 198.3 731.0 216.4 731.0 L 683.0 731.0 C 701.0 731.0 716.0 716.5 716.0 698.5 L 716.0 502.3 C 716.0 484.2 701.0 470.0 683.0 470.0 L 216.4 470.0 C 198.3 470.0 183.7 484.2 183.7 502.3 Z M 183.7 502.3 "></path></clipPath><g clip-path="url(#clip0x600002ca5e20)"><path d="M 183.7 502.3 L 184.0 698.5 C 184.0 716.5 198.3 731.0 216.4 731.0 L 683.0 731.0 C 701.0 731.0 716.0 716.5 716.0 698.5 L 716.0 502.3 C 716.0 484.2 701.0 470.0 683.0 470.0 L 216.4 470.0 C 198.3 470.0 183.7 484.2 183.7 502.3 Z M 183.7 502.3 " fill="url(#gradSh1.8)"></path></g></g><image xlink:href="../../172D7124-FDD3-4A62-BE2D-AB8B9C68D233/assets/ABA28A9D80018BE19212DE6A2E0F35E5.png" width="253.00" height="43.00" transform="matrix(1.00, 0.00, -0.00, -1.00, 323.0, 617.0)"></image><g><clipPath id="clip0x600002eade00"><path d="M 174.2 469.6 L 725.2 469.6 L 725.2 731.2 L 174.2 731.2 Z M 174.2 469.6 "></path></clipPath><g clip-path="url(#clip0x600002eade00)"><text xml:space="preserve" font-family="HelveticaNeue-Medium,Helvetica Neue" font-size="42.0" fill="#3B3B3B" transform="matrix(1.00, 0.00, -0.00, -1.00, 322.0, 585.3)">@</text><text xml:space="preserve" font-family="HelveticaNeue-Medium,Helvetica Neue" font-size="42.0" fill="#3B3B3B" transform="matrix(1.00, 0.00, -0.00, -1.00, 355.6, 585.3)">j</text><text xml:space="preserve" font-family="HelveticaNeue-Medium,Helvetica Neue" font-size="42.0" fill="#3B3B3B" transform="matrix(1.00, 0.00, -0.00, -1.00, 365.7, 585.3)">a</text><text xml:space="preserve" font-family="HelveticaNeue-Medium,Helvetica Neue" font-size="42.0" fill="#3B3B3B" transform="matrix(1.00, 0.00, -0.00, -1.00, 389.0, 585.3)">c</text><text xml:space="preserve" font-family="HelveticaNeue-Medium,Helvetica Neue" font-size="42.0" fill="#3B3B3B" transform="matrix(1.00, 0.00, -0.00, -1.00, 412.4, 585.3)">o</text><text xml:space="preserve" font-family="HelveticaNeue-Medium,Helvetica Neue" font-size="42.0" fill="#3B3B3B" transform="matrix(1.00, 0.00, -0.00, -1.00, 437.3, 585.3)">b</text><text xml:space="preserve" font-family="HelveticaNeue-Medium,Helvetica Neue" font-size="42.0" fill="#3B3B3B" transform="matrix(1.00, 0.00, -0.00, -1.00, 463.0, 585.3)">s</text><text xml:space="preserve" font-family="HelveticaNeue-Medium,Helvetica Neue" font-size="42.0" fill="#3B3B3B" transform="matrix(1.00, 0.00, -0.00, -1.00, 484.8, 585.3)"> </text><text xml:space="preserve" font-family="HelveticaNeue-Medium,Helvetica Neue" font-size="42.0" fill="#3B3B3B" transform="matrix(1.00, 0.00, -0.00, -1.00, 496.4, 585.3)">M</text><text xml:space="preserve" font-family="HelveticaNeue-Medium,Helvetica Neue" font-size="42.0" fill="#3B3B3B" transform="matrix(1.00, 0.00, -0.00, -1.00, 533.8, 585.3)">a</text><text xml:space="preserve" font-family="HelveticaNeue-Medium,Helvetica Neue" font-size="42.0" fill="#3B3B3B" transform="matrix(1.00, 0.00, -0.00, -1.00, 557.1, 585.3)">i</text><text xml:space="preserve" font-family="HelveticaNeue-Medium,Helvetica Neue" font-size="42.0" fill="#3B3B3B" transform="matrix(1.00, 0.00, -0.00, -1.00, 567.3, 585.3)">l</text></g></g><image xlink:href="../../172D7124-FDD3-4A62-BE2D-AB8B9C68D233/assets/865FE4DB90086DCC6E5EF9D3649253A2.png" width="611.00" height="420.00" transform="matrix(0.00, 1.00, 1.00, -0.00, 748.7, 137.9)" opacity="0.50"></image><g><clipPath id="clip0x600002eae520"><path d="M 1074.2 143.9 L 842.7 144.0 C 793.0 144.0 753.0 184.2 753.0 233.9 L 753.0 656.9 C 753.0 706.6 793.0 747.0 842.7 747.0 L 1074.2 747.0 C 1124.0 747.0 1164.0 706.6 1164.0 656.9 L 1164.0 233.9 C 1164.0 184.2 1124.0 143.9 1074.2 143.9 Z M 1074.2 143.9 "></path></clipPath><g clip-path="url(#clip0x600002eae520)"><path d="M 1164.0 143.9 L 1164.0 747.0 L 753.0 747.0 L 753.0 143.9 Z M 1164.0 143.9 " fill="url(#patternP1)"></path></g></g><image xlink:href="../../172D7124-FDD3-4A62-BE2D-AB8B9C68D233/assets/7B91D932F40C91C0DB8201B4BD9CF4B6.png" width="536.00" height="270.00" transform="matrix(1.00, 0.00, -0.00, -1.00, 1197.2, 410.1)" opacity="0.50"></image><g><clipPath id="clip0x600002eae880"><path d="M 1201.2 179.2 L 1201.0 375.4 C 1201.0 393.5 1215.9 408.0 1233.9 408.0 L 1696.6 408.0 C 1714.7 408.0 1729.0 393.5 1729.0 375.4 L 1729.0 179.2 C 1729.0 161.2 1714.7 147.0 1696.6 147.0 L 1233.9 147.0 C 1215.9 147.0 1201.2 161.2 1201.2 179.2 Z M 1201.2 179.2 "></path></clipPath><g clip-path="url(#clip0x600002eae880)"><path d="M 1201.0 147.0 L 1729.0 147.0 L 1729.0 408.0 L 1201.0 408.0 Z M 1201.0 147.0 " fill="url(#patternP2)"></path></g></g><image xlink:href="../../172D7124-FDD3-4A62-BE2D-AB8B9C68D233/assets/0DE062A7ED29BBFFA82A514D744DAA3D.png" width="263.00" height="46.00" transform="matrix(1.00, 0.00, -0.00, -1.00, 1333.0, 341.0)"></image><g><clipPath id="clip0x600002eaeb80"><path d="M 1189.7 146.5 L 1740.8 146.5 L 1740.8 408.1 L 1189.7 408.1 Z M 1189.7 146.5 "></path></clipPath><g clip-path="url(#clip0x600002eaeb80)"><text xml:space="preserve" font-family="HelveticaNeue-Medium,Helvetica Neue" font-size="42.0" fill="#FEFFFE" transform="matrix(1.00, 0.00, -0.00, -1.00, 1336.5, 307.9)">Y</text><text xml:space="preserve" font-family="HelveticaNeue-Medium,Helvetica Neue" font-size="42.0" fill="#FEFFFE" transform="matrix(1.00, 0.00, -0.00, -1.00, 1359.8, 307.9)">o</text><text xml:space="preserve" font-family="HelveticaNeue-Medium,Helvetica Neue" font-size="42.0" fill="#FEFFFE" transform="matrix(1.00, 0.00, -0.00, -1.00, 1384.7, 307.9)">u</text><text xml:space="preserve" font-family="HelveticaNeue-Medium,Helvetica Neue" font-size="42.0" fill="#FEFFFE" transform="matrix(1.00, 0.00, -0.00, -1.00, 1408.8, 307.9)">r</text><text xml:space="preserve" font-family="HelveticaNeue-Medium,Helvetica Neue" font-size="42.0" fill="#FEFFFE" transform="matrix(1.00, 0.00, -0.00, -1.00, 1423.6, 307.9)"> </text><text xml:space="preserve" font-family="HelveticaNeue-Medium,Helvetica Neue" font-size="42.0" fill="#FEFFFE" transform="matrix(1.00, 0.00, -0.00, -1.00, 1435.3, 307.9)">p</text><text xml:space="preserve" font-family="HelveticaNeue-Medium,Helvetica Neue" font-size="42.0" fill="#FEFFFE" transform="matrix(1.00, 0.00, -0.00, -1.00, 1461.0, 307.9)">r</text><text xml:space="preserve" font-family="HelveticaNeue-Medium,Helvetica Neue" font-size="42.0" fill="#FEFFFE" transform="matrix(1.00, 0.00, -0.00, -1.00, 1475.0, 307.9)">o</text><text xml:space="preserve" font-family="HelveticaNeue-Medium,Helvetica Neue" font-size="42.0" fill="#FEFFFE" transform="matrix(1.00, 0.00, -0.00, -1.00, 1499.9, 307.9)">j</text><text xml:space="preserve" font-family="HelveticaNeue-Medium,Helvetica Neue" font-size="42.0" fill="#FEFFFE" transform="matrix(1.00, 0.00, -0.00, -1.00, 1510.0, 307.9)">e</text><text xml:space="preserve" font-family="HelveticaNeue-Medium,Helvetica Neue" font-size="42.0" fill="#FEFFFE" transform="matrix(1.00, 0.00, -0.00, -1.00, 1533.4, 307.9)">c</text><text xml:space="preserve" font-family="HelveticaNeue-Medium,Helvetica Neue" font-size="42.0" fill="#FEFFFE" transform="matrix(1.00, 0.00, -0.00, -1.00, 1556.7, 307.9)">t</text><text xml:space="preserve" font-family="HelveticaNeue-Medium,Helvetica Neue" font-size="42.0" fill="#FEFFFE" transform="matrix(1.00, 0.00, -0.00, -1.00, 1570.7, 307.9)">?</text><text xml:space="preserve" font-family="HelveticaNeue-Medium,Helvetica Neue" font-size="42.0" fill="#FEFFFE" transform="matrix(1.00, 0.00, -0.00, -1.00, 1594.1, 307.9)"> </text></g></g><g><clipPath id="clip0x600002eaf480"><path d="M 1189.7 146.5 L 1740.8 146.5 L 1740.8 408.1 L 1189.7 408.1 Z M 1189.7 146.5 "></path></clipPath><g clip-path="url(#clip0x600002eaf480)"></g></g><image xlink:href="../../172D7124-FDD3-4A62-BE2D-AB8B9C68D233/assets/2BC724272AF94581E723103A40B57378.png" width="463.00" height="37.00" transform="matrix(1.00, 0.00, -0.00, -1.00, 1234.0, 241.0)"></image><g><clipPath id="clip0x6080042a26a0"><path d="M 1189.7 146.5 L 1740.8 146.5 L 1740.8 408.1 L 1189.7 408.1 Z M 1189.7 146.5 "></path></clipPath><g clip-path="url(#clip0x6080042a26a0)"><text xml:space="preserve" font-family="HelveticaNeue-Thin,Helvetica Neue" font-size="33.0" fill="#FEFFFE" transform="matrix(1.00, 0.00, -0.00, -1.00, 1235.0, 214.6)">(</text><text xml:space="preserve" font-family="HelveticaNeue-Thin,Helvetica Neue" font-size="33.0" fill="#FEFFFE" transform="matrix(1.00, 0.00, -0.00, -1.00, 1242.9, 214.6)">J</text><text xml:space="preserve" font-family="HelveticaNeue-Thin,Helvetica Neue" font-size="33.0" fill="#FEFFFE" transform="matrix(1.00, 0.00, -0.00, -1.00, 1258.8, 214.6)">a</text><text xml:space="preserve" font-family="HelveticaNeue-Thin,Helvetica Neue" font-size="33.0" fill="#FEFFFE" transform="matrix(1.00, 0.00, -0.00, -1.00, 1275.3, 214.6)">y</text><text xml:space="preserve" font-family="HelveticaNeue-Thin,Helvetica Neue" font-size="33.0" fill="#FEFFFE" transform="matrix(1.00, 0.00, -0.00, -1.00, 1290.0, 214.6)">d</text><text xml:space="preserve" font-family="HelveticaNeue-Thin,Helvetica Neue" font-size="33.0" fill="#FEFFFE" transform="matrix(1.00, 0.00, -0.00, -1.00, 1308.3, 214.6)">u</text><text xml:space="preserve" font-family="HelveticaNeue-Thin,Helvetica Neue" font-size="33.0" fill="#FEFFFE" transform="matrix(1.00, 0.00, -0.00, -1.00, 1325.4, 214.6)">c</text><text xml:space="preserve" font-family="HelveticaNeue-Thin,Helvetica Neue" font-size="33.0" fill="#FEFFFE" transform="matrix(1.00, 0.00, -0.00, -1.00, 1342.6, 214.6)">k</text><text xml:space="preserve" font-family="HelveticaNeue-Thin,Helvetica Neue" font-size="33.0" fill="#FEFFFE" transform="matrix(1.00, 0.00, -0.00, -1.00, 1357.9, 214.6)">s</text><text xml:space="preserve" font-family="HelveticaNeue-Thin,Helvetica Neue" font-size="33.0" fill="#FEFFFE" transform="matrix(1.00, 0.00, -0.00, -1.00, 1373.7, 214.6)">,</text><text xml:space="preserve" font-family="HelveticaNeue-Thin,Helvetica Neue" font-size="33.0" fill="#FEFFFE" transform="matrix(1.00, 0.00, -0.00, -1.00, 1382.9, 214.6)"> </text><text xml:space="preserve" font-family="HelveticaNeue-Thin,Helvetica Neue" font-size="33.0" fill="#FEFFFE" transform="matrix(1.00, 0.00, -0.00, -1.00, 1392.1, 214.6)">W</text><text xml:space="preserve" font-family="HelveticaNeue-Thin,Helvetica Neue" font-size="33.0" fill="#FEFFFE" transform="matrix(1.00, 0.00, -0.00, -1.00, 1421.4, 214.6)">h</text><text xml:space="preserve" font-family="HelveticaNeue-Thin,Helvetica Neue" font-size="33.0" fill="#FEFFFE" transform="matrix(1.00, 0.00, -0.00, -1.00, 1438.5, 214.6)">o</text><text xml:space="preserve" font-family="HelveticaNeue-Thin,Helvetica Neue" font-size="33.0" fill="#FEFFFE" transform="matrix(1.00, 0.00, -0.00, -1.00, 1456.3, 214.6)">I</text><text xml:space="preserve" font-family="HelveticaNeue-Thin,Helvetica Neue" font-size="33.0" fill="#FEFFFE" transform="matrix(1.00, 0.00, -0.00, -1.00, 1461.9, 214.6)">s</text><text xml:space="preserve" font-family="HelveticaNeue-Thin,Helvetica Neue" font-size="33.0" fill="#FEFFFE" transform="matrix(1.00, 0.00, -0.00, -1.00, 1477.7, 214.6)">J</text><text xml:space="preserve" font-family="HelveticaNeue-Thin,Helvetica Neue" font-size="33.0" fill="#FEFFFE" transform="matrix(1.00, 0.00, -0.00, -1.00, 1493.6, 214.6)">a</text><text xml:space="preserve" font-family="HelveticaNeue-Thin,Helvetica Neue" font-size="33.0" fill="#FEFFFE" transform="matrix(1.00, 0.00, -0.00, -1.00, 1510.1, 214.6)">c</text><text xml:space="preserve" font-family="HelveticaNeue-Thin,Helvetica Neue" font-size="33.0" fill="#FEFFFE" transform="matrix(1.00, 0.00, -0.00, -1.00, 1527.2, 214.6)">k</text><text xml:space="preserve" font-family="HelveticaNeue-Thin,Helvetica Neue" font-size="33.0" fill="#FEFFFE" transform="matrix(1.00, 0.00, -0.00, -1.00, 1542.5, 214.6)">,</text><text xml:space="preserve" font-family="HelveticaNeue-Thin,Helvetica Neue" font-size="33.0" fill="#FEFFFE" transform="matrix(1.00, 0.00, -0.00, -1.00, 1551.7, 214.6)"> </text><text xml:space="preserve" font-family="HelveticaNeue-Thin,Helvetica Neue" font-size="33.0" fill="#FEFFFE" transform="matrix(1.00, 0.00, -0.00, -1.00, 1560.9, 214.6)">j</text><text xml:space="preserve" font-family="HelveticaNeue-Thin,Helvetica Neue" font-size="33.0" fill="#FEFFFE" transform="matrix(1.00, 0.00, -0.00, -1.00, 1566.4, 214.6)">F</text><text xml:space="preserve" font-family="HelveticaNeue-Thin,Helvetica Neue" font-size="33.0" fill="#FEFFFE" transform="matrix(1.00, 0.00, -0.00, -1.00, 1582.5, 214.6)">o</text><text xml:space="preserve" font-family="HelveticaNeue-Thin,Helvetica Neue" font-size="33.0" fill="#FEFFFE" transform="matrix(1.00, 0.00, -0.00, -1.00, 1600.2, 214.6)">o</text><text xml:space="preserve" font-family="HelveticaNeue-Thin,Helvetica Neue" font-size="33.0" fill="#FEFFFE" transform="matrix(1.00, 0.00, -0.00, -1.00, 1617.9, 214.6)">d</text><text xml:space="preserve" font-family="HelveticaNeue-Thin,Helvetica Neue" font-size="33.0" fill="#FEFFFE" transform="matrix(1.00, 0.00, -0.00, -1.00, 1636.2, 214.6)">,</text><text xml:space="preserve" font-family="HelveticaNeue-Thin,Helvetica Neue" font-size="33.0" fill="#FEFFFE" transform="matrix(1.00, 0.00, -0.00, -1.00, 1645.4, 214.6)"> </text><text xml:space="preserve" font-family="HelveticaNeue-Thin,Helvetica Neue" font-size="33.0" fill="#FEFFFE" transform="matrix(1.00, 0.00, -0.00, -1.00, 1654.6, 214.6)">…</text><text xml:space="preserve" font-family="HelveticaNeue-Thin,Helvetica Neue" font-size="33.0" fill="#FEFFFE" transform="matrix(1.00, 0.00, -0.00, -1.00, 1687.6, 214.6)">)</text></g></g><image xlink:href="../../172D7124-FDD3-4A62-BE2D-AB8B9C68D233/assets/46D8972A1C2143C06C4C5588CC32D7CE.png" width="256.00" height="270.00" transform="matrix(1.00, 0.00, -0.00, -1.00, 179.4, 410.1)" opacity="0.50"></image><g><clipPath id="clip0x6080044bcc20"><path d="M 183.4 179.2 L 183.0 375.4 C 183.0 393.5 198.0 408.0 216.1 408.0 L 398.3 408.0 C 416.4 408.0 431.0 393.5 431.0 375.4 L 431.0 179.2 C 431.0 161.2 416.4 147.0 398.3 147.0 L 216.1 147.0 C 198.0 147.0 183.4 161.2 183.4 179.2 Z M 183.4 179.2 "></path></clipPath><g clip-path="url(#clip0x6080044bcc20)"><image xlink:href="../../E901D94D-9C30-4E26-8D8A-4907947B68B3/assets/A78C316874522B33CCED8B26D5A2984D.png" width="249.00" height="262.00" transform="matrix(1.00, 0.00, -0.00, 1.00, 182.4, 146.1)"></image></g></g><image xlink:href="../../172D7124-FDD3-4A62-BE2D-AB8B9C68D233/assets/DF04CD5124B6423BC4E11B8A56264D9A.png" width="256.00" height="270.00" transform="matrix(1.00, 0.00, -0.00, -1.00, 464.0, 410.1)" opacity="0.50"></image><g><clipPath id="clip0x6080044bce60"><path d="M 468.0 179.2 L 468.0 375.4 C 468.0 393.5 482.7 408.0 500.7 408.0 L 683.0 408.0 C 701.0 408.0 716.0 393.5 716.0 375.4 L 716.0 179.2 C 716.0 161.2 701.0 147.0 683.0 147.0 L 500.7 147.0 C 482.7 147.0 468.0 161.2 468.0 179.2 Z M 468.0 179.2 "></path></clipPath><g clip-path="url(#clip0x6080044bce60)"><path d="M 468.0 147.0 L 716.0 147.0 L 716.0 408.0 L 468.0 408.0 Z M 468.0 147.0 " fill="url(#patternP3)"></path></g></g><image xlink:href="698B427005D338B4853C675E24F2BDDC.png" width="152.00" height="46.00" transform="matrix(1.00, 0.00, -0.00, -1.00, 881.0, 699.0)"></image><text xml:space="preserve" font-family="HelveticaNeue-Medium,Helvetica Neue" font-size="42.0" fill="#FEFFFE" transform="matrix(1.00, 0.00, -0.00, -1.00, 885.3, 666.1)">j</text><text xml:space="preserve" font-family="HelveticaNeue-Medium,Helvetica Neue" font-size="42.0" fill="#FEFFFE" transform="matrix(1.00, 0.00, -0.00, -1.00, 895.4, 666.1)">P</text><text xml:space="preserve" font-family="HelveticaNeue-Medium,Helvetica Neue" font-size="42.0" fill="#FEFFFE" transform="matrix(1.00, 0.00, -0.00, -1.00, 923.4, 666.1)">e</text><text xml:space="preserve" font-family="HelveticaNeue-Medium,Helvetica Neue" font-size="42.0" fill="#FEFFFE" transform="matrix(1.00, 0.00, -0.00, -1.00, 946.8, 666.1)">o</text><text xml:space="preserve" font-family="HelveticaNeue-Medium,Helvetica Neue" font-size="42.0" fill="#FEFFFE" transform="matrix(1.00, 0.00, -0.00, -1.00, 971.7, 666.1)">p</text><text xml:space="preserve" font-family="HelveticaNeue-Medium,Helvetica Neue" font-size="42.0" fill="#FEFFFE" transform="matrix(1.00, 0.00, -0.00, -1.00, 997.4, 666.1)">l</text><text xml:space="preserve" font-family="HelveticaNeue-Medium,Helvetica Neue" font-size="42.0" fill="#FEFFFE" transform="matrix(1.00, 0.00, -0.00, -1.00, 1007.5, 666.1)">e</text><text xml:space="preserve" font-family="HelveticaNeue-Medium,Helvetica Neue" font-size="42.0" fill="#FEFFFE" transform="matrix(1.00, 0.00, -0.00, -1.00, 1030.8, 666.1)"> </text><image xlink:href="../../172D7124-FDD3-4A62-BE2D-AB8B9C68D233/assets/A8DE1C94F5F10E0E3DF79A6DBD2DB483.png" width="256.00" height="270.00" transform="matrix(1.00, 0.00, -0.00, -1.00, 1481.9, 733.2)" opacity="0.50"></image><g><clipPath id="clip0x600002eaf720"><path d="M 1485.9 502.3 L 1486.0 698.5 C 1486.0 716.5 1500.5 731.0 1518.6 731.0 L 1700.8 731.0 C 1718.9 731.0 1734.0 716.5 1734.0 698.5 L 1734.0 502.3 C 1734.0 484.2 1718.9 470.0 1700.8 470.0 L 1518.6 470.0 C 1500.5 470.0 1485.9 484.2 1485.9 502.3 Z M 1485.9 502.3 "></path></clipPath><g clip-path="url(#clip0x600002eaf720)"><path d="M 1485.9 470.0 L 1734.0 470.0 L 1734.0 731.0 L 1485.9 731.0 Z M 1485.9 470.0 " fill="url(#patternP4)"></path></g></g><image xlink:href="../../172D7124-FDD3-4A62-BE2D-AB8B9C68D233/assets/182AE7CA517BFBF4331779B69726DB1D.png" width="179.00" height="46.00" transform="matrix(1.00, 0.00, -0.00, -1.00, 1519.0, 618.0)"></image><g><clipPath id="clip0x600002eaf8a0"><path d="M 1474.4 469.6 L 1745.1 469.6 L 1745.1 731.2 L 1474.4 731.2 Z M 1474.4 469.6 "></path></clipPath><g clip-path="url(#clip0x600002eaf8a0)"><text xml:space="preserve" font-family="HelveticaNeue-Medium,Helvetica Neue" font-size="42.0" fill="#FEFFFE" transform="matrix(1.00, 0.00, -0.00, -1.00, 1523.0, 585.3)">j</text><text xml:space="preserve" font-family="HelveticaNeue-Medium,Helvetica Neue" font-size="42.0" fill="#FEFFFE" transform="matrix(1.00, 0.00, -0.00, -1.00, 1533.1, 585.3)">W</text><text xml:space="preserve" font-family="HelveticaNeue-Medium,Helvetica Neue" font-size="42.0" fill="#FEFFFE" transform="matrix(1.00, 0.00, -0.00, -1.00, 1571.2, 585.3)">a</text><text xml:space="preserve" font-family="HelveticaNeue-Medium,Helvetica Neue" font-size="42.0" fill="#FEFFFE" transform="matrix(1.00, 0.00, -0.00, -1.00, 1594.6, 585.3)">k</text><text xml:space="preserve" font-family="HelveticaNeue-Medium,Helvetica Neue" font-size="42.0" fill="#FEFFFE" transform="matrix(1.00, 0.00, -0.00, -1.00, 1617.1, 585.3)">e</text><text xml:space="preserve" font-family="HelveticaNeue-Medium,Helvetica Neue" font-size="42.0" fill="#FEFFFE" transform="matrix(1.00, 0.00, -0.00, -1.00, 1640.5, 585.3)">U</text><text xml:space="preserve" font-family="HelveticaNeue-Medium,Helvetica Neue" font-size="42.0" fill="#FEFFFE" transform="matrix(1.00, 0.00, -0.00, -1.00, 1670.8, 585.3)">p</text></g></g><image xlink:href="../../172D7124-FDD3-4A62-BE2D-AB8B9C68D233/assets/34EBEB8547A1C07FD8A38804E3E26977.png" width="256.00" height="270.00" transform="matrix(1.00, 0.00, -0.00, -1.00, 1197.2, 733.2)" opacity="0.50"></image><g><clipPath id="clip0x600002eafe40"><path d="M 1201.2 502.3 L 1201.0 698.5 C 1201.0 716.5 1215.9 731.0 1233.9 731.0 L 1416.2 731.0 C 1434.3 731.0 1449.0 716.5 1449.0 698.5 L 1449.0 502.3 C 1449.0 484.2 1434.3 470.0 1416.2 470.0 L 1233.9 470.0 C 1215.9 470.0 1201.2 484.2 1201.2 502.3 Z M 1201.2 502.3 "></path></clipPath><g clip-path="url(#clip0x600002eafe40)"><image xlink:href="../../E901D94D-9C30-4E26-8D8A-4907947B68B3/assets/1D29B8BFF72F1F46F9D92C9471D8A538.png" width="249.00" height="262.00" transform="matrix(1.00, 0.00, -0.00, 1.00, 1200.2, 469.2)"></image></g></g><image xlink:href="../../172D7124-FDD3-4A62-BE2D-AB8B9C68D233/assets/4A74C37F03BC4E0C5B29144EF048306A.png" width="77.00" height="34.00" transform="matrix(1.00, 0.00, -0.00, -1.00, 1288.0, 641.0)"></image><g><clipPath id="clip0x6080044bd700"><path d="M 1191.7 469.6 L 1458.4 469.6 L 1458.4 731.2 L 1191.7 731.2 Z M 1191.7 469.6 "></path></clipPath><g clip-path="url(#clip0x6080044bd700)"><text xml:space="preserve" font-family="HelveticaNeue-Medium,Helvetica Neue" font-size="42.0" fill="#3B3B3B" transform="matrix(1.00, 0.00, -0.00, -1.00, 1286.2, 610.1)">H</text><text xml:space="preserve" font-family="HelveticaNeue-Medium,Helvetica Neue" font-size="42.0" fill="#3B3B3B" transform="matrix(1.00, 0.00, -0.00, -1.00, 1316.5, 610.1)">/</text><text xml:space="preserve" font-family="HelveticaNeue-Medium,Helvetica Neue" font-size="42.0" fill="#3B3B3B" transform="matrix(1.00, 0.00, -0.00, -1.00, 1331.3, 610.1)">w</text><text xml:space="preserve" font-family="HelveticaNeue-Medium,Helvetica Neue" font-size="42.0" fill="#3B3B3B" transform="matrix(1.00, 0.00, -0.00, -1.00, 1364.0, 610.1)"> </text></g></g><image xlink:href="../../172D7124-FDD3-4A62-BE2D-AB8B9C68D233/assets/69C2FBDC1DB1B8D1BD06D762761D0C60.png" width="74.00" height="34.00" transform="matrix(1.00, 0.00, -0.00, -1.00, 1288.0, 590.0)"></image><g><clipPath id="clip0x6080044bdb80"><path d="M 1191.7 469.6 L 1458.4 469.6 L 1458.4 731.2 L 1191.7 731.2 Z M 1191.7 469.6 "></path></clipPath><g clip-path="url(#clip0x6080044bdb80)"><text xml:space="preserve" font-family="HelveticaNeue-Medium,Helvetica Neue" font-size="42.0" fill="#3B3B3B" transform="matrix(1.00, 0.00, -0.00, -1.00, 1288.5, 559.1)">d</text><text xml:space="preserve" font-family="HelveticaNeue-Medium,Helvetica Neue" font-size="42.0" fill="#3B3B3B" transform="matrix(1.00, 0.00, -0.00, -1.00, 1314.2, 559.1)">u</text><text xml:space="preserve" font-family="HelveticaNeue-Medium,Helvetica Neue" font-size="42.0" fill="#3B3B3B" transform="matrix(1.00, 0.00, -0.00, -1.00, 1338.3, 559.1)">e</text></g></g><image xlink:href="../../172D7124-FDD3-4A62-BE2D-AB8B9C68D233/assets/5C065CD6D71263ECC5FD252394927B18.png" width="156.00" height="47.00" transform="matrix(1.00, 0.00, -0.00, -1.00, 513.0, 295.0)"></image><text xml:space="preserve" font-family="HelveticaNeue-Medium,Helvetica Neue" font-size="42.0" fill="#FEFFFE" transform="matrix(1.00, 0.00, -0.00, -1.00, 517.1, 261.6)">j</text><text xml:space="preserve" font-family="HelveticaNeue-Medium,Helvetica Neue" font-size="42.0" fill="#FEFFFE" transform="matrix(1.00, 0.00, -0.00, -1.00, 527.3, 261.6)">C</text><text xml:space="preserve" font-family="HelveticaNeue-Medium,Helvetica Neue" font-size="42.0" fill="#FEFFFE" transform="matrix(1.00, 0.00, -0.00, -1.00, 557.6, 261.6)">o</text><text xml:space="preserve" font-family="HelveticaNeue-Medium,Helvetica Neue" font-size="42.0" fill="#FEFFFE" transform="matrix(1.00, 0.00, -0.00, -1.00, 582.5, 261.6)">u</text><text xml:space="preserve" font-family="HelveticaNeue-Medium,Helvetica Neue" font-size="42.0" fill="#FEFFFE" transform="matrix(1.00, 0.00, -0.00, -1.00, 606.6, 261.6)">r</text><text xml:space="preserve" font-family="HelveticaNeue-Medium,Helvetica Neue" font-size="42.0" fill="#FEFFFE" transform="matrix(1.00, 0.00, -0.00, -1.00, 621.4, 261.6)">s</text><text xml:space="preserve" font-family="HelveticaNeue-Medium,Helvetica Neue" font-size="42.0" fill="#FEFFFE" transform="matrix(1.00, 0.00, -0.00, -1.00, 643.2, 261.6)">e</text><image xlink:href="AAC7906B985EE7CA29A4E1D71B9324CB.png" width="194.00" height="44.00" transform="matrix(1.00, 0.00, -0.00, -1.00, 206.0, 292.0)"></image><text xml:space="preserve" font-family="HelveticaNeue-Light,Helvetica Neue" font-size="38.0" fill="#000000" transform="matrix(1.00, 0.00, -0.00, -1.00, 207.7, 261.8)">U</text><text xml:space="preserve" font-family="HelveticaNeue-Light,Helvetica Neue" font-size="38.0" fill="#000000" transform="matrix(1.00, 0.00, -0.00, -1.00, 233.7, 261.8)">S</text><text xml:space="preserve" font-family="HelveticaNeue-Light,Helvetica Neue" font-size="38.0" fill="#000000" transform="matrix(1.00, 0.00, -0.00, -1.00, 257.7, 261.8)">G</text><text xml:space="preserve" font-family="HelveticaNeue-Light,Helvetica Neue" font-size="38.0" fill="#000000" transform="matrix(1.00, 0.00, -0.00, -1.00, 285.8, 261.8)"> </text><text xml:space="preserve" font-family="HelveticaNeue-Light,Helvetica Neue" font-size="38.0" fill="#000000" transform="matrix(1.00, 0.00, -0.00, -1.00, 296.4, 261.8)">V</text><text xml:space="preserve" font-family="HelveticaNeue-Light,Helvetica Neue" font-size="38.0" fill="#000000" transform="matrix(1.00, 0.00, -0.00, -1.00, 316.8, 261.8)">o</text><text xml:space="preserve" font-family="HelveticaNeue-Light,Helvetica Neue" font-size="38.0" fill="#000000" transform="matrix(1.00, 0.00, -0.00, -1.00, 338.0, 261.8)">t</text><text xml:space="preserve" font-family="HelveticaNeue-Light,Helvetica Neue" font-size="38.0" fill="#000000" transform="matrix(1.00, 0.00, -0.00, -1.00, 349.2, 261.8)">i</text><text xml:space="preserve" font-family="HelveticaNeue-Light,Helvetica Neue" font-size="38.0" fill="#000000" transform="matrix(1.00, 0.00, -0.00, -1.00, 356.2, 261.8)">n</text><text xml:space="preserve" font-family="HelveticaNeue-Light,Helvetica Neue" font-size="38.0" fill="#000000" transform="matrix(1.00, 0.00, -0.00, -1.00, 376.7, 261.8)">g</text><path d="M 879.3 637.7 L 1037.7 637.7 L 1037.7 438.1 L 879.3 438.1 Z M 879.3 637.7 " fill="#BFBFBF" fill-opacity="0.25"></path><path d="M 0.3 0.3 L 108.1 0.3 L 108.1 136.4 L 0.3 136.4 Z M 0.3 0.3 L 108.1 136.4 M 108.1 0.3 L 0.3 136.4 " fill="none" stroke="#4C4C4C" stroke-opacity="0.75" stroke-width="0.68" transform="matrix(1.46, 0.00, 0.00, -1.46, 879.3, 637.7)"></path><g><clipPath id="clip0x600002eb0800"><path d="M 942.5 521.9 L 974.5 521.9 L 974.5 553.9 L 942.5 553.9 Z M 942.5 521.9 "></path></clipPath><g clip-path="url(#clip0x600002eb0800)"><path d="M 943.0 553.4 L 974.0 553.4 L 974.0 522.4 L 943.0 522.4 L 943.0 553.4 Z M 943.0 553.4 " fill="#F2F3F2"></path><path d="M 283.0 319.0 L 314.0 319.0 L 314.0 350.0 L 283.0 350.0 L 283.0 319.0 Z M 283.0 319.0 " fill="none" stroke="#FFFFFF" stroke-width="1.00" stroke-linecap="round" transform="matrix(1.00, 0.00, 0.00, -1.00, 660.0, 872.4)"></path><path d="M 956.0 527.5 L 956.0 530.2 L 958.7 530.2 L 958.7 527.5 L 956.0 527.5 Z M 956.0 527.5 " fill="#000000"></path><path d="M 956.0 532.9 L 956.0 533.6 C 956.0 535.4 956.7 537.0 958.0 538.5 L 958.9 539.5 C 960.3 541.2 961.0 542.5 961.0 543.6 C 961.0 544.4 960.7 545.0 960.1 545.5 C 959.4 546.0 958.6 546.2 957.5 546.2 C 956.1 546.2 954.6 545.9 953.1 545.2 L 953.1 547.5 C 954.8 548.0 956.3 548.3 957.8 548.3 C 959.7 548.3 961.1 547.8 962.2 547.0 C 963.3 546.2 963.9 545.0 963.9 543.6 C 963.9 542.8 963.7 542.1 963.4 541.5 C 963.1 541.0 962.5 540.3 961.6 539.4 L 960.7 538.6 C 959.9 537.8 959.3 537.1 959.1 536.6 C 958.8 536.1 958.7 535.3 958.7 534.4 L 958.7 532.9 L 956.0 532.9 Z M 956.0 532.9 " fill="#000000"></path></g></g><image xlink:href="../../E901D94D-9C30-4E26-8D8A-4907947B68B3/assets/B64EEC31FA39FC2E889478B901F7DBD0.png" width="232.00" height="38.00" transform="matrix(1.00, 0.00, -0.00, -1.00, 843.0, 401.0)"></image><text xml:space="preserve" font-family="HelveticaNeue-Thin,Helvetica Neue" font-size="42.0" fill="#FEFFFE" transform="matrix(1.00, 0.00, -0.00, -1.00, 845.4, 367.7)">C</text><text xml:space="preserve" font-family="HelveticaNeue-Thin,Helvetica Neue" font-size="42.0" fill="#FEFFFE" transform="matrix(1.00, 0.00, -0.00, -1.00, 874.9, 367.7)">h</text><text xml:space="preserve" font-family="HelveticaNeue-Thin,Helvetica Neue" font-size="42.0" fill="#FEFFFE" transform="matrix(1.00, 0.00, -0.00, -1.00, 896.7, 367.7)">u</text><text xml:space="preserve" font-family="HelveticaNeue-Thin,Helvetica Neue" font-size="42.0" fill="#FEFFFE" transform="matrix(1.00, 0.00, -0.00, -1.00, 918.5, 367.7)">c</text><text xml:space="preserve" font-family="HelveticaNeue-Thin,Helvetica Neue" font-size="42.0" fill="#FEFFFE" transform="matrix(1.00, 0.00, -0.00, -1.00, 940.3, 367.7)">k</text><text xml:space="preserve" font-family="HelveticaNeue-Thin,Helvetica Neue" font-size="42.0" fill="#FEFFFE" transform="matrix(1.00, 0.00, -0.00, -1.00, 959.8, 367.7)"> </text><text xml:space="preserve" font-family="HelveticaNeue-Thin,Helvetica Neue" font-size="42.0" fill="#FEFFFE" transform="matrix(1.00, 0.00, -0.00, -1.00, 971.5, 367.7)">N</text><text xml:space="preserve" font-family="HelveticaNeue-Thin,Helvetica Neue" font-size="42.0" fill="#FEFFFE" transform="matrix(1.00, 0.00, -0.00, -1.00, 999.9, 367.7)">o</text><text xml:space="preserve" font-family="HelveticaNeue-Thin,Helvetica Neue" font-size="42.0" fill="#FEFFFE" transform="matrix(1.00, 0.00, -0.00, -1.00, 1022.5, 367.7)">r</text><text xml:space="preserve" font-family="HelveticaNeue-Thin,Helvetica Neue" font-size="42.0" fill="#FEFFFE" transform="matrix(1.00, 0.00, -0.00, -1.00, 1034.2, 367.7)">r</text><text xml:space="preserve" font-family="HelveticaNeue-Thin,Helvetica Neue" font-size="42.0" fill="#FEFFFE" transform="matrix(1.00, 0.00, -0.00, -1.00, 1045.8, 367.7)">i</text><text xml:space="preserve" font-family="HelveticaNeue-Thin,Helvetica Neue" font-size="42.0" fill="#FEFFFE" transform="matrix(1.00, 0.00, -0.00, -1.00, 1052.9, 367.7)">s</text><text xml:space="preserve" font-family="HelveticaNeue-Thin,Helvetica Neue" font-size="42.0" fill="#FEFFFE" transform="matrix(1.00, 0.00, -0.00, -1.00, 1073.1, 367.7)"> </text><image xlink:href="../../E901D94D-9C30-4E26-8D8A-4907947B68B3/assets/D5961B7038D8E6407156263060E12ECF.png" width="138.00" height="37.00" transform="matrix(1.00, 0.00, -0.00, -1.00, 891.0, 349.0)"></image><text xml:space="preserve" font-family="HelveticaNeue-Thin,Helvetica Neue" font-size="42.0" fill="#FEFFFE" transform="matrix(1.00, 0.00, -0.00, -1.00, 891.5, 316.7)">K</text><text xml:space="preserve" font-family="HelveticaNeue-Thin,Helvetica Neue" font-size="42.0" fill="#FEFFFE" transform="matrix(1.00, 0.00, -0.00, -1.00, 917.2, 316.7)">A</text><text xml:space="preserve" font-family="HelveticaNeue-Thin,Helvetica Neue" font-size="42.0" fill="#FEFFFE" transform="matrix(1.00, 0.00, -0.00, -1.00, 942.1, 316.7)">-</text><text xml:space="preserve" font-family="HelveticaNeue-Thin,Helvetica Neue" font-size="42.0" fill="#FEFFFE" transform="matrix(1.00, 0.00, -0.00, -1.00, 956.9, 316.7)">1</text><text xml:space="preserve" font-family="HelveticaNeue-Thin,Helvetica Neue" font-size="42.0" fill="#FEFFFE" transform="matrix(1.00, 0.00, -0.00, -1.00, 980.3, 316.7)">2</text><text xml:space="preserve" font-family="HelveticaNeue-Thin,Helvetica Neue" font-size="42.0" fill="#FEFFFE" transform="matrix(1.00, 0.00, -0.00, -1.00, 1003.6, 316.7)">3</text><text xml:space="preserve" font-family="HelveticaNeue-Thin,Helvetica Neue" font-size="42.0" fill="#FEFFFE" transform="matrix(1.00, 0.00, -0.00, -1.00, 1027.0, 316.7)"> </text><image xlink:href="../../E901D94D-9C30-4E26-8D8A-4907947B68B3/assets/CB857618C1C89D95EE86E8D6D499A92A.png" width="97.00" height="37.00" transform="matrix(1.00, 0.00, -0.00, -1.00, 911.0, 298.0)"></image><text xml:space="preserve" font-family="HelveticaNeue-Thin,Helvetica Neue" font-size="42.0" fill="#FEFFFE" transform="matrix(1.00, 0.00, -0.00, -1.00, 912.5, 265.7)">9</text><text xml:space="preserve" font-family="HelveticaNeue-Thin,Helvetica Neue" font-size="42.0" fill="#FEFFFE" transform="matrix(1.00, 0.00, -0.00, -1.00, 935.9, 265.7)">8</text><text xml:space="preserve" font-family="HelveticaNeue-Thin,Helvetica Neue" font-size="42.0" fill="#FEFFFE" transform="matrix(1.00, 0.00, -0.00, -1.00, 959.2, 265.7)">7</text><text xml:space="preserve" font-family="HelveticaNeue-Thin,Helvetica Neue" font-size="42.0" fill="#FEFFFE" transform="matrix(1.00, 0.00, -0.00, -1.00, 982.6, 265.7)">6</text><text xml:space="preserve" font-family="HelveticaNeue-Thin,Helvetica Neue" font-size="42.0" fill="#FEFFFE" transform="matrix(1.00, 0.00, -0.00, -1.00, 1005.9, 265.7)"> </text><image xlink:href="../../E901D94D-9C30-4E26-8D8A-4907947B68B3/assets/EE31133170CB9CAF96654F65D586911F.png" width="169.00" height="45.00" transform="matrix(1.00, 0.00, -0.00, -1.00, 876.0, 248.0)"></image><text xml:space="preserve" font-family="HelveticaNeue-Thin,Helvetica Neue" font-size="42.0" fill="#FEFFFE" transform="matrix(1.00, 0.00, -0.00, -1.00, 877.5, 214.7)">C</text><text xml:space="preserve" font-family="HelveticaNeue-Thin,Helvetica Neue" font-size="42.0" fill="#FEFFFE" transform="matrix(1.00, 0.00, -0.00, -1.00, 907.1, 214.7)">S</text><text xml:space="preserve" font-family="HelveticaNeue-Thin,Helvetica Neue" font-size="42.0" fill="#FEFFFE" transform="matrix(1.00, 0.00, -0.00, -1.00, 933.5, 214.7)"> </text><text xml:space="preserve" font-family="HelveticaNeue-Thin,Helvetica Neue" font-size="42.0" fill="#FEFFFE" transform="matrix(1.00, 0.00, -0.00, -1.00, 945.2, 214.7)">m</text><text xml:space="preserve" font-family="HelveticaNeue-Thin,Helvetica Neue" font-size="42.0" fill="#FEFFFE" transform="matrix(1.00, 0.00, -0.00, -1.00, 978.7, 214.7)">a</text><text xml:space="preserve" font-family="HelveticaNeue-Thin,Helvetica Neue" font-size="42.0" fill="#FEFFFE" transform="matrix(1.00, 0.00, -0.00, -1.00, 999.7, 214.7)">j</text><text xml:space="preserve" font-family="HelveticaNeue-Thin,Helvetica Neue" font-size="42.0" fill="#FEFFFE" transform="matrix(1.00, 0.00, -0.00, -1.00, 1006.7, 214.7)">o</text><text xml:space="preserve" font-family="HelveticaNeue-Thin,Helvetica Neue" font-size="42.0" fill="#FEFFFE" transform="matrix(1.00, 0.00, -0.00, -1.00, 1029.3, 214.7)">r</text></g></svg>